%TF.GenerationSoftware,KiCad,Pcbnew,6.0.11-3.fc37*%
%TF.CreationDate,2023-03-29T00:48:19+01:00*%
%TF.ProjectId,nRF,6e52462e-6b69-4636-9164-5f7063625858,1*%
%TF.SameCoordinates,Original*%
%TF.FileFunction,Copper,L2,Bot*%
%TF.FilePolarity,Positive*%
%FSLAX46Y46*%
G04 Gerber Fmt 4.6, Leading zero omitted, Abs format (unit mm)*
G04 Created by KiCad (PCBNEW 6.0.11-3.fc37) date 2023-03-29 00:48:19*
%MOMM*%
%LPD*%
G01*
G04 APERTURE LIST*
%TA.AperFunction,ComponentPad*%
%ADD10C,0.800000*%
%TD*%
%TA.AperFunction,ComponentPad*%
%ADD11C,6.400000*%
%TD*%
%TA.AperFunction,SMDPad,CuDef*%
%ADD12R,0.350000X2.000000*%
%TD*%
%TA.AperFunction,ComponentPad*%
%ADD13C,0.500000*%
%TD*%
%TA.AperFunction,SMDPad,CuDef*%
%ADD14R,1.680000X1.680000*%
%TD*%
%TA.AperFunction,ViaPad*%
%ADD15C,0.600000*%
%TD*%
%TA.AperFunction,Conductor*%
%ADD16C,0.250000*%
%TD*%
%TA.AperFunction,Conductor*%
%ADD17C,0.200000*%
%TD*%
G04 APERTURE END LIST*
D10*
%TO.P,H1,1,1*%
%TO.N,GND*%
X33077944Y-20722056D03*
X37175000Y-19025000D03*
X34775000Y-16625000D03*
X33077944Y-17327944D03*
X32375000Y-19025000D03*
X36472056Y-17327944D03*
D11*
X34775000Y-19025000D03*
D10*
X36472056Y-20722056D03*
X34775000Y-21425000D03*
%TD*%
D12*
%TO.P,M1,2,RESET1*%
%TO.N,reset*%
X43775000Y-47475000D03*
%TO.P,M1,4,RESET2*%
%TO.N,GND*%
X43275000Y-47475000D03*
%TO.P,M1,6,VIN*%
%TO.N,+5V*%
X42775000Y-47475000D03*
%TO.P,M1,8,GND*%
%TO.N,GND*%
X42275000Y-47475000D03*
%TO.P,M1,10,VOUT*%
%TO.N,vddh*%
X41775000Y-47475000D03*
%TO.P,M1,12,NC*%
%TO.N,unconnected-(M1-Pad12)*%
X41275000Y-47475000D03*
%TO.P,M1,14,D+*%
%TO.N,USB-D+*%
X40775000Y-47475000D03*
%TO.P,M1,16,D-*%
%TO.N,USB-D-*%
X40275000Y-47475000D03*
%TO.P,M1,18,DEBUG1*%
%TO.N,swdio*%
X39775000Y-47475000D03*
%TO.P,M1,20,DEBUG2*%
%TO.N,swdclk*%
X39275000Y-47475000D03*
%TO.P,M1,22,DEBUG3*%
%TO.N,unconnected-(M1-Pad22)*%
X38775000Y-47475000D03*
%TO.P,M1,32,P0*%
%TO.N,P17*%
X36275000Y-47475000D03*
%TO.P,M1,34,P1*%
%TO.N,P18*%
X35775000Y-47475000D03*
%TO.P,M1,36,P2*%
%TO.N,P19*%
X35275000Y-47475000D03*
%TO.P,M1,38,P3*%
%TO.N,P20*%
X34775000Y-47475000D03*
%TO.P,M1,40,P4*%
%TO.N,P37*%
X34275000Y-47475000D03*
%TO.P,M1,42,P5*%
%TO.N,P21*%
X33775000Y-47475000D03*
%TO.P,M1,44,P6*%
%TO.N,P38*%
X33275000Y-47475000D03*
%TO.P,M1,46,P7*%
%TO.N,P22*%
X32775000Y-47475000D03*
%TO.P,M1,48,P8*%
%TO.N,P39*%
X32275000Y-47475000D03*
%TO.P,M1,50,P9*%
%TO.N,P23*%
X31775000Y-47475000D03*
%TO.P,M1,52,P10*%
%TO.N,P24*%
X31275000Y-47475000D03*
%TO.P,M1,54,P11*%
%TO.N,P25*%
X30775000Y-47475000D03*
%TO.P,M1,56,P12*%
%TO.N,P26*%
X30275000Y-47475000D03*
%TO.P,M1,58,P13*%
%TO.N,P27*%
X29775000Y-47475000D03*
%TO.P,M1,60,NC*%
%TO.N,unconnected-(M1-Pad60)*%
X29275000Y-47475000D03*
%TO.P,M1,62,NC*%
%TO.N,unconnected-(M1-Pad62)*%
X28775000Y-47475000D03*
%TO.P,M1,64,NC*%
%TO.N,unconnected-(M1-Pad64)*%
X28275000Y-47475000D03*
%TO.P,M1,66,NC*%
%TO.N,unconnected-(M1-Pad66)*%
X27775000Y-47475000D03*
%TO.P,M1,68,NC*%
%TO.N,unconnected-(M1-Pad68)*%
X27275000Y-47475000D03*
%TO.P,M1,70,NC*%
%TO.N,unconnected-(M1-Pad70)*%
X26775000Y-47475000D03*
%TO.P,M1,72,NC*%
%TO.N,unconnected-(M1-Pad72)*%
X26275000Y-47475000D03*
%TO.P,M1,74,NC*%
%TO.N,unconnected-(M1-Pad74)*%
X25775000Y-47475000D03*
%TD*%
D13*
%TO.P,U2,17,TH*%
%TO.N,GND*%
X42705000Y-38435000D03*
X42705000Y-39615000D03*
X41525000Y-39615000D03*
D14*
X42115000Y-39025000D03*
D13*
X41525000Y-38435000D03*
%TD*%
D15*
%TO.N,+5V*%
X38250000Y-26875000D03*
X43950000Y-27600000D03*
X44025000Y-37050000D03*
%TO.N,vddh*%
X36025000Y-34850000D03*
X40857164Y-41180313D03*
X44455000Y-38565000D03*
X36625000Y-39975000D03*
%TO.N,GND*%
X30300000Y-23125000D03*
X44798776Y-36848818D03*
X24295000Y-40065000D03*
X44475000Y-25025000D03*
X24525000Y-27655000D03*
X38075000Y-42454500D03*
X37675000Y-30985000D03*
X40425000Y-34675000D03*
X44745000Y-29455000D03*
X42225000Y-19950000D03*
X40785051Y-40369248D03*
X39500000Y-43700000D03*
X40200000Y-23975000D03*
X44865000Y-35195000D03*
X37650000Y-35350000D03*
X42645000Y-31475000D03*
X43130980Y-41183061D03*
X43406089Y-44706089D03*
%TO.N,reset*%
X33225000Y-24325000D03*
%TO.N,USB-D+*%
X35926801Y-29463199D03*
%TO.N,USB-D-*%
X36563199Y-28826801D03*
%TO.N,swdio*%
X36875500Y-28061659D03*
%TO.N,swdclk*%
X36775000Y-29605000D03*
%TO.N,TMR*%
X42745498Y-34205000D03*
X41174430Y-28085803D03*
%TO.N,ITERM*%
X42035000Y-35045000D03*
X40375000Y-28075000D03*
%TO.N,P17*%
X39075000Y-25275000D03*
%TO.N,P18*%
X36825000Y-24325000D03*
%TO.N,P19*%
X35625000Y-24325000D03*
%TO.N,P20*%
X34450000Y-24325000D03*
%TO.N,P21*%
X32025000Y-24275000D03*
%TO.N,P22*%
X30825000Y-24275000D03*
%TO.N,P23*%
X29625000Y-24300000D03*
%TO.N,P24*%
X28425000Y-24325000D03*
%TO.N,P25*%
X27225000Y-24325000D03*
%TO.N,P26*%
X26025000Y-24325000D03*
%TO.N,P27*%
X24825000Y-24325000D03*
%TO.N,P28*%
X25552622Y-35162186D03*
X24951089Y-39298911D03*
%TO.N,P29*%
X25952142Y-34461205D03*
X25232721Y-40145549D03*
%TO.N,P30*%
X26351673Y-33760144D03*
X25452694Y-40930528D03*
%TO.N,P31*%
X26751193Y-32960648D03*
X25658514Y-41703084D03*
%TO.N,P37*%
X32289521Y-27764521D03*
%TO.N,P38*%
X30833549Y-27831834D03*
%TO.N,P39*%
X29947336Y-28677965D03*
%TO.N,P42*%
X27550221Y-31475000D03*
X27750000Y-43270660D03*
%TO.N,P43*%
X27150701Y-32217093D03*
X26926252Y-42871139D03*
%TD*%
D16*
%TO.N,+5V*%
X45079511Y-39025229D02*
X45079511Y-38104511D01*
X43950000Y-36975000D02*
X44025000Y-37050000D01*
X43835000Y-40269740D02*
X45079511Y-39025229D01*
X43950000Y-27600000D02*
X43225000Y-26875000D01*
X43225000Y-26875000D02*
X38250000Y-26875000D01*
X43835000Y-41715000D02*
X43835000Y-40269740D01*
X45079511Y-38104511D02*
X44025000Y-37050000D01*
X43950000Y-27600000D02*
X43950000Y-36975000D01*
X42775000Y-47475000D02*
X42775000Y-42775000D01*
X42775000Y-42775000D02*
X43835000Y-41715000D01*
%TO.N,vddh*%
X36625000Y-39975000D02*
X36025000Y-39375000D01*
X41637477Y-40400000D02*
X40857164Y-41180313D01*
X39475000Y-39975000D02*
X40680313Y-41180313D01*
X40680313Y-41180313D02*
X40857164Y-41180313D01*
X36625000Y-39975000D02*
X39475000Y-39975000D01*
X41775000Y-47475000D02*
X41775000Y-42098149D01*
X41775000Y-42098149D02*
X40857164Y-41180313D01*
X44455000Y-39014022D02*
X43069022Y-40400000D01*
X44455000Y-38565000D02*
X44455000Y-39014022D01*
X43069022Y-40400000D02*
X41637477Y-40400000D01*
X36025000Y-39375000D02*
X36025000Y-34850000D01*
D17*
%TO.N,GND*%
X24295000Y-40065000D02*
X24125489Y-39895489D01*
X24125489Y-37474511D02*
X24345000Y-37255000D01*
X24425480Y-27555480D02*
X24525000Y-27655000D01*
D16*
X38254500Y-42454500D02*
X38075000Y-42454500D01*
D17*
X24125489Y-39895489D02*
X24125489Y-37474511D01*
D16*
X42275000Y-47475000D02*
X42275000Y-42039041D01*
D17*
X24425480Y-26250480D02*
X24425480Y-27555480D01*
D16*
X43275000Y-47475000D02*
X43275000Y-44765000D01*
D17*
X24125000Y-25950000D02*
X24425480Y-26250480D01*
D16*
X42275000Y-42039041D02*
X43130980Y-41183061D01*
X39500000Y-43700000D02*
X38254500Y-42454500D01*
D17*
X24125000Y-23855000D02*
X24125000Y-25950000D01*
%TO.N,reset*%
X44265000Y-44695000D02*
X44265000Y-40440102D01*
X41460480Y-26450480D02*
X43648318Y-26450480D01*
X44265000Y-40440102D02*
X45505000Y-39200102D01*
X43775000Y-45185000D02*
X44265000Y-44695000D01*
X43775000Y-47475000D02*
X43775000Y-45185000D01*
X38735489Y-23725489D02*
X41460480Y-26450480D01*
X33824511Y-23725489D02*
X38735489Y-23725489D01*
X33225000Y-24325000D02*
X33824511Y-23725489D01*
X43648318Y-26450480D02*
X45505000Y-28307162D01*
X45505000Y-28307162D02*
X45505000Y-39200102D01*
%TO.N,USB-D+*%
X35042031Y-35643689D02*
X35042031Y-30068898D01*
X35042031Y-30068898D02*
X35647730Y-29463199D01*
X40775000Y-42781446D02*
X39348554Y-41355000D01*
X40775000Y-47475000D02*
X40775000Y-42781446D01*
X36772156Y-41354974D02*
X35495989Y-40078807D01*
X39348554Y-41355000D02*
X36772156Y-41355000D01*
X35495989Y-40078807D02*
X35495989Y-36097647D01*
X35647730Y-29463199D02*
X35926801Y-29463199D01*
X36772156Y-41355000D02*
X36772156Y-41354974D01*
X35495989Y-36097647D02*
X35042031Y-35643689D01*
%TO.N,USB-D-*%
X34995989Y-36304755D02*
X34542031Y-35850797D01*
X34542031Y-35850797D02*
X34542031Y-29861790D01*
X34542031Y-29861790D02*
X35577020Y-28826801D01*
X40275000Y-42988554D02*
X39141446Y-41855000D01*
X40275000Y-47475000D02*
X40275000Y-42988554D01*
X35577020Y-28826801D02*
X36563199Y-28826801D01*
X36565074Y-41855000D02*
X34995989Y-40285915D01*
X39141446Y-41855000D02*
X36565074Y-41855000D01*
X34995989Y-40285915D02*
X34995989Y-36304755D01*
%TO.N,swdio*%
X39775000Y-47475000D02*
X39775000Y-45115000D01*
X36914519Y-42254519D02*
X36394795Y-42254519D01*
X35665235Y-28061659D02*
X36875500Y-28061659D01*
X36394795Y-42254519D02*
X34142512Y-40002236D01*
X39775000Y-45115000D02*
X36914519Y-42254519D01*
X34142511Y-40002236D02*
X34142512Y-29584383D01*
X34142511Y-29584383D02*
X35665235Y-28061659D01*
%TO.N,swdclk*%
X35499749Y-27662139D02*
X36427182Y-27662139D01*
X37475000Y-28905000D02*
X36775000Y-29605000D01*
X37123827Y-27462148D02*
X37475000Y-27813321D01*
X36427182Y-27662139D02*
X36627173Y-27462148D01*
X33742992Y-29418896D02*
X35499749Y-27662139D01*
X36749032Y-42654038D02*
X36229309Y-42654039D01*
X33742992Y-40167722D02*
X33742992Y-29418896D01*
X36627173Y-27462148D02*
X37123827Y-27462148D01*
X37475000Y-27813321D02*
X37475000Y-28905000D01*
X39275000Y-46475000D02*
X39275000Y-45180006D01*
X36229309Y-42654039D02*
X33742992Y-40167722D01*
X39275000Y-45180006D02*
X36749032Y-42654038D01*
%TO.N,TMR*%
X41760006Y-34205000D02*
X40914520Y-33359514D01*
X42745498Y-34205000D02*
X41760006Y-34205000D01*
X40914520Y-33359514D02*
X40914520Y-28345713D01*
X40914520Y-28345713D02*
X41174430Y-28085803D01*
%TO.N,ITERM*%
X40515000Y-33525000D02*
X40515000Y-28215000D01*
X42035000Y-35045000D02*
X40515000Y-33525000D01*
X40515000Y-28215000D02*
X40375000Y-28075000D01*
%TO.N,P17*%
X33343472Y-29253410D02*
X37321882Y-25275000D01*
X36275000Y-43264736D02*
X33343472Y-40333208D01*
X36275000Y-46475000D02*
X36275000Y-43264736D01*
X37321882Y-25275000D02*
X39075000Y-25275000D01*
X33343472Y-40333208D02*
X33343472Y-29253410D01*
%TO.N,P18*%
X35775000Y-43329742D02*
X35775000Y-46475000D01*
X32943952Y-40498694D02*
X35775000Y-43329742D01*
X36825000Y-25206876D02*
X32943952Y-29087924D01*
X36825000Y-24325000D02*
X36825000Y-25206876D01*
X32943952Y-29087924D02*
X32943953Y-40498694D01*
%TO.N,P19*%
X35625000Y-24325000D02*
X35625000Y-25841870D01*
X32544432Y-40664180D02*
X35275000Y-43394748D01*
X32544432Y-28922439D02*
X32544433Y-40664180D01*
X35275000Y-43394748D02*
X35275000Y-46475000D01*
X35625000Y-25841870D02*
X32544432Y-28922439D01*
%TO.N,P20*%
X34775000Y-46475000D02*
X34775000Y-43459754D01*
X34775000Y-43459754D02*
X32144914Y-40829668D01*
X34450000Y-26451864D02*
X34450000Y-24325000D01*
X32144914Y-28756950D02*
X34450000Y-26451864D01*
X32144914Y-40829668D02*
X32144914Y-28756950D01*
%TO.N,P21*%
X31345876Y-28143160D02*
X31345876Y-41160642D01*
X31465010Y-28024026D02*
X31345876Y-28143160D01*
X32025000Y-27175000D02*
X32028102Y-27178102D01*
X33775000Y-43589766D02*
X33775000Y-46475000D01*
X32028102Y-27178102D02*
X31465010Y-27741194D01*
X31345876Y-41160642D02*
X33775000Y-43589766D01*
X32025000Y-24275000D02*
X32025000Y-27175000D01*
X31465010Y-27741194D02*
X31465010Y-28024026D01*
%TO.N,P22*%
X30546836Y-28392959D02*
X30546836Y-41491614D01*
X30234038Y-28080161D02*
X30546836Y-28392959D01*
X30825000Y-24275000D02*
X30825000Y-26992545D01*
X30234038Y-27583507D02*
X30234038Y-28080161D01*
X32775000Y-43719778D02*
X32775000Y-46475000D01*
X30825000Y-26992545D02*
X30234038Y-27583507D01*
X30546836Y-41491614D02*
X32775000Y-43719778D01*
%TO.N,P23*%
X29625000Y-28125000D02*
X29347825Y-28402175D01*
X29747799Y-41822589D02*
X31775000Y-43849790D01*
X31775000Y-43849790D02*
X31775000Y-46475000D01*
X29625000Y-24300000D02*
X29625000Y-28125000D01*
X29347825Y-28402175D02*
X29347825Y-28926292D01*
X29747799Y-29326266D02*
X29747799Y-41822589D01*
X29347825Y-28926292D02*
X29747799Y-29326266D01*
%TO.N,P24*%
X31275000Y-43914796D02*
X31275000Y-46475000D01*
X28425000Y-28568473D02*
X29348279Y-29491752D01*
X28425000Y-24325000D02*
X28425000Y-28568473D01*
X29348279Y-29491752D02*
X29348279Y-41988075D01*
X29348279Y-41988075D02*
X31275000Y-43914796D01*
%TO.N,P25*%
X27225000Y-24325000D02*
X27225000Y-27933478D01*
X27225000Y-27933478D02*
X28948760Y-29657239D01*
X30775000Y-43979802D02*
X28948760Y-42153562D01*
X30775000Y-46475000D02*
X30775000Y-43979802D01*
X28948760Y-42153562D02*
X28948760Y-29657239D01*
%TO.N,P26*%
X26025000Y-27298484D02*
X26025000Y-24325000D01*
X30275000Y-46475000D02*
X30275000Y-44044808D01*
X28549241Y-29822725D02*
X26025000Y-27298484D01*
X30275000Y-44044808D02*
X28549240Y-42319048D01*
X28549240Y-42319048D02*
X28549241Y-29822725D01*
%TO.N,P27*%
X28149721Y-42484535D02*
X28149721Y-29988211D01*
X29775000Y-46475000D02*
X29775000Y-44109814D01*
X28149721Y-29988211D02*
X24825000Y-26663490D01*
X29775000Y-44109814D02*
X28149721Y-42484535D01*
X24825000Y-26663490D02*
X24825000Y-24325000D01*
%TO.N,P28*%
X25752602Y-38497398D02*
X25752602Y-35362166D01*
X25752602Y-35362166D02*
X25552622Y-35162186D01*
X24951089Y-39298911D02*
X25752602Y-38497398D01*
%TO.N,P29*%
X26152122Y-39226148D02*
X26152122Y-34661185D01*
X26152122Y-34661185D02*
X25952142Y-34461205D01*
X25232721Y-40145549D02*
X26152122Y-39226148D01*
%TO.N,P30*%
X26551642Y-39831580D02*
X26551642Y-33960113D01*
X26551642Y-33960113D02*
X26351673Y-33760144D01*
X25452694Y-40930528D02*
X26551642Y-39831580D01*
%TO.N,P31*%
X25658514Y-41703084D02*
X26951162Y-40410436D01*
X26951162Y-39199853D02*
X26951173Y-39199842D01*
X26951162Y-40410436D02*
X26951162Y-39199853D01*
X26951173Y-33160628D02*
X26751193Y-32960648D01*
X26951173Y-39199842D02*
X26951173Y-33160628D01*
%TO.N,P37*%
X31745394Y-40995154D02*
X34275000Y-43524760D01*
X34275000Y-43524760D02*
X34275000Y-46475000D01*
X32289521Y-27764521D02*
X31745394Y-28308648D01*
X31745394Y-28308648D02*
X31745394Y-40995154D01*
%TO.N,P38*%
X30946356Y-41326128D02*
X33275000Y-43654772D01*
X30833549Y-27831834D02*
X30946356Y-27944641D01*
X30946356Y-27944641D02*
X30946356Y-41326128D01*
X33275000Y-43654772D02*
X33275000Y-46475000D01*
%TO.N,P39*%
X30147319Y-41657103D02*
X32275000Y-43784784D01*
X30147318Y-28877947D02*
X30147319Y-41657103D01*
X29947336Y-28677965D02*
X30147318Y-28877947D01*
X32275000Y-43784784D02*
X32275000Y-46475000D01*
%TO.N,P42*%
X27750000Y-42612397D02*
X27750201Y-42612196D01*
X27750000Y-43270660D02*
X27750000Y-42612397D01*
X27750201Y-42612196D02*
X27750201Y-31674980D01*
X27750201Y-31674980D02*
X27550221Y-31475000D01*
%TO.N,P43*%
X26926252Y-42871139D02*
X27350693Y-42446698D01*
X27350693Y-32417085D02*
X27150701Y-32217093D01*
X27350693Y-42446698D02*
X27350693Y-32417085D01*
%TD*%
%TA.AperFunction,Conductor*%
%TO.N,GND*%
G36*
X24356671Y-39670335D02*
G01*
X24416919Y-39759994D01*
X24524724Y-39858089D01*
X24555038Y-39911235D01*
X24551092Y-39958259D01*
X24552897Y-39958722D01*
X24551413Y-39964502D01*
X24549245Y-39970062D01*
X24548466Y-39975977D01*
X24548466Y-39975978D01*
X24547614Y-39982449D01*
X24527115Y-40138160D01*
X24527770Y-40144093D01*
X24527770Y-40144097D01*
X24544430Y-40295001D01*
X24545720Y-40306684D01*
X24603987Y-40465905D01*
X24607312Y-40470854D01*
X24607313Y-40470855D01*
X24613154Y-40479547D01*
X24698551Y-40606632D01*
X24702966Y-40610649D01*
X24743239Y-40647295D01*
X24773554Y-40700442D01*
X24772501Y-40745137D01*
X24771386Y-40749482D01*
X24769218Y-40755041D01*
X24747088Y-40923139D01*
X24747743Y-40929072D01*
X24747743Y-40929076D01*
X24765038Y-41085732D01*
X24765693Y-41091663D01*
X24823960Y-41250884D01*
X24918524Y-41391611D01*
X24949155Y-41419484D01*
X24979469Y-41472629D01*
X24978416Y-41517326D01*
X24977207Y-41522033D01*
X24975038Y-41527597D01*
X24974259Y-41533514D01*
X24974258Y-41533518D01*
X24963973Y-41611646D01*
X24952908Y-41695695D01*
X24953563Y-41701628D01*
X24953563Y-41701632D01*
X24965609Y-41810742D01*
X24971513Y-41864219D01*
X25029780Y-42023440D01*
X25033105Y-42028389D01*
X25033106Y-42028390D01*
X25075120Y-42090913D01*
X25124344Y-42164167D01*
X25249747Y-42278275D01*
X25398749Y-42359176D01*
X25433703Y-42368346D01*
X25556978Y-42400687D01*
X25556982Y-42400688D01*
X25562747Y-42402200D01*
X25568708Y-42402294D01*
X25568711Y-42402294D01*
X25647510Y-42403531D01*
X25732274Y-42404863D01*
X25738089Y-42403531D01*
X25738091Y-42403531D01*
X25891720Y-42368346D01*
X25891723Y-42368345D01*
X25897543Y-42367012D01*
X25913124Y-42359176D01*
X26043679Y-42293513D01*
X26049012Y-42290831D01*
X26053549Y-42286956D01*
X26053552Y-42286954D01*
X26173402Y-42184592D01*
X26173405Y-42184589D01*
X26177937Y-42180718D01*
X26185498Y-42170196D01*
X26273391Y-42047880D01*
X26273392Y-42047878D01*
X26276875Y-42043031D01*
X26291431Y-42006824D01*
X26337891Y-41891251D01*
X26337892Y-41891249D01*
X26340115Y-41885718D01*
X26341010Y-41879429D01*
X26361417Y-41736042D01*
X26389425Y-41679987D01*
X26681189Y-41388223D01*
X26735706Y-41360446D01*
X26796138Y-41370017D01*
X26839403Y-41413282D01*
X26850193Y-41458227D01*
X26850193Y-42090913D01*
X26831286Y-42149104D01*
X26781786Y-42185068D01*
X26774305Y-42187177D01*
X26686094Y-42208355D01*
X26686086Y-42208358D01*
X26680284Y-42209751D01*
X26604953Y-42248632D01*
X26534927Y-42284775D01*
X26534925Y-42284777D01*
X26529621Y-42287514D01*
X26401856Y-42398970D01*
X26398425Y-42403852D01*
X26398424Y-42403853D01*
X26307796Y-42532804D01*
X26304365Y-42537686D01*
X26242776Y-42695652D01*
X26220646Y-42863750D01*
X26221301Y-42869683D01*
X26221301Y-42869687D01*
X26238596Y-43026343D01*
X26239251Y-43032274D01*
X26297518Y-43191495D01*
X26300843Y-43196444D01*
X26300844Y-43196445D01*
X26343390Y-43259761D01*
X26392082Y-43332222D01*
X26517485Y-43446330D01*
X26666487Y-43527231D01*
X26689137Y-43533173D01*
X26824716Y-43568742D01*
X26824720Y-43568743D01*
X26830485Y-43570255D01*
X26836446Y-43570349D01*
X26836449Y-43570349D01*
X26915217Y-43571586D01*
X27000012Y-43572918D01*
X27028231Y-43566455D01*
X27089173Y-43571894D01*
X27132503Y-43607739D01*
X27137689Y-43615456D01*
X27215830Y-43731743D01*
X27341233Y-43845851D01*
X27490235Y-43926752D01*
X27525189Y-43935922D01*
X27648464Y-43968263D01*
X27648468Y-43968264D01*
X27654233Y-43969776D01*
X27660194Y-43969870D01*
X27660197Y-43969870D01*
X27738965Y-43971107D01*
X27823760Y-43972439D01*
X27829575Y-43971107D01*
X27829577Y-43971107D01*
X27983206Y-43935922D01*
X27983209Y-43935921D01*
X27989029Y-43934588D01*
X28004610Y-43926752D01*
X28135165Y-43861089D01*
X28140498Y-43858407D01*
X28145035Y-43854532D01*
X28145038Y-43854530D01*
X28264888Y-43752168D01*
X28264891Y-43752165D01*
X28269423Y-43748294D01*
X28284875Y-43726790D01*
X28364877Y-43615456D01*
X28364878Y-43615454D01*
X28368361Y-43610607D01*
X28370587Y-43605069D01*
X28373463Y-43599838D01*
X28375143Y-43600762D01*
X28408953Y-43560328D01*
X28468296Y-43545424D01*
X28525065Y-43568248D01*
X28531563Y-43574191D01*
X29245504Y-44288132D01*
X29273281Y-44342649D01*
X29274500Y-44358136D01*
X29274500Y-45975501D01*
X29255593Y-46033692D01*
X29206093Y-46069656D01*
X29175500Y-46074501D01*
X29068482Y-46074501D01*
X29059918Y-46075857D01*
X29040488Y-46078934D01*
X29009517Y-46078934D01*
X28985368Y-46075109D01*
X28985360Y-46075108D01*
X28981519Y-46074500D01*
X28775027Y-46074500D01*
X28568482Y-46074501D01*
X28559918Y-46075857D01*
X28540488Y-46078934D01*
X28509517Y-46078934D01*
X28485368Y-46075109D01*
X28485360Y-46075108D01*
X28481519Y-46074500D01*
X28275027Y-46074500D01*
X28068482Y-46074501D01*
X28059918Y-46075857D01*
X28040488Y-46078934D01*
X28009517Y-46078934D01*
X27985368Y-46075109D01*
X27985360Y-46075108D01*
X27981519Y-46074500D01*
X27775027Y-46074500D01*
X27568482Y-46074501D01*
X27559918Y-46075857D01*
X27540488Y-46078934D01*
X27509517Y-46078934D01*
X27485368Y-46075109D01*
X27485360Y-46075108D01*
X27481519Y-46074500D01*
X27275027Y-46074500D01*
X27068482Y-46074501D01*
X27059918Y-46075857D01*
X27040488Y-46078934D01*
X27009517Y-46078934D01*
X26985368Y-46075109D01*
X26985360Y-46075108D01*
X26981519Y-46074500D01*
X26775027Y-46074500D01*
X26568482Y-46074501D01*
X26559918Y-46075857D01*
X26540488Y-46078934D01*
X26509517Y-46078934D01*
X26485368Y-46075109D01*
X26485360Y-46075108D01*
X26481519Y-46074500D01*
X26275027Y-46074500D01*
X26068482Y-46074501D01*
X26059918Y-46075857D01*
X26040488Y-46078934D01*
X26009517Y-46078934D01*
X25985368Y-46075109D01*
X25985360Y-46075108D01*
X25981519Y-46074500D01*
X25775027Y-46074500D01*
X25568482Y-46074501D01*
X25564639Y-46075110D01*
X25564634Y-46075110D01*
X25527783Y-46080947D01*
X25474696Y-46089354D01*
X25419445Y-46117506D01*
X25359013Y-46127077D01*
X25304497Y-46099300D01*
X25276719Y-46044783D01*
X25275500Y-46029296D01*
X25275500Y-45564309D01*
X25276719Y-45548822D01*
X25279273Y-45532695D01*
X25280492Y-45525000D01*
X25279274Y-45517308D01*
X25279274Y-45517303D01*
X25279268Y-45517267D01*
X25278526Y-45511485D01*
X25270336Y-45428328D01*
X25262470Y-45348471D01*
X25260042Y-45340467D01*
X25212392Y-45183382D01*
X25212390Y-45183376D01*
X25210979Y-45178726D01*
X25127361Y-45022288D01*
X25123745Y-45017881D01*
X25017920Y-44888933D01*
X25014831Y-44885169D01*
X24912134Y-44800888D01*
X24881469Y-44775722D01*
X24881467Y-44775721D01*
X24877712Y-44772639D01*
X24784500Y-44722816D01*
X24725566Y-44691315D01*
X24725565Y-44691315D01*
X24721274Y-44689021D01*
X24716624Y-44687610D01*
X24716618Y-44687608D01*
X24556185Y-44638942D01*
X24556181Y-44638941D01*
X24551529Y-44637530D01*
X24388509Y-44621473D01*
X24382733Y-44620732D01*
X24382697Y-44620726D01*
X24382692Y-44620726D01*
X24375000Y-44619508D01*
X24351178Y-44623281D01*
X24335691Y-44624500D01*
X24274500Y-44624500D01*
X24216309Y-44605593D01*
X24180345Y-44556093D01*
X24175500Y-44525500D01*
X24175500Y-39725552D01*
X24194407Y-39667361D01*
X24243907Y-39631397D01*
X24305093Y-39631397D01*
X24356671Y-39670335D01*
G37*
%TD.AperFunction*%
%TA.AperFunction,Conductor*%
G36*
X43710445Y-42679467D02*
G01*
X43753710Y-42722732D01*
X43764500Y-42767677D01*
X43764500Y-44446678D01*
X43745593Y-44504869D01*
X43735504Y-44516682D01*
X43469504Y-44782682D01*
X43414987Y-44810459D01*
X43354555Y-44800888D01*
X43311290Y-44757623D01*
X43300500Y-44712678D01*
X43300500Y-43033676D01*
X43319407Y-42975485D01*
X43329497Y-42963672D01*
X43595497Y-42697673D01*
X43650013Y-42669896D01*
X43710445Y-42679467D01*
G37*
%TD.AperFunction*%
%TA.AperFunction,Conductor*%
G36*
X38951315Y-42374407D02*
G01*
X38963128Y-42384496D01*
X39745504Y-43166872D01*
X39773281Y-43221389D01*
X39774500Y-43236876D01*
X39774500Y-44167678D01*
X39755593Y-44225869D01*
X39706093Y-44261833D01*
X39644907Y-44261833D01*
X39605496Y-44237682D01*
X37892318Y-42524504D01*
X37864541Y-42469987D01*
X37874112Y-42409555D01*
X37917377Y-42366290D01*
X37962322Y-42355500D01*
X38893124Y-42355500D01*
X38951315Y-42374407D01*
G37*
%TD.AperFunction*%
%TA.AperFunction,Conductor*%
G36*
X43257281Y-40923735D02*
G01*
X43299631Y-40967895D01*
X43309500Y-41010985D01*
X43309500Y-41456323D01*
X43290593Y-41514514D01*
X43280504Y-41526327D01*
X42469504Y-42337327D01*
X42414987Y-42365104D01*
X42354555Y-42355533D01*
X42311290Y-42312268D01*
X42300500Y-42267323D01*
X42300500Y-42112026D01*
X42300587Y-42107880D01*
X42302804Y-42054978D01*
X42303087Y-42048230D01*
X42293373Y-42006811D01*
X42291675Y-41997653D01*
X42286817Y-41962188D01*
X42286817Y-41962187D01*
X42285901Y-41955503D01*
X42279444Y-41940582D01*
X42273921Y-41923884D01*
X42270209Y-41908056D01*
X42249713Y-41870774D01*
X42245618Y-41862415D01*
X42231402Y-41829562D01*
X42231399Y-41829558D01*
X42228720Y-41823366D01*
X42224473Y-41818122D01*
X42224471Y-41818118D01*
X42218497Y-41810742D01*
X42208676Y-41796127D01*
X42203348Y-41786434D01*
X42203344Y-41786429D01*
X42200847Y-41781886D01*
X42194164Y-41774144D01*
X42169950Y-41749930D01*
X42163023Y-41742237D01*
X42138112Y-41711474D01*
X42132607Y-41707562D01*
X42132605Y-41707560D01*
X42122018Y-41700036D01*
X42109362Y-41689342D01*
X41670337Y-41250317D01*
X41642560Y-41195800D01*
X41652131Y-41135368D01*
X41670337Y-41110309D01*
X41826150Y-40954496D01*
X41880667Y-40926719D01*
X41896154Y-40925500D01*
X43055145Y-40925500D01*
X43059291Y-40925587D01*
X43118941Y-40928087D01*
X43125513Y-40926546D01*
X43125519Y-40926545D01*
X43160355Y-40918374D01*
X43169523Y-40916674D01*
X43197064Y-40912901D01*
X43257281Y-40923735D01*
G37*
%TD.AperFunction*%
%TA.AperFunction,Conductor*%
G36*
X39876647Y-27419407D02*
G01*
X39912611Y-27468907D01*
X39912611Y-27530093D01*
X39883536Y-27574102D01*
X39850604Y-27602831D01*
X39847173Y-27607713D01*
X39847172Y-27607714D01*
X39763924Y-27726164D01*
X39753113Y-27741547D01*
X39739142Y-27777381D01*
X39703255Y-27869426D01*
X39691524Y-27899513D01*
X39690745Y-27905428D01*
X39690745Y-27905429D01*
X39688379Y-27923405D01*
X39669394Y-28067611D01*
X39670049Y-28073544D01*
X39670049Y-28073548D01*
X39675644Y-28124226D01*
X39687999Y-28236135D01*
X39746266Y-28395356D01*
X39840830Y-28536083D01*
X39966233Y-28650191D01*
X39971474Y-28653037D01*
X39972852Y-28654016D01*
X40009330Y-28703138D01*
X40014500Y-28734711D01*
X40014500Y-33457834D01*
X40013081Y-33470535D01*
X40013103Y-33470537D01*
X40012537Y-33477569D01*
X40010981Y-33484447D01*
X40014155Y-33535607D01*
X40014310Y-33538102D01*
X40014500Y-33544233D01*
X40014500Y-33560940D01*
X40014999Y-33564427D01*
X40015000Y-33564435D01*
X40016101Y-33572121D01*
X40016911Y-33580024D01*
X40019307Y-33618636D01*
X40019859Y-33627538D01*
X40022252Y-33634167D01*
X40022253Y-33634171D01*
X40023342Y-33637187D01*
X40028223Y-33656763D01*
X40029677Y-33666918D01*
X40032596Y-33673337D01*
X40032597Y-33673342D01*
X40049381Y-33710257D01*
X40052377Y-33717615D01*
X40068540Y-33762387D01*
X40074592Y-33770672D01*
X40084768Y-33788086D01*
X40089016Y-33797428D01*
X40093621Y-33802772D01*
X40120093Y-33833495D01*
X40125033Y-33839716D01*
X40133522Y-33851336D01*
X40144986Y-33862800D01*
X40149981Y-33868181D01*
X40155721Y-33874842D01*
X40182600Y-33906037D01*
X40188520Y-33909874D01*
X40189811Y-33910711D01*
X40205968Y-33923782D01*
X41306002Y-35023816D01*
X41334400Y-35082956D01*
X41346748Y-35194800D01*
X41347999Y-35206135D01*
X41406266Y-35365356D01*
X41409591Y-35370305D01*
X41409592Y-35370306D01*
X41422689Y-35389796D01*
X41500830Y-35506083D01*
X41626233Y-35620191D01*
X41775235Y-35701092D01*
X41810189Y-35710262D01*
X41933464Y-35742603D01*
X41933468Y-35742604D01*
X41939233Y-35744116D01*
X41945194Y-35744210D01*
X41945197Y-35744210D01*
X42023965Y-35745447D01*
X42108760Y-35746779D01*
X42114575Y-35745447D01*
X42114577Y-35745447D01*
X42268206Y-35710262D01*
X42268209Y-35710261D01*
X42274029Y-35708928D01*
X42289610Y-35701092D01*
X42420165Y-35635429D01*
X42425498Y-35632747D01*
X42430035Y-35628872D01*
X42430038Y-35628870D01*
X42549888Y-35526508D01*
X42549891Y-35526505D01*
X42554423Y-35522634D01*
X42653361Y-35384947D01*
X42666985Y-35351058D01*
X42714377Y-35233167D01*
X42714378Y-35233165D01*
X42716601Y-35227634D01*
X42727810Y-35148876D01*
X42740034Y-35062985D01*
X42740034Y-35062979D01*
X42740490Y-35059778D01*
X42740645Y-35045000D01*
X42737111Y-35015800D01*
X42748890Y-34955761D01*
X42793710Y-34914110D01*
X42819316Y-34907032D01*
X42819258Y-34906779D01*
X42868511Y-34895499D01*
X42978704Y-34870262D01*
X42978707Y-34870261D01*
X42984527Y-34868928D01*
X42992779Y-34864778D01*
X43130663Y-34795429D01*
X43135996Y-34792747D01*
X43140537Y-34788869D01*
X43140541Y-34788866D01*
X43261205Y-34685809D01*
X43317732Y-34662394D01*
X43377227Y-34676678D01*
X43416964Y-34723203D01*
X43424500Y-34761089D01*
X43424500Y-36654807D01*
X43408354Y-36705862D01*
X43409365Y-36706404D01*
X43406545Y-36711664D01*
X43403113Y-36716547D01*
X43341524Y-36874513D01*
X43319394Y-37042611D01*
X43320049Y-37048544D01*
X43320049Y-37048548D01*
X43330309Y-37141479D01*
X43337999Y-37211135D01*
X43396266Y-37370356D01*
X43490830Y-37511083D01*
X43616233Y-37625191D01*
X43765235Y-37706092D01*
X43855465Y-37729763D01*
X43923465Y-37747603D01*
X43923467Y-37747603D01*
X43929233Y-37749116D01*
X43941674Y-37749311D01*
X43999561Y-37769128D01*
X44010126Y-37778295D01*
X44066452Y-37834621D01*
X44094229Y-37889138D01*
X44084658Y-37949570D01*
X44057498Y-37980377D01*
X44058369Y-37981375D01*
X43930604Y-38092831D01*
X43833113Y-38231547D01*
X43830945Y-38237108D01*
X43793511Y-38333121D01*
X43771524Y-38389513D01*
X43749394Y-38557611D01*
X43750049Y-38563544D01*
X43750049Y-38563548D01*
X43766499Y-38712547D01*
X43767999Y-38726135D01*
X43806604Y-38831625D01*
X43808362Y-38836430D01*
X43810605Y-38897574D01*
X43785396Y-38940457D01*
X43495797Y-39230056D01*
X43441280Y-39257833D01*
X43380848Y-39248262D01*
X43367602Y-39240145D01*
X43346757Y-39225000D01*
X43306487Y-39225000D01*
X43295652Y-39228521D01*
X43295652Y-39254435D01*
X43299371Y-39269923D01*
X43275959Y-39326451D01*
X43270680Y-39332163D01*
X42757339Y-39845504D01*
X42702822Y-39873281D01*
X42687335Y-39874500D01*
X42401665Y-39874500D01*
X42343474Y-39855593D01*
X42307510Y-39806093D01*
X42307510Y-39744907D01*
X42331661Y-39705496D01*
X42411071Y-39626086D01*
X42417125Y-39614203D01*
X42416329Y-39609172D01*
X42137073Y-39329916D01*
X42113602Y-39283851D01*
X42095959Y-39326451D01*
X42090680Y-39332163D01*
X41818929Y-39603914D01*
X41812875Y-39615797D01*
X41813671Y-39620828D01*
X41898339Y-39705496D01*
X41926116Y-39760013D01*
X41916545Y-39820445D01*
X41873280Y-39863710D01*
X41828335Y-39874500D01*
X41651345Y-39874500D01*
X41647199Y-39874413D01*
X41639779Y-39874102D01*
X41587558Y-39871913D01*
X41569528Y-39876142D01*
X41508561Y-39871023D01*
X41476919Y-39849762D01*
X40957073Y-39329916D01*
X40929296Y-39275399D01*
X40935783Y-39234439D01*
X40934823Y-39228380D01*
X41423121Y-39228380D01*
X41426125Y-39233282D01*
X41513914Y-39321071D01*
X41525797Y-39327125D01*
X41530828Y-39326329D01*
X41621071Y-39236086D01*
X41622330Y-39233615D01*
X42115652Y-39233615D01*
X42115652Y-39235264D01*
X42115783Y-39234439D01*
X42115652Y-39233615D01*
X41622330Y-39233615D01*
X41624997Y-39228380D01*
X42603121Y-39228380D01*
X42606125Y-39233282D01*
X42693914Y-39321071D01*
X42705797Y-39327125D01*
X42710828Y-39326329D01*
X42801071Y-39236086D01*
X42806035Y-39226343D01*
X42800439Y-39225000D01*
X42613523Y-39225000D01*
X42603121Y-39228380D01*
X41624997Y-39228380D01*
X41626035Y-39226343D01*
X41620439Y-39225000D01*
X41433523Y-39225000D01*
X41423121Y-39228380D01*
X40934823Y-39228380D01*
X40934654Y-39227314D01*
X40933877Y-39226537D01*
X40927475Y-39225000D01*
X40890681Y-39225000D01*
X40877996Y-39229122D01*
X40875001Y-39233243D01*
X40875001Y-39565658D01*
X40874154Y-39578580D01*
X40871042Y-39602221D01*
X40870917Y-39614080D01*
X40874403Y-39645651D01*
X40875001Y-39656515D01*
X40875001Y-39892585D01*
X40875611Y-39900329D01*
X40888616Y-39982449D01*
X40893373Y-39997091D01*
X40943823Y-40096106D01*
X40952865Y-40108551D01*
X40999307Y-40154993D01*
X41027084Y-40209510D01*
X41017513Y-40269942D01*
X40999307Y-40295001D01*
X40843616Y-40450692D01*
X40784993Y-40479032D01*
X40782027Y-40479375D01*
X40776059Y-40479344D01*
X40774567Y-40479702D01*
X40716279Y-40467950D01*
X40694872Y-40451703D01*
X39856399Y-39613230D01*
X39853529Y-39610237D01*
X39817684Y-39571256D01*
X39813116Y-39566288D01*
X39776965Y-39543873D01*
X39769279Y-39538591D01*
X39740770Y-39516951D01*
X39740769Y-39516951D01*
X39735396Y-39512872D01*
X39729125Y-39510389D01*
X39729123Y-39510388D01*
X39720283Y-39506888D01*
X39704558Y-39498979D01*
X39696486Y-39493974D01*
X39696484Y-39493973D01*
X39690750Y-39490418D01*
X39649903Y-39478550D01*
X39641082Y-39475530D01*
X39607806Y-39462356D01*
X39607803Y-39462355D01*
X39601528Y-39459871D01*
X39594815Y-39459165D01*
X39594809Y-39459164D01*
X39585365Y-39458171D01*
X39568096Y-39454783D01*
X39557471Y-39451696D01*
X39557465Y-39451695D01*
X39552488Y-39450249D01*
X39547318Y-39449869D01*
X39547316Y-39449869D01*
X39544089Y-39449632D01*
X39544082Y-39449632D01*
X39542288Y-39449500D01*
X39508046Y-39449500D01*
X39497700Y-39448958D01*
X39458338Y-39444821D01*
X39438869Y-39448114D01*
X39422359Y-39449500D01*
X37125967Y-39449500D01*
X37067776Y-39430593D01*
X37060109Y-39424417D01*
X37027721Y-39395560D01*
X36877881Y-39316224D01*
X36795661Y-39295572D01*
X36719231Y-39276373D01*
X36719228Y-39276373D01*
X36713441Y-39274919D01*
X36707475Y-39274888D01*
X36701549Y-39274139D01*
X36701738Y-39272641D01*
X36650455Y-39255676D01*
X36639067Y-39245898D01*
X36579496Y-39186327D01*
X36551719Y-39131810D01*
X36550500Y-39116323D01*
X36550500Y-38434080D01*
X40870917Y-38434080D01*
X40874402Y-38465644D01*
X40875000Y-38476507D01*
X40875000Y-38809320D01*
X40879122Y-38822005D01*
X40883243Y-38825000D01*
X40923513Y-38825000D01*
X40927646Y-38823657D01*
X41423965Y-38823657D01*
X41429561Y-38825000D01*
X41616477Y-38825000D01*
X41620610Y-38823657D01*
X42603965Y-38823657D01*
X42609561Y-38825000D01*
X42796477Y-38825000D01*
X42806879Y-38821620D01*
X42803875Y-38816718D01*
X42716086Y-38728929D01*
X42704203Y-38722875D01*
X42699172Y-38723671D01*
X42608929Y-38813914D01*
X42603965Y-38823657D01*
X41620610Y-38823657D01*
X41626879Y-38821620D01*
X41623875Y-38816718D01*
X41536086Y-38728929D01*
X41524203Y-38722875D01*
X41519172Y-38723671D01*
X41428929Y-38813914D01*
X41423965Y-38823657D01*
X40927646Y-38823657D01*
X40934348Y-38821479D01*
X40934348Y-38795565D01*
X40930629Y-38780077D01*
X40954041Y-38723549D01*
X40959320Y-38717837D01*
X41241360Y-38435797D01*
X41812875Y-38435797D01*
X41813671Y-38440828D01*
X41903914Y-38531071D01*
X41913657Y-38536035D01*
X41915000Y-38530439D01*
X41915000Y-38526477D01*
X42315000Y-38526477D01*
X42318380Y-38536879D01*
X42323282Y-38533875D01*
X42411071Y-38446086D01*
X42417125Y-38434203D01*
X42416329Y-38429172D01*
X42326086Y-38338929D01*
X42316343Y-38333965D01*
X42315000Y-38339561D01*
X42315000Y-38526477D01*
X41915000Y-38526477D01*
X41915000Y-38343523D01*
X41911620Y-38333121D01*
X41906718Y-38336125D01*
X41818929Y-38423914D01*
X41812875Y-38435797D01*
X41241360Y-38435797D01*
X41810084Y-37867073D01*
X41864601Y-37839296D01*
X41905561Y-37845783D01*
X41912686Y-37844654D01*
X41913463Y-37843877D01*
X41915000Y-37837475D01*
X41915000Y-37833513D01*
X42315000Y-37833513D01*
X42318521Y-37844348D01*
X42344435Y-37844348D01*
X42359923Y-37840629D01*
X42416451Y-37864041D01*
X42422163Y-37869320D01*
X43272927Y-38720084D01*
X43300704Y-38774601D01*
X43294217Y-38815561D01*
X43295346Y-38822686D01*
X43296123Y-38823463D01*
X43302525Y-38825000D01*
X43339319Y-38825000D01*
X43352004Y-38820878D01*
X43354999Y-38816757D01*
X43354999Y-38488259D01*
X43355987Y-38474309D01*
X43359174Y-38451918D01*
X43359664Y-38445482D01*
X43359740Y-38438232D01*
X43359385Y-38431789D01*
X43355716Y-38401469D01*
X43354999Y-38389575D01*
X43354999Y-38157415D01*
X43354389Y-38149671D01*
X43341384Y-38067551D01*
X43336627Y-38052909D01*
X43286177Y-37953894D01*
X43277135Y-37941449D01*
X43198551Y-37862865D01*
X43186106Y-37853823D01*
X43087088Y-37803371D01*
X43072453Y-37798616D01*
X42990327Y-37785609D01*
X42982588Y-37785000D01*
X42713152Y-37785000D01*
X42712634Y-37784999D01*
X42633700Y-37784586D01*
X42626507Y-37785000D01*
X42330680Y-37785000D01*
X42317995Y-37789122D01*
X42315000Y-37793243D01*
X42315000Y-37833513D01*
X41915000Y-37833513D01*
X41915000Y-37800681D01*
X41910878Y-37787996D01*
X41906757Y-37785001D01*
X41533282Y-37785001D01*
X41532763Y-37785000D01*
X41453698Y-37784586D01*
X41446503Y-37785001D01*
X41247415Y-37785001D01*
X41239671Y-37785611D01*
X41157551Y-37798616D01*
X41142909Y-37803373D01*
X41043894Y-37853823D01*
X41031449Y-37862865D01*
X40952865Y-37941449D01*
X40943823Y-37953894D01*
X40893371Y-38052912D01*
X40888616Y-38067547D01*
X40875609Y-38149673D01*
X40875000Y-38157412D01*
X40875000Y-38385665D01*
X40874153Y-38398587D01*
X40871042Y-38422221D01*
X40870917Y-38434080D01*
X36550500Y-38434080D01*
X36550500Y-35351058D01*
X36569104Y-35293288D01*
X36639874Y-35194800D01*
X36639875Y-35194799D01*
X36643361Y-35189947D01*
X36657492Y-35154797D01*
X36704377Y-35038167D01*
X36704378Y-35038165D01*
X36706601Y-35032634D01*
X36708997Y-35015802D01*
X36730034Y-34867985D01*
X36730034Y-34867979D01*
X36730490Y-34864778D01*
X36730645Y-34850000D01*
X36710276Y-34681680D01*
X36650345Y-34523077D01*
X36610914Y-34465704D01*
X36557692Y-34388267D01*
X36554312Y-34383349D01*
X36427721Y-34270560D01*
X36277881Y-34191224D01*
X36170184Y-34164172D01*
X36119231Y-34151373D01*
X36119228Y-34151373D01*
X36113441Y-34149919D01*
X36027841Y-34149471D01*
X35949861Y-34149062D01*
X35949859Y-34149062D01*
X35943895Y-34149031D01*
X35938099Y-34150423D01*
X35938095Y-34150423D01*
X35830703Y-34176207D01*
X35779032Y-34188612D01*
X35721044Y-34218542D01*
X35686937Y-34236146D01*
X35626556Y-34246034D01*
X35571895Y-34218542D01*
X35543832Y-34164172D01*
X35542531Y-34148173D01*
X35542531Y-30317220D01*
X35561438Y-30259029D01*
X35571527Y-30247216D01*
X35652542Y-30166201D01*
X35707059Y-30138424D01*
X35747667Y-30140445D01*
X35823266Y-30160277D01*
X35831034Y-30162315D01*
X35836995Y-30162409D01*
X35836998Y-30162409D01*
X35915766Y-30163646D01*
X36000561Y-30164978D01*
X36006376Y-30163646D01*
X36006378Y-30163646D01*
X36065795Y-30150038D01*
X36165830Y-30127127D01*
X36171163Y-30124445D01*
X36171168Y-30124443D01*
X36196553Y-30111676D01*
X36257034Y-30102422D01*
X36307662Y-30126896D01*
X36351219Y-30166529D01*
X36366233Y-30180191D01*
X36515235Y-30261092D01*
X36550189Y-30270262D01*
X36673464Y-30302603D01*
X36673468Y-30302604D01*
X36679233Y-30304116D01*
X36685194Y-30304210D01*
X36685197Y-30304210D01*
X36763996Y-30305447D01*
X36848760Y-30306779D01*
X36854575Y-30305447D01*
X36854577Y-30305447D01*
X37008206Y-30270262D01*
X37008209Y-30270261D01*
X37014029Y-30268928D01*
X37029610Y-30261092D01*
X37109232Y-30221046D01*
X37165498Y-30192747D01*
X37170035Y-30188872D01*
X37170038Y-30188870D01*
X37289888Y-30086508D01*
X37289891Y-30086505D01*
X37294423Y-30082634D01*
X37393361Y-29944947D01*
X37456601Y-29787634D01*
X37477903Y-29637958D01*
X37505911Y-29581903D01*
X37781419Y-29306395D01*
X37791399Y-29298421D01*
X37791384Y-29298404D01*
X37796754Y-29293834D01*
X37802720Y-29290070D01*
X37807388Y-29284785D01*
X37807391Y-29284782D01*
X37838292Y-29249792D01*
X37842492Y-29245322D01*
X37854320Y-29233494D01*
X37861100Y-29224447D01*
X37866104Y-29218301D01*
X37897623Y-29182612D01*
X37901982Y-29173329D01*
X37912373Y-29156034D01*
X37918526Y-29147824D01*
X37935237Y-29103248D01*
X37938323Y-29095926D01*
X37955554Y-29059225D01*
X37955554Y-29059224D01*
X37958553Y-29052837D01*
X37960131Y-29042700D01*
X37965252Y-29023184D01*
X37966377Y-29020184D01*
X37966377Y-29020182D01*
X37968852Y-29013581D01*
X37972381Y-28966096D01*
X37973287Y-28958208D01*
X37974912Y-28947772D01*
X37974913Y-28947764D01*
X37975500Y-28943991D01*
X37975500Y-28927792D01*
X37975772Y-28920456D01*
X37978953Y-28877642D01*
X37979476Y-28870609D01*
X37977681Y-28862200D01*
X37975500Y-28841533D01*
X37975500Y-27880487D01*
X37976919Y-27867786D01*
X37976897Y-27867784D01*
X37977463Y-27860752D01*
X37979019Y-27853874D01*
X37975690Y-27800219D01*
X37975500Y-27794088D01*
X37975500Y-27777381D01*
X37975001Y-27773894D01*
X37975000Y-27773886D01*
X37973899Y-27766200D01*
X37973089Y-27758297D01*
X37970578Y-27717820D01*
X37970577Y-27717817D01*
X37970141Y-27710783D01*
X37967748Y-27704154D01*
X37967747Y-27704150D01*
X37966658Y-27701134D01*
X37961777Y-27681557D01*
X37960323Y-27671406D01*
X37961599Y-27671223D01*
X37963200Y-27617420D01*
X38000621Y-27569012D01*
X38059349Y-27551845D01*
X38081526Y-27555042D01*
X38148459Y-27572602D01*
X38148465Y-27572603D01*
X38154233Y-27574116D01*
X38160194Y-27574210D01*
X38160197Y-27574210D01*
X38238965Y-27575447D01*
X38323760Y-27576779D01*
X38329575Y-27575447D01*
X38329577Y-27575447D01*
X38483206Y-27540262D01*
X38483209Y-27540261D01*
X38489029Y-27538928D01*
X38504610Y-27531092D01*
X38575257Y-27495560D01*
X38640498Y-27462747D01*
X38645035Y-27458872D01*
X38645038Y-27458870D01*
X38685607Y-27424220D01*
X38742135Y-27400805D01*
X38749903Y-27400500D01*
X39818456Y-27400500D01*
X39876647Y-27419407D01*
G37*
%TD.AperFunction*%
%TA.AperFunction,Conductor*%
G36*
X24354593Y-26846047D02*
G01*
X24367618Y-26870623D01*
X24376143Y-26894239D01*
X24376145Y-26894243D01*
X24378540Y-26900877D01*
X24384592Y-26909162D01*
X24394768Y-26926576D01*
X24399016Y-26935918D01*
X24412728Y-26951831D01*
X24430093Y-26971985D01*
X24435033Y-26978206D01*
X24443522Y-26989826D01*
X24454986Y-27001290D01*
X24459981Y-27006671D01*
X24486281Y-27037193D01*
X24492600Y-27044527D01*
X24498520Y-27048364D01*
X24499811Y-27049201D01*
X24515968Y-27062272D01*
X27620225Y-30166529D01*
X27648002Y-30221046D01*
X27649221Y-30236533D01*
X27649221Y-30675454D01*
X27630314Y-30733645D01*
X27580814Y-30769609D01*
X27549703Y-30774453D01*
X27475082Y-30774062D01*
X27475080Y-30774062D01*
X27469116Y-30774031D01*
X27463320Y-30775423D01*
X27463316Y-30775423D01*
X27355924Y-30801207D01*
X27304253Y-30813612D01*
X27228921Y-30852494D01*
X27158896Y-30888636D01*
X27158894Y-30888638D01*
X27153590Y-30891375D01*
X27025825Y-31002831D01*
X26928334Y-31141547D01*
X26866745Y-31299513D01*
X26844615Y-31467611D01*
X26845270Y-31473544D01*
X26845270Y-31473547D01*
X26849591Y-31512682D01*
X26837184Y-31572596D01*
X26796595Y-31611519D01*
X26759378Y-31630728D01*
X26759376Y-31630729D01*
X26754070Y-31633468D01*
X26626305Y-31744924D01*
X26528814Y-31883640D01*
X26467225Y-32041606D01*
X26445095Y-32209704D01*
X26445750Y-32215637D01*
X26445750Y-32215642D01*
X26450224Y-32256165D01*
X26437816Y-32316079D01*
X26397229Y-32355001D01*
X26354562Y-32377023D01*
X26226797Y-32488479D01*
X26129306Y-32627195D01*
X26067717Y-32785161D01*
X26045587Y-32953259D01*
X26046242Y-32959192D01*
X26046242Y-32959196D01*
X26056559Y-33052639D01*
X26044152Y-33112553D01*
X26003566Y-33151474D01*
X25955042Y-33176519D01*
X25827277Y-33287975D01*
X25729786Y-33426691D01*
X25727618Y-33432252D01*
X25673085Y-33572121D01*
X25668197Y-33584657D01*
X25667418Y-33590572D01*
X25667418Y-33590573D01*
X25662812Y-33625560D01*
X25646067Y-33752755D01*
X25646722Y-33758688D01*
X25646722Y-33758691D01*
X25646756Y-33758995D01*
X25646717Y-33759182D01*
X25646660Y-33764655D01*
X25645587Y-33764644D01*
X25634353Y-33818909D01*
X25593762Y-33857837D01*
X25555511Y-33877580D01*
X25427746Y-33989036D01*
X25330255Y-34127752D01*
X25316055Y-34164172D01*
X25276208Y-34266375D01*
X25268666Y-34285718D01*
X25246536Y-34453816D01*
X25247191Y-34459749D01*
X25247191Y-34459750D01*
X25247218Y-34459991D01*
X25247187Y-34460139D01*
X25247129Y-34465715D01*
X25246035Y-34465704D01*
X25234811Y-34519906D01*
X25194223Y-34558828D01*
X25155991Y-34578561D01*
X25028226Y-34690017D01*
X25024795Y-34694899D01*
X25024794Y-34694900D01*
X24978276Y-34761089D01*
X24930735Y-34828733D01*
X24869146Y-34986699D01*
X24847016Y-35154797D01*
X24847671Y-35160730D01*
X24847671Y-35160734D01*
X24853302Y-35211739D01*
X24865621Y-35323321D01*
X24923888Y-35482542D01*
X24927213Y-35487491D01*
X24927214Y-35487492D01*
X24953432Y-35526508D01*
X25018452Y-35623269D01*
X25143855Y-35737377D01*
X25149101Y-35740225D01*
X25149102Y-35740226D01*
X25200340Y-35768046D01*
X25242458Y-35812428D01*
X25252102Y-35855049D01*
X25252102Y-38249076D01*
X25233195Y-38307267D01*
X25223106Y-38319080D01*
X24973068Y-38569118D01*
X24918551Y-38596895D01*
X24902549Y-38598113D01*
X24885741Y-38598025D01*
X24875949Y-38597973D01*
X24875947Y-38597973D01*
X24869984Y-38597942D01*
X24864188Y-38599334D01*
X24864184Y-38599334D01*
X24756792Y-38625118D01*
X24705121Y-38637523D01*
X24629789Y-38676405D01*
X24559764Y-38712547D01*
X24559762Y-38712549D01*
X24554458Y-38715286D01*
X24486464Y-38774601D01*
X24431343Y-38822686D01*
X24426693Y-38826742D01*
X24423262Y-38831624D01*
X24423261Y-38831625D01*
X24355497Y-38928044D01*
X24306568Y-38964781D01*
X24245390Y-38965743D01*
X24195331Y-38930561D01*
X24175500Y-38871119D01*
X24175500Y-26904238D01*
X24194407Y-26846047D01*
X24243907Y-26810083D01*
X24305093Y-26810083D01*
X24354593Y-26846047D01*
G37*
%TD.AperFunction*%
%TA.AperFunction,Conductor*%
G36*
X44644503Y-28154480D02*
G01*
X44975503Y-28485479D01*
X45003281Y-28539996D01*
X45004500Y-28555483D01*
X45004500Y-37047324D01*
X44985593Y-37105515D01*
X44936093Y-37141479D01*
X44874907Y-37141479D01*
X44835500Y-37117330D01*
X44749650Y-37031481D01*
X44721372Y-36973372D01*
X44710993Y-36887603D01*
X44710993Y-36887601D01*
X44710276Y-36881680D01*
X44650345Y-36723077D01*
X44638514Y-36705862D01*
X44557692Y-36588267D01*
X44554312Y-36583349D01*
X44531704Y-36563206D01*
X44508642Y-36542658D01*
X44477772Y-36489830D01*
X44475500Y-36468741D01*
X44475500Y-28224484D01*
X44494407Y-28166293D01*
X44543907Y-28130329D01*
X44605093Y-28130329D01*
X44644503Y-28154480D01*
G37*
%TD.AperFunction*%
%TA.AperFunction,Conductor*%
G36*
X43024514Y-27419407D02*
G01*
X43036327Y-27429496D01*
X43225390Y-27618559D01*
X43253788Y-27677700D01*
X43261146Y-27744347D01*
X43262999Y-27761135D01*
X43321266Y-27920356D01*
X43324591Y-27925305D01*
X43324592Y-27925306D01*
X43407671Y-28048941D01*
X43424500Y-28104158D01*
X43424500Y-33650918D01*
X43405593Y-33709109D01*
X43356093Y-33745073D01*
X43294907Y-33745073D01*
X43259642Y-33724835D01*
X43148219Y-33625560D01*
X42998379Y-33546224D01*
X42916159Y-33525572D01*
X42839729Y-33506373D01*
X42839726Y-33506373D01*
X42833939Y-33504919D01*
X42748339Y-33504471D01*
X42670359Y-33504062D01*
X42670357Y-33504062D01*
X42664393Y-33504031D01*
X42658597Y-33505423D01*
X42658593Y-33505423D01*
X42551201Y-33531207D01*
X42499530Y-33543612D01*
X42444295Y-33572121D01*
X42354173Y-33618636D01*
X42354171Y-33618638D01*
X42348867Y-33621375D01*
X42330742Y-33637187D01*
X42281546Y-33680103D01*
X42225267Y-33704108D01*
X42216466Y-33704500D01*
X42008328Y-33704500D01*
X41950137Y-33685593D01*
X41938324Y-33675504D01*
X41444016Y-33181196D01*
X41416239Y-33126679D01*
X41415020Y-33111192D01*
X41415020Y-28809971D01*
X41433927Y-28751780D01*
X41469537Y-28721527D01*
X41559595Y-28676232D01*
X41564928Y-28673550D01*
X41569465Y-28669675D01*
X41569468Y-28669673D01*
X41689318Y-28567311D01*
X41689321Y-28567308D01*
X41693853Y-28563437D01*
X41699569Y-28555483D01*
X41789307Y-28430599D01*
X41789308Y-28430597D01*
X41792791Y-28425750D01*
X41805010Y-28395356D01*
X41853807Y-28273970D01*
X41853808Y-28273968D01*
X41856031Y-28268437D01*
X41859831Y-28241739D01*
X41879464Y-28103788D01*
X41879464Y-28103782D01*
X41879920Y-28100581D01*
X41880075Y-28085803D01*
X41865564Y-27965888D01*
X41860423Y-27923405D01*
X41860422Y-27923402D01*
X41859706Y-27917483D01*
X41799775Y-27758880D01*
X41791685Y-27747108D01*
X41707122Y-27624070D01*
X41703742Y-27619152D01*
X41652410Y-27573416D01*
X41621541Y-27520590D01*
X41627617Y-27459707D01*
X41668320Y-27414024D01*
X41718268Y-27400500D01*
X42966323Y-27400500D01*
X43024514Y-27419407D01*
G37*
%TD.AperFunction*%
%TA.AperFunction,Conductor*%
G36*
X31167196Y-19444407D02*
G01*
X31203160Y-19493907D01*
X31206786Y-19509013D01*
X31248430Y-19771939D01*
X31249509Y-19777018D01*
X31345827Y-20136484D01*
X31347430Y-20141416D01*
X31480795Y-20488843D01*
X31482895Y-20493561D01*
X31651854Y-20825162D01*
X31654444Y-20829648D01*
X31857128Y-21141754D01*
X31860169Y-21145940D01*
X32078968Y-21416136D01*
X32090155Y-21423400D01*
X32092642Y-21423270D01*
X32096193Y-21420964D01*
X34062661Y-19454496D01*
X34117178Y-19426719D01*
X34132665Y-19425500D01*
X34418335Y-19425500D01*
X34476526Y-19444407D01*
X34512490Y-19493907D01*
X34512490Y-19555093D01*
X34488339Y-19594504D01*
X32382765Y-21700078D01*
X32376711Y-21711961D01*
X32377100Y-21714422D01*
X32379764Y-21717711D01*
X32654060Y-21939831D01*
X32658246Y-21942872D01*
X32970352Y-22145556D01*
X32974838Y-22148146D01*
X33306439Y-22317105D01*
X33311157Y-22319205D01*
X33658584Y-22452570D01*
X33663516Y-22454173D01*
X34022982Y-22550491D01*
X34028061Y-22551570D01*
X34395615Y-22609786D01*
X34400777Y-22610328D01*
X34772405Y-22629804D01*
X34777595Y-22629804D01*
X35149223Y-22610328D01*
X35154385Y-22609786D01*
X35521939Y-22551570D01*
X35527018Y-22550491D01*
X35886484Y-22454173D01*
X35891416Y-22452570D01*
X36238843Y-22319205D01*
X36243561Y-22317105D01*
X36575162Y-22148146D01*
X36579648Y-22145556D01*
X36891754Y-21942872D01*
X36895940Y-21939831D01*
X37166136Y-21721032D01*
X37173400Y-21709845D01*
X37173270Y-21707358D01*
X37170964Y-21703807D01*
X35061661Y-19594504D01*
X35033884Y-19539987D01*
X35043455Y-19479555D01*
X35086720Y-19436290D01*
X35131665Y-19425500D01*
X35417335Y-19425500D01*
X35475526Y-19444407D01*
X35487339Y-19454496D01*
X37450078Y-21417235D01*
X37461961Y-21423289D01*
X37464422Y-21422900D01*
X37467711Y-21420236D01*
X37689831Y-21145940D01*
X37692872Y-21141754D01*
X37895556Y-20829648D01*
X37898146Y-20825162D01*
X38067105Y-20493561D01*
X38069205Y-20488843D01*
X38202570Y-20141416D01*
X38204173Y-20136484D01*
X38300491Y-19777018D01*
X38301570Y-19771939D01*
X38343214Y-19509013D01*
X38370992Y-19454496D01*
X38425508Y-19426719D01*
X38440995Y-19425500D01*
X45275500Y-19425500D01*
X45333691Y-19444407D01*
X45369655Y-19493907D01*
X45374500Y-19524500D01*
X45374500Y-27229840D01*
X45355593Y-27288031D01*
X45306093Y-27323995D01*
X45244907Y-27323995D01*
X45205496Y-27299844D01*
X44049713Y-26144061D01*
X44041739Y-26134081D01*
X44041722Y-26134096D01*
X44037152Y-26128726D01*
X44033388Y-26122760D01*
X44028103Y-26118092D01*
X44028100Y-26118089D01*
X43993110Y-26087188D01*
X43988640Y-26082988D01*
X43976812Y-26071160D01*
X43967765Y-26064380D01*
X43961619Y-26059376D01*
X43925930Y-26027857D01*
X43916647Y-26023498D01*
X43899352Y-26013107D01*
X43891142Y-26006954D01*
X43869365Y-25998790D01*
X43846572Y-25990245D01*
X43839252Y-25987160D01*
X43802544Y-25969926D01*
X43802540Y-25969925D01*
X43796155Y-25966927D01*
X43789187Y-25965842D01*
X43789183Y-25965841D01*
X43786026Y-25965350D01*
X43766498Y-25960227D01*
X43763498Y-25959102D01*
X43763496Y-25959102D01*
X43756898Y-25956628D01*
X43709410Y-25953099D01*
X43701525Y-25952193D01*
X43691090Y-25950568D01*
X43691082Y-25950567D01*
X43687309Y-25949980D01*
X43671109Y-25949980D01*
X43663773Y-25949708D01*
X43660483Y-25949464D01*
X43613926Y-25946004D01*
X43607031Y-25947476D01*
X43607029Y-25947476D01*
X43605517Y-25947799D01*
X43584850Y-25949980D01*
X41708802Y-25949980D01*
X41650611Y-25931073D01*
X41638798Y-25920984D01*
X39136884Y-23419070D01*
X39128910Y-23409090D01*
X39128893Y-23409105D01*
X39124323Y-23403735D01*
X39120559Y-23397769D01*
X39115274Y-23393101D01*
X39115271Y-23393098D01*
X39080281Y-23362197D01*
X39075811Y-23357997D01*
X39063983Y-23346169D01*
X39054936Y-23339389D01*
X39048790Y-23334385D01*
X39013101Y-23302866D01*
X39003818Y-23298507D01*
X38986523Y-23288116D01*
X38978313Y-23281963D01*
X38956536Y-23273799D01*
X38933743Y-23265254D01*
X38926423Y-23262169D01*
X38889715Y-23244935D01*
X38889711Y-23244934D01*
X38883326Y-23241936D01*
X38876358Y-23240851D01*
X38876354Y-23240850D01*
X38873197Y-23240359D01*
X38853669Y-23235236D01*
X38850669Y-23234111D01*
X38850667Y-23234111D01*
X38844069Y-23231637D01*
X38796581Y-23228108D01*
X38788696Y-23227202D01*
X38778261Y-23225577D01*
X38778253Y-23225576D01*
X38774480Y-23224989D01*
X38758280Y-23224989D01*
X38750944Y-23224717D01*
X38747654Y-23224473D01*
X38701097Y-23221013D01*
X38694202Y-23222485D01*
X38694200Y-23222485D01*
X38692688Y-23222808D01*
X38672021Y-23224989D01*
X33891677Y-23224989D01*
X33878976Y-23223570D01*
X33878974Y-23223592D01*
X33871942Y-23223026D01*
X33865064Y-23221470D01*
X33813904Y-23224644D01*
X33811409Y-23224799D01*
X33805278Y-23224989D01*
X33788571Y-23224989D01*
X33785084Y-23225488D01*
X33785076Y-23225489D01*
X33777390Y-23226590D01*
X33769487Y-23227400D01*
X33729010Y-23229911D01*
X33729007Y-23229912D01*
X33721973Y-23230348D01*
X33715344Y-23232741D01*
X33715340Y-23232742D01*
X33712324Y-23233831D01*
X33692748Y-23238712D01*
X33692146Y-23238798D01*
X33689575Y-23239166D01*
X33689574Y-23239166D01*
X33682593Y-23240166D01*
X33676174Y-23243085D01*
X33676169Y-23243086D01*
X33639254Y-23259870D01*
X33631896Y-23262866D01*
X33617701Y-23267991D01*
X33587124Y-23279029D01*
X33578839Y-23285081D01*
X33561425Y-23295257D01*
X33552083Y-23299505D01*
X33536170Y-23313217D01*
X33516016Y-23330582D01*
X33509795Y-23335522D01*
X33498175Y-23344011D01*
X33486711Y-23355475D01*
X33481330Y-23360470D01*
X33443474Y-23393089D01*
X33439637Y-23399009D01*
X33438800Y-23400300D01*
X33425729Y-23416457D01*
X33246979Y-23595207D01*
X33192462Y-23622984D01*
X33176460Y-23624202D01*
X33159652Y-23624114D01*
X33149860Y-23624062D01*
X33149858Y-23624062D01*
X33143895Y-23624031D01*
X33138099Y-23625423D01*
X33138095Y-23625423D01*
X33060649Y-23644017D01*
X32979032Y-23663612D01*
X32917640Y-23695299D01*
X32833675Y-23738636D01*
X32833673Y-23738638D01*
X32828369Y-23741375D01*
X32711990Y-23842898D01*
X32655712Y-23866903D01*
X32596070Y-23853243D01*
X32565323Y-23824369D01*
X32557696Y-23813271D01*
X32557691Y-23813265D01*
X32554312Y-23808349D01*
X32549859Y-23804382D01*
X32549856Y-23804378D01*
X32455487Y-23720299D01*
X32427721Y-23695560D01*
X32277881Y-23616224D01*
X32194210Y-23595207D01*
X32119231Y-23576373D01*
X32119228Y-23576373D01*
X32113441Y-23574919D01*
X32027841Y-23574471D01*
X31949861Y-23574062D01*
X31949859Y-23574062D01*
X31943895Y-23574031D01*
X31938099Y-23575423D01*
X31938095Y-23575423D01*
X31839765Y-23599031D01*
X31779032Y-23613612D01*
X31703700Y-23652494D01*
X31633675Y-23688636D01*
X31633673Y-23688638D01*
X31628369Y-23691375D01*
X31500604Y-23802831D01*
X31498057Y-23806455D01*
X31445587Y-23836749D01*
X31384737Y-23830354D01*
X31354496Y-23808142D01*
X31354312Y-23808349D01*
X31352125Y-23806400D01*
X31352122Y-23806398D01*
X31227721Y-23695560D01*
X31077881Y-23616224D01*
X30994210Y-23595207D01*
X30919231Y-23576373D01*
X30919228Y-23576373D01*
X30913441Y-23574919D01*
X30827841Y-23574471D01*
X30749861Y-23574062D01*
X30749859Y-23574062D01*
X30743895Y-23574031D01*
X30738099Y-23575423D01*
X30738095Y-23575423D01*
X30639765Y-23599031D01*
X30579032Y-23613612D01*
X30503700Y-23652494D01*
X30433675Y-23688636D01*
X30433673Y-23688638D01*
X30428369Y-23691375D01*
X30300604Y-23802831D01*
X30296872Y-23808142D01*
X30294974Y-23810842D01*
X30246044Y-23847578D01*
X30184867Y-23848538D01*
X30148120Y-23827832D01*
X30121796Y-23804378D01*
X30027721Y-23720560D01*
X29877881Y-23641224D01*
X29772565Y-23614770D01*
X29719231Y-23601373D01*
X29719228Y-23601373D01*
X29713441Y-23599919D01*
X29627841Y-23599471D01*
X29549861Y-23599062D01*
X29549859Y-23599062D01*
X29543895Y-23599031D01*
X29538099Y-23600423D01*
X29538095Y-23600423D01*
X29438153Y-23624418D01*
X29379032Y-23638612D01*
X29303701Y-23677493D01*
X29233675Y-23713636D01*
X29233673Y-23713638D01*
X29228369Y-23716375D01*
X29100604Y-23827831D01*
X29097173Y-23832713D01*
X29094974Y-23835842D01*
X29046044Y-23872578D01*
X28984867Y-23873538D01*
X28948120Y-23852832D01*
X28920061Y-23827832D01*
X28827721Y-23745560D01*
X28677881Y-23666224D01*
X28572565Y-23639770D01*
X28519231Y-23626373D01*
X28519228Y-23626373D01*
X28513441Y-23624919D01*
X28427841Y-23624471D01*
X28349861Y-23624062D01*
X28349859Y-23624062D01*
X28343895Y-23624031D01*
X28338099Y-23625423D01*
X28338095Y-23625423D01*
X28260649Y-23644017D01*
X28179032Y-23663612D01*
X28117640Y-23695299D01*
X28033675Y-23738636D01*
X28033673Y-23738638D01*
X28028369Y-23741375D01*
X27900604Y-23852831D01*
X27898057Y-23856455D01*
X27845587Y-23886749D01*
X27784737Y-23880354D01*
X27754496Y-23858142D01*
X27754312Y-23858349D01*
X27752125Y-23856400D01*
X27752122Y-23856398D01*
X27743301Y-23848538D01*
X27703718Y-23813271D01*
X27627721Y-23745560D01*
X27477881Y-23666224D01*
X27372565Y-23639770D01*
X27319231Y-23626373D01*
X27319228Y-23626373D01*
X27313441Y-23624919D01*
X27227841Y-23624471D01*
X27149861Y-23624062D01*
X27149859Y-23624062D01*
X27143895Y-23624031D01*
X27138099Y-23625423D01*
X27138095Y-23625423D01*
X27060649Y-23644017D01*
X26979032Y-23663612D01*
X26917640Y-23695299D01*
X26833675Y-23738636D01*
X26833673Y-23738638D01*
X26828369Y-23741375D01*
X26700604Y-23852831D01*
X26698057Y-23856455D01*
X26645587Y-23886749D01*
X26584737Y-23880354D01*
X26554496Y-23858142D01*
X26554312Y-23858349D01*
X26552125Y-23856400D01*
X26552122Y-23856398D01*
X26543301Y-23848538D01*
X26503718Y-23813271D01*
X26427721Y-23745560D01*
X26277881Y-23666224D01*
X26172565Y-23639770D01*
X26119231Y-23626373D01*
X26119228Y-23626373D01*
X26113441Y-23624919D01*
X26027841Y-23624471D01*
X25949861Y-23624062D01*
X25949859Y-23624062D01*
X25943895Y-23624031D01*
X25938099Y-23625423D01*
X25938095Y-23625423D01*
X25860649Y-23644017D01*
X25779032Y-23663612D01*
X25717640Y-23695299D01*
X25633675Y-23738636D01*
X25633673Y-23738638D01*
X25628369Y-23741375D01*
X25500604Y-23852831D01*
X25498057Y-23856455D01*
X25445587Y-23886749D01*
X25384737Y-23880354D01*
X25354496Y-23858142D01*
X25354312Y-23858349D01*
X25352125Y-23856400D01*
X25352122Y-23856398D01*
X25343301Y-23848538D01*
X25303718Y-23813271D01*
X25227721Y-23745560D01*
X25077881Y-23666224D01*
X24972565Y-23639770D01*
X24919231Y-23626373D01*
X24919228Y-23626373D01*
X24913441Y-23624919D01*
X24827841Y-23624471D01*
X24749861Y-23624062D01*
X24749859Y-23624062D01*
X24743895Y-23624031D01*
X24738099Y-23625423D01*
X24738095Y-23625423D01*
X24660649Y-23644017D01*
X24579032Y-23663612D01*
X24517640Y-23695299D01*
X24433675Y-23738636D01*
X24433673Y-23738638D01*
X24428369Y-23741375D01*
X24423874Y-23745296D01*
X24423870Y-23745299D01*
X24339580Y-23818830D01*
X24283300Y-23842835D01*
X24223659Y-23829175D01*
X24183438Y-23783068D01*
X24175500Y-23744227D01*
X24175500Y-19524500D01*
X24194407Y-19466309D01*
X24243907Y-19430345D01*
X24274500Y-19425500D01*
X31109005Y-19425500D01*
X31167196Y-19444407D01*
G37*
%TD.AperFunction*%
%TD*%
M02*
