%TF.GenerationSoftware,KiCad,Pcbnew,6.0.11-3.fc37*%
%TF.CreationDate,2023-03-29T00:48:19+01:00*%
%TF.ProjectId,nRF,6e52462e-6b69-4636-9164-5f7063625858,1*%
%TF.SameCoordinates,Original*%
%TF.FileFunction,Legend,Top*%
%TF.FilePolarity,Positive*%
%FSLAX46Y46*%
G04 Gerber Fmt 4.6, Leading zero omitted, Abs format (unit mm)*
G04 Created by KiCad (PCBNEW 6.0.11-3.fc37) date 2023-03-29 00:48:19*
%MOMM*%
%LPD*%
G01*
G04 APERTURE LIST*
%ADD10C,0.120000*%
%ADD11C,0.100000*%
G04 APERTURE END LIST*
D10*
%TO.C,R5*%
X41848333Y-35631666D02*
X41615000Y-35298333D01*
X41448333Y-35631666D02*
X41448333Y-34931666D01*
X41715000Y-34931666D01*
X41781666Y-34965000D01*
X41815000Y-34998333D01*
X41848333Y-35065000D01*
X41848333Y-35165000D01*
X41815000Y-35231666D01*
X41781666Y-35265000D01*
X41715000Y-35298333D01*
X41448333Y-35298333D01*
X42481666Y-34931666D02*
X42148333Y-34931666D01*
X42115000Y-35265000D01*
X42148333Y-35231666D01*
X42215000Y-35198333D01*
X42381666Y-35198333D01*
X42448333Y-35231666D01*
X42481666Y-35265000D01*
X42515000Y-35331666D01*
X42515000Y-35498333D01*
X42481666Y-35565000D01*
X42448333Y-35598333D01*
X42381666Y-35631666D01*
X42215000Y-35631666D01*
X42148333Y-35598333D01*
X42115000Y-35565000D01*
%TO.C,R3*%
X44778333Y-44341666D02*
X44545000Y-44008333D01*
X44378333Y-44341666D02*
X44378333Y-43641666D01*
X44645000Y-43641666D01*
X44711666Y-43675000D01*
X44745000Y-43708333D01*
X44778333Y-43775000D01*
X44778333Y-43875000D01*
X44745000Y-43941666D01*
X44711666Y-43975000D01*
X44645000Y-44008333D01*
X44378333Y-44008333D01*
X45011666Y-43641666D02*
X45445000Y-43641666D01*
X45211666Y-43908333D01*
X45311666Y-43908333D01*
X45378333Y-43941666D01*
X45411666Y-43975000D01*
X45445000Y-44041666D01*
X45445000Y-44208333D01*
X45411666Y-44275000D01*
X45378333Y-44308333D01*
X45311666Y-44341666D01*
X45111666Y-44341666D01*
X45045000Y-44308333D01*
X45011666Y-44275000D01*
%TO.C,R2*%
X37216666Y-40541666D02*
X36883333Y-40775000D01*
X37216666Y-40941666D02*
X36516666Y-40941666D01*
X36516666Y-40675000D01*
X36550000Y-40608333D01*
X36583333Y-40575000D01*
X36650000Y-40541666D01*
X36750000Y-40541666D01*
X36816666Y-40575000D01*
X36850000Y-40608333D01*
X36883333Y-40675000D01*
X36883333Y-40941666D01*
X36583333Y-40275000D02*
X36550000Y-40241666D01*
X36516666Y-40175000D01*
X36516666Y-40008333D01*
X36550000Y-39941666D01*
X36583333Y-39908333D01*
X36650000Y-39875000D01*
X36716666Y-39875000D01*
X36816666Y-39908333D01*
X37216666Y-40308333D01*
X37216666Y-39875000D01*
%TO.C,H1*%
X34241666Y-15141666D02*
X34241666Y-14441666D01*
X34241666Y-14775000D02*
X34641666Y-14775000D01*
X34641666Y-15141666D02*
X34641666Y-14441666D01*
X35341666Y-15141666D02*
X34941666Y-15141666D01*
X35141666Y-15141666D02*
X35141666Y-14441666D01*
X35075000Y-14541666D01*
X35008333Y-14608333D01*
X34941666Y-14641666D01*
%TO.C,D1*%
X42998333Y-44341666D02*
X42998333Y-43641666D01*
X43165000Y-43641666D01*
X43265000Y-43675000D01*
X43331666Y-43741666D01*
X43365000Y-43808333D01*
X43398333Y-43941666D01*
X43398333Y-44041666D01*
X43365000Y-44175000D01*
X43331666Y-44241666D01*
X43265000Y-44308333D01*
X43165000Y-44341666D01*
X42998333Y-44341666D01*
X44065000Y-44341666D02*
X43665000Y-44341666D01*
X43865000Y-44341666D02*
X43865000Y-43641666D01*
X43798333Y-43741666D01*
X43731666Y-43808333D01*
X43665000Y-43841666D01*
%TO.C,R6*%
X41158333Y-25866666D02*
X40925000Y-25533333D01*
X40758333Y-25866666D02*
X40758333Y-25166666D01*
X41025000Y-25166666D01*
X41091666Y-25200000D01*
X41125000Y-25233333D01*
X41158333Y-25300000D01*
X41158333Y-25400000D01*
X41125000Y-25466666D01*
X41091666Y-25500000D01*
X41025000Y-25533333D01*
X40758333Y-25533333D01*
X41758333Y-25166666D02*
X41625000Y-25166666D01*
X41558333Y-25200000D01*
X41525000Y-25233333D01*
X41458333Y-25333333D01*
X41425000Y-25466666D01*
X41425000Y-25733333D01*
X41458333Y-25800000D01*
X41491666Y-25833333D01*
X41558333Y-25866666D01*
X41691666Y-25866666D01*
X41758333Y-25833333D01*
X41791666Y-25800000D01*
X41825000Y-25733333D01*
X41825000Y-25566666D01*
X41791666Y-25500000D01*
X41758333Y-25466666D01*
X41691666Y-25433333D01*
X41558333Y-25433333D01*
X41491666Y-25466666D01*
X41458333Y-25500000D01*
X41425000Y-25566666D01*
%TO.C,D2*%
X41598333Y-44341666D02*
X41598333Y-43641666D01*
X41765000Y-43641666D01*
X41865000Y-43675000D01*
X41931666Y-43741666D01*
X41965000Y-43808333D01*
X41998333Y-43941666D01*
X41998333Y-44041666D01*
X41965000Y-44175000D01*
X41931666Y-44241666D01*
X41865000Y-44308333D01*
X41765000Y-44341666D01*
X41598333Y-44341666D01*
X42265000Y-43708333D02*
X42298333Y-43675000D01*
X42365000Y-43641666D01*
X42531666Y-43641666D01*
X42598333Y-43675000D01*
X42631666Y-43708333D01*
X42665000Y-43775000D01*
X42665000Y-43841666D01*
X42631666Y-43941666D01*
X42231666Y-44341666D01*
X42665000Y-44341666D01*
%TO.C,U2*%
X41461666Y-35961666D02*
X41461666Y-36528333D01*
X41495000Y-36595000D01*
X41528333Y-36628333D01*
X41595000Y-36661666D01*
X41728333Y-36661666D01*
X41795000Y-36628333D01*
X41828333Y-36595000D01*
X41861666Y-36528333D01*
X41861666Y-35961666D01*
X42161666Y-36028333D02*
X42195000Y-35995000D01*
X42261666Y-35961666D01*
X42428333Y-35961666D01*
X42495000Y-35995000D01*
X42528333Y-36028333D01*
X42561666Y-36095000D01*
X42561666Y-36161666D01*
X42528333Y-36261666D01*
X42128333Y-36661666D01*
X42561666Y-36661666D01*
%TO.C,R1*%
X38928333Y-42231666D02*
X38695000Y-41898333D01*
X38528333Y-42231666D02*
X38528333Y-41531666D01*
X38795000Y-41531666D01*
X38861666Y-41565000D01*
X38895000Y-41598333D01*
X38928333Y-41665000D01*
X38928333Y-41765000D01*
X38895000Y-41831666D01*
X38861666Y-41865000D01*
X38795000Y-41898333D01*
X38528333Y-41898333D01*
X39595000Y-42231666D02*
X39195000Y-42231666D01*
X39395000Y-42231666D02*
X39395000Y-41531666D01*
X39328333Y-41631666D01*
X39261666Y-41698333D01*
X39195000Y-41731666D01*
%TO.C,C5*%
X39087000Y-43130000D02*
X39053666Y-43163333D01*
X38953666Y-43196666D01*
X38887000Y-43196666D01*
X38787000Y-43163333D01*
X38720333Y-43096666D01*
X38687000Y-43030000D01*
X38653666Y-42896666D01*
X38653666Y-42796666D01*
X38687000Y-42663333D01*
X38720333Y-42596666D01*
X38787000Y-42530000D01*
X38887000Y-42496666D01*
X38953666Y-42496666D01*
X39053666Y-42530000D01*
X39087000Y-42563333D01*
X39720333Y-42496666D02*
X39387000Y-42496666D01*
X39353666Y-42830000D01*
X39387000Y-42796666D01*
X39453666Y-42763333D01*
X39620333Y-42763333D01*
X39687000Y-42796666D01*
X39720333Y-42830000D01*
X39753666Y-42896666D01*
X39753666Y-43063333D01*
X39720333Y-43130000D01*
X39687000Y-43163333D01*
X39620333Y-43196666D01*
X39453666Y-43196666D01*
X39387000Y-43163333D01*
X39353666Y-43130000D01*
%TO.C,RV1*%
X41191666Y-31291666D02*
X40858333Y-31525000D01*
X41191666Y-31691666D02*
X40491666Y-31691666D01*
X40491666Y-31425000D01*
X40525000Y-31358333D01*
X40558333Y-31325000D01*
X40625000Y-31291666D01*
X40725000Y-31291666D01*
X40791666Y-31325000D01*
X40825000Y-31358333D01*
X40858333Y-31425000D01*
X40858333Y-31691666D01*
X40491666Y-31091666D02*
X41191666Y-30858333D01*
X40491666Y-30625000D01*
X41191666Y-30025000D02*
X41191666Y-30425000D01*
X41191666Y-30225000D02*
X40491666Y-30225000D01*
X40591666Y-30291666D01*
X40658333Y-30358333D01*
X40691666Y-30425000D01*
%TO.C,U1*%
X17541666Y-32318333D02*
X18108333Y-32318333D01*
X18175000Y-32285000D01*
X18208333Y-32251666D01*
X18241666Y-32185000D01*
X18241666Y-32051666D01*
X18208333Y-31985000D01*
X18175000Y-31951666D01*
X18108333Y-31918333D01*
X17541666Y-31918333D01*
X18241666Y-31218333D02*
X18241666Y-31618333D01*
X18241666Y-31418333D02*
X17541666Y-31418333D01*
X17641666Y-31485000D01*
X17708333Y-31551666D01*
X17741666Y-31618333D01*
%TO.C,C4*%
X43698333Y-35495000D02*
X43665000Y-35528333D01*
X43565000Y-35561666D01*
X43498333Y-35561666D01*
X43398333Y-35528333D01*
X43331666Y-35461666D01*
X43298333Y-35395000D01*
X43265000Y-35261666D01*
X43265000Y-35161666D01*
X43298333Y-35028333D01*
X43331666Y-34961666D01*
X43398333Y-34895000D01*
X43498333Y-34861666D01*
X43565000Y-34861666D01*
X43665000Y-34895000D01*
X43698333Y-34928333D01*
X44298333Y-35095000D02*
X44298333Y-35561666D01*
X44131666Y-34828333D02*
X43965000Y-35328333D01*
X44398333Y-35328333D01*
%TO.C,R4*%
X40618333Y-44341666D02*
X40385000Y-44008333D01*
X40218333Y-44341666D02*
X40218333Y-43641666D01*
X40485000Y-43641666D01*
X40551666Y-43675000D01*
X40585000Y-43708333D01*
X40618333Y-43775000D01*
X40618333Y-43875000D01*
X40585000Y-43941666D01*
X40551666Y-43975000D01*
X40485000Y-44008333D01*
X40218333Y-44008333D01*
X41218333Y-43875000D02*
X41218333Y-44341666D01*
X41051666Y-43608333D02*
X40885000Y-44108333D01*
X41318333Y-44108333D01*
%TO.C,R8*%
X41158333Y-24866666D02*
X40925000Y-24533333D01*
X40758333Y-24866666D02*
X40758333Y-24166666D01*
X41025000Y-24166666D01*
X41091666Y-24200000D01*
X41125000Y-24233333D01*
X41158333Y-24300000D01*
X41158333Y-24400000D01*
X41125000Y-24466666D01*
X41091666Y-24500000D01*
X41025000Y-24533333D01*
X40758333Y-24533333D01*
X41558333Y-24466666D02*
X41491666Y-24433333D01*
X41458333Y-24400000D01*
X41425000Y-24333333D01*
X41425000Y-24300000D01*
X41458333Y-24233333D01*
X41491666Y-24200000D01*
X41558333Y-24166666D01*
X41691666Y-24166666D01*
X41758333Y-24200000D01*
X41791666Y-24233333D01*
X41825000Y-24300000D01*
X41825000Y-24333333D01*
X41791666Y-24400000D01*
X41758333Y-24433333D01*
X41691666Y-24466666D01*
X41558333Y-24466666D01*
X41491666Y-24500000D01*
X41458333Y-24533333D01*
X41425000Y-24600000D01*
X41425000Y-24733333D01*
X41458333Y-24800000D01*
X41491666Y-24833333D01*
X41558333Y-24866666D01*
X41691666Y-24866666D01*
X41758333Y-24833333D01*
X41791666Y-24800000D01*
X41825000Y-24733333D01*
X41825000Y-24600000D01*
X41791666Y-24533333D01*
X41758333Y-24500000D01*
X41691666Y-24466666D01*
%TO.C,C3*%
X44883333Y-38325000D02*
X44850000Y-38358333D01*
X44750000Y-38391666D01*
X44683333Y-38391666D01*
X44583333Y-38358333D01*
X44516666Y-38291666D01*
X44483333Y-38225000D01*
X44450000Y-38091666D01*
X44450000Y-37991666D01*
X44483333Y-37858333D01*
X44516666Y-37791666D01*
X44583333Y-37725000D01*
X44683333Y-37691666D01*
X44750000Y-37691666D01*
X44850000Y-37725000D01*
X44883333Y-37758333D01*
X45116666Y-37691666D02*
X45550000Y-37691666D01*
X45316666Y-37958333D01*
X45416666Y-37958333D01*
X45483333Y-37991666D01*
X45516666Y-38025000D01*
X45550000Y-38091666D01*
X45550000Y-38258333D01*
X45516666Y-38325000D01*
X45483333Y-38358333D01*
X45416666Y-38391666D01*
X45216666Y-38391666D01*
X45150000Y-38358333D01*
X45116666Y-38325000D01*
%TO.C,C1*%
X42190000Y-27236666D02*
X42223333Y-27270000D01*
X42256666Y-27370000D01*
X42256666Y-27436666D01*
X42223333Y-27536666D01*
X42156666Y-27603333D01*
X42090000Y-27636666D01*
X41956666Y-27670000D01*
X41856666Y-27670000D01*
X41723333Y-27636666D01*
X41656666Y-27603333D01*
X41590000Y-27536666D01*
X41556666Y-27436666D01*
X41556666Y-27370000D01*
X41590000Y-27270000D01*
X41623333Y-27236666D01*
X42256666Y-26570000D02*
X42256666Y-26970000D01*
X42256666Y-26770000D02*
X41556666Y-26770000D01*
X41656666Y-26836666D01*
X41723333Y-26903333D01*
X41756666Y-26970000D01*
%TO.C,C2*%
X35058333Y-40975000D02*
X35025000Y-41008333D01*
X34925000Y-41041666D01*
X34858333Y-41041666D01*
X34758333Y-41008333D01*
X34691666Y-40941666D01*
X34658333Y-40875000D01*
X34625000Y-40741666D01*
X34625000Y-40641666D01*
X34658333Y-40508333D01*
X34691666Y-40441666D01*
X34758333Y-40375000D01*
X34858333Y-40341666D01*
X34925000Y-40341666D01*
X35025000Y-40375000D01*
X35058333Y-40408333D01*
X35325000Y-40408333D02*
X35358333Y-40375000D01*
X35425000Y-40341666D01*
X35591666Y-40341666D01*
X35658333Y-40375000D01*
X35691666Y-40408333D01*
X35725000Y-40475000D01*
X35725000Y-40541666D01*
X35691666Y-40641666D01*
X35291666Y-41041666D01*
X35725000Y-41041666D01*
%TO.C,R5*%
X40325000Y-35761359D02*
X40325000Y-36068641D01*
X41085000Y-35761359D02*
X41085000Y-36068641D01*
%TO.C,R3*%
X45275000Y-42251359D02*
X45275000Y-42558641D01*
X44515000Y-42251359D02*
X44515000Y-42558641D01*
%TO.C,R2*%
X38380000Y-40286359D02*
X38380000Y-40593641D01*
X37620000Y-40286359D02*
X37620000Y-40593641D01*
D11*
%TO.C,D1*%
X43865000Y-41325000D02*
G75*
G03*
X43865000Y-41325000I-50000J0D01*
G01*
D10*
%TO.C,R6*%
X42892163Y-25915000D02*
X43107835Y-25915000D01*
X42892163Y-25195000D02*
X43107835Y-25195000D01*
D11*
%TO.C,D2*%
X42765000Y-41325000D02*
G75*
G03*
X42765000Y-41325000I-50000J0D01*
G01*
D10*
%TO.C,U2*%
X43725000Y-40635000D02*
X43725000Y-40160000D01*
X43725000Y-37415000D02*
X43725000Y-37890000D01*
X40980000Y-40635000D02*
X40505000Y-40635000D01*
X43250000Y-40635000D02*
X43725000Y-40635000D01*
X40980000Y-37415000D02*
X40505000Y-37415000D01*
X40505000Y-40635000D02*
X40505000Y-40160000D01*
X43250000Y-37415000D02*
X43725000Y-37415000D01*
%TO.C,R1*%
X38670000Y-40593641D02*
X38670000Y-40286359D01*
X39430000Y-40593641D02*
X39430000Y-40286359D01*
%TO.C,C5*%
X40795000Y-42307164D02*
X40795000Y-42522836D01*
X40075000Y-42307164D02*
X40075000Y-42522836D01*
%TO.C,RV1*%
X45365000Y-34055000D02*
X44784000Y-34055000D01*
X45365000Y-28815000D02*
X45365000Y-34055000D01*
X45365000Y-28815000D02*
X43985000Y-28815000D01*
X41505000Y-28815000D02*
X40125000Y-28815000D01*
X40125000Y-28815000D02*
X40125000Y-34055000D01*
X43005000Y-34055000D02*
X42485000Y-34055000D01*
X40705000Y-34055000D02*
X40125000Y-34055000D01*
%TO.C,C4*%
X43687163Y-35865000D02*
X43902835Y-35865000D01*
X43687163Y-36585000D02*
X43902835Y-36585000D01*
%TO.C,R4*%
X41255000Y-42261359D02*
X41255000Y-42568641D01*
X42015000Y-42261359D02*
X42015000Y-42568641D01*
%TO.C,R8*%
X42892164Y-24910000D02*
X43107836Y-24910000D01*
X42892164Y-24190000D02*
X43107836Y-24190000D01*
%TO.C,C3*%
X44455000Y-40147164D02*
X44455000Y-40362836D01*
X45175000Y-40147164D02*
X45175000Y-40362836D01*
%TO.C,C1*%
X43460000Y-27227836D02*
X43460000Y-27012164D01*
X42740000Y-27227836D02*
X42740000Y-27012164D01*
%TO.C,C2*%
X35257836Y-39215000D02*
X35042164Y-39215000D01*
X35257836Y-39935000D02*
X35042164Y-39935000D01*
%TD*%
M02*
