%TF.GenerationSoftware,KiCad,Pcbnew,6.0.11-3.fc37*%
%TF.CreationDate,2023-03-29T00:48:19+01:00*%
%TF.ProjectId,nRF,6e52462e-6b69-4636-9164-5f7063625858,1*%
%TF.SameCoordinates,Original*%
%TF.FileFunction,Copper,L1,Top*%
%TF.FilePolarity,Positive*%
%FSLAX46Y46*%
G04 Gerber Fmt 4.6, Leading zero omitted, Abs format (unit mm)*
G04 Created by KiCad (PCBNEW 6.0.11-3.fc37) date 2023-03-29 00:48:19*
%MOMM*%
%LPD*%
G01*
G04 APERTURE LIST*
G04 Aperture macros list*
%AMRoundRect*
0 Rectangle with rounded corners*
0 $1 Rounding radius*
0 $2 $3 $4 $5 $6 $7 $8 $9 X,Y pos of 4 corners*
0 Add a 4 corners polygon primitive as box body*
4,1,4,$2,$3,$4,$5,$6,$7,$8,$9,$2,$3,0*
0 Add four circle primitives for the rounded corners*
1,1,$1+$1,$2,$3*
1,1,$1+$1,$4,$5*
1,1,$1+$1,$6,$7*
1,1,$1+$1,$8,$9*
0 Add four rect primitives between the rounded corners*
20,1,$1+$1,$2,$3,$4,$5,0*
20,1,$1+$1,$4,$5,$6,$7,0*
20,1,$1+$1,$6,$7,$8,$9,0*
20,1,$1+$1,$8,$9,$2,$3,0*%
%AMFreePoly0*
4,1,166,-0.516797,1.488870,-0.515333,1.485334,-0.515333,1.287006,-0.509031,1.138798,-0.488430,1.021366,-0.450965,0.924243,-0.400931,0.846014,-0.332687,0.779982,-0.238681,0.719268,-0.135338,0.673389,-0.068740,0.655629,0.033509,0.655119,0.146544,0.683217,0.255447,0.735253,0.316490,0.779339,0.390674,0.854060,0.443359,0.936733,0.478323,1.036722,0.499108,1.163464,0.506624,1.264275,
0.517919,1.485589,0.518692,1.487215,0.519377,1.488870,0.519503,1.488922,0.519562,1.489046,0.521253,1.489647,0.522913,1.490334,1.194167,1.490334,1.197703,1.488870,1.199167,1.485334,1.199167,0.601333,1.495793,0.601301,1.495826,0.601287,1.495861,0.601301,1.640686,0.599308,1.640815,0.599253,1.640946,0.599297,1.750766,0.592046,1.751024,0.591919,1.751306,0.591981,
1.833322,0.577508,1.833747,0.577237,1.834251,0.577250,1.895662,0.553590,1.896148,0.553128,1.896800,0.552972,1.944807,0.518163,1.945114,0.517663,1.945640,0.517402,1.987443,0.469479,1.987512,0.469274,1.987695,0.469164,1.990433,0.465462,1.990570,0.464910,1.990983,0.464517,2.024874,0.388100,2.024893,0.387342,2.025266,0.386682,2.036875,0.292081,2.036713,0.291497,
2.036881,0.290914,2.026209,0.195938,2.025848,0.195284,2.025841,0.194540,1.992887,0.117000,1.992478,0.116599,1.992348,0.116042,1.990475,0.113430,1.990285,0.113312,1.990217,0.113101,1.948571,0.064236,1.948063,0.063976,1.947771,0.063482,1.900400,0.027862,1.899747,0.027694,1.899266,0.027221,1.838971,0.002882,1.838452,0.002886,1.838017,0.002603,1.757596,-0.012421,
1.757301,-0.012359,1.757033,-0.012493,1.649286,-0.020164,1.649146,-0.020117,1.649011,-0.020176,1.506738,-0.022457,1.506700,-0.022442,1.506662,-0.022458,1.495793,-0.022467,1.199167,-0.022499,1.199167,-0.906500,1.197703,-0.910036,1.194167,-0.911500,0.310158,-0.911500,0.309662,-1.176384,0.309650,-1.176413,0.309662,-1.176443,0.307673,-1.324310,0.307627,-1.324417,0.307665,-1.324527,
0.301248,-1.437323,0.301145,-1.437536,0.301203,-1.437765,0.288744,-1.522653,0.288531,-1.523009,0.288568,-1.523423,0.268452,-1.587571,0.268081,-1.588015,0.268004,-1.588587,0.238616,-1.639161,0.238176,-1.639497,0.237988,-1.640018,0.197711,-1.684184,0.197511,-1.684278,0.197418,-1.684480,0.193581,-1.688040,0.193405,-1.688105,0.193315,-1.688270,0.140610,-1.730694,0.139894,-1.730904,
0.139364,-1.731428,0.089476,-1.751783,0.088703,-1.751779,0.088018,-1.752135,0.020461,-1.757976,0.020257,-1.757911,0.020058,-1.757995,0.003881,-1.758087,0.003555,-1.757954,0.003216,-1.758046,-0.114626,-1.742911,-0.115255,-1.742551,-0.115982,-1.742538,-0.179642,-1.714876,-0.180051,-1.714453,-0.180620,-1.714311,-0.227171,-1.679912,-0.227512,-1.679345,-0.228092,-1.679028,-0.262461,-1.636380,
-0.262667,-1.635681,-0.263184,-1.635165,-0.287088,-1.577760,-0.287089,-1.577228,-0.287382,-1.576784,-0.302541,-1.498113,-0.302480,-1.497816,-0.302616,-1.497548,-0.310748,-1.391103,-0.310701,-1.390960,-0.310762,-1.390822,-0.313586,-1.250094,-0.313569,-1.250049,-0.313587,-1.250005,-0.313666,-1.214107,-0.313664,-1.214101,-0.313666,-1.214096,-0.313666,-0.911500,-1.197666,-0.911500,-1.201202,-0.910036,
-1.202666,-0.906500,-1.202666,1.485334,-1.201202,1.488870,-1.197666,1.490334,-0.520333,1.490334,-0.516797,1.488870,-0.516797,1.488870,$1*%
%AMFreePoly1*
4,1,128,-0.353535,1.686780,-0.353173,1.686875,-0.236325,1.670848,-0.235594,1.670421,-0.234752,1.670358,-0.142810,1.623975,-0.142148,1.623206,-0.141244,1.622740,-0.078260,1.548276,-0.078057,1.547642,-0.077562,1.547195,-0.067294,1.525616,-0.067270,1.525157,-0.066988,1.524794,-0.052970,1.473887,-0.053018,1.473502,-0.052828,1.473166,-0.043355,1.395610,-0.043407,1.395423,-0.043324,1.395247,
-0.037978,1.285815,-0.038012,1.285721,-0.037972,1.285629,-0.036333,1.142988,-0.036345,1.142959,-0.036333,1.142930,-0.036333,0.840334,0.847667,0.840334,0.851203,0.838870,0.852667,0.835334,0.852667,-1.556500,0.851203,-1.560036,0.847667,-1.561500,0.170334,-1.561500,0.166798,-1.560036,0.165334,-1.556500,0.165334,-1.358195,0.159031,-1.209964,0.138431,-1.092531,0.100965,-0.995409,
0.050931,-0.917180,-0.017310,-0.851149,-0.111318,-0.790433,-0.214663,-0.744555,-0.281264,-0.726793,-0.382969,-0.726071,-0.495491,-0.753051,-0.603063,-0.802743,-0.672657,-0.853379,-0.744944,-0.929810,-0.796076,-1.013398,-0.829824,-1.113826,-0.849762,-1.240862,-0.856627,-1.335491,-0.867919,-1.556755,-0.868692,-1.558381,-0.869377,-1.560036,-0.869503,-1.560088,-0.869562,-1.560212,-0.871261,-1.560816,
-0.872913,-1.561500,-1.544166,-1.561500,-1.547702,-1.560036,-1.549166,-1.556500,-1.549166,-0.879166,-1.547702,-0.875630,-1.544166,-0.874166,-1.357593,-0.874166,-1.251836,-0.870138,-1.149912,-0.859398,-1.070077,-0.843951,-1.064520,-0.842370,-0.947819,-0.787260,-0.846521,-0.700617,-0.767325,-0.591463,-0.717185,-0.469067,-0.702552,-0.360635,-0.722265,-0.234314,-0.776909,-0.113267,-0.859656,-0.006728,
-0.963545,0.076020,-1.064303,0.121114,-1.140550,0.136853,-1.241079,0.148160,-1.347293,0.152956,-1.357529,0.153000,-1.544166,0.153000,-1.547702,0.154464,-1.549166,0.158000,-1.549166,0.835334,-1.547702,0.838870,-1.544166,0.840334,-0.660157,0.840334,-0.659662,1.105218,-0.659650,1.105246,-0.659662,1.105276,-0.657672,1.253145,-0.657626,1.253252,-0.657664,1.253362,-0.651248,1.366157,
-0.651145,1.366370,-0.651203,1.366599,-0.638744,1.451487,-0.638531,1.451843,-0.638568,1.452257,-0.618452,1.516405,-0.618081,1.516849,-0.618004,1.517421,-0.588615,1.567995,-0.588175,1.568331,-0.587987,1.568852,-0.547712,1.613018,-0.547510,1.613113,-0.547417,1.613315,-0.543579,1.616875,-0.543404,1.616940,-0.543314,1.617104,-0.490610,1.659529,-0.489894,1.659739,-0.489364,1.660263,
-0.439476,1.680619,-0.438702,1.680615,-0.438018,1.680970,-0.370461,1.686810,-0.370257,1.686745,-0.370058,1.686829,-0.353881,1.686921,-0.353535,1.686780,-0.353535,1.686780,$1*%
G04 Aperture macros list end*
%TA.AperFunction,EtchedComponent*%
%ADD10C,0.010000*%
%TD*%
%TA.AperFunction,SMDPad,CuDef*%
%ADD11RoundRect,0.135000X-0.185000X0.135000X-0.185000X-0.135000X0.185000X-0.135000X0.185000X0.135000X0*%
%TD*%
%TA.AperFunction,ComponentPad*%
%ADD12C,0.800000*%
%TD*%
%TA.AperFunction,ComponentPad*%
%ADD13C,6.400000*%
%TD*%
%TA.AperFunction,SMDPad,CuDef*%
%ADD14R,0.350000X2.000000*%
%TD*%
%TA.AperFunction,SMDPad,CuDef*%
%ADD15RoundRect,0.147500X-0.172500X0.147500X-0.172500X-0.147500X0.172500X-0.147500X0.172500X0.147500X0*%
%TD*%
%TA.AperFunction,SMDPad,CuDef*%
%ADD16RoundRect,0.140000X-0.140000X-0.170000X0.140000X-0.170000X0.140000X0.170000X-0.140000X0.170000X0*%
%TD*%
%TA.AperFunction,SMDPad,CuDef*%
%ADD17RoundRect,0.062500X-0.350000X-0.062500X0.350000X-0.062500X0.350000X0.062500X-0.350000X0.062500X0*%
%TD*%
%TA.AperFunction,SMDPad,CuDef*%
%ADD18RoundRect,0.062500X-0.062500X-0.350000X0.062500X-0.350000X0.062500X0.350000X-0.062500X0.350000X0*%
%TD*%
%TA.AperFunction,ComponentPad*%
%ADD19C,0.500000*%
%TD*%
%TA.AperFunction,SMDPad,CuDef*%
%ADD20R,1.680000X1.680000*%
%TD*%
%TA.AperFunction,SMDPad,CuDef*%
%ADD21RoundRect,0.135000X0.185000X-0.135000X0.185000X0.135000X-0.185000X0.135000X-0.185000X-0.135000X0*%
%TD*%
%TA.AperFunction,SMDPad,CuDef*%
%ADD22RoundRect,0.140000X-0.170000X0.140000X-0.170000X-0.140000X0.170000X-0.140000X0.170000X0.140000X0*%
%TD*%
%TA.AperFunction,SMDPad,CuDef*%
%ADD23FreePoly0,0.000000*%
%TD*%
%TA.AperFunction,SMDPad,CuDef*%
%ADD24FreePoly1,0.000000*%
%TD*%
%TA.AperFunction,SMDPad,CuDef*%
%ADD25R,1.300000X2.000000*%
%TD*%
%TA.AperFunction,SMDPad,CuDef*%
%ADD26R,2.000000X2.000000*%
%TD*%
%TA.AperFunction,SMDPad,CuDef*%
%ADD27R,0.800000X0.800000*%
%TD*%
%TA.AperFunction,SMDPad,CuDef*%
%ADD28C,1.000000*%
%TD*%
%TA.AperFunction,SMDPad,CuDef*%
%ADD29R,0.600000X0.800000*%
%TD*%
%TA.AperFunction,SMDPad,CuDef*%
%ADD30RoundRect,0.140000X0.170000X-0.140000X0.170000X0.140000X-0.170000X0.140000X-0.170000X-0.140000X0*%
%TD*%
%TA.AperFunction,SMDPad,CuDef*%
%ADD31RoundRect,0.140000X0.140000X0.170000X-0.140000X0.170000X-0.140000X-0.170000X0.140000X-0.170000X0*%
%TD*%
%TA.AperFunction,ViaPad*%
%ADD32C,0.600000*%
%TD*%
%TA.AperFunction,Conductor*%
%ADD33C,0.200000*%
%TD*%
%TA.AperFunction,Conductor*%
%ADD34C,0.250000*%
%TD*%
G04 APERTURE END LIST*
%TO.C,L1*%
G36*
X44525979Y-20422986D02*
G01*
X44528031Y-20478243D01*
X44528888Y-20561721D01*
X44528455Y-20666370D01*
X44527399Y-20744690D01*
X44521584Y-21086379D01*
X43729170Y-21535417D01*
X43727834Y-23398899D01*
X43444490Y-23562533D01*
X43346134Y-23618881D01*
X43260919Y-23666844D01*
X43195441Y-23702775D01*
X43156298Y-23723030D01*
X43148379Y-23726167D01*
X43145579Y-23705717D01*
X43142741Y-23647237D01*
X43139952Y-23555027D01*
X43137295Y-23433391D01*
X43134858Y-23286630D01*
X43132726Y-23119047D01*
X43130984Y-22934943D01*
X43130098Y-22807789D01*
X43124584Y-21889411D01*
X42690667Y-22140681D01*
X42566970Y-22211555D01*
X42454307Y-22274675D01*
X42358185Y-22327070D01*
X42284112Y-22365771D01*
X42237594Y-22387808D01*
X42225000Y-22391800D01*
X42198356Y-22381515D01*
X42140736Y-22352730D01*
X42057649Y-22308418D01*
X41954601Y-22251554D01*
X41837100Y-22185111D01*
X41759334Y-22140368D01*
X41325417Y-21889086D01*
X41319903Y-22807626D01*
X41318260Y-23038788D01*
X41316287Y-23230598D01*
X41313880Y-23386040D01*
X41310937Y-23508096D01*
X41307352Y-23599746D01*
X41303025Y-23663974D01*
X41297850Y-23703761D01*
X41291725Y-23722089D01*
X41288153Y-23724131D01*
X41261519Y-23713005D01*
X41205844Y-23683752D01*
X41128224Y-23640293D01*
X41035756Y-23586548D01*
X40992042Y-23560560D01*
X40722167Y-23399024D01*
X40721846Y-22467220D01*
X40721525Y-21535417D01*
X39919245Y-21090917D01*
X39918539Y-20746959D01*
X39918922Y-20631666D01*
X39920433Y-20532809D01*
X39922868Y-20457419D01*
X39926025Y-20412523D01*
X39928493Y-20403000D01*
X39948222Y-20413278D01*
X40001473Y-20442914D01*
X40085097Y-20490113D01*
X40195947Y-20553079D01*
X40330874Y-20630018D01*
X40486732Y-20719133D01*
X40660372Y-20818630D01*
X40848646Y-20926713D01*
X41048407Y-21041586D01*
X41082018Y-21060932D01*
X42224883Y-21718865D01*
X43368660Y-21060932D01*
X43570096Y-20945154D01*
X43760552Y-20835867D01*
X43936883Y-20734865D01*
X44095940Y-20643943D01*
X44234578Y-20564893D01*
X44349651Y-20499509D01*
X44438010Y-20449585D01*
X44496511Y-20416915D01*
X44522006Y-20403293D01*
X44522826Y-20403000D01*
X44525979Y-20422986D01*
G37*
D10*
X44525979Y-20422986D02*
X44528031Y-20478243D01*
X44528888Y-20561721D01*
X44528455Y-20666370D01*
X44527399Y-20744690D01*
X44521584Y-21086379D01*
X43729170Y-21535417D01*
X43727834Y-23398899D01*
X43444490Y-23562533D01*
X43346134Y-23618881D01*
X43260919Y-23666844D01*
X43195441Y-23702775D01*
X43156298Y-23723030D01*
X43148379Y-23726167D01*
X43145579Y-23705717D01*
X43142741Y-23647237D01*
X43139952Y-23555027D01*
X43137295Y-23433391D01*
X43134858Y-23286630D01*
X43132726Y-23119047D01*
X43130984Y-22934943D01*
X43130098Y-22807789D01*
X43124584Y-21889411D01*
X42690667Y-22140681D01*
X42566970Y-22211555D01*
X42454307Y-22274675D01*
X42358185Y-22327070D01*
X42284112Y-22365771D01*
X42237594Y-22387808D01*
X42225000Y-22391800D01*
X42198356Y-22381515D01*
X42140736Y-22352730D01*
X42057649Y-22308418D01*
X41954601Y-22251554D01*
X41837100Y-22185111D01*
X41759334Y-22140368D01*
X41325417Y-21889086D01*
X41319903Y-22807626D01*
X41318260Y-23038788D01*
X41316287Y-23230598D01*
X41313880Y-23386040D01*
X41310937Y-23508096D01*
X41307352Y-23599746D01*
X41303025Y-23663974D01*
X41297850Y-23703761D01*
X41291725Y-23722089D01*
X41288153Y-23724131D01*
X41261519Y-23713005D01*
X41205844Y-23683752D01*
X41128224Y-23640293D01*
X41035756Y-23586548D01*
X40992042Y-23560560D01*
X40722167Y-23399024D01*
X40721846Y-22467220D01*
X40721525Y-21535417D01*
X39919245Y-21090917D01*
X39918539Y-20746959D01*
X39918922Y-20631666D01*
X39920433Y-20532809D01*
X39922868Y-20457419D01*
X39926025Y-20412523D01*
X39928493Y-20403000D01*
X39948222Y-20413278D01*
X40001473Y-20442914D01*
X40085097Y-20490113D01*
X40195947Y-20553079D01*
X40330874Y-20630018D01*
X40486732Y-20719133D01*
X40660372Y-20818630D01*
X40848646Y-20926713D01*
X41048407Y-21041586D01*
X41082018Y-21060932D01*
X42224883Y-21718865D01*
X43368660Y-21060932D01*
X43570096Y-20945154D01*
X43760552Y-20835867D01*
X43936883Y-20734865D01*
X44095940Y-20643943D01*
X44234578Y-20564893D01*
X44349651Y-20499509D01*
X44438010Y-20449585D01*
X44496511Y-20416915D01*
X44522006Y-20403293D01*
X44522826Y-20403000D01*
X44525979Y-20422986D01*
G36*
X43873514Y-19883922D02*
G01*
X43928994Y-19911150D01*
X44003410Y-19950957D01*
X44088896Y-19998785D01*
X44177586Y-20050074D01*
X44261617Y-20100266D01*
X44333122Y-20144801D01*
X44384236Y-20179120D01*
X44407095Y-20198665D01*
X44407600Y-20200041D01*
X44390130Y-20213967D01*
X44339718Y-20246484D01*
X44260267Y-20295338D01*
X44155679Y-20358274D01*
X44029858Y-20433039D01*
X43886707Y-20517378D01*
X43730129Y-20609038D01*
X43564028Y-20705764D01*
X43392306Y-20805302D01*
X43218866Y-20905397D01*
X43047612Y-21003797D01*
X42882447Y-21098246D01*
X42727273Y-21186491D01*
X42585995Y-21266277D01*
X42462514Y-21335350D01*
X42360735Y-21391456D01*
X42284560Y-21432342D01*
X42237892Y-21455752D01*
X42225000Y-21460539D01*
X42201324Y-21450209D01*
X42144361Y-21420513D01*
X42057449Y-21373319D01*
X41943925Y-21310491D01*
X41807127Y-21233899D01*
X41650390Y-21145409D01*
X41477052Y-21046888D01*
X41290450Y-20940202D01*
X41124334Y-20844743D01*
X40929406Y-20732366D01*
X40745348Y-20626053D01*
X40575450Y-20527718D01*
X40423002Y-20439276D01*
X40291295Y-20362640D01*
X40183620Y-20299725D01*
X40103267Y-20252445D01*
X40053527Y-20222715D01*
X40037772Y-20212669D01*
X40049831Y-20198342D01*
X40091699Y-20168126D01*
X40156003Y-20126367D01*
X40235372Y-20077413D01*
X40322430Y-20025612D01*
X40409807Y-19975313D01*
X40490128Y-19930862D01*
X40556022Y-19896608D01*
X40600114Y-19876899D01*
X40612362Y-19873834D01*
X40634590Y-19884063D01*
X40689616Y-19913315D01*
X40773586Y-19959429D01*
X40882643Y-20020250D01*
X41012932Y-20093618D01*
X41160597Y-20177377D01*
X41321781Y-20269367D01*
X41429227Y-20330975D01*
X42225073Y-20788117D01*
X43021261Y-20330975D01*
X43189318Y-20234835D01*
X43346546Y-20145568D01*
X43489052Y-20065334D01*
X43612943Y-19996294D01*
X43714325Y-19940610D01*
X43789305Y-19900442D01*
X43833989Y-19877953D01*
X43844834Y-19873834D01*
X43873514Y-19883922D01*
G37*
X43873514Y-19883922D02*
X43928994Y-19911150D01*
X44003410Y-19950957D01*
X44088896Y-19998785D01*
X44177586Y-20050074D01*
X44261617Y-20100266D01*
X44333122Y-20144801D01*
X44384236Y-20179120D01*
X44407095Y-20198665D01*
X44407600Y-20200041D01*
X44390130Y-20213967D01*
X44339718Y-20246484D01*
X44260267Y-20295338D01*
X44155679Y-20358274D01*
X44029858Y-20433039D01*
X43886707Y-20517378D01*
X43730129Y-20609038D01*
X43564028Y-20705764D01*
X43392306Y-20805302D01*
X43218866Y-20905397D01*
X43047612Y-21003797D01*
X42882447Y-21098246D01*
X42727273Y-21186491D01*
X42585995Y-21266277D01*
X42462514Y-21335350D01*
X42360735Y-21391456D01*
X42284560Y-21432342D01*
X42237892Y-21455752D01*
X42225000Y-21460539D01*
X42201324Y-21450209D01*
X42144361Y-21420513D01*
X42057449Y-21373319D01*
X41943925Y-21310491D01*
X41807127Y-21233899D01*
X41650390Y-21145409D01*
X41477052Y-21046888D01*
X41290450Y-20940202D01*
X41124334Y-20844743D01*
X40929406Y-20732366D01*
X40745348Y-20626053D01*
X40575450Y-20527718D01*
X40423002Y-20439276D01*
X40291295Y-20362640D01*
X40183620Y-20299725D01*
X40103267Y-20252445D01*
X40053527Y-20222715D01*
X40037772Y-20212669D01*
X40049831Y-20198342D01*
X40091699Y-20168126D01*
X40156003Y-20126367D01*
X40235372Y-20077413D01*
X40322430Y-20025612D01*
X40409807Y-19975313D01*
X40490128Y-19930862D01*
X40556022Y-19896608D01*
X40600114Y-19876899D01*
X40612362Y-19873834D01*
X40634590Y-19884063D01*
X40689616Y-19913315D01*
X40773586Y-19959429D01*
X40882643Y-20020250D01*
X41012932Y-20093618D01*
X41160597Y-20177377D01*
X41321781Y-20269367D01*
X41429227Y-20330975D01*
X42225073Y-20788117D01*
X43021261Y-20330975D01*
X43189318Y-20234835D01*
X43346546Y-20145568D01*
X43489052Y-20065334D01*
X43612943Y-19996294D01*
X43714325Y-19940610D01*
X43789305Y-19900442D01*
X43833989Y-19877953D01*
X43844834Y-19873834D01*
X43873514Y-19883922D01*
G36*
X42909104Y-22286180D02*
G01*
X42913442Y-22345112D01*
X42917136Y-22438551D01*
X42920082Y-22562583D01*
X42922177Y-22713297D01*
X42923317Y-22886781D01*
X42923500Y-22995917D01*
X42923058Y-23166941D01*
X42921800Y-23323716D01*
X42919831Y-23461419D01*
X42917257Y-23575229D01*
X42914183Y-23660327D01*
X42910712Y-23711890D01*
X42907625Y-23725767D01*
X42884720Y-23715500D01*
X42832033Y-23687456D01*
X42756266Y-23645332D01*
X42664119Y-23592826D01*
X42610861Y-23562012D01*
X42329972Y-23398658D01*
X42335694Y-22988376D01*
X42341417Y-22578095D01*
X42613183Y-22421881D01*
X42710098Y-22366886D01*
X42794434Y-22320371D01*
X42859231Y-22286071D01*
X42897528Y-22267724D01*
X42904224Y-22265667D01*
X42909104Y-22286180D01*
G37*
X42909104Y-22286180D02*
X42913442Y-22345112D01*
X42917136Y-22438551D01*
X42920082Y-22562583D01*
X42922177Y-22713297D01*
X42923317Y-22886781D01*
X42923500Y-22995917D01*
X42923058Y-23166941D01*
X42921800Y-23323716D01*
X42919831Y-23461419D01*
X42917257Y-23575229D01*
X42914183Y-23660327D01*
X42910712Y-23711890D01*
X42907625Y-23725767D01*
X42884720Y-23715500D01*
X42832033Y-23687456D01*
X42756266Y-23645332D01*
X42664119Y-23592826D01*
X42610861Y-23562012D01*
X42329972Y-23398658D01*
X42335694Y-22988376D01*
X42341417Y-22578095D01*
X42613183Y-22421881D01*
X42710098Y-22366886D01*
X42794434Y-22320371D01*
X42859231Y-22286071D01*
X42897528Y-22267724D01*
X42904224Y-22265667D01*
X42909104Y-22286180D01*
G36*
X41564015Y-22275617D02*
G01*
X41616638Y-22303048D01*
X41692514Y-22344331D01*
X41784923Y-22395836D01*
X41837699Y-22425693D01*
X42119167Y-22585720D01*
X42118377Y-23398084D01*
X41834050Y-23562125D01*
X41735609Y-23618510D01*
X41650419Y-23666529D01*
X41585034Y-23702547D01*
X41546009Y-23722933D01*
X41538112Y-23726167D01*
X41535392Y-23705804D01*
X41532898Y-23647933D01*
X41530708Y-23557379D01*
X41528897Y-23438964D01*
X41527543Y-23297515D01*
X41526722Y-23137856D01*
X41526500Y-22995917D01*
X41526915Y-22824871D01*
X41528093Y-22668057D01*
X41529936Y-22530299D01*
X41532347Y-22416422D01*
X41535226Y-22331251D01*
X41538477Y-22279609D01*
X41541366Y-22265667D01*
X41564015Y-22275617D01*
G37*
X41564015Y-22275617D02*
X41616638Y-22303048D01*
X41692514Y-22344331D01*
X41784923Y-22395836D01*
X41837699Y-22425693D01*
X42119167Y-22585720D01*
X42118377Y-23398084D01*
X41834050Y-23562125D01*
X41735609Y-23618510D01*
X41650419Y-23666529D01*
X41585034Y-23702547D01*
X41546009Y-23722933D01*
X41538112Y-23726167D01*
X41535392Y-23705804D01*
X41532898Y-23647933D01*
X41530708Y-23557379D01*
X41528897Y-23438964D01*
X41527543Y-23297515D01*
X41526722Y-23137856D01*
X41526500Y-22995917D01*
X41526915Y-22824871D01*
X41528093Y-22668057D01*
X41529936Y-22530299D01*
X41532347Y-22416422D01*
X41535226Y-22331251D01*
X41538477Y-22279609D01*
X41541366Y-22265667D01*
X41564015Y-22275617D01*
%TD*%
D11*
%TO.P,R5,1*%
%TO.N,GND*%
X40705000Y-35405000D03*
%TO.P,R5,2*%
%TO.N,Net-(R5-Pad2)*%
X40705000Y-36425000D03*
%TD*%
%TO.P,R3,1*%
%TO.N,vddh*%
X44895000Y-41895000D03*
%TO.P,R3,2*%
%TO.N,Net-(D1-Pad2)*%
X44895000Y-42915000D03*
%TD*%
%TO.P,R2,1*%
%TO.N,BATTERY_PIN*%
X38000000Y-39930000D03*
%TO.P,R2,2*%
%TO.N,GND*%
X38000000Y-40950000D03*
%TD*%
D12*
%TO.P,H1,1,1*%
%TO.N,GND*%
X33077944Y-20722056D03*
X37175000Y-19025000D03*
X34775000Y-16625000D03*
X33077944Y-17327944D03*
X32375000Y-19025000D03*
X36472056Y-17327944D03*
D13*
X34775000Y-19025000D03*
D12*
X36472056Y-20722056D03*
X34775000Y-21425000D03*
%TD*%
D14*
%TO.P,M1,1,RESET1*%
%TO.N,reset*%
X44025000Y-47475000D03*
%TO.P,M1,3,RESET2*%
%TO.N,GND*%
X43525000Y-47475000D03*
%TO.P,M1,5,VIN*%
%TO.N,+5V*%
X43025000Y-47475000D03*
%TO.P,M1,7,GND*%
%TO.N,GND*%
X42525000Y-47475000D03*
%TO.P,M1,9,VOUT*%
%TO.N,vddh*%
X42025000Y-47475000D03*
%TO.P,M1,11,NC*%
%TO.N,unconnected-(M1-Pad11)*%
X41525000Y-47475000D03*
%TO.P,M1,13,D+*%
%TO.N,USB-D+*%
X41025000Y-47475000D03*
%TO.P,M1,15,D-*%
%TO.N,USB-D-*%
X40525000Y-47475000D03*
%TO.P,M1,17,DEBUG1*%
%TO.N,swdio*%
X40025000Y-47475000D03*
%TO.P,M1,19,DEBUG2*%
%TO.N,swdclk*%
X39525000Y-47475000D03*
%TO.P,M1,21,DEBUG3*%
%TO.N,unconnected-(M1-Pad21)*%
X39025000Y-47475000D03*
%TO.P,M1,23,VBAT*%
%TO.N,VBAT*%
X38525000Y-47475000D03*
%TO.P,M1,33,P14*%
%TO.N,P7*%
X36025000Y-47475000D03*
%TO.P,M1,35,P15*%
%TO.N,P6*%
X35525000Y-47475000D03*
%TO.P,M1,37,P16*%
%TO.N,P5*%
X35025000Y-47475000D03*
%TO.P,M1,39,P17*%
%TO.N,P4*%
X34525000Y-47475000D03*
%TO.P,M1,41,P18*%
%TO.N,P3*%
X34025000Y-47475000D03*
%TO.P,M1,43,P19*%
%TO.N,P2*%
X33525000Y-47475000D03*
%TO.P,M1,45,P20*%
%TO.N,P1*%
X33025000Y-47475000D03*
%TO.P,M1,47,P21*%
%TO.N,P0*%
X32525000Y-47475000D03*
%TO.P,M1,49,P22*%
%TO.N,P28*%
X32025000Y-47475000D03*
%TO.P,M1,51,P23*%
%TO.N,P29*%
X31525000Y-47475000D03*
%TO.P,M1,53,P24*%
%TO.N,P30*%
X31025000Y-47475000D03*
%TO.P,M1,55,P25*%
%TO.N,P31*%
X30525000Y-47475000D03*
%TO.P,M1,57,P26*%
%TO.N,P43*%
X30025000Y-47475000D03*
%TO.P,M1,59,P27*%
%TO.N,P42*%
X29525000Y-47475000D03*
%TO.P,M1,61,NC*%
%TO.N,unconnected-(M1-Pad61)*%
X29025000Y-47475000D03*
%TO.P,M1,63,NC*%
%TO.N,unconnected-(M1-Pad63)*%
X28525000Y-47475000D03*
%TO.P,M1,65,NC*%
%TO.N,unconnected-(M1-Pad65)*%
X28025000Y-47475000D03*
%TO.P,M1,67,NC*%
%TO.N,unconnected-(M1-Pad67)*%
X27525000Y-47475000D03*
%TO.P,M1,69,NC*%
%TO.N,unconnected-(M1-Pad69)*%
X27025000Y-47475000D03*
%TO.P,M1,71,NC*%
%TO.N,unconnected-(M1-Pad71)*%
X26525000Y-47475000D03*
%TO.P,M1,73,NC*%
%TO.N,unconnected-(M1-Pad73)*%
X26025000Y-47475000D03*
%TO.P,M1,75,NC*%
%TO.N,unconnected-(M1-Pad75)*%
X25525000Y-47475000D03*
%TD*%
D15*
%TO.P,D1,1,K*%
%TO.N,Net-(D1-Pad1)*%
X43815000Y-41930000D03*
%TO.P,D1,2,A*%
%TO.N,Net-(D1-Pad2)*%
X43815000Y-42900000D03*
%TD*%
D16*
%TO.P,R6,1*%
%TO.N,TMR*%
X42519999Y-25555000D03*
%TO.P,R6,2*%
%TO.N,GND*%
X43479999Y-25555000D03*
%TD*%
D15*
%TO.P,D2,1,K*%
%TO.N,Net-(D2-Pad1)*%
X42715000Y-41930000D03*
%TO.P,D2,2,A*%
%TO.N,Net-(D2-Pad2)*%
X42715000Y-42900000D03*
%TD*%
D17*
%TO.P,U2,1,TS*%
%TO.N,Net-(R5-Pad2)*%
X40652500Y-38275000D03*
%TO.P,U2,2,BAT_1*%
%TO.N,VBAT*%
X40652500Y-38775000D03*
%TO.P,U2,3,BAT_2*%
X40652500Y-39275000D03*
%TO.P,U2,4,~{CE}*%
%TO.N,GND*%
X40652500Y-39775000D03*
D18*
%TO.P,U2,5,EN2*%
X41365000Y-40487500D03*
%TO.P,U2,6,EN1*%
%TO.N,vddh*%
X41865000Y-40487500D03*
%TO.P,U2,7,~{PGOOD}*%
%TO.N,Net-(D2-Pad1)*%
X42365000Y-40487500D03*
%TO.P,U2,8,VSS*%
%TO.N,GND*%
X42865000Y-40487500D03*
D17*
%TO.P,U2,9,~{CHG}*%
%TO.N,Net-(D1-Pad1)*%
X43577500Y-39775000D03*
%TO.P,U2,10,OUT_1*%
%TO.N,vddh*%
X43577500Y-39275000D03*
%TO.P,U2,11,OUT_2*%
X43577500Y-38775000D03*
%TO.P,U2,12,ILIM*%
%TO.N,unconnected-(U2-Pad12)*%
X43577500Y-38275000D03*
D18*
%TO.P,U2,13,IN*%
%TO.N,+5V*%
X42865000Y-37562500D03*
%TO.P,U2,14,TMR*%
%TO.N,TMR*%
X42365000Y-37562500D03*
%TO.P,U2,15,ITERM*%
%TO.N,ITERM*%
X41865000Y-37562500D03*
%TO.P,U2,16,ISET*%
%TO.N,ISET*%
X41365000Y-37562500D03*
D19*
%TO.P,U2,17,TH*%
%TO.N,GND*%
X42705000Y-38435000D03*
X42705000Y-39615000D03*
X41525000Y-39615000D03*
D20*
X42115000Y-39025000D03*
D19*
X41525000Y-38435000D03*
%TD*%
D21*
%TO.P,R1,1*%
%TO.N,VBAT*%
X39050000Y-40950000D03*
%TO.P,R1,2*%
%TO.N,BATTERY_PIN*%
X39050000Y-39930000D03*
%TD*%
D22*
%TO.P,C5,1*%
%TO.N,VBAT*%
X40435000Y-41935000D03*
%TO.P,C5,2*%
%TO.N,GND*%
X40435000Y-42895000D03*
%TD*%
D23*
%TO.P,SW101,1,A*%
%TO.N,GND*%
X26350000Y-21950000D03*
D24*
%TO.P,SW101,2,B*%
%TO.N,reset*%
X29300000Y-21300000D03*
%TD*%
D25*
%TO.P,RV1,1,1*%
%TO.N,unconnected-(RV1-Pad1)*%
X43895000Y-33435000D03*
D26*
%TO.P,RV1,2,2*%
%TO.N,GND*%
X42745000Y-29435000D03*
D25*
%TO.P,RV1,3,3*%
%TO.N,ISET*%
X41595000Y-33435000D03*
%TD*%
D27*
%TO.P,U1,1,P0.03*%
%TO.N,P0*%
X24825000Y-38285000D03*
%TO.P,U1,2,P0.02*%
%TO.N,P1*%
X26025000Y-38285000D03*
%TO.P,U1,3,P0.28*%
%TO.N,P2*%
X27225000Y-38285000D03*
%TO.P,U1,4,P0.29*%
%TO.N,P3*%
X28425000Y-38285000D03*
%TO.P,U1,5,P0.30*%
%TO.N,P4*%
X29625000Y-38285000D03*
%TO.P,U1,6,P0.31*%
%TO.N,P5*%
X30825000Y-38285000D03*
%TO.P,U1,7,P0.07*%
%TO.N,P6*%
X32025000Y-38285000D03*
%TO.P,U1,8,P0.05*%
%TO.N,P7*%
X33225000Y-38285000D03*
D28*
%TO.P,U1,9,VDD_nRF*%
%TO.N,unconnected-(U1-Pad9)*%
X34135000Y-34495000D03*
D27*
X34425000Y-38285000D03*
%TO.P,U1,10,GND*%
%TO.N,GND*%
X35625000Y-38285000D03*
%TO.P,U1,11,P0.27*%
%TO.N,P8*%
X36825000Y-38285000D03*
%TO.P,U1,12,P0.26*%
%TO.N,P9*%
X38025000Y-38285000D03*
%TO.P,U1,13,P0.04*%
%TO.N,BATTERY_PIN*%
X39325000Y-37185000D03*
%TO.P,U1,14,P0.06*%
%TO.N,P10*%
X39325000Y-35985000D03*
%TO.P,U1,15,P0.11*%
%TO.N,P11*%
X39325000Y-34785000D03*
%TO.P,U1,16,P0.08*%
%TO.N,P12*%
X39325000Y-33585000D03*
%TO.P,U1,17,P0.09*%
%TO.N,P13*%
X39325000Y-32385000D03*
%TO.P,U1,18,P0.10*%
%TO.N,P14*%
X39325000Y-31185000D03*
D28*
%TO.P,U1,19,SWDCLK*%
%TO.N,swdclk*%
X37695000Y-29785000D03*
D27*
X39325000Y-29985000D03*
%TO.P,U1,20,SWDIO*%
%TO.N,swdio*%
X39325000Y-28785000D03*
D28*
X37695000Y-28555000D03*
D27*
%TO.P,U1,21,P0.12*%
%TO.N,P15*%
X39325000Y-27585000D03*
%TO.P,U1,22,P0.13*%
%TO.N,P16*%
X39325000Y-26385000D03*
%TO.P,U1,23,P0.14*%
%TO.N,P17*%
X38025000Y-25285000D03*
%TO.P,U1,24,P0.15*%
%TO.N,P18*%
X36825000Y-25285000D03*
%TO.P,U1,25,P0.16*%
%TO.N,P19*%
X35625000Y-25285000D03*
%TO.P,U1,26,P0.17*%
%TO.N,P20*%
X34425000Y-25285000D03*
%TO.P,U1,27,P0.18/RESET*%
%TO.N,reset*%
X33225000Y-25285000D03*
%TO.P,U1,28,P0.19*%
%TO.N,P21*%
X32025000Y-25285000D03*
%TO.P,U1,29,P0.20*%
%TO.N,P22*%
X30825000Y-25285000D03*
%TO.P,U1,30,P0.21*%
%TO.N,P23*%
X29625000Y-25285000D03*
%TO.P,U1,31,P0.22*%
%TO.N,P24*%
X28425000Y-25285000D03*
%TO.P,U1,32,P0.23*%
%TO.N,P25*%
X27225000Y-25285000D03*
%TO.P,U1,33,P0.24*%
%TO.N,P26*%
X26025000Y-25285000D03*
%TO.P,U1,34,P0.25*%
%TO.N,P27*%
X24825000Y-25285000D03*
D29*
%TO.P,U1,35,P1.10*%
%TO.N,P28*%
X25425000Y-36685000D03*
%TO.P,U1,36,P1.11*%
%TO.N,P29*%
X26625000Y-36685000D03*
%TO.P,U1,37,P1.12*%
%TO.N,P30*%
X27825000Y-36685000D03*
%TO.P,U1,38,P1.13*%
%TO.N,P31*%
X29025000Y-36685000D03*
%TO.P,U1,39,GND*%
%TO.N,GND*%
X30225000Y-36685000D03*
%TO.P,U1,40,P1.14*%
%TO.N,P32*%
X31425000Y-36685000D03*
%TO.P,U1,41,P1.15*%
%TO.N,P33*%
X32625000Y-36685000D03*
%TO.P,U1,42,VDDH*%
%TO.N,vddh*%
X33825000Y-36685000D03*
%TO.P,U1,43,GND*%
%TO.N,GND*%
X35025000Y-36685000D03*
%TO.P,U1,44,P1.08*%
%TO.N,P34*%
X36225000Y-36685000D03*
%TO.P,U1,45,P1.09*%
%TO.N,P35*%
X37425000Y-36685000D03*
%TO.P,U1,46,VBUS*%
%TO.N,+5V*%
X37425000Y-26885000D03*
%TO.P,U1,47,D-*%
%TO.N,USB-D-*%
X36225000Y-26885000D03*
%TO.P,U1,48,D+*%
%TO.N,USB-D+*%
X35025000Y-26885000D03*
%TO.P,U1,49,P1.00*%
%TO.N,P36*%
X33825000Y-26885000D03*
%TO.P,U1,50,P1.01*%
%TO.N,P37*%
X32625000Y-26885000D03*
%TO.P,U1,51,P1.02*%
%TO.N,P38*%
X31425000Y-26885000D03*
%TO.P,U1,52,P1.03*%
%TO.N,P39*%
X30225000Y-26885000D03*
%TO.P,U1,53,P1.04*%
%TO.N,P40*%
X29025000Y-26885000D03*
%TO.P,U1,54,P1.05*%
%TO.N,P41*%
X27825000Y-26885000D03*
%TO.P,U1,55,P1.06*%
%TO.N,P42*%
X26625000Y-26885000D03*
%TO.P,U1,56,P1.07*%
%TO.N,P43*%
X25425000Y-26885000D03*
D28*
%TO.P,U1,57,GND*%
%TO.N,GND*%
X32055000Y-34115000D03*
%TD*%
D16*
%TO.P,C4,1*%
%TO.N,+5V*%
X43314999Y-36225000D03*
%TO.P,C4,2*%
%TO.N,GND*%
X44274999Y-36225000D03*
%TD*%
D11*
%TO.P,R4,1*%
%TO.N,vddh*%
X41635000Y-41905000D03*
%TO.P,R4,2*%
%TO.N,Net-(D2-Pad2)*%
X41635000Y-42925000D03*
%TD*%
D16*
%TO.P,R8,1*%
%TO.N,ITERM*%
X42520000Y-24550000D03*
%TO.P,R8,2*%
%TO.N,GND*%
X43480000Y-24550000D03*
%TD*%
D22*
%TO.P,C3,1*%
%TO.N,vddh*%
X44815000Y-39775000D03*
%TO.P,C3,2*%
%TO.N,GND*%
X44815000Y-40735000D03*
%TD*%
D30*
%TO.P,C1,1*%
%TO.N,+5V*%
X43100000Y-27600000D03*
%TO.P,C1,2*%
%TO.N,GND*%
X43100000Y-26640000D03*
%TD*%
D31*
%TO.P,C2,1*%
%TO.N,GND*%
X35630000Y-39575000D03*
%TO.P,C2,2*%
%TO.N,vddh*%
X34670000Y-39575000D03*
%TD*%
D32*
%TO.N,+5V*%
X38250000Y-26875000D03*
X43950000Y-27600000D03*
X44025000Y-37050000D03*
%TO.N,vddh*%
X36025000Y-34850000D03*
X40857164Y-41180313D03*
X44455000Y-38565000D03*
X36625000Y-39975000D03*
%TO.N,GND*%
X30300000Y-23125000D03*
X44798776Y-36848818D03*
X24295000Y-40065000D03*
X44475000Y-25025000D03*
X24525000Y-27655000D03*
X38075000Y-42454500D03*
X37675000Y-30985000D03*
X40425000Y-34675000D03*
X44745000Y-29455000D03*
X42225000Y-19950000D03*
X40785051Y-40369248D03*
X39500000Y-43700000D03*
X40200000Y-23975000D03*
X44865000Y-35195000D03*
X37650000Y-35350000D03*
X42645000Y-31475000D03*
X43130980Y-41183061D03*
X43406089Y-44706089D03*
%TO.N,reset*%
X33225000Y-24325000D03*
%TO.N,USB-D+*%
X35926801Y-29463199D03*
%TO.N,USB-D-*%
X36563199Y-28826801D03*
%TO.N,swdio*%
X36875500Y-28061659D03*
%TO.N,swdclk*%
X36775000Y-29605000D03*
%TO.N,TMR*%
X42745498Y-34205000D03*
X41174430Y-28085803D03*
%TO.N,ITERM*%
X42035000Y-35045000D03*
X40375000Y-28075000D03*
%TO.N,P17*%
X39075000Y-25275000D03*
%TO.N,P18*%
X36825000Y-24325000D03*
%TO.N,P19*%
X35625000Y-24325000D03*
%TO.N,P20*%
X34450000Y-24325000D03*
%TO.N,P21*%
X32025000Y-24275000D03*
%TO.N,P22*%
X30825000Y-24275000D03*
%TO.N,P23*%
X29625000Y-24300000D03*
%TO.N,P24*%
X28425000Y-24325000D03*
%TO.N,P25*%
X27225000Y-24325000D03*
%TO.N,P26*%
X26025000Y-24325000D03*
%TO.N,P27*%
X24825000Y-24325000D03*
%TO.N,P28*%
X25552622Y-35162186D03*
X24951089Y-39298911D03*
%TO.N,P29*%
X25952142Y-34461205D03*
X25232721Y-40145549D03*
%TO.N,P30*%
X26351673Y-33760144D03*
X25452694Y-40930528D03*
%TO.N,P31*%
X26751193Y-32960648D03*
X25658514Y-41703084D03*
%TO.N,P37*%
X32289521Y-27764521D03*
%TO.N,P38*%
X30833549Y-27831834D03*
%TO.N,P39*%
X29947336Y-28677965D03*
%TO.N,P42*%
X27550221Y-31475000D03*
X27750000Y-43270660D03*
%TO.N,P43*%
X27150701Y-32217093D03*
X26926252Y-42871139D03*
%TD*%
D33*
%TO.N,+5V*%
X42865000Y-37525000D02*
X42865000Y-36675000D01*
D34*
X37425000Y-26885000D02*
X38240000Y-26885000D01*
X38240000Y-26885000D02*
X38250000Y-26875000D01*
X43100000Y-27600000D02*
X43950000Y-27600000D01*
D33*
X42865000Y-36675000D02*
X43315000Y-36225000D01*
D34*
X44025000Y-37050000D02*
X43314999Y-36339999D01*
%TO.N,vddh*%
X33825000Y-36225000D02*
X33825000Y-36685000D01*
X44815000Y-38925000D02*
X44815000Y-39775000D01*
X36625000Y-39975000D02*
X36390480Y-40209520D01*
X44665000Y-39775000D02*
X44155000Y-40285000D01*
X41635000Y-41905000D02*
X41865000Y-41675000D01*
X44155000Y-41155000D02*
X44895000Y-41895000D01*
X44455000Y-38565000D02*
X44815000Y-38925000D01*
X36025000Y-34850000D02*
X35200000Y-34850000D01*
X43815000Y-38775000D02*
X44315000Y-39275000D01*
X44155000Y-40285000D02*
X44155000Y-41155000D01*
X43615000Y-39275001D02*
X44315000Y-39275000D01*
X40960313Y-41180313D02*
X41635000Y-41855000D01*
X35200000Y-34850000D02*
X33825000Y-36225000D01*
X44315000Y-39275000D02*
X44815000Y-39775000D01*
X41865000Y-41675000D02*
X41865001Y-40487500D01*
X40857164Y-41180313D02*
X40960313Y-41180313D01*
X36390480Y-40209520D02*
X35297590Y-40209520D01*
X35297590Y-40209520D02*
X34670000Y-39581930D01*
D33*
%TO.N,GND*%
X24525000Y-27655000D02*
X24425000Y-27555000D01*
X24125489Y-37494511D02*
X24365000Y-37255000D01*
X24425000Y-26245000D02*
X24125489Y-25945489D01*
D34*
X40652500Y-39775000D02*
X41365000Y-39775000D01*
X39630000Y-43700000D02*
X40435000Y-42895000D01*
X37475000Y-35525000D02*
X37650000Y-35350000D01*
D33*
X24425000Y-27555000D02*
X24425000Y-26245000D01*
D34*
X30225000Y-36685000D02*
X30225000Y-35945000D01*
X35025000Y-36685000D02*
X35625000Y-37285000D01*
D33*
X24125489Y-39895489D02*
X24125489Y-37494511D01*
X42865000Y-39775000D02*
X42115000Y-39025000D01*
D34*
X42525000Y-45150978D02*
X42969889Y-44706089D01*
D33*
X24125489Y-25945489D02*
X24125489Y-23854511D01*
X45425000Y-37475042D02*
X45425000Y-40131930D01*
D34*
X42525000Y-47475000D02*
X42525000Y-45150978D01*
X40903303Y-40487500D02*
X41365000Y-40487500D01*
X35625000Y-37285000D02*
X35625000Y-38285000D01*
X43525000Y-47475000D02*
X43525000Y-44825000D01*
X43130980Y-41183061D02*
X42865000Y-40917081D01*
X42865000Y-40917081D02*
X42865000Y-40487500D01*
X41365000Y-40487500D02*
X41365000Y-39775000D01*
D33*
X44798776Y-36848818D02*
X45425000Y-37475042D01*
X24295000Y-40065000D02*
X24125489Y-39895489D01*
D34*
X41365000Y-39775000D02*
X41525000Y-39615000D01*
D33*
X45425000Y-40131930D02*
X44821930Y-40735000D01*
D34*
X35625000Y-38595000D02*
X35625000Y-38285000D01*
X40425000Y-35025000D02*
X40425000Y-34675000D01*
X40675000Y-35275000D02*
X40425000Y-35025000D01*
X40785051Y-40369248D02*
X40903303Y-40487500D01*
X42969889Y-44706089D02*
X43406089Y-44706089D01*
D33*
X42865000Y-40525000D02*
X42865000Y-39775000D01*
D34*
X35025000Y-35785000D02*
X35285000Y-35525000D01*
X35025000Y-36685000D02*
X35025000Y-35785000D01*
X43525000Y-44825000D02*
X43406089Y-44706089D01*
X35285000Y-35525000D02*
X37475000Y-35525000D01*
X30225000Y-35945000D02*
X32055000Y-34115000D01*
X39500000Y-43700000D02*
X39630000Y-43700000D01*
%TO.N,VBAT*%
X39915480Y-41415480D02*
X39450000Y-40950000D01*
X39915480Y-39552192D02*
X39915480Y-41415480D01*
X40652500Y-39275000D02*
X40192672Y-39275000D01*
X39915000Y-41935000D02*
X40435000Y-41935000D01*
X38525000Y-47475000D02*
X38525000Y-43325000D01*
X40652500Y-39275000D02*
X40652500Y-38775000D01*
X39915480Y-41415480D02*
X40435000Y-41935000D01*
X38525000Y-43325000D02*
X39915000Y-41935000D01*
X40192672Y-39275000D02*
X39915480Y-39552192D01*
X39450000Y-40950000D02*
X39050000Y-40950000D01*
D33*
%TO.N,Net-(D1-Pad1)*%
X43730480Y-41840480D02*
X43730480Y-39927979D01*
X43730480Y-39927979D02*
X43577500Y-39774999D01*
%TO.N,Net-(D1-Pad2)*%
X43815000Y-42900000D02*
X44865000Y-42900000D01*
%TO.N,Net-(D2-Pad1)*%
X42365000Y-40487500D02*
X42365000Y-41575001D01*
X42365000Y-41575001D02*
X42714999Y-41925000D01*
%TO.N,Net-(D2-Pad2)*%
X41635000Y-42925000D02*
X42690000Y-42925000D01*
%TO.N,reset*%
X33225000Y-25285000D02*
X33225000Y-24325000D01*
X30200000Y-21300000D02*
X33225000Y-24325000D01*
X29300000Y-21300000D02*
X30200000Y-21300000D01*
%TO.N,P0*%
X30358518Y-40673560D02*
X27173560Y-40673560D01*
X32525000Y-42840042D02*
X30358518Y-40673560D01*
X32525000Y-46475000D02*
X32525000Y-42840042D01*
X27173560Y-40673560D02*
X24825000Y-38325000D01*
%TO.N,USB-D+*%
X35025000Y-27485001D02*
X35375000Y-27835001D01*
X35025000Y-26885000D02*
X35025000Y-27485001D01*
X35375000Y-27835001D02*
X35375000Y-28628554D01*
X35926801Y-29180355D02*
X35926801Y-29463199D01*
X35375000Y-28628554D02*
X35926801Y-29180355D01*
%TO.N,USB-D-*%
X36280355Y-28826801D02*
X36563199Y-28826801D01*
X36225000Y-26885000D02*
X36225000Y-27485001D01*
X35875000Y-28421446D02*
X36280355Y-28826801D01*
X35875000Y-27835001D02*
X35875000Y-28421446D01*
X36225000Y-27485001D02*
X35875000Y-27835001D01*
%TO.N,swdio*%
X37201659Y-28061659D02*
X37695000Y-28555000D01*
X37695000Y-28555000D02*
X39095000Y-28555000D01*
X36875500Y-28061659D02*
X37201659Y-28061659D01*
%TO.N,swdclk*%
X39325000Y-29985000D02*
X37895000Y-29985000D01*
X36955000Y-29785000D02*
X37695000Y-29785000D01*
X36775000Y-29605000D02*
X36955000Y-29785000D01*
D34*
%TO.N,BATTERY_PIN*%
X38520000Y-39555000D02*
X39325000Y-38750000D01*
X38520000Y-39930000D02*
X38000000Y-39930000D01*
X38520000Y-39930000D02*
X38520000Y-39555000D01*
X39050000Y-39930000D02*
X38520000Y-39930000D01*
X39325000Y-38750000D02*
X39325000Y-37185000D01*
D33*
%TO.N,Net-(R5-Pad2)*%
X40705000Y-36425000D02*
X40705000Y-38222500D01*
X40705000Y-38222500D02*
X40652500Y-38275000D01*
%TO.N,TMR*%
X42745498Y-34205000D02*
X42880600Y-34340102D01*
X41174430Y-28085803D02*
X41174430Y-26900569D01*
X41174430Y-26900569D02*
X42519999Y-25555000D01*
X42365000Y-36055016D02*
X42365000Y-37562500D01*
X42880600Y-34340102D02*
X42880600Y-35539416D01*
X42880600Y-35539416D02*
X42365000Y-36055016D01*
%TO.N,ITERM*%
X41865000Y-35215000D02*
X41865000Y-37562500D01*
X42035000Y-35045000D02*
X41865000Y-35215000D01*
X40375000Y-26627493D02*
X42452493Y-24550000D01*
X40375000Y-28075000D02*
X40375000Y-26627493D01*
%TO.N,ISET*%
X41365000Y-33665000D02*
X41365000Y-37562500D01*
%TO.N,P1*%
X27899040Y-40274040D02*
X26025000Y-38400000D01*
X33025000Y-42775036D02*
X30524004Y-40274040D01*
X30524004Y-40274040D02*
X27899040Y-40274040D01*
X33025000Y-46475000D02*
X33025000Y-42775036D01*
%TO.N,P2*%
X33525000Y-42710030D02*
X33525000Y-46475000D01*
X28699520Y-39874520D02*
X30689490Y-39874520D01*
X30689490Y-39874520D02*
X33525000Y-42710030D01*
X27225000Y-38400000D02*
X28699520Y-39874520D01*
%TO.N,P3*%
X34025000Y-42645024D02*
X34025000Y-46475000D01*
X28425000Y-38400000D02*
X29500000Y-39475000D01*
X30854976Y-39475000D02*
X34025000Y-42645024D01*
X29500000Y-39475000D02*
X30854976Y-39475000D01*
%TO.N,P4*%
X34525000Y-42580018D02*
X34525000Y-46475000D01*
X31020463Y-39075481D02*
X34525000Y-42580018D01*
X29625000Y-38825000D02*
X29875481Y-39075481D01*
X29625000Y-38285000D02*
X29625000Y-38825000D01*
X29875481Y-39075481D02*
X31020463Y-39075481D01*
%TO.N,P5*%
X30825000Y-38315012D02*
X35025000Y-42515012D01*
X35025000Y-42515012D02*
X35025000Y-46475000D01*
%TO.N,P6*%
X35525000Y-46475000D02*
X35525000Y-42450006D01*
X35525000Y-42450006D02*
X32025000Y-38950006D01*
X32025000Y-38950006D02*
X32025000Y-38285000D01*
%TO.N,P7*%
X36025000Y-47475000D02*
X36025000Y-42385000D01*
X33225000Y-39585000D02*
X33225000Y-38285000D01*
X36025000Y-42385000D02*
X33225000Y-39585000D01*
%TO.N,P17*%
X39075000Y-25275000D02*
X38035000Y-25275000D01*
%TO.N,P18*%
X36825000Y-24325000D02*
X36825000Y-25285000D01*
%TO.N,P19*%
X35625000Y-24325000D02*
X35625000Y-25285000D01*
%TO.N,P20*%
X34450000Y-24325000D02*
X34450000Y-25260000D01*
%TO.N,P21*%
X32025000Y-25285000D02*
X32025000Y-24275000D01*
%TO.N,P22*%
X30825000Y-24275000D02*
X30825000Y-25285000D01*
%TO.N,P23*%
X29625000Y-24300000D02*
X29625000Y-25285000D01*
%TO.N,P24*%
X28425000Y-24325000D02*
X28425000Y-25285000D01*
%TO.N,P25*%
X27225000Y-25285000D02*
X27225000Y-24325000D01*
%TO.N,P26*%
X26025000Y-24325000D02*
X26025000Y-25285000D01*
%TO.N,P27*%
X24825000Y-24325000D02*
X24825000Y-25285000D01*
%TO.N,P28*%
X25233905Y-39298911D02*
X27008074Y-41073080D01*
X32025000Y-42905048D02*
X32025000Y-46475000D01*
X25552622Y-35162186D02*
X25552622Y-36557378D01*
X30193032Y-41073080D02*
X32025000Y-42905048D01*
X24951089Y-39298911D02*
X25233905Y-39298911D01*
X27008074Y-41073080D02*
X30193032Y-41073080D01*
%TO.N,P29*%
X31525000Y-42970054D02*
X31525000Y-46475000D01*
X30027546Y-41472600D02*
X31525000Y-42970054D01*
X25232721Y-40145549D02*
X25515537Y-40145549D01*
X26625000Y-35134063D02*
X26625000Y-36685000D01*
X25515537Y-40145549D02*
X26842588Y-41472600D01*
X25952142Y-34461205D02*
X26625000Y-35134063D01*
X26842588Y-41472600D02*
X30027546Y-41472600D01*
%TO.N,P30*%
X26351673Y-33760144D02*
X27825000Y-35233471D01*
X25735510Y-40930528D02*
X26677102Y-41872120D01*
X27825000Y-35233471D02*
X27825000Y-36685000D01*
X25452694Y-40930528D02*
X25735510Y-40930528D01*
X31025000Y-43035060D02*
X31025000Y-46475000D01*
X26677102Y-41872120D02*
X29862060Y-41872120D01*
X29862060Y-41872120D02*
X31025000Y-43035060D01*
%TO.N,P31*%
X26751193Y-32960648D02*
X29025000Y-35234455D01*
X29025000Y-35234455D02*
X29025000Y-36685000D01*
X25943060Y-41703084D02*
X26511616Y-42271640D01*
X29696574Y-42271640D02*
X30525000Y-43100066D01*
X25658514Y-41703084D02*
X25943060Y-41703084D01*
X26511616Y-42271639D02*
X29696574Y-42271640D01*
X30525000Y-43100066D02*
X30525000Y-46475000D01*
%TO.N,P37*%
X32289521Y-27764521D02*
X32625000Y-27429042D01*
X32625000Y-27429042D02*
X32625000Y-26885000D01*
%TO.N,P38*%
X30833549Y-27831834D02*
X31425000Y-27240383D01*
X31425000Y-27240383D02*
X31425000Y-26885000D01*
%TO.N,P39*%
X29947336Y-28677965D02*
X30225000Y-28400301D01*
X30225000Y-28400301D02*
X30225000Y-26885000D01*
%TO.N,P42*%
X26625000Y-26885000D02*
X26625000Y-30549779D01*
X27750000Y-43270660D02*
X27949981Y-43070679D01*
X26625000Y-30549779D02*
X27550221Y-31475000D01*
X29230674Y-43070680D02*
X29525000Y-43365006D01*
X27949981Y-43070679D02*
X29230674Y-43070680D01*
X29525000Y-43365006D02*
X29525000Y-46475000D01*
%TO.N,P43*%
X29396160Y-42671160D02*
X30025000Y-43300000D01*
X27126232Y-42671159D02*
X29396160Y-42671160D01*
X25425000Y-30491392D02*
X25425000Y-26885000D01*
X27150701Y-32217093D02*
X25425000Y-30491392D01*
X26926252Y-42871139D02*
X27126232Y-42671159D01*
X30025000Y-43300000D02*
X30025000Y-46475000D01*
%TD*%
%TA.AperFunction,Conductor*%
%TO.N,GND*%
G36*
X40594191Y-42713907D02*
G01*
X40630155Y-42763407D01*
X40635000Y-42794000D01*
X40635000Y-43559320D01*
X40639122Y-43572005D01*
X40643243Y-43575000D01*
X40643966Y-43575000D01*
X40649920Y-43574641D01*
X40728705Y-43565107D01*
X40740933Y-43562001D01*
X40866305Y-43512363D01*
X40877955Y-43505799D01*
X40954899Y-43447396D01*
X41012681Y-43427275D01*
X41074609Y-43447397D01*
X41076959Y-43449180D01*
X41179272Y-43526841D01*
X41179274Y-43526842D01*
X41184649Y-43530922D01*
X41321064Y-43584932D01*
X41408393Y-43595500D01*
X41634962Y-43595500D01*
X41861606Y-43595499D01*
X41864571Y-43595140D01*
X41864575Y-43595140D01*
X41942623Y-43585696D01*
X41942624Y-43585696D01*
X41948936Y-43584932D01*
X42085351Y-43530922D01*
X42119290Y-43505161D01*
X42177071Y-43485038D01*
X42239001Y-43505159D01*
X42270956Y-43529414D01*
X42410555Y-43584685D01*
X42499926Y-43595500D01*
X42930074Y-43595500D01*
X43019445Y-43584685D01*
X43159044Y-43529414D01*
X43205145Y-43494422D01*
X43262927Y-43474301D01*
X43324855Y-43494422D01*
X43370956Y-43529414D01*
X43510555Y-43584685D01*
X43599926Y-43595500D01*
X44030074Y-43595500D01*
X44119445Y-43584685D01*
X44259044Y-43529414D01*
X44264416Y-43525337D01*
X44264424Y-43525332D01*
X44297586Y-43500160D01*
X44355368Y-43480038D01*
X44417297Y-43500161D01*
X44444649Y-43520922D01*
X44450924Y-43523406D01*
X44450925Y-43523407D01*
X44469906Y-43530922D01*
X44581064Y-43574932D01*
X44668393Y-43585500D01*
X44894962Y-43585500D01*
X45121606Y-43585499D01*
X45124571Y-43585140D01*
X45124575Y-43585140D01*
X45202623Y-43575696D01*
X45202624Y-43575696D01*
X45208936Y-43574932D01*
X45214845Y-43572593D01*
X45214851Y-43572591D01*
X45239057Y-43563007D01*
X45300121Y-43559166D01*
X45351781Y-43591951D01*
X45374500Y-43655055D01*
X45374500Y-44525500D01*
X45355593Y-44583691D01*
X45306093Y-44619655D01*
X45275500Y-44624500D01*
X45214309Y-44624500D01*
X45198822Y-44623281D01*
X45175000Y-44619508D01*
X45167308Y-44620726D01*
X45167303Y-44620726D01*
X45167267Y-44620732D01*
X45161491Y-44621473D01*
X44998471Y-44637530D01*
X44993819Y-44638941D01*
X44993815Y-44638942D01*
X44833382Y-44687608D01*
X44833376Y-44687610D01*
X44828726Y-44689021D01*
X44672288Y-44772639D01*
X44535169Y-44885169D01*
X44422639Y-45022288D01*
X44339021Y-45178726D01*
X44337610Y-45183376D01*
X44337608Y-45183382D01*
X44288942Y-45343815D01*
X44287530Y-45348471D01*
X44287053Y-45353314D01*
X44271474Y-45511485D01*
X44270732Y-45517267D01*
X44270726Y-45517303D01*
X44270726Y-45517308D01*
X44269508Y-45525000D01*
X44270727Y-45532695D01*
X44273281Y-45548822D01*
X44274500Y-45564309D01*
X44274500Y-45975500D01*
X44255593Y-46033691D01*
X44206093Y-46069655D01*
X44175500Y-46074500D01*
X43845327Y-46074501D01*
X43818482Y-46074501D01*
X43808522Y-46076078D01*
X43788891Y-46079187D01*
X43757920Y-46079187D01*
X43735330Y-46075609D01*
X43727588Y-46075000D01*
X43715680Y-46075000D01*
X43702993Y-46079122D01*
X43692403Y-46093698D01*
X43657257Y-46123716D01*
X43611658Y-46146950D01*
X43595004Y-46163604D01*
X43540487Y-46191381D01*
X43480055Y-46181810D01*
X43454996Y-46163604D01*
X43438342Y-46146950D01*
X43390918Y-46122786D01*
X43347657Y-46079524D01*
X43347517Y-46079186D01*
X43341757Y-46075001D01*
X43322414Y-46075001D01*
X43314679Y-46075610D01*
X43292084Y-46079188D01*
X43261114Y-46079187D01*
X43235367Y-46075109D01*
X43235361Y-46075109D01*
X43231519Y-46074500D01*
X43025027Y-46074500D01*
X42818482Y-46074501D01*
X42808522Y-46076078D01*
X42788891Y-46079187D01*
X42757920Y-46079187D01*
X42735330Y-46075609D01*
X42727588Y-46075000D01*
X42715680Y-46075000D01*
X42702993Y-46079122D01*
X42692403Y-46093698D01*
X42657257Y-46123716D01*
X42611658Y-46146950D01*
X42595004Y-46163604D01*
X42540487Y-46191381D01*
X42480055Y-46181810D01*
X42454996Y-46163604D01*
X42438342Y-46146950D01*
X42390918Y-46122786D01*
X42347657Y-46079524D01*
X42347517Y-46079186D01*
X42341757Y-46075001D01*
X42322414Y-46075001D01*
X42314679Y-46075610D01*
X42292084Y-46079188D01*
X42261114Y-46079187D01*
X42235367Y-46075109D01*
X42235361Y-46075109D01*
X42231519Y-46074500D01*
X42025027Y-46074500D01*
X41818482Y-46074501D01*
X41809918Y-46075857D01*
X41790488Y-46078934D01*
X41759517Y-46078934D01*
X41735368Y-46075109D01*
X41735360Y-46075108D01*
X41731519Y-46074500D01*
X41525027Y-46074500D01*
X41318482Y-46074501D01*
X41309918Y-46075857D01*
X41290488Y-46078934D01*
X41259517Y-46078934D01*
X41235368Y-46075109D01*
X41235360Y-46075108D01*
X41231519Y-46074500D01*
X41025027Y-46074500D01*
X40818482Y-46074501D01*
X40809918Y-46075857D01*
X40790488Y-46078934D01*
X40759517Y-46078934D01*
X40735368Y-46075109D01*
X40735360Y-46075108D01*
X40731519Y-46074500D01*
X40525027Y-46074500D01*
X40318482Y-46074501D01*
X40309918Y-46075857D01*
X40290488Y-46078934D01*
X40259517Y-46078934D01*
X40235368Y-46075109D01*
X40235360Y-46075108D01*
X40231519Y-46074500D01*
X40025027Y-46074500D01*
X39818482Y-46074501D01*
X39809918Y-46075857D01*
X39790488Y-46078934D01*
X39759517Y-46078934D01*
X39735368Y-46075109D01*
X39735360Y-46075108D01*
X39731519Y-46074500D01*
X39525027Y-46074500D01*
X39318482Y-46074501D01*
X39309918Y-46075857D01*
X39290488Y-46078934D01*
X39259517Y-46078934D01*
X39235368Y-46075109D01*
X39235360Y-46075108D01*
X39231519Y-46074500D01*
X39149500Y-46074500D01*
X39091309Y-46055593D01*
X39055345Y-46006093D01*
X39050500Y-45975500D01*
X39050500Y-43583677D01*
X39069407Y-43525486D01*
X39079496Y-43513673D01*
X39558614Y-43034555D01*
X39613131Y-43006778D01*
X39673563Y-43016349D01*
X39716828Y-43059614D01*
X39726901Y-43092665D01*
X39734893Y-43158704D01*
X39737999Y-43170933D01*
X39787637Y-43296305D01*
X39794201Y-43307955D01*
X39875490Y-43415050D01*
X39884950Y-43424510D01*
X39992045Y-43505799D01*
X40003695Y-43512363D01*
X40129067Y-43562001D01*
X40141295Y-43565107D01*
X40220080Y-43574641D01*
X40220370Y-43574659D01*
X40232005Y-43570878D01*
X40235000Y-43566757D01*
X40235000Y-42794000D01*
X40253907Y-42735809D01*
X40303407Y-42699845D01*
X40334000Y-42695000D01*
X40536000Y-42695000D01*
X40594191Y-42713907D01*
G37*
%TD.AperFunction*%
%TA.AperFunction,Conductor*%
G36*
X24356671Y-39670335D02*
G01*
X24416919Y-39759994D01*
X24524724Y-39858089D01*
X24555038Y-39911235D01*
X24551092Y-39958259D01*
X24552897Y-39958722D01*
X24551413Y-39964502D01*
X24549245Y-39970062D01*
X24527115Y-40138160D01*
X24527770Y-40144093D01*
X24527770Y-40144097D01*
X24530474Y-40168589D01*
X24545720Y-40306684D01*
X24603987Y-40465905D01*
X24607312Y-40470854D01*
X24607313Y-40470855D01*
X24627078Y-40500269D01*
X24698551Y-40606632D01*
X24702966Y-40610649D01*
X24743239Y-40647295D01*
X24773554Y-40700442D01*
X24772501Y-40745137D01*
X24771386Y-40749482D01*
X24769218Y-40755041D01*
X24747088Y-40923139D01*
X24747743Y-40929072D01*
X24747743Y-40929076D01*
X24754216Y-40987704D01*
X24765693Y-41091663D01*
X24823960Y-41250884D01*
X24918524Y-41391611D01*
X24949155Y-41419484D01*
X24979469Y-41472629D01*
X24978416Y-41517326D01*
X24977207Y-41522033D01*
X24975038Y-41527597D01*
X24974259Y-41533514D01*
X24974258Y-41533518D01*
X24970982Y-41558406D01*
X24952908Y-41695695D01*
X24971513Y-41864219D01*
X25029780Y-42023440D01*
X25124344Y-42164167D01*
X25249747Y-42278275D01*
X25254996Y-42281125D01*
X25270419Y-42289499D01*
X25398749Y-42359176D01*
X25458194Y-42374771D01*
X25556978Y-42400687D01*
X25556982Y-42400688D01*
X25562747Y-42402200D01*
X25568708Y-42402294D01*
X25568711Y-42402294D01*
X25647510Y-42403531D01*
X25732274Y-42404863D01*
X25738089Y-42403531D01*
X25738091Y-42403531D01*
X25845488Y-42378934D01*
X25906431Y-42384373D01*
X25937593Y-42405431D01*
X26110221Y-42578059D01*
X26118193Y-42588037D01*
X26118210Y-42588022D01*
X26122784Y-42593396D01*
X26126546Y-42599359D01*
X26131830Y-42604026D01*
X26131832Y-42604028D01*
X26166816Y-42634924D01*
X26171286Y-42639124D01*
X26183123Y-42650961D01*
X26192184Y-42657752D01*
X26198318Y-42662746D01*
X26202526Y-42666462D01*
X26233629Y-42719149D01*
X26235149Y-42753589D01*
X26220646Y-42863750D01*
X26221301Y-42869683D01*
X26221301Y-42869687D01*
X26229623Y-42945066D01*
X26239251Y-43032274D01*
X26297518Y-43191495D01*
X26300843Y-43196444D01*
X26300844Y-43196445D01*
X26331811Y-43242529D01*
X26392082Y-43332222D01*
X26517485Y-43446330D01*
X26666487Y-43527231D01*
X26684277Y-43531898D01*
X26824716Y-43568742D01*
X26824720Y-43568743D01*
X26830485Y-43570255D01*
X26836446Y-43570349D01*
X26836449Y-43570349D01*
X26915217Y-43571586D01*
X27000012Y-43572918D01*
X27028231Y-43566455D01*
X27089173Y-43571894D01*
X27132503Y-43607739D01*
X27153905Y-43639588D01*
X27215830Y-43731743D01*
X27341233Y-43845851D01*
X27490235Y-43926752D01*
X27525189Y-43935922D01*
X27648464Y-43968263D01*
X27648468Y-43968264D01*
X27654233Y-43969776D01*
X27660194Y-43969870D01*
X27660197Y-43969870D01*
X27738965Y-43971107D01*
X27823760Y-43972439D01*
X27829575Y-43971107D01*
X27829577Y-43971107D01*
X27983206Y-43935922D01*
X27983209Y-43935921D01*
X27989029Y-43934588D01*
X28004610Y-43926752D01*
X28135165Y-43861089D01*
X28140498Y-43858407D01*
X28145035Y-43854532D01*
X28145038Y-43854530D01*
X28264888Y-43752168D01*
X28264891Y-43752165D01*
X28269423Y-43748294D01*
X28367067Y-43612408D01*
X28416378Y-43576186D01*
X28447462Y-43571179D01*
X28635139Y-43571179D01*
X28925500Y-43571180D01*
X28983691Y-43590087D01*
X29019655Y-43639588D01*
X29024500Y-43670180D01*
X29024500Y-45975501D01*
X29005593Y-46033692D01*
X28956093Y-46069656D01*
X28925500Y-46074501D01*
X28818482Y-46074501D01*
X28809918Y-46075857D01*
X28790488Y-46078934D01*
X28759517Y-46078934D01*
X28735368Y-46075109D01*
X28735360Y-46075108D01*
X28731519Y-46074500D01*
X28525027Y-46074500D01*
X28318482Y-46074501D01*
X28309918Y-46075857D01*
X28290488Y-46078934D01*
X28259517Y-46078934D01*
X28235368Y-46075109D01*
X28235360Y-46075108D01*
X28231519Y-46074500D01*
X28025027Y-46074500D01*
X27818482Y-46074501D01*
X27809918Y-46075857D01*
X27790488Y-46078934D01*
X27759517Y-46078934D01*
X27735368Y-46075109D01*
X27735360Y-46075108D01*
X27731519Y-46074500D01*
X27525027Y-46074500D01*
X27318482Y-46074501D01*
X27309918Y-46075857D01*
X27290488Y-46078934D01*
X27259517Y-46078934D01*
X27235368Y-46075109D01*
X27235360Y-46075108D01*
X27231519Y-46074500D01*
X27025027Y-46074500D01*
X26818482Y-46074501D01*
X26809918Y-46075857D01*
X26790488Y-46078934D01*
X26759517Y-46078934D01*
X26735368Y-46075109D01*
X26735360Y-46075108D01*
X26731519Y-46074500D01*
X26525027Y-46074500D01*
X26318482Y-46074501D01*
X26309918Y-46075857D01*
X26290488Y-46078934D01*
X26259517Y-46078934D01*
X26235368Y-46075109D01*
X26235360Y-46075108D01*
X26231519Y-46074500D01*
X26025027Y-46074500D01*
X25818482Y-46074501D01*
X25809918Y-46075857D01*
X25790488Y-46078934D01*
X25759517Y-46078934D01*
X25735368Y-46075109D01*
X25735360Y-46075108D01*
X25731519Y-46074500D01*
X25704680Y-46074500D01*
X25374500Y-46074501D01*
X25316309Y-46055594D01*
X25280345Y-46006094D01*
X25275500Y-45975501D01*
X25275500Y-45564309D01*
X25276719Y-45548822D01*
X25279273Y-45532695D01*
X25280492Y-45525000D01*
X25279274Y-45517308D01*
X25279274Y-45517303D01*
X25279268Y-45517267D01*
X25278526Y-45511485D01*
X25262947Y-45353314D01*
X25262470Y-45348471D01*
X25261058Y-45343815D01*
X25212392Y-45183382D01*
X25212390Y-45183376D01*
X25210979Y-45178726D01*
X25127361Y-45022288D01*
X25014831Y-44885169D01*
X24877712Y-44772639D01*
X24721274Y-44689021D01*
X24716624Y-44687610D01*
X24716618Y-44687608D01*
X24556185Y-44638942D01*
X24556181Y-44638941D01*
X24551529Y-44637530D01*
X24388509Y-44621473D01*
X24382733Y-44620732D01*
X24382697Y-44620726D01*
X24382692Y-44620726D01*
X24375000Y-44619508D01*
X24351178Y-44623281D01*
X24335691Y-44624500D01*
X24274500Y-44624500D01*
X24216309Y-44605593D01*
X24180345Y-44556093D01*
X24175500Y-44525500D01*
X24175500Y-39725552D01*
X24194407Y-39667361D01*
X24243907Y-39631397D01*
X24305093Y-39631397D01*
X24356671Y-39670335D01*
G37*
%TD.AperFunction*%
%TA.AperFunction,Conductor*%
G36*
X37367693Y-40361463D02*
G01*
X37369274Y-40363545D01*
X37382190Y-40380562D01*
X37402309Y-40438345D01*
X37382187Y-40500269D01*
X37348601Y-40544516D01*
X37342033Y-40556173D01*
X37292899Y-40680272D01*
X37289794Y-40692499D01*
X37284720Y-40734433D01*
X37287288Y-40747523D01*
X37288807Y-40748935D01*
X37293633Y-40750000D01*
X38101000Y-40750000D01*
X38159191Y-40768907D01*
X38195155Y-40818407D01*
X38200000Y-40849000D01*
X38200000Y-41604319D01*
X38204122Y-41617004D01*
X38208243Y-41619999D01*
X38223577Y-41619999D01*
X38229535Y-41619640D01*
X38307502Y-41610206D01*
X38319727Y-41607101D01*
X38443827Y-41557967D01*
X38455483Y-41551399D01*
X38464733Y-41544378D01*
X38522515Y-41524257D01*
X38584441Y-41544378D01*
X38599649Y-41555922D01*
X38736064Y-41609932D01*
X38823393Y-41620500D01*
X38865358Y-41620500D01*
X39247324Y-41620499D01*
X39305515Y-41639406D01*
X39341479Y-41688906D01*
X39341479Y-41750091D01*
X39317328Y-41789503D01*
X38163229Y-42943602D01*
X38160235Y-42946472D01*
X38121259Y-42982312D01*
X38121256Y-42982316D01*
X38116288Y-42986884D01*
X38112731Y-42992621D01*
X38093874Y-43023034D01*
X38088592Y-43030719D01*
X38062872Y-43064604D01*
X38060389Y-43070875D01*
X38060388Y-43070877D01*
X38056888Y-43079717D01*
X38048979Y-43095442D01*
X38040418Y-43109250D01*
X38038536Y-43115728D01*
X38028550Y-43150098D01*
X38025530Y-43158918D01*
X38012356Y-43192194D01*
X38012355Y-43192197D01*
X38009871Y-43198472D01*
X38009165Y-43205185D01*
X38009164Y-43205191D01*
X38008171Y-43214635D01*
X38004783Y-43231904D01*
X38001696Y-43242529D01*
X38001695Y-43242535D01*
X38000249Y-43247512D01*
X37999500Y-43257712D01*
X37999500Y-43291954D01*
X37998958Y-43302300D01*
X37994821Y-43341662D01*
X37995946Y-43348312D01*
X37998114Y-43361131D01*
X37999500Y-43377641D01*
X37999500Y-45141696D01*
X37980593Y-45199887D01*
X37931093Y-45235851D01*
X37869907Y-45235851D01*
X37856129Y-45229465D01*
X37855862Y-45230002D01*
X37851762Y-45227960D01*
X37847872Y-45225552D01*
X37674973Y-45158571D01*
X37630749Y-45150304D01*
X37497217Y-45125342D01*
X37497212Y-45125342D01*
X37492710Y-45124500D01*
X37307290Y-45124500D01*
X37302788Y-45125342D01*
X37302783Y-45125342D01*
X37169251Y-45150304D01*
X37125027Y-45158571D01*
X36952128Y-45225552D01*
X36948235Y-45227963D01*
X36948232Y-45227964D01*
X36891095Y-45263342D01*
X36794481Y-45323163D01*
X36726670Y-45384981D01*
X36691196Y-45417320D01*
X36635455Y-45442550D01*
X36575529Y-45430198D01*
X36534309Y-45384981D01*
X36525500Y-45344158D01*
X36525500Y-42452166D01*
X36526919Y-42439465D01*
X36526897Y-42439463D01*
X36527463Y-42432431D01*
X36529019Y-42425553D01*
X36525690Y-42371898D01*
X36525500Y-42365767D01*
X36525500Y-42349060D01*
X36525001Y-42345573D01*
X36525000Y-42345565D01*
X36523899Y-42337879D01*
X36523089Y-42329976D01*
X36520578Y-42289499D01*
X36520577Y-42289496D01*
X36520141Y-42282462D01*
X36517748Y-42275833D01*
X36517747Y-42275829D01*
X36516658Y-42272813D01*
X36511777Y-42253236D01*
X36511323Y-42250064D01*
X36511323Y-42250063D01*
X36510323Y-42243082D01*
X36507404Y-42236663D01*
X36507403Y-42236658D01*
X36490619Y-42199743D01*
X36487623Y-42192385D01*
X36473855Y-42154248D01*
X36471460Y-42147613D01*
X36465408Y-42139328D01*
X36455232Y-42121914D01*
X36450984Y-42112572D01*
X36437272Y-42096659D01*
X36419907Y-42076505D01*
X36414967Y-42070284D01*
X36414653Y-42069854D01*
X36406478Y-42058664D01*
X36395014Y-42047200D01*
X36390019Y-42041819D01*
X36362005Y-42009307D01*
X36362004Y-42009306D01*
X36357400Y-42003963D01*
X36350189Y-41999289D01*
X36334032Y-41986218D01*
X35508534Y-41160720D01*
X37284133Y-41160720D01*
X37289794Y-41207501D01*
X37292899Y-41219728D01*
X37342034Y-41343828D01*
X37348599Y-41355480D01*
X37429055Y-41461476D01*
X37438524Y-41470945D01*
X37544520Y-41551401D01*
X37556172Y-41557966D01*
X37680272Y-41607101D01*
X37692499Y-41610206D01*
X37770466Y-41619641D01*
X37776422Y-41620000D01*
X37784320Y-41620000D01*
X37797005Y-41615878D01*
X37800000Y-41611757D01*
X37800000Y-41165680D01*
X37795878Y-41152995D01*
X37791757Y-41150000D01*
X37298516Y-41150000D01*
X37285831Y-41154122D01*
X37284611Y-41155800D01*
X37284133Y-41160720D01*
X35508534Y-41160720D01*
X35255302Y-40907488D01*
X35227525Y-40852971D01*
X35237096Y-40792539D01*
X35280361Y-40749274D01*
X35314393Y-40740538D01*
X35314251Y-40739699D01*
X35333721Y-40736406D01*
X35350230Y-40735020D01*
X36376603Y-40735020D01*
X36380749Y-40735107D01*
X36440399Y-40737607D01*
X36446971Y-40736066D01*
X36446977Y-40736065D01*
X36481813Y-40727894D01*
X36490983Y-40726194D01*
X36526440Y-40721337D01*
X36526441Y-40721337D01*
X36533126Y-40720421D01*
X36539321Y-40717740D01*
X36539322Y-40717740D01*
X36548042Y-40713967D01*
X36564748Y-40708442D01*
X36580573Y-40704730D01*
X36610285Y-40688396D01*
X36659532Y-40676163D01*
X36672935Y-40676373D01*
X36698760Y-40676779D01*
X36704575Y-40675447D01*
X36704577Y-40675447D01*
X36858206Y-40640262D01*
X36858209Y-40640261D01*
X36864029Y-40638928D01*
X37015498Y-40562747D01*
X37020035Y-40558872D01*
X37020038Y-40558870D01*
X37139888Y-40456508D01*
X37139891Y-40456505D01*
X37144423Y-40452634D01*
X37208440Y-40363545D01*
X37257751Y-40327323D01*
X37318935Y-40327003D01*
X37367693Y-40361463D01*
G37*
%TD.AperFunction*%
%TA.AperFunction,Conductor*%
G36*
X40636399Y-39800766D02*
G01*
X40685750Y-39804390D01*
X40742400Y-39827508D01*
X40774642Y-39879509D01*
X40777500Y-39903124D01*
X40777500Y-40284320D01*
X40781622Y-40297005D01*
X40795140Y-40306827D01*
X40831104Y-40356327D01*
X40831104Y-40417513D01*
X40795140Y-40467013D01*
X40760062Y-40483185D01*
X40611196Y-40518925D01*
X40585387Y-40532246D01*
X40525007Y-40542135D01*
X40470345Y-40514644D01*
X40442282Y-40460274D01*
X40440980Y-40444274D01*
X40440980Y-40394945D01*
X40459887Y-40336754D01*
X40509388Y-40300790D01*
X40524506Y-40295878D01*
X40527500Y-40291757D01*
X40527500Y-39899500D01*
X40546407Y-39841309D01*
X40595907Y-39805345D01*
X40626500Y-39800500D01*
X40629149Y-39800500D01*
X40636399Y-39800766D01*
G37*
%TD.AperFunction*%
%TA.AperFunction,Conductor*%
G36*
X41916428Y-39037472D02*
G01*
X41941487Y-39055678D01*
X42084322Y-39198513D01*
X42112099Y-39253030D01*
X42102528Y-39313462D01*
X42084322Y-39338521D01*
X41818931Y-39603912D01*
X41809486Y-39622450D01*
X41766223Y-39665715D01*
X41730590Y-39676068D01*
X41714762Y-39677564D01*
X41583401Y-39723694D01*
X41577450Y-39728089D01*
X41577449Y-39728090D01*
X41473817Y-39804634D01*
X41415777Y-39823998D01*
X41357439Y-39805548D01*
X41321088Y-39756332D01*
X41320607Y-39695149D01*
X41335366Y-39666183D01*
X41353563Y-39641547D01*
X41370019Y-39619267D01*
X41411910Y-39562551D01*
X41411911Y-39562550D01*
X41416306Y-39556599D01*
X41462436Y-39425238D01*
X41463004Y-39419234D01*
X41463006Y-39419223D01*
X41463663Y-39412270D01*
X41487964Y-39356118D01*
X41513191Y-39342250D01*
X41511755Y-39340274D01*
X41530506Y-39326651D01*
X41801479Y-39055678D01*
X41855996Y-39027901D01*
X41916428Y-39037472D01*
G37*
%TD.AperFunction*%
%TA.AperFunction,Conductor*%
G36*
X42403462Y-39037472D02*
G01*
X42428521Y-39055678D01*
X42693912Y-39321069D01*
X42712450Y-39330514D01*
X42755715Y-39373777D01*
X42766068Y-39409410D01*
X42767564Y-39425238D01*
X42769564Y-39430933D01*
X42791078Y-39492198D01*
X42791078Y-39557802D01*
X42767564Y-39624762D01*
X42766996Y-39630766D01*
X42766994Y-39630777D01*
X42766539Y-39635594D01*
X42742238Y-39691747D01*
X42689573Y-39722891D01*
X42635177Y-39719683D01*
X42614999Y-39712597D01*
X42515238Y-39677564D01*
X42509234Y-39676996D01*
X42509223Y-39676994D01*
X42502270Y-39676337D01*
X42446118Y-39652036D01*
X42432250Y-39626809D01*
X42430274Y-39628245D01*
X42416651Y-39609494D01*
X42145678Y-39338521D01*
X42117901Y-39284004D01*
X42127472Y-39223572D01*
X42145678Y-39198513D01*
X42288513Y-39055678D01*
X42343030Y-39027901D01*
X42403462Y-39037472D01*
G37*
%TD.AperFunction*%
%TA.AperFunction,Conductor*%
G36*
X35784191Y-38103907D02*
G01*
X35820155Y-38153407D01*
X35825000Y-38184000D01*
X35825000Y-38809320D01*
X35825155Y-38809797D01*
X35830000Y-38840389D01*
X35830000Y-39585020D01*
X35811093Y-39643211D01*
X35761593Y-39679175D01*
X35731000Y-39684020D01*
X35556267Y-39684020D01*
X35498076Y-39665113D01*
X35486263Y-39655024D01*
X35458996Y-39627757D01*
X35431219Y-39573240D01*
X35430000Y-39557753D01*
X35430000Y-39140680D01*
X35429845Y-39140203D01*
X35425000Y-39109611D01*
X35425000Y-38184000D01*
X35443907Y-38125809D01*
X35493407Y-38089845D01*
X35524000Y-38085000D01*
X35726000Y-38085000D01*
X35784191Y-38103907D01*
G37*
%TD.AperFunction*%
%TA.AperFunction,Conductor*%
G36*
X41714762Y-38372436D02*
G01*
X41720766Y-38373004D01*
X41720777Y-38373006D01*
X41727730Y-38373663D01*
X41783882Y-38397964D01*
X41797750Y-38423191D01*
X41799726Y-38421755D01*
X41813349Y-38440506D01*
X42084322Y-38711479D01*
X42112099Y-38765996D01*
X42102528Y-38826428D01*
X42084322Y-38851487D01*
X41941487Y-38994322D01*
X41886970Y-39022099D01*
X41826538Y-39012528D01*
X41801479Y-38994322D01*
X41536088Y-38728931D01*
X41517550Y-38719486D01*
X41474285Y-38676223D01*
X41463932Y-38640589D01*
X41463004Y-38630771D01*
X41462436Y-38624762D01*
X41438922Y-38557802D01*
X41438922Y-38492198D01*
X41460408Y-38431014D01*
X41497528Y-38382375D01*
X41521014Y-38370408D01*
X41582198Y-38348922D01*
X41647802Y-38348922D01*
X41714762Y-38372436D01*
G37*
%TD.AperFunction*%
%TA.AperFunction,Conductor*%
G36*
X42708986Y-38370408D02*
G01*
X42757625Y-38407528D01*
X42769592Y-38431014D01*
X42791078Y-38492198D01*
X42791078Y-38557802D01*
X42767564Y-38624762D01*
X42766996Y-38630766D01*
X42766994Y-38630777D01*
X42766337Y-38637730D01*
X42742036Y-38693882D01*
X42716809Y-38707750D01*
X42718245Y-38709726D01*
X42699494Y-38723349D01*
X42428521Y-38994322D01*
X42374004Y-39022099D01*
X42313572Y-39012528D01*
X42288513Y-38994322D01*
X42145678Y-38851487D01*
X42117901Y-38796970D01*
X42127472Y-38736538D01*
X42145678Y-38711479D01*
X42411069Y-38446088D01*
X42420514Y-38427550D01*
X42463777Y-38384285D01*
X42499410Y-38373932D01*
X42515238Y-38372436D01*
X42582198Y-38348922D01*
X42647802Y-38348922D01*
X42708986Y-38370408D01*
G37*
%TD.AperFunction*%
%TA.AperFunction,Conductor*%
G36*
X45333691Y-19444407D02*
G01*
X45369655Y-19493907D01*
X45374500Y-19524500D01*
X45374500Y-38501277D01*
X45355593Y-38559468D01*
X45306093Y-38595432D01*
X45244907Y-38595432D01*
X45198562Y-38563579D01*
X45182361Y-38543572D01*
X45178112Y-38538325D01*
X45178645Y-38537893D01*
X45151655Y-38488802D01*
X45150618Y-38482142D01*
X45140993Y-38402603D01*
X45140993Y-38402601D01*
X45140276Y-38396680D01*
X45080345Y-38238077D01*
X44984312Y-38098349D01*
X44857721Y-37985560D01*
X44707881Y-37906224D01*
X44609098Y-37881411D01*
X44549231Y-37866373D01*
X44549228Y-37866373D01*
X44543441Y-37864919D01*
X44456304Y-37864463D01*
X44382149Y-37864074D01*
X44324058Y-37844862D01*
X44288354Y-37795174D01*
X44288675Y-37733989D01*
X44324898Y-37684679D01*
X44338186Y-37676631D01*
X44410162Y-37640431D01*
X44410164Y-37640430D01*
X44415498Y-37637747D01*
X44420035Y-37633872D01*
X44420038Y-37633870D01*
X44539888Y-37531508D01*
X44539891Y-37531505D01*
X44544423Y-37527634D01*
X44567681Y-37495267D01*
X44639877Y-37394796D01*
X44639878Y-37394794D01*
X44643361Y-37389947D01*
X44668541Y-37327312D01*
X44704377Y-37238167D01*
X44704378Y-37238165D01*
X44706601Y-37232634D01*
X44707442Y-37226727D01*
X44730034Y-37067985D01*
X44730034Y-37067979D01*
X44730490Y-37064778D01*
X44730645Y-37050000D01*
X44713463Y-36908018D01*
X44725242Y-36847978D01*
X44751892Y-36817268D01*
X44795046Y-36784513D01*
X44804509Y-36775050D01*
X44885798Y-36667955D01*
X44892362Y-36656305D01*
X44942000Y-36530933D01*
X44945106Y-36518705D01*
X44954640Y-36439920D01*
X44954658Y-36439630D01*
X44950877Y-36427995D01*
X44946756Y-36425000D01*
X44366265Y-36425000D01*
X44319940Y-36413493D01*
X44317568Y-36412237D01*
X44277881Y-36391224D01*
X44194718Y-36370335D01*
X44149881Y-36359072D01*
X44098049Y-36326558D01*
X44075228Y-36269788D01*
X44074999Y-36263055D01*
X44074999Y-36009320D01*
X44474999Y-36009320D01*
X44479121Y-36022005D01*
X44483242Y-36025000D01*
X44939319Y-36025000D01*
X44952004Y-36020878D01*
X44954999Y-36016757D01*
X44954999Y-36016034D01*
X44954640Y-36010080D01*
X44945106Y-35931295D01*
X44942000Y-35919067D01*
X44892362Y-35793695D01*
X44885798Y-35782045D01*
X44804509Y-35674950D01*
X44795049Y-35665490D01*
X44687954Y-35584201D01*
X44676304Y-35577637D01*
X44550931Y-35527998D01*
X44538704Y-35524893D01*
X44490567Y-35519068D01*
X44477477Y-35521636D01*
X44476065Y-35523156D01*
X44474999Y-35527984D01*
X44474999Y-36009320D01*
X44074999Y-36009320D01*
X44074999Y-35532864D01*
X44070877Y-35520179D01*
X44069199Y-35518959D01*
X44064279Y-35518481D01*
X44011294Y-35524893D01*
X43999067Y-35527998D01*
X43873694Y-35577637D01*
X43862044Y-35584201D01*
X43855268Y-35589344D01*
X43797486Y-35609465D01*
X43735559Y-35589345D01*
X43728201Y-35583760D01*
X43722827Y-35579681D01*
X43585139Y-35525167D01*
X43496994Y-35514500D01*
X43480100Y-35514500D01*
X43421909Y-35495593D01*
X43385945Y-35446093D01*
X43381100Y-35415500D01*
X43381100Y-34934500D01*
X43400007Y-34876309D01*
X43449507Y-34840345D01*
X43480100Y-34835500D01*
X44531278Y-34835499D01*
X44576518Y-34835499D01*
X44580361Y-34834890D01*
X44580366Y-34834890D01*
X44619240Y-34828733D01*
X44670304Y-34820646D01*
X44726823Y-34791848D01*
X44776403Y-34766586D01*
X44776405Y-34766585D01*
X44783342Y-34763050D01*
X44873050Y-34673342D01*
X44884186Y-34651488D01*
X44927110Y-34567244D01*
X44927110Y-34567243D01*
X44930646Y-34560304D01*
X44935823Y-34527622D01*
X44944891Y-34470365D01*
X44944891Y-34470363D01*
X44945500Y-34466519D01*
X44945499Y-32403482D01*
X44930646Y-32309696D01*
X44885194Y-32220492D01*
X44876586Y-32203597D01*
X44876585Y-32203595D01*
X44873050Y-32196658D01*
X44783342Y-32106950D01*
X44776405Y-32103415D01*
X44776403Y-32103414D01*
X44677244Y-32052890D01*
X44677243Y-32052890D01*
X44670304Y-32049354D01*
X44662610Y-32048135D01*
X44662609Y-32048135D01*
X44580365Y-32035109D01*
X44580363Y-32035109D01*
X44576519Y-32034500D01*
X43895088Y-32034500D01*
X43213482Y-32034501D01*
X43209639Y-32035110D01*
X43209634Y-32035110D01*
X43172783Y-32040947D01*
X43119696Y-32049354D01*
X43063177Y-32078152D01*
X43013597Y-32103414D01*
X43013595Y-32103415D01*
X43006658Y-32106950D01*
X42916950Y-32196658D01*
X42913415Y-32203595D01*
X42913414Y-32203597D01*
X42886625Y-32256173D01*
X42859354Y-32309696D01*
X42858135Y-32317390D01*
X42858135Y-32317391D01*
X42848069Y-32380947D01*
X42844500Y-32403481D01*
X42844501Y-32953259D01*
X42844501Y-33405454D01*
X42825594Y-33463645D01*
X42776094Y-33499609D01*
X42745007Y-33504453D01*
X42744112Y-33504449D01*
X42744006Y-33504448D01*
X42685910Y-33485250D01*
X42650194Y-33435571D01*
X42645500Y-33405449D01*
X42645499Y-32407376D01*
X42645499Y-32403482D01*
X42630646Y-32309696D01*
X42585194Y-32220492D01*
X42576586Y-32203597D01*
X42576585Y-32203595D01*
X42573050Y-32196658D01*
X42483342Y-32106950D01*
X42476405Y-32103415D01*
X42476403Y-32103414D01*
X42377244Y-32052890D01*
X42377243Y-32052890D01*
X42370304Y-32049354D01*
X42362610Y-32048135D01*
X42362609Y-32048135D01*
X42280365Y-32035109D01*
X42280363Y-32035109D01*
X42276519Y-32034500D01*
X41595088Y-32034500D01*
X40913482Y-32034501D01*
X40909639Y-32035110D01*
X40909634Y-32035110D01*
X40872783Y-32040947D01*
X40819696Y-32049354D01*
X40763177Y-32078152D01*
X40713597Y-32103414D01*
X40713595Y-32103415D01*
X40706658Y-32106950D01*
X40616950Y-32196658D01*
X40613415Y-32203595D01*
X40613414Y-32203597D01*
X40586625Y-32256173D01*
X40559354Y-32309696D01*
X40558135Y-32317390D01*
X40558135Y-32317391D01*
X40548069Y-32380947D01*
X40544500Y-32403481D01*
X40544501Y-34466518D01*
X40545110Y-34470361D01*
X40545110Y-34470366D01*
X40547835Y-34487572D01*
X40559354Y-34560304D01*
X40573990Y-34589029D01*
X40575023Y-34591056D01*
X40584594Y-34651488D01*
X40556817Y-34706004D01*
X40502300Y-34733782D01*
X40486813Y-34735001D01*
X40481423Y-34735001D01*
X40475465Y-34735360D01*
X40397498Y-34744794D01*
X40385274Y-34747899D01*
X40260944Y-34797124D01*
X40199880Y-34800966D01*
X40148219Y-34768181D01*
X40125500Y-34705076D01*
X40125499Y-34357376D01*
X40125499Y-34353482D01*
X40120896Y-34324413D01*
X40112995Y-34274528D01*
X40110646Y-34259696D01*
X40095487Y-34229944D01*
X40085915Y-34169515D01*
X40095485Y-34140058D01*
X40110646Y-34110304D01*
X40111866Y-34102605D01*
X40124891Y-34020365D01*
X40124891Y-34020363D01*
X40125500Y-34016519D01*
X40125499Y-33153482D01*
X40110646Y-33059696D01*
X40095487Y-33029944D01*
X40085915Y-32969515D01*
X40095485Y-32940058D01*
X40110646Y-32910304D01*
X40111866Y-32902605D01*
X40124891Y-32820365D01*
X40124891Y-32820363D01*
X40125500Y-32816519D01*
X40125499Y-31953482D01*
X40110646Y-31859696D01*
X40095487Y-31829944D01*
X40085915Y-31769515D01*
X40095485Y-31740058D01*
X40110646Y-31710304D01*
X40111866Y-31702605D01*
X40124891Y-31620365D01*
X40124891Y-31620363D01*
X40125500Y-31616519D01*
X40125499Y-30753482D01*
X40124269Y-30745712D01*
X40117348Y-30702014D01*
X40110646Y-30659696D01*
X40095487Y-30629944D01*
X40085915Y-30569515D01*
X40095485Y-30540058D01*
X40110646Y-30510304D01*
X40116978Y-30470329D01*
X40118204Y-30462585D01*
X41345001Y-30462585D01*
X41345611Y-30470329D01*
X41358616Y-30552449D01*
X41363373Y-30567091D01*
X41413823Y-30666106D01*
X41422865Y-30678551D01*
X41501449Y-30757135D01*
X41513894Y-30766177D01*
X41612912Y-30816629D01*
X41627547Y-30821384D01*
X41709673Y-30834391D01*
X41717412Y-30835000D01*
X42529320Y-30835000D01*
X42542005Y-30830878D01*
X42545000Y-30826757D01*
X42545000Y-30819319D01*
X42945000Y-30819319D01*
X42949122Y-30832004D01*
X42953243Y-30834999D01*
X43772585Y-30834999D01*
X43780329Y-30834389D01*
X43862449Y-30821384D01*
X43877091Y-30816627D01*
X43976106Y-30766177D01*
X43988551Y-30757135D01*
X44067135Y-30678551D01*
X44076177Y-30666106D01*
X44126629Y-30567088D01*
X44131384Y-30552453D01*
X44144391Y-30470327D01*
X44145000Y-30462588D01*
X44145000Y-29650680D01*
X44140878Y-29637995D01*
X44136757Y-29635000D01*
X42960680Y-29635000D01*
X42947995Y-29639122D01*
X42945000Y-29643243D01*
X42945000Y-30819319D01*
X42545000Y-30819319D01*
X42545000Y-29650680D01*
X42540878Y-29637995D01*
X42536757Y-29635000D01*
X41360681Y-29635000D01*
X41347996Y-29639122D01*
X41345001Y-29643243D01*
X41345001Y-30462585D01*
X40118204Y-30462585D01*
X40124891Y-30420365D01*
X40124891Y-30420363D01*
X40125500Y-30416519D01*
X40125499Y-29553482D01*
X40110646Y-29459696D01*
X40095487Y-29429944D01*
X40085915Y-29369515D01*
X40095485Y-29340058D01*
X40110646Y-29310304D01*
X40114225Y-29287712D01*
X40124891Y-29220365D01*
X40124891Y-29220363D01*
X40125500Y-29216519D01*
X40125499Y-28862107D01*
X40144406Y-28803917D01*
X40193906Y-28767953D01*
X40249619Y-28766348D01*
X40273459Y-28772602D01*
X40273465Y-28772603D01*
X40279233Y-28774116D01*
X40285194Y-28774210D01*
X40285197Y-28774210D01*
X40363965Y-28775447D01*
X40448760Y-28776779D01*
X40454575Y-28775447D01*
X40454577Y-28775447D01*
X40608206Y-28740262D01*
X40608209Y-28740261D01*
X40614029Y-28738928D01*
X40624255Y-28733785D01*
X40721024Y-28685116D01*
X40781505Y-28675861D01*
X40812744Y-28686557D01*
X40914665Y-28741895D01*
X40974110Y-28757490D01*
X41072894Y-28783406D01*
X41072898Y-28783407D01*
X41078663Y-28784919D01*
X41084624Y-28785013D01*
X41084627Y-28785013D01*
X41235506Y-28787383D01*
X41247555Y-28787572D01*
X41305442Y-28807391D01*
X41340623Y-28857450D01*
X41345000Y-28886560D01*
X41345000Y-29219320D01*
X41349122Y-29232005D01*
X41353243Y-29235000D01*
X44129319Y-29235000D01*
X44142004Y-29230878D01*
X44144999Y-29226757D01*
X44144999Y-28407415D01*
X44144390Y-28399673D01*
X44139084Y-28366172D01*
X44148656Y-28305740D01*
X44192382Y-28262242D01*
X44294903Y-28210679D01*
X44340498Y-28187747D01*
X44345035Y-28183872D01*
X44345038Y-28183870D01*
X44464888Y-28081508D01*
X44464891Y-28081505D01*
X44469423Y-28077634D01*
X44484845Y-28056172D01*
X44564877Y-27944796D01*
X44564878Y-27944794D01*
X44568361Y-27939947D01*
X44579635Y-27911904D01*
X44629377Y-27788167D01*
X44629378Y-27788165D01*
X44631601Y-27782634D01*
X44632845Y-27773894D01*
X44655034Y-27617985D01*
X44655034Y-27617979D01*
X44655490Y-27614778D01*
X44655645Y-27600000D01*
X44635276Y-27431680D01*
X44575345Y-27273077D01*
X44479312Y-27133349D01*
X44352721Y-27020560D01*
X44329606Y-27008321D01*
X44284957Y-26984681D01*
X44202881Y-26941224D01*
X44102191Y-26915932D01*
X44044231Y-26901373D01*
X44044228Y-26901373D01*
X44038441Y-26899919D01*
X43895433Y-26899170D01*
X43837342Y-26879958D01*
X43824569Y-26862183D01*
X43801844Y-26841066D01*
X43797016Y-26840000D01*
X42407864Y-26840000D01*
X42395179Y-26844122D01*
X42393959Y-26845800D01*
X42393481Y-26850720D01*
X42399893Y-26903705D01*
X42402998Y-26915932D01*
X42452637Y-27041305D01*
X42459201Y-27052955D01*
X42464344Y-27059731D01*
X42484465Y-27117513D01*
X42464345Y-27179440D01*
X42454681Y-27192172D01*
X42400167Y-27329860D01*
X42389500Y-27418005D01*
X42389501Y-27781994D01*
X42389860Y-27784960D01*
X42389860Y-27784962D01*
X42393378Y-27814036D01*
X42400167Y-27870140D01*
X42402508Y-27876052D01*
X42402508Y-27876053D01*
X42411814Y-27899557D01*
X42415656Y-27960621D01*
X42382871Y-28012282D01*
X42319766Y-28035001D01*
X41961669Y-28035001D01*
X41903478Y-28016094D01*
X41867514Y-27966594D01*
X41863386Y-27947894D01*
X41860423Y-27923405D01*
X41860422Y-27923402D01*
X41859706Y-27917483D01*
X41799775Y-27758880D01*
X41796394Y-27753960D01*
X41707126Y-27624075D01*
X41707124Y-27624072D01*
X41703742Y-27619152D01*
X41699602Y-27615463D01*
X41675369Y-27559463D01*
X41674930Y-27550147D01*
X41674930Y-27148891D01*
X41693837Y-27090700D01*
X41703926Y-27078887D01*
X42315330Y-26467483D01*
X42369847Y-26439706D01*
X42392184Y-26440380D01*
X42392184Y-26440000D01*
X43792136Y-26440000D01*
X43804821Y-26435878D01*
X43806041Y-26434200D01*
X43806519Y-26429280D01*
X43800107Y-26376295D01*
X43797003Y-26364071D01*
X43789523Y-26345180D01*
X43785681Y-26284115D01*
X43818466Y-26232455D01*
X43845127Y-26216687D01*
X43881304Y-26202363D01*
X43892954Y-26195799D01*
X44000049Y-26114510D01*
X44009509Y-26105050D01*
X44090798Y-25997955D01*
X44097362Y-25986305D01*
X44147000Y-25860933D01*
X44150106Y-25848705D01*
X44159640Y-25769920D01*
X44159658Y-25769630D01*
X44155877Y-25757995D01*
X44151756Y-25755000D01*
X43378999Y-25755000D01*
X43320808Y-25736093D01*
X43284844Y-25686593D01*
X43279999Y-25656000D01*
X43279999Y-25339320D01*
X43679999Y-25339320D01*
X43684121Y-25352005D01*
X43688242Y-25355000D01*
X44144319Y-25355000D01*
X44157004Y-25350878D01*
X44159999Y-25346757D01*
X44159999Y-25346034D01*
X44159640Y-25340080D01*
X44150106Y-25261295D01*
X44147000Y-25249067D01*
X44097362Y-25123695D01*
X44087484Y-25106163D01*
X44088650Y-25105506D01*
X44070913Y-25054577D01*
X44088784Y-24999569D01*
X44087485Y-24998837D01*
X44097363Y-24981305D01*
X44147001Y-24855933D01*
X44150107Y-24843705D01*
X44159641Y-24764920D01*
X44159659Y-24764630D01*
X44155878Y-24752995D01*
X44151757Y-24750000D01*
X43695680Y-24750000D01*
X43682995Y-24754122D01*
X43680000Y-24758243D01*
X43680000Y-25299994D01*
X43679999Y-25300006D01*
X43679999Y-25339320D01*
X43279999Y-25339320D01*
X43279999Y-24805006D01*
X43280000Y-24804994D01*
X43280000Y-24449000D01*
X43298907Y-24390809D01*
X43348407Y-24354845D01*
X43379000Y-24350000D01*
X44144320Y-24350000D01*
X44157005Y-24345878D01*
X44160000Y-24341757D01*
X44160000Y-24341034D01*
X44159641Y-24335080D01*
X44150107Y-24256295D01*
X44147001Y-24244067D01*
X44097363Y-24118695D01*
X44090799Y-24107045D01*
X44009510Y-23999950D01*
X44000050Y-23990490D01*
X43908838Y-23921257D01*
X43873919Y-23871015D01*
X43875200Y-23809843D01*
X43912192Y-23761107D01*
X43923811Y-23754158D01*
X43961972Y-23734749D01*
X43961973Y-23734748D01*
X43968914Y-23731218D01*
X43979849Y-23720299D01*
X43995801Y-23704370D01*
X44003441Y-23697495D01*
X44026914Y-23678482D01*
X44026915Y-23678481D01*
X44032968Y-23673578D01*
X44037211Y-23667043D01*
X44038951Y-23664363D01*
X44052032Y-23648219D01*
X44054294Y-23645960D01*
X44059807Y-23640455D01*
X44063349Y-23633516D01*
X44077084Y-23606608D01*
X44082225Y-23597709D01*
X44102914Y-23565842D01*
X44105756Y-23555232D01*
X44113207Y-23535838D01*
X44114663Y-23532985D01*
X44114663Y-23532984D01*
X44118204Y-23526047D01*
X44120367Y-23512455D01*
X44124175Y-23488524D01*
X44126315Y-23478471D01*
X44134129Y-23449292D01*
X44136145Y-23441765D01*
X44133480Y-23391021D01*
X44133344Y-23385758D01*
X44134460Y-21829451D01*
X44153409Y-21771274D01*
X44184651Y-21743390D01*
X44708033Y-21446804D01*
X44713405Y-21443974D01*
X44757215Y-21422583D01*
X44786016Y-21394746D01*
X44793137Y-21388494D01*
X44818369Y-21368396D01*
X44818370Y-21368395D01*
X44824465Y-21363540D01*
X44828765Y-21357034D01*
X44829381Y-21356103D01*
X44843165Y-21339510D01*
X44843972Y-21338730D01*
X44849576Y-21333314D01*
X44868370Y-21297932D01*
X44873209Y-21289788D01*
X44890992Y-21262881D01*
X44890992Y-21262880D01*
X44895289Y-21256379D01*
X44897666Y-21247786D01*
X44905646Y-21227751D01*
X44906176Y-21226753D01*
X44906176Y-21226752D01*
X44909830Y-21219873D01*
X44916770Y-21180413D01*
X44918852Y-21171188D01*
X44927455Y-21140083D01*
X44929531Y-21132578D01*
X44927472Y-21086133D01*
X44927372Y-21083873D01*
X44927289Y-21077805D01*
X44930363Y-20897123D01*
X44932302Y-20783175D01*
X44932331Y-20782658D01*
X44932432Y-20782070D01*
X44932471Y-20779227D01*
X44932849Y-20751119D01*
X44932854Y-20750769D01*
X44933355Y-20721346D01*
X44933355Y-20721337D01*
X44933383Y-20719679D01*
X44933301Y-20719092D01*
X44933288Y-20718571D01*
X44933292Y-20718329D01*
X44933497Y-20703013D01*
X44933571Y-20701489D01*
X44933819Y-20699964D01*
X44933941Y-20670421D01*
X44933949Y-20669497D01*
X44934296Y-20643801D01*
X44934296Y-20643797D01*
X44934348Y-20639924D01*
X44934128Y-20638398D01*
X44934081Y-20636866D01*
X44934257Y-20594384D01*
X44934350Y-20591797D01*
X44934694Y-20589472D01*
X44934404Y-20561192D01*
X44934400Y-20559774D01*
X44934501Y-20535376D01*
X44934501Y-20535375D01*
X44934517Y-20531483D01*
X44934158Y-20529152D01*
X44934048Y-20526563D01*
X44934014Y-20523170D01*
X44933832Y-20505489D01*
X44933912Y-20500376D01*
X44933971Y-20498944D01*
X44934436Y-20495089D01*
X44933502Y-20469939D01*
X44933440Y-20467312D01*
X44933374Y-20460813D01*
X44933182Y-20442166D01*
X44932536Y-20438340D01*
X44932408Y-20436907D01*
X44932086Y-20431807D01*
X44931553Y-20417470D01*
X44931485Y-20413726D01*
X44931487Y-20410731D01*
X44932226Y-20399266D01*
X44932213Y-20398815D01*
X44933208Y-20391087D01*
X44928198Y-20364478D01*
X44926508Y-20348087D01*
X44926331Y-20338975D01*
X44926331Y-20338973D01*
X44926179Y-20331185D01*
X44919334Y-20311435D01*
X44916587Y-20302031D01*
X44916456Y-20301483D01*
X44915452Y-20296780D01*
X44910884Y-20272516D01*
X44909442Y-20264856D01*
X44901293Y-20249949D01*
X44893988Y-20232997D01*
X44891152Y-20224249D01*
X44891149Y-20224243D01*
X44888747Y-20216835D01*
X44884535Y-20211031D01*
X44884115Y-20209818D01*
X44873526Y-20195825D01*
X44872386Y-20194287D01*
X44869931Y-20190904D01*
X44863200Y-20180261D01*
X44851569Y-20158984D01*
X44851567Y-20158982D01*
X44847831Y-20152147D01*
X44842166Y-20146802D01*
X44842164Y-20146799D01*
X44835473Y-20140486D01*
X44823288Y-20126623D01*
X44813480Y-20113106D01*
X44802130Y-20092816D01*
X44800669Y-20089283D01*
X44795159Y-20071281D01*
X44792005Y-20055861D01*
X44782147Y-20038478D01*
X44777103Y-20029585D01*
X44776771Y-20028994D01*
X44775562Y-20026826D01*
X44770556Y-20016470D01*
X44760248Y-19991548D01*
X44757268Y-19984342D01*
X44748020Y-19973502D01*
X44736882Y-19957484D01*
X44729939Y-19945037D01*
X44704451Y-19921396D01*
X44700149Y-19916912D01*
X44700145Y-19916916D01*
X44697401Y-19914169D01*
X44694872Y-19911205D01*
X44678366Y-19897092D01*
X44675399Y-19894449D01*
X44641476Y-19862985D01*
X44641473Y-19862983D01*
X44635762Y-19857686D01*
X44629044Y-19854575D01*
X44628538Y-19854222D01*
X44626451Y-19852704D01*
X44623497Y-19850178D01*
X44620184Y-19848145D01*
X44620178Y-19848141D01*
X44605093Y-19838885D01*
X44601685Y-19836697D01*
X44584924Y-19825444D01*
X44580731Y-19822240D01*
X44580662Y-19822334D01*
X44577522Y-19820018D01*
X44574589Y-19817475D01*
X44571295Y-19815423D01*
X44571285Y-19815416D01*
X44554838Y-19805172D01*
X44551996Y-19803334D01*
X44535892Y-19792522D01*
X44535886Y-19792519D01*
X44532662Y-19790354D01*
X44529136Y-19788719D01*
X44525747Y-19786811D01*
X44525804Y-19786709D01*
X44521168Y-19784203D01*
X44502274Y-19772436D01*
X44499258Y-19770428D01*
X44496955Y-19768506D01*
X44493625Y-19766517D01*
X44493621Y-19766514D01*
X44473597Y-19754553D01*
X44472029Y-19753597D01*
X44452204Y-19741250D01*
X44452203Y-19741249D01*
X44448901Y-19739193D01*
X44446134Y-19738024D01*
X44442968Y-19736259D01*
X44412129Y-19717839D01*
X44410008Y-19716477D01*
X44408213Y-19715022D01*
X44383577Y-19700775D01*
X44382563Y-19700179D01*
X44358123Y-19685581D01*
X44355978Y-19684721D01*
X44353747Y-19683525D01*
X44351799Y-19682398D01*
X44318743Y-19663282D01*
X44316565Y-19661928D01*
X44314739Y-19660489D01*
X44308514Y-19657006D01*
X44289937Y-19646612D01*
X44288801Y-19645966D01*
X44264266Y-19631778D01*
X44262097Y-19630944D01*
X44259850Y-19629780D01*
X44238720Y-19617958D01*
X44228418Y-19612194D01*
X44225250Y-19610295D01*
X44222819Y-19608454D01*
X44221043Y-19607504D01*
X44182535Y-19560569D01*
X44178942Y-19499489D01*
X44211938Y-19447962D01*
X44274731Y-19425500D01*
X45275500Y-19425500D01*
X45333691Y-19444407D01*
G37*
%TD.AperFunction*%
%TA.AperFunction,Conductor*%
G36*
X24346188Y-26078010D02*
G01*
X24389635Y-26084891D01*
X24389637Y-26084891D01*
X24393481Y-26085500D01*
X24721246Y-26085500D01*
X24779437Y-26104407D01*
X24815401Y-26153907D01*
X24815401Y-26215093D01*
X24801777Y-26241831D01*
X24796950Y-26246658D01*
X24793413Y-26253599D01*
X24793412Y-26253601D01*
X24746750Y-26345180D01*
X24739354Y-26359696D01*
X24724500Y-26453481D01*
X24724501Y-27316518D01*
X24739354Y-27410304D01*
X24796950Y-27523342D01*
X24886658Y-27613050D01*
X24886481Y-27613227D01*
X24919655Y-27658888D01*
X24924500Y-27689481D01*
X24924500Y-30424226D01*
X24923081Y-30436927D01*
X24923103Y-30436929D01*
X24922537Y-30443961D01*
X24920981Y-30450839D01*
X24921710Y-30462585D01*
X24924310Y-30504494D01*
X24924500Y-30510625D01*
X24924500Y-30527332D01*
X24924999Y-30530819D01*
X24925000Y-30530827D01*
X24926101Y-30538513D01*
X24926911Y-30546416D01*
X24928322Y-30569151D01*
X24929859Y-30593930D01*
X24932252Y-30600559D01*
X24932253Y-30600563D01*
X24933342Y-30603579D01*
X24938223Y-30623155D01*
X24939677Y-30633310D01*
X24942596Y-30639729D01*
X24942597Y-30639734D01*
X24959381Y-30676649D01*
X24962377Y-30684007D01*
X24962916Y-30685500D01*
X24978540Y-30728779D01*
X24984592Y-30737064D01*
X24994768Y-30754478D01*
X24999016Y-30763820D01*
X25012728Y-30779733D01*
X25030093Y-30799887D01*
X25035033Y-30806108D01*
X25043522Y-30817728D01*
X25054986Y-30829192D01*
X25059981Y-30834573D01*
X25092600Y-30872429D01*
X25098520Y-30876266D01*
X25099811Y-30877103D01*
X25115968Y-30890174D01*
X26421703Y-32195909D01*
X26450102Y-32255058D01*
X26450225Y-32256173D01*
X26437812Y-32316086D01*
X26397229Y-32355001D01*
X26354562Y-32377023D01*
X26226797Y-32488479D01*
X26223366Y-32493361D01*
X26223365Y-32493362D01*
X26175204Y-32561889D01*
X26129306Y-32627195D01*
X26067717Y-32785161D01*
X26066938Y-32791076D01*
X26066938Y-32791077D01*
X26064101Y-32812626D01*
X26045587Y-32953259D01*
X26046242Y-32959192D01*
X26046242Y-32959196D01*
X26048799Y-32982352D01*
X26054054Y-33029947D01*
X26056559Y-33052639D01*
X26044152Y-33112553D01*
X26003566Y-33151474D01*
X25955042Y-33176519D01*
X25827277Y-33287975D01*
X25823846Y-33292857D01*
X25823845Y-33292858D01*
X25733217Y-33421809D01*
X25729786Y-33426691D01*
X25668197Y-33584657D01*
X25646067Y-33752755D01*
X25646722Y-33758688D01*
X25646722Y-33758691D01*
X25646756Y-33758995D01*
X25646717Y-33759182D01*
X25646660Y-33764655D01*
X25645587Y-33764644D01*
X25634353Y-33818909D01*
X25593762Y-33857837D01*
X25555511Y-33877580D01*
X25427746Y-33989036D01*
X25424315Y-33993918D01*
X25424314Y-33993919D01*
X25337639Y-34117246D01*
X25330255Y-34127752D01*
X25313972Y-34169515D01*
X25276208Y-34266375D01*
X25268666Y-34285718D01*
X25246536Y-34453816D01*
X25247191Y-34459749D01*
X25247191Y-34459750D01*
X25247218Y-34459991D01*
X25247187Y-34460139D01*
X25247129Y-34465715D01*
X25246035Y-34465704D01*
X25234811Y-34519906D01*
X25194223Y-34558828D01*
X25155991Y-34578561D01*
X25028226Y-34690017D01*
X25024795Y-34694899D01*
X25024794Y-34694900D01*
X24934166Y-34823851D01*
X24930735Y-34828733D01*
X24869146Y-34986699D01*
X24847016Y-35154797D01*
X24847671Y-35160730D01*
X24847671Y-35160734D01*
X24862004Y-35290560D01*
X24865621Y-35323321D01*
X24923888Y-35482542D01*
X24927213Y-35487491D01*
X24927214Y-35487492D01*
X24954433Y-35527998D01*
X25018452Y-35623269D01*
X25022866Y-35627285D01*
X25026767Y-35631805D01*
X25024875Y-35633438D01*
X25050064Y-35677594D01*
X25052122Y-35697674D01*
X25052122Y-35811974D01*
X25033215Y-35870165D01*
X24998067Y-35900184D01*
X24893597Y-35953414D01*
X24893595Y-35953415D01*
X24886658Y-35956950D01*
X24796950Y-36046658D01*
X24739354Y-36159696D01*
X24724500Y-36253481D01*
X24724501Y-37116518D01*
X24739354Y-37210304D01*
X24796950Y-37323342D01*
X24801542Y-37327934D01*
X24820246Y-37385504D01*
X24801337Y-37443694D01*
X24751836Y-37479656D01*
X24721249Y-37484501D01*
X24393482Y-37484501D01*
X24389639Y-37485110D01*
X24389634Y-37485110D01*
X24307397Y-37498134D01*
X24307395Y-37498135D01*
X24299696Y-37499354D01*
X24299621Y-37498883D01*
X24243908Y-37498883D01*
X24194407Y-37462919D01*
X24175500Y-37404728D01*
X24175500Y-26165273D01*
X24194407Y-26107082D01*
X24243907Y-26071118D01*
X24299621Y-26071117D01*
X24299696Y-26070646D01*
X24346188Y-26078010D01*
G37*
%TD.AperFunction*%
%TA.AperFunction,Conductor*%
G36*
X34482364Y-27608756D02*
G01*
X34486658Y-27613050D01*
X34493601Y-27616587D01*
X34493600Y-27616587D01*
X34516001Y-27628001D01*
X34559266Y-27671265D01*
X34564175Y-27682596D01*
X34576143Y-27715750D01*
X34576145Y-27715754D01*
X34578540Y-27722388D01*
X34584592Y-27730673D01*
X34594768Y-27748087D01*
X34599016Y-27757429D01*
X34612728Y-27773342D01*
X34630093Y-27793496D01*
X34635033Y-27799717D01*
X34643522Y-27811337D01*
X34654986Y-27822801D01*
X34659981Y-27828182D01*
X34665017Y-27834026D01*
X34692600Y-27866038D01*
X34698520Y-27869875D01*
X34699811Y-27870712D01*
X34715968Y-27883783D01*
X34845504Y-28013319D01*
X34873281Y-28067836D01*
X34874500Y-28083323D01*
X34874500Y-28561388D01*
X34873081Y-28574089D01*
X34873103Y-28574091D01*
X34872537Y-28581123D01*
X34870981Y-28588001D01*
X34873992Y-28636524D01*
X34874310Y-28641656D01*
X34874500Y-28647787D01*
X34874500Y-28664494D01*
X34874999Y-28667981D01*
X34875000Y-28667989D01*
X34876101Y-28675675D01*
X34876911Y-28683578D01*
X34877679Y-28695948D01*
X34879859Y-28731092D01*
X34882252Y-28737721D01*
X34882253Y-28737725D01*
X34883342Y-28740741D01*
X34888223Y-28760317D01*
X34889677Y-28770472D01*
X34892596Y-28776891D01*
X34892597Y-28776896D01*
X34909381Y-28813811D01*
X34912377Y-28821169D01*
X34928540Y-28865941D01*
X34934592Y-28874226D01*
X34944768Y-28891640D01*
X34949016Y-28900982D01*
X34953621Y-28906326D01*
X34980093Y-28937049D01*
X34985033Y-28943270D01*
X34993522Y-28954890D01*
X35004986Y-28966354D01*
X35009981Y-28971735D01*
X35042600Y-29009591D01*
X35048520Y-29013428D01*
X35049811Y-29014265D01*
X35065968Y-29027336D01*
X35220945Y-29182313D01*
X35248722Y-29236830D01*
X35246832Y-29276933D01*
X35245491Y-29282156D01*
X35243325Y-29287712D01*
X35221195Y-29455810D01*
X35239800Y-29624334D01*
X35298067Y-29783555D01*
X35392631Y-29924282D01*
X35518034Y-30038390D01*
X35667036Y-30119291D01*
X35726481Y-30134886D01*
X35825265Y-30160802D01*
X35825269Y-30160803D01*
X35831034Y-30162315D01*
X35836995Y-30162409D01*
X35836998Y-30162409D01*
X35915766Y-30163646D01*
X36000561Y-30164978D01*
X36006376Y-30163646D01*
X36006378Y-30163646D01*
X36065795Y-30150038D01*
X36165830Y-30127127D01*
X36171163Y-30124445D01*
X36171168Y-30124443D01*
X36196553Y-30111676D01*
X36257034Y-30102422D01*
X36307662Y-30126896D01*
X36349411Y-30164884D01*
X36366233Y-30180191D01*
X36515235Y-30261092D01*
X36574680Y-30276687D01*
X36673464Y-30302603D01*
X36673468Y-30302604D01*
X36679233Y-30304116D01*
X36685194Y-30304210D01*
X36685197Y-30304210D01*
X36770365Y-30305548D01*
X36848760Y-30306779D01*
X36878508Y-30299966D01*
X36939451Y-30305406D01*
X36974179Y-30330223D01*
X37011310Y-30371461D01*
X37085659Y-30454035D01*
X37085663Y-30454038D01*
X37089129Y-30457888D01*
X37242270Y-30569151D01*
X37247002Y-30571258D01*
X37247004Y-30571259D01*
X37400800Y-30639734D01*
X37415197Y-30646144D01*
X37420267Y-30647222D01*
X37420268Y-30647222D01*
X37457610Y-30655159D01*
X37600354Y-30685500D01*
X37789646Y-30685500D01*
X37932390Y-30655159D01*
X37969732Y-30647222D01*
X37969733Y-30647222D01*
X37974803Y-30646144D01*
X37989200Y-30639734D01*
X38142996Y-30571259D01*
X38142998Y-30571258D01*
X38147730Y-30569151D01*
X38219177Y-30517242D01*
X38236843Y-30504407D01*
X38295034Y-30485500D01*
X38466049Y-30485500D01*
X38524240Y-30504407D01*
X38554241Y-30539521D01*
X38554497Y-30540024D01*
X38564091Y-30600450D01*
X38554515Y-30629942D01*
X38539354Y-30659696D01*
X38538136Y-30667388D01*
X38538135Y-30667390D01*
X38527101Y-30737058D01*
X38524500Y-30753481D01*
X38524501Y-31616518D01*
X38539354Y-31710304D01*
X38554513Y-31740056D01*
X38564085Y-31800485D01*
X38554515Y-31829942D01*
X38539354Y-31859696D01*
X38538136Y-31867388D01*
X38538135Y-31867390D01*
X38525401Y-31947790D01*
X38524500Y-31953481D01*
X38524501Y-32816518D01*
X38539354Y-32910304D01*
X38554513Y-32940056D01*
X38564085Y-33000485D01*
X38554515Y-33029942D01*
X38539354Y-33059696D01*
X38538136Y-33067388D01*
X38538135Y-33067390D01*
X38530982Y-33112553D01*
X38524500Y-33153481D01*
X38524501Y-34016518D01*
X38539354Y-34110304D01*
X38554513Y-34140056D01*
X38564085Y-34200485D01*
X38554515Y-34229942D01*
X38539354Y-34259696D01*
X38538136Y-34267388D01*
X38538135Y-34267390D01*
X38527792Y-34332693D01*
X38524500Y-34353481D01*
X38524501Y-35216518D01*
X38525110Y-35220361D01*
X38525110Y-35220366D01*
X38528925Y-35244453D01*
X38539354Y-35310304D01*
X38554513Y-35340056D01*
X38564085Y-35400485D01*
X38554515Y-35429942D01*
X38539354Y-35459696D01*
X38538136Y-35467388D01*
X38538135Y-35467390D01*
X38528538Y-35527984D01*
X38524500Y-35553481D01*
X38524501Y-36416518D01*
X38525110Y-36420361D01*
X38525110Y-36420366D01*
X38528161Y-36439630D01*
X38539354Y-36510304D01*
X38554513Y-36540056D01*
X38564085Y-36600485D01*
X38554515Y-36629942D01*
X38539354Y-36659696D01*
X38524500Y-36753481D01*
X38524501Y-37120366D01*
X38524501Y-37385500D01*
X38505594Y-37443691D01*
X38456094Y-37479655D01*
X38425501Y-37484500D01*
X38128754Y-37484500D01*
X38070563Y-37465593D01*
X38034599Y-37416093D01*
X38034599Y-37354907D01*
X38048223Y-37328169D01*
X38053050Y-37323342D01*
X38110646Y-37210304D01*
X38125500Y-37116519D01*
X38125499Y-36253482D01*
X38110646Y-36159696D01*
X38053050Y-36046658D01*
X37963342Y-35956950D01*
X37956405Y-35953415D01*
X37956403Y-35953414D01*
X37857244Y-35902890D01*
X37857243Y-35902890D01*
X37850304Y-35899354D01*
X37842610Y-35898135D01*
X37842609Y-35898135D01*
X37760365Y-35885109D01*
X37760363Y-35885109D01*
X37756519Y-35884500D01*
X37425043Y-35884500D01*
X37093482Y-35884501D01*
X37089639Y-35885110D01*
X37089634Y-35885110D01*
X37052783Y-35890947D01*
X36999696Y-35899354D01*
X36886658Y-35956950D01*
X36882364Y-35961244D01*
X36824997Y-35979882D01*
X36767636Y-35961244D01*
X36763342Y-35956950D01*
X36700362Y-35924860D01*
X36657244Y-35902890D01*
X36657243Y-35902890D01*
X36650304Y-35899354D01*
X36642610Y-35898135D01*
X36642609Y-35898135D01*
X36560365Y-35885109D01*
X36560363Y-35885109D01*
X36556519Y-35884500D01*
X36225043Y-35884500D01*
X35893482Y-35884501D01*
X35889639Y-35885110D01*
X35889634Y-35885110D01*
X35852783Y-35890947D01*
X35799696Y-35899354D01*
X35686658Y-35956950D01*
X35682108Y-35961500D01*
X35624570Y-35980195D01*
X35566379Y-35961288D01*
X35556102Y-35953821D01*
X35457088Y-35903371D01*
X35442453Y-35898616D01*
X35360327Y-35885609D01*
X35352588Y-35885000D01*
X35147177Y-35885000D01*
X35088986Y-35866093D01*
X35053022Y-35816593D01*
X35053022Y-35755407D01*
X35077173Y-35715996D01*
X35388673Y-35404496D01*
X35443190Y-35376719D01*
X35458677Y-35375500D01*
X35523323Y-35375500D01*
X35581514Y-35394407D01*
X35589949Y-35401275D01*
X35598517Y-35409071D01*
X35605583Y-35415500D01*
X35616233Y-35425191D01*
X35621479Y-35428039D01*
X35621480Y-35428040D01*
X35632218Y-35433870D01*
X35765235Y-35506092D01*
X35798653Y-35514859D01*
X35923464Y-35547603D01*
X35923468Y-35547604D01*
X35929233Y-35549116D01*
X35935194Y-35549210D01*
X35935197Y-35549210D01*
X36013965Y-35550447D01*
X36098760Y-35551779D01*
X36104575Y-35550447D01*
X36104577Y-35550447D01*
X36258206Y-35515262D01*
X36258209Y-35515261D01*
X36264029Y-35513928D01*
X36279610Y-35506092D01*
X36385652Y-35452758D01*
X36415498Y-35437747D01*
X36420035Y-35433872D01*
X36420038Y-35433870D01*
X36539888Y-35331508D01*
X36539891Y-35331505D01*
X36544423Y-35327634D01*
X36563115Y-35301621D01*
X36639877Y-35194796D01*
X36639878Y-35194794D01*
X36643361Y-35189947D01*
X36647589Y-35179431D01*
X36704377Y-35038167D01*
X36704378Y-35038165D01*
X36706601Y-35032634D01*
X36707442Y-35026727D01*
X36730034Y-34867985D01*
X36730034Y-34867979D01*
X36730490Y-34864778D01*
X36730645Y-34850000D01*
X36713220Y-34706004D01*
X36710993Y-34687602D01*
X36710992Y-34687599D01*
X36710276Y-34681680D01*
X36650345Y-34523077D01*
X36634593Y-34500157D01*
X36557692Y-34388267D01*
X36554312Y-34383349D01*
X36427721Y-34270560D01*
X36421744Y-34267395D01*
X36351016Y-34229947D01*
X36277881Y-34191224D01*
X36191455Y-34169515D01*
X36119231Y-34151373D01*
X36119228Y-34151373D01*
X36113441Y-34149919D01*
X36027841Y-34149471D01*
X35949861Y-34149062D01*
X35949859Y-34149062D01*
X35943895Y-34149031D01*
X35938099Y-34150423D01*
X35938095Y-34150423D01*
X35830703Y-34176207D01*
X35779032Y-34188612D01*
X35703701Y-34227493D01*
X35633675Y-34263636D01*
X35633673Y-34263638D01*
X35628369Y-34266375D01*
X35609133Y-34283156D01*
X35589706Y-34300103D01*
X35533427Y-34324108D01*
X35524626Y-34324500D01*
X35213877Y-34324500D01*
X35209731Y-34324413D01*
X35150081Y-34321913D01*
X35123047Y-34328254D01*
X35062078Y-34323135D01*
X35015761Y-34283156D01*
X35006286Y-34262463D01*
X34963781Y-34131646D01*
X34963780Y-34131645D01*
X34962179Y-34126716D01*
X34952438Y-34109843D01*
X34870126Y-33967275D01*
X34870125Y-33967274D01*
X34867533Y-33962784D01*
X34790815Y-33877580D01*
X34744341Y-33825965D01*
X34744337Y-33825962D01*
X34740871Y-33822112D01*
X34587730Y-33710849D01*
X34582998Y-33708742D01*
X34582996Y-33708741D01*
X34419540Y-33635965D01*
X34419539Y-33635965D01*
X34414803Y-33633856D01*
X34409733Y-33632778D01*
X34409732Y-33632778D01*
X34372390Y-33624841D01*
X34229646Y-33594500D01*
X34040354Y-33594500D01*
X33897610Y-33624841D01*
X33860268Y-33632778D01*
X33860267Y-33632778D01*
X33855197Y-33633856D01*
X33850461Y-33635965D01*
X33850460Y-33635965D01*
X33687004Y-33708741D01*
X33687002Y-33708742D01*
X33682270Y-33710849D01*
X33529129Y-33822112D01*
X33525663Y-33825962D01*
X33525659Y-33825965D01*
X33479185Y-33877580D01*
X33402467Y-33962784D01*
X33399875Y-33967274D01*
X33399874Y-33967275D01*
X33317563Y-34109843D01*
X33307821Y-34126716D01*
X33306220Y-34131645D01*
X33306219Y-34131646D01*
X33250928Y-34301812D01*
X33250927Y-34301817D01*
X33249326Y-34306744D01*
X33229540Y-34495000D01*
X33249326Y-34683256D01*
X33250927Y-34688183D01*
X33250928Y-34688188D01*
X33304615Y-34853418D01*
X33307821Y-34863284D01*
X33310412Y-34867772D01*
X33310413Y-34867774D01*
X33382490Y-34992615D01*
X33402467Y-35027216D01*
X33405939Y-35031072D01*
X33525659Y-35164035D01*
X33525663Y-35164038D01*
X33529129Y-35167888D01*
X33682270Y-35279151D01*
X33687002Y-35281258D01*
X33687004Y-35281259D01*
X33732738Y-35301621D01*
X33789678Y-35326973D01*
X33835147Y-35367913D01*
X33847868Y-35427762D01*
X33819414Y-35487417D01*
X33463229Y-35843602D01*
X33460235Y-35846472D01*
X33416474Y-35886712D01*
X33394410Y-35902048D01*
X33286658Y-35956950D01*
X33282364Y-35961244D01*
X33224997Y-35979882D01*
X33167636Y-35961244D01*
X33163342Y-35956950D01*
X33100362Y-35924860D01*
X33057244Y-35902890D01*
X33057243Y-35902890D01*
X33050304Y-35899354D01*
X33042610Y-35898135D01*
X33042609Y-35898135D01*
X32960365Y-35885109D01*
X32960363Y-35885109D01*
X32956519Y-35884500D01*
X32625043Y-35884500D01*
X32293482Y-35884501D01*
X32289639Y-35885110D01*
X32289634Y-35885110D01*
X32252783Y-35890947D01*
X32199696Y-35899354D01*
X32086658Y-35956950D01*
X32082364Y-35961244D01*
X32024997Y-35979882D01*
X31967636Y-35961244D01*
X31963342Y-35956950D01*
X31900362Y-35924860D01*
X31857244Y-35902890D01*
X31857243Y-35902890D01*
X31850304Y-35899354D01*
X31842610Y-35898135D01*
X31842609Y-35898135D01*
X31760365Y-35885109D01*
X31760363Y-35885109D01*
X31756519Y-35884500D01*
X31425043Y-35884500D01*
X31093482Y-35884501D01*
X31089639Y-35885110D01*
X31089634Y-35885110D01*
X31052783Y-35890947D01*
X30999696Y-35899354D01*
X30886658Y-35956950D01*
X30882108Y-35961500D01*
X30824570Y-35980195D01*
X30766379Y-35961288D01*
X30756102Y-35953821D01*
X30657088Y-35903371D01*
X30642453Y-35898616D01*
X30560327Y-35885609D01*
X30552588Y-35885000D01*
X30440680Y-35885000D01*
X30427995Y-35889122D01*
X30425000Y-35893243D01*
X30425000Y-36786000D01*
X30406093Y-36844191D01*
X30356593Y-36880155D01*
X30326000Y-36885000D01*
X30124000Y-36885000D01*
X30065809Y-36866093D01*
X30029845Y-36816593D01*
X30025000Y-36786000D01*
X30025000Y-35900681D01*
X30020878Y-35887996D01*
X30016757Y-35885001D01*
X29897415Y-35885001D01*
X29889671Y-35885611D01*
X29807551Y-35898616D01*
X29792909Y-35903373D01*
X29693898Y-35953821D01*
X29683621Y-35961288D01*
X29625430Y-35980195D01*
X29567882Y-35961490D01*
X29564435Y-35958043D01*
X29530339Y-35911091D01*
X29525500Y-35880519D01*
X29525500Y-35301621D01*
X29526919Y-35288920D01*
X29526897Y-35288918D01*
X29527463Y-35281886D01*
X29529019Y-35275008D01*
X29525690Y-35221353D01*
X29525500Y-35215222D01*
X29525500Y-35198515D01*
X29525001Y-35195028D01*
X29525000Y-35195020D01*
X29523899Y-35187334D01*
X29523089Y-35179431D01*
X29520578Y-35138954D01*
X29520577Y-35138951D01*
X29520141Y-35131917D01*
X29517748Y-35125288D01*
X29517747Y-35125284D01*
X29516658Y-35122268D01*
X29511777Y-35102691D01*
X29511323Y-35099519D01*
X29511323Y-35099518D01*
X29510323Y-35092537D01*
X29507404Y-35086118D01*
X29507403Y-35086113D01*
X29490619Y-35049198D01*
X29487623Y-35041840D01*
X29480722Y-35022725D01*
X29471460Y-34997068D01*
X29465408Y-34988783D01*
X29455232Y-34971369D01*
X29450984Y-34962027D01*
X29427265Y-34934500D01*
X29419907Y-34925960D01*
X29414967Y-34919739D01*
X29414653Y-34919309D01*
X29406478Y-34908119D01*
X29395014Y-34896655D01*
X29390019Y-34891274D01*
X29379571Y-34879148D01*
X31579524Y-34879148D01*
X31579695Y-34880231D01*
X31583972Y-34885239D01*
X31598321Y-34895665D01*
X31607264Y-34900828D01*
X31770613Y-34973555D01*
X31780425Y-34976743D01*
X31955334Y-35013922D01*
X31965594Y-35015000D01*
X32144406Y-35015000D01*
X32154666Y-35013922D01*
X32329575Y-34976743D01*
X32339387Y-34973555D01*
X32502736Y-34900828D01*
X32511679Y-34895665D01*
X32522823Y-34887568D01*
X32530662Y-34876777D01*
X32530662Y-34875679D01*
X32527223Y-34870066D01*
X32066086Y-34408929D01*
X32054203Y-34402875D01*
X32049172Y-34403671D01*
X31585578Y-34867265D01*
X31579524Y-34879148D01*
X29379571Y-34879148D01*
X29362005Y-34858762D01*
X29362004Y-34858761D01*
X29357400Y-34853418D01*
X29350189Y-34848744D01*
X29334032Y-34835673D01*
X28618516Y-34120157D01*
X31150585Y-34120157D01*
X31169276Y-34297990D01*
X31171423Y-34308090D01*
X31226676Y-34478140D01*
X31230875Y-34487572D01*
X31284787Y-34580950D01*
X31293931Y-34589184D01*
X31302775Y-34584382D01*
X31761071Y-34126086D01*
X31766313Y-34115797D01*
X32342875Y-34115797D01*
X32343671Y-34120828D01*
X32806287Y-34583444D01*
X32817248Y-34589029D01*
X32824549Y-34582100D01*
X32879125Y-34487572D01*
X32883324Y-34478140D01*
X32938577Y-34308090D01*
X32940724Y-34297990D01*
X32959415Y-34120157D01*
X32959415Y-34109843D01*
X32940724Y-33932010D01*
X32938577Y-33921910D01*
X32883324Y-33751860D01*
X32879125Y-33742428D01*
X32825213Y-33649050D01*
X32816069Y-33640816D01*
X32807225Y-33645618D01*
X32348929Y-34103914D01*
X32342875Y-34115797D01*
X31766313Y-34115797D01*
X31767125Y-34114203D01*
X31766329Y-34109172D01*
X31303713Y-33646556D01*
X31292752Y-33640971D01*
X31285451Y-33647900D01*
X31230875Y-33742428D01*
X31226676Y-33751860D01*
X31171423Y-33921910D01*
X31169276Y-33932010D01*
X31150585Y-34109843D01*
X31150585Y-34120157D01*
X28618516Y-34120157D01*
X27852681Y-33354322D01*
X31579337Y-33354322D01*
X31582774Y-33359931D01*
X32043914Y-33821071D01*
X32055797Y-33827125D01*
X32060828Y-33826329D01*
X32524422Y-33362735D01*
X32530476Y-33350852D01*
X32530305Y-33349769D01*
X32526028Y-33344761D01*
X32511679Y-33334335D01*
X32502736Y-33329172D01*
X32339387Y-33256445D01*
X32329575Y-33253257D01*
X32154666Y-33216078D01*
X32144406Y-33215000D01*
X31965594Y-33215000D01*
X31955334Y-33216078D01*
X31780425Y-33253257D01*
X31770613Y-33256445D01*
X31607256Y-33329176D01*
X31598331Y-33334329D01*
X31587177Y-33342433D01*
X31579337Y-33353224D01*
X31579337Y-33354322D01*
X27852681Y-33354322D01*
X27480711Y-32982352D01*
X27452427Y-32924202D01*
X27452259Y-32922809D01*
X27464063Y-32862773D01*
X27506065Y-32822511D01*
X27535863Y-32807524D01*
X27535865Y-32807523D01*
X27541199Y-32804840D01*
X27545736Y-32800965D01*
X27545739Y-32800963D01*
X27665589Y-32698601D01*
X27665592Y-32698598D01*
X27670124Y-32694727D01*
X27769062Y-32557040D01*
X27832302Y-32399727D01*
X27834975Y-32380947D01*
X27855735Y-32235078D01*
X27855735Y-32235072D01*
X27856191Y-32231871D01*
X27856346Y-32217093D01*
X27851939Y-32180677D01*
X27863718Y-32120638D01*
X27905740Y-32080340D01*
X27935383Y-32065431D01*
X27935385Y-32065430D01*
X27940719Y-32062747D01*
X27945256Y-32058872D01*
X27945259Y-32058870D01*
X28065109Y-31956508D01*
X28065112Y-31956505D01*
X28069644Y-31952634D01*
X28073125Y-31947790D01*
X28165098Y-31819796D01*
X28165099Y-31819794D01*
X28168582Y-31814947D01*
X28198690Y-31740053D01*
X28229598Y-31663167D01*
X28229599Y-31663165D01*
X28231822Y-31657634D01*
X28237126Y-31620365D01*
X28255255Y-31492985D01*
X28255255Y-31492979D01*
X28255711Y-31489778D01*
X28255866Y-31475000D01*
X28235497Y-31306680D01*
X28175566Y-31148077D01*
X28079533Y-31008349D01*
X27952942Y-30895560D01*
X27803102Y-30816224D01*
X27720882Y-30795571D01*
X27644452Y-30776373D01*
X27644449Y-30776373D01*
X27638662Y-30774919D01*
X27613931Y-30774789D01*
X27598232Y-30774707D01*
X27540141Y-30755494D01*
X27528747Y-30745712D01*
X27154496Y-30371461D01*
X27126719Y-30316944D01*
X27125500Y-30301457D01*
X27125500Y-27689481D01*
X27144407Y-27631290D01*
X27161940Y-27613765D01*
X27163342Y-27613050D01*
X27167651Y-27608741D01*
X27225035Y-27590118D01*
X27282364Y-27608756D01*
X27286658Y-27613050D01*
X27298634Y-27619152D01*
X27384814Y-27663063D01*
X27399696Y-27670646D01*
X27407390Y-27671865D01*
X27407391Y-27671865D01*
X27489635Y-27684891D01*
X27489637Y-27684891D01*
X27493481Y-27685500D01*
X27824957Y-27685500D01*
X28156518Y-27685499D01*
X28160361Y-27684890D01*
X28160366Y-27684890D01*
X28197217Y-27679053D01*
X28250304Y-27670646D01*
X28363342Y-27613050D01*
X28367636Y-27608756D01*
X28425003Y-27590118D01*
X28482364Y-27608756D01*
X28486658Y-27613050D01*
X28498634Y-27619152D01*
X28584814Y-27663063D01*
X28599696Y-27670646D01*
X28607390Y-27671865D01*
X28607391Y-27671865D01*
X28689635Y-27684891D01*
X28689637Y-27684891D01*
X28693481Y-27685500D01*
X29024957Y-27685500D01*
X29356518Y-27685499D01*
X29360361Y-27684890D01*
X29360366Y-27684890D01*
X29397217Y-27679053D01*
X29450304Y-27670646D01*
X29563342Y-27613050D01*
X29567636Y-27608756D01*
X29625003Y-27590118D01*
X29682349Y-27608741D01*
X29685490Y-27611882D01*
X29719644Y-27658855D01*
X29724500Y-27689481D01*
X29724500Y-27944327D01*
X29705593Y-28002518D01*
X29670907Y-28032299D01*
X29651502Y-28042315D01*
X29556011Y-28091601D01*
X29556009Y-28091603D01*
X29550705Y-28094340D01*
X29422940Y-28205796D01*
X29419509Y-28210678D01*
X29419508Y-28210679D01*
X29331648Y-28335692D01*
X29325449Y-28344512D01*
X29317004Y-28366172D01*
X29279594Y-28462124D01*
X29263860Y-28502478D01*
X29241730Y-28670576D01*
X29242385Y-28676509D01*
X29242385Y-28676513D01*
X29258355Y-28821169D01*
X29260335Y-28839100D01*
X29318602Y-28998321D01*
X29321927Y-29003270D01*
X29321928Y-29003271D01*
X29333136Y-29019950D01*
X29413166Y-29139048D01*
X29538569Y-29253156D01*
X29687571Y-29334057D01*
X29722525Y-29343227D01*
X29845800Y-29375568D01*
X29845804Y-29375569D01*
X29851569Y-29377081D01*
X29857530Y-29377175D01*
X29857533Y-29377175D01*
X29936332Y-29378412D01*
X30021096Y-29379744D01*
X30026911Y-29378412D01*
X30026913Y-29378412D01*
X30180542Y-29343227D01*
X30180545Y-29343226D01*
X30186365Y-29341893D01*
X30201946Y-29334057D01*
X30294092Y-29287712D01*
X30337834Y-29265712D01*
X30342371Y-29261837D01*
X30342374Y-29261835D01*
X30462224Y-29159473D01*
X30462227Y-29159470D01*
X30466759Y-29155599D01*
X30515897Y-29087216D01*
X30562213Y-29022761D01*
X30562214Y-29022759D01*
X30565697Y-29017912D01*
X30571191Y-29004247D01*
X30626713Y-28866132D01*
X30626714Y-28866130D01*
X30628937Y-28860599D01*
X30636510Y-28807391D01*
X30652370Y-28695948D01*
X30652370Y-28695946D01*
X30652826Y-28692743D01*
X30652860Y-28689510D01*
X30652994Y-28687748D01*
X30664733Y-28648187D01*
X30668526Y-28643125D01*
X30685237Y-28598549D01*
X30688322Y-28591227D01*
X30689584Y-28588539D01*
X30731429Y-28543900D01*
X30780754Y-28531625D01*
X30907309Y-28533613D01*
X30913124Y-28532281D01*
X30913126Y-28532281D01*
X31066755Y-28497096D01*
X31066758Y-28497095D01*
X31072578Y-28495762D01*
X31136452Y-28463637D01*
X31148313Y-28457671D01*
X31224047Y-28419581D01*
X31228584Y-28415706D01*
X31228587Y-28415704D01*
X31348437Y-28313342D01*
X31348440Y-28313339D01*
X31352972Y-28309468D01*
X31373788Y-28280500D01*
X31448426Y-28176630D01*
X31448427Y-28176628D01*
X31451910Y-28171781D01*
X31454137Y-28166242D01*
X31482698Y-28095195D01*
X31521946Y-28048256D01*
X31581288Y-28033350D01*
X31638058Y-28056172D01*
X31660665Y-28084543D01*
X31660787Y-28084877D01*
X31755351Y-28225604D01*
X31880754Y-28339712D01*
X31886003Y-28342562D01*
X31896739Y-28348391D01*
X32029756Y-28420613D01*
X32064710Y-28429783D01*
X32187985Y-28462124D01*
X32187989Y-28462125D01*
X32193754Y-28463637D01*
X32199715Y-28463731D01*
X32199718Y-28463731D01*
X32278486Y-28464968D01*
X32363281Y-28466300D01*
X32369096Y-28464968D01*
X32369098Y-28464968D01*
X32522727Y-28429783D01*
X32522730Y-28429782D01*
X32528550Y-28428449D01*
X32533917Y-28425750D01*
X32674686Y-28354950D01*
X32680019Y-28352268D01*
X32684556Y-28348393D01*
X32684559Y-28348391D01*
X32804409Y-28246029D01*
X32804412Y-28246026D01*
X32808944Y-28242155D01*
X32837890Y-28201873D01*
X32904398Y-28109317D01*
X32904399Y-28109315D01*
X32907882Y-28104468D01*
X32911954Y-28094340D01*
X32968898Y-27952688D01*
X32968899Y-27952686D01*
X32971122Y-27947155D01*
X32977896Y-27899557D01*
X32993051Y-27793074D01*
X33016859Y-27741489D01*
X33042951Y-27711945D01*
X33042954Y-27711941D01*
X33047623Y-27706654D01*
X33051981Y-27697371D01*
X33062374Y-27680074D01*
X33067478Y-27673264D01*
X33101748Y-27644435D01*
X33156397Y-27616589D01*
X33156400Y-27616587D01*
X33163342Y-27613050D01*
X33167636Y-27608756D01*
X33225003Y-27590118D01*
X33282364Y-27608756D01*
X33286658Y-27613050D01*
X33298634Y-27619152D01*
X33384814Y-27663063D01*
X33399696Y-27670646D01*
X33407390Y-27671865D01*
X33407391Y-27671865D01*
X33489635Y-27684891D01*
X33489637Y-27684891D01*
X33493481Y-27685500D01*
X33824957Y-27685500D01*
X34156518Y-27685499D01*
X34160361Y-27684890D01*
X34160366Y-27684890D01*
X34197217Y-27679053D01*
X34250304Y-27670646D01*
X34363342Y-27613050D01*
X34367636Y-27608756D01*
X34425003Y-27590118D01*
X34482364Y-27608756D01*
G37*
%TD.AperFunction*%
%TA.AperFunction,Conductor*%
G36*
X31167196Y-19444407D02*
G01*
X31203160Y-19493907D01*
X31206786Y-19509013D01*
X31248430Y-19771939D01*
X31249509Y-19777018D01*
X31345827Y-20136484D01*
X31347430Y-20141416D01*
X31480795Y-20488843D01*
X31482895Y-20493561D01*
X31651854Y-20825162D01*
X31654444Y-20829648D01*
X31857128Y-21141754D01*
X31860169Y-21145940D01*
X32078968Y-21416136D01*
X32090155Y-21423400D01*
X32092642Y-21423270D01*
X32096193Y-21420964D01*
X34062661Y-19454496D01*
X34117178Y-19426719D01*
X34132665Y-19425500D01*
X34418335Y-19425500D01*
X34476526Y-19444407D01*
X34512490Y-19493907D01*
X34512490Y-19555093D01*
X34488339Y-19594504D01*
X32382765Y-21700078D01*
X32376711Y-21711961D01*
X32377100Y-21714422D01*
X32379764Y-21717711D01*
X32654060Y-21939831D01*
X32658246Y-21942872D01*
X32970352Y-22145556D01*
X32974838Y-22148146D01*
X33306439Y-22317105D01*
X33311157Y-22319205D01*
X33658584Y-22452570D01*
X33663516Y-22454173D01*
X34022982Y-22550491D01*
X34028061Y-22551570D01*
X34395615Y-22609786D01*
X34400777Y-22610328D01*
X34772405Y-22629804D01*
X34777595Y-22629804D01*
X35149223Y-22610328D01*
X35154385Y-22609786D01*
X35521939Y-22551570D01*
X35527018Y-22550491D01*
X35886484Y-22454173D01*
X35891416Y-22452570D01*
X36238843Y-22319205D01*
X36243561Y-22317105D01*
X36575162Y-22148146D01*
X36579648Y-22145556D01*
X36891754Y-21942872D01*
X36895940Y-21939831D01*
X37166136Y-21721032D01*
X37173400Y-21709845D01*
X37173270Y-21707358D01*
X37170964Y-21703807D01*
X35061661Y-19594504D01*
X35033884Y-19539987D01*
X35043455Y-19479555D01*
X35086720Y-19436290D01*
X35131665Y-19425500D01*
X35417335Y-19425500D01*
X35475526Y-19444407D01*
X35487339Y-19454496D01*
X37450078Y-21417235D01*
X37461961Y-21423289D01*
X37464422Y-21422900D01*
X37467711Y-21420236D01*
X37689831Y-21145940D01*
X37692872Y-21141754D01*
X37895556Y-20829648D01*
X37898146Y-20825162D01*
X38067105Y-20493561D01*
X38069205Y-20488843D01*
X38202570Y-20141416D01*
X38204173Y-20136484D01*
X38300491Y-19777018D01*
X38301570Y-19771939D01*
X38343214Y-19509013D01*
X38370992Y-19454496D01*
X38425508Y-19426719D01*
X38440995Y-19425500D01*
X40181707Y-19425500D01*
X40239898Y-19444407D01*
X40275862Y-19493907D01*
X40275862Y-19555093D01*
X40239898Y-19604593D01*
X40231099Y-19610299D01*
X40211176Y-19621768D01*
X40209721Y-19622589D01*
X40188942Y-19634088D01*
X40188933Y-19634094D01*
X40185534Y-19635975D01*
X40183376Y-19637658D01*
X40180679Y-19639323D01*
X40146982Y-19658721D01*
X40144694Y-19659943D01*
X40142508Y-19660815D01*
X40139171Y-19662800D01*
X40139160Y-19662806D01*
X40118185Y-19675287D01*
X40116953Y-19676008D01*
X40100324Y-19685581D01*
X40092467Y-19690104D01*
X40090633Y-19691585D01*
X40088460Y-19692974D01*
X40057231Y-19711556D01*
X40054638Y-19713099D01*
X40052058Y-19714527D01*
X40049663Y-19715527D01*
X40046358Y-19717565D01*
X40046355Y-19717567D01*
X40025909Y-19730178D01*
X40024564Y-19730993D01*
X40003935Y-19743268D01*
X40000594Y-19745256D01*
X39998603Y-19746912D01*
X39996153Y-19748531D01*
X39969614Y-19764900D01*
X39965306Y-19767395D01*
X39961920Y-19768903D01*
X39958668Y-19771015D01*
X39958664Y-19771017D01*
X39946564Y-19778875D01*
X39943192Y-19781065D01*
X39940115Y-19783063D01*
X39938169Y-19784295D01*
X39919274Y-19795949D01*
X39919265Y-19795955D01*
X39915965Y-19797991D01*
X39913148Y-19800411D01*
X39909046Y-19803238D01*
X39893704Y-19813202D01*
X39884445Y-19818529D01*
X39880276Y-19820636D01*
X39877121Y-19822913D01*
X39864453Y-19832056D01*
X39860443Y-19834802D01*
X39854156Y-19838885D01*
X39852972Y-19839654D01*
X39842768Y-19845069D01*
X39839974Y-19846809D01*
X39832800Y-19849841D01*
X39826913Y-19854943D01*
X39826911Y-19854944D01*
X39813469Y-19866593D01*
X39803111Y-19875570D01*
X39801224Y-19877205D01*
X39794324Y-19882667D01*
X39790025Y-19885770D01*
X39786648Y-19888207D01*
X39783893Y-19890945D01*
X39783591Y-19891201D01*
X39781866Y-19892763D01*
X39776755Y-19895770D01*
X39771044Y-19902220D01*
X39765770Y-19907438D01*
X39765818Y-19907485D01*
X39763086Y-19910257D01*
X39760150Y-19912801D01*
X39757652Y-19915769D01*
X39757648Y-19915773D01*
X39754051Y-19920047D01*
X39748089Y-19926522D01*
X39718454Y-19955969D01*
X39714894Y-19962900D01*
X39710294Y-19969190D01*
X39709977Y-19968958D01*
X39703300Y-19978728D01*
X39691603Y-19991938D01*
X39680337Y-20017819D01*
X39679280Y-20020248D01*
X39673289Y-20031851D01*
X39661370Y-20051619D01*
X39661368Y-20051624D01*
X39657347Y-20058293D01*
X39655583Y-20065881D01*
X39653236Y-20075974D01*
X39647585Y-20093059D01*
X39643752Y-20101866D01*
X39632548Y-20121256D01*
X39615734Y-20143965D01*
X39613087Y-20147230D01*
X39611624Y-20148501D01*
X39610377Y-20150574D01*
X39610301Y-20150668D01*
X39582347Y-20182232D01*
X39579238Y-20189373D01*
X39577853Y-20191544D01*
X39570217Y-20204758D01*
X39569021Y-20207054D01*
X39564385Y-20213315D01*
X39561910Y-20220704D01*
X39561909Y-20220706D01*
X39557444Y-20234036D01*
X39551134Y-20247712D01*
X39549438Y-20251906D01*
X39545425Y-20258579D01*
X39543671Y-20266165D01*
X39543670Y-20266166D01*
X39538019Y-20290601D01*
X39535439Y-20299735D01*
X39526063Y-20327727D01*
X39526062Y-20327734D01*
X39523590Y-20335114D01*
X39523520Y-20342902D01*
X39523414Y-20354563D01*
X39523174Y-20360614D01*
X39521992Y-20377418D01*
X39521776Y-20380007D01*
X39520704Y-20391087D01*
X39518667Y-20412135D01*
X39518610Y-20412430D01*
X39518596Y-20412864D01*
X39518385Y-20415048D01*
X39518384Y-20415049D01*
X39516974Y-20429619D01*
X39516223Y-20437377D01*
X39517166Y-20441642D01*
X39517143Y-20446375D01*
X39516128Y-20460813D01*
X39516466Y-20464693D01*
X39516498Y-20468575D01*
X39516448Y-20468575D01*
X39516608Y-20474405D01*
X39516144Y-20488776D01*
X39515942Y-20491979D01*
X39515468Y-20494699D01*
X39515379Y-20500523D01*
X39515046Y-20522324D01*
X39515006Y-20523997D01*
X39514114Y-20551618D01*
X39514459Y-20554362D01*
X39514508Y-20557559D01*
X39514173Y-20579446D01*
X39513944Y-20594402D01*
X39513844Y-20596460D01*
X39513530Y-20598403D01*
X39513517Y-20602296D01*
X39513517Y-20602297D01*
X39513434Y-20627347D01*
X39513423Y-20628526D01*
X39512982Y-20657381D01*
X39513260Y-20659326D01*
X39513321Y-20661377D01*
X39513145Y-20714157D01*
X39513112Y-20714991D01*
X39512974Y-20715875D01*
X39512979Y-20718329D01*
X39512980Y-20718967D01*
X39513037Y-20746725D01*
X39512935Y-20777528D01*
X39513072Y-20778413D01*
X39513104Y-20779227D01*
X39513726Y-21082495D01*
X39513666Y-21086133D01*
X39512030Y-21133241D01*
X39512030Y-21133245D01*
X39511760Y-21141033D01*
X39513910Y-21148525D01*
X39521093Y-21173555D01*
X39523683Y-21185176D01*
X39529045Y-21218586D01*
X39532595Y-21225518D01*
X39535964Y-21232097D01*
X39543005Y-21249914D01*
X39547191Y-21264500D01*
X39564255Y-21289788D01*
X39566115Y-21292544D01*
X39572168Y-21302794D01*
X39584041Y-21325979D01*
X39584044Y-21325983D01*
X39587595Y-21332917D01*
X39593115Y-21338415D01*
X39593117Y-21338417D01*
X39598353Y-21343631D01*
X39610556Y-21358401D01*
X39619041Y-21370975D01*
X39645715Y-21391806D01*
X39654620Y-21399666D01*
X39678609Y-21423558D01*
X39685559Y-21427081D01*
X39727641Y-21448414D01*
X39730857Y-21450119D01*
X40265106Y-21746118D01*
X40306843Y-21790858D01*
X40316127Y-21832681D01*
X40316238Y-22154122D01*
X40316335Y-22435444D01*
X40316659Y-23374970D01*
X40316661Y-23381895D01*
X40316431Y-23388660D01*
X40313236Y-23435498D01*
X40323433Y-23476106D01*
X40325186Y-23484675D01*
X40331750Y-23526026D01*
X40335289Y-23532966D01*
X40335844Y-23534671D01*
X40341927Y-23550891D01*
X40342624Y-23552525D01*
X40344521Y-23560080D01*
X40348659Y-23566677D01*
X40348660Y-23566680D01*
X40366767Y-23595549D01*
X40371093Y-23603175D01*
X40390104Y-23640456D01*
X40395616Y-23645964D01*
X40396660Y-23647400D01*
X40407462Y-23660953D01*
X40408635Y-23662297D01*
X40412774Y-23668897D01*
X40418750Y-23673894D01*
X40418754Y-23673899D01*
X40444887Y-23695751D01*
X40451350Y-23701661D01*
X40480963Y-23731253D01*
X40487908Y-23734789D01*
X40487910Y-23734790D01*
X40522799Y-23752551D01*
X40528730Y-23755830D01*
X40756626Y-23892240D01*
X40757007Y-23892488D01*
X40757391Y-23892807D01*
X40758614Y-23893534D01*
X40758620Y-23893538D01*
X40784375Y-23908849D01*
X40784628Y-23909001D01*
X40802782Y-23919867D01*
X40803296Y-23920198D01*
X40804394Y-23921093D01*
X40829864Y-23935897D01*
X40830607Y-23936334D01*
X40852628Y-23949426D01*
X40852640Y-23949432D01*
X40855974Y-23951414D01*
X40857482Y-23952015D01*
X40858933Y-23952793D01*
X40897694Y-23975322D01*
X40900221Y-23976898D01*
X40902276Y-23978518D01*
X40926538Y-23992102D01*
X40927896Y-23992877D01*
X40948681Y-24004958D01*
X40948687Y-24004961D01*
X40952049Y-24006915D01*
X40954491Y-24007861D01*
X40957152Y-24009244D01*
X40980358Y-24022236D01*
X40984781Y-24024865D01*
X40985864Y-24025548D01*
X40988981Y-24027873D01*
X40992422Y-24029681D01*
X40992430Y-24029686D01*
X41011306Y-24039604D01*
X41013611Y-24040854D01*
X41035592Y-24053161D01*
X41039249Y-24054510D01*
X41040397Y-24055039D01*
X41045008Y-24057312D01*
X41057509Y-24063881D01*
X41063434Y-24067260D01*
X41067016Y-24069469D01*
X41075767Y-24074868D01*
X41084706Y-24078602D01*
X41092590Y-24082312D01*
X41095271Y-24083721D01*
X41100041Y-24086227D01*
X41108260Y-24091065D01*
X41119564Y-24098475D01*
X41127086Y-24100525D01*
X41154668Y-24108042D01*
X41155450Y-24108279D01*
X41161597Y-24111476D01*
X41169282Y-24112759D01*
X41169483Y-24112826D01*
X41175666Y-24114092D01*
X41185599Y-24116508D01*
X41188169Y-24117171D01*
X41243495Y-24132250D01*
X41249183Y-24131976D01*
X41254711Y-24133321D01*
X41262481Y-24132733D01*
X41262482Y-24132733D01*
X41276656Y-24131660D01*
X41281513Y-24131497D01*
X41288292Y-24132629D01*
X41296001Y-24131474D01*
X41296005Y-24131474D01*
X41308285Y-24129634D01*
X41318193Y-24128655D01*
X41336784Y-24127760D01*
X41371796Y-24126075D01*
X41377120Y-24124057D01*
X41382795Y-24123628D01*
X41387840Y-24121556D01*
X41432488Y-24121737D01*
X41433483Y-24121980D01*
X41440670Y-24124991D01*
X41448436Y-24125633D01*
X41452544Y-24126637D01*
X41456708Y-24127401D01*
X41464058Y-24129988D01*
X41509913Y-24131102D01*
X41513574Y-24131191D01*
X41519332Y-24131499D01*
X41560917Y-24134940D01*
X41560920Y-24134940D01*
X41568682Y-24135582D01*
X41576266Y-24133793D01*
X41580513Y-24133476D01*
X41584684Y-24132919D01*
X41592469Y-24133108D01*
X41608973Y-24128185D01*
X41610639Y-24127798D01*
X41614349Y-24127760D01*
X41621727Y-24125279D01*
X41621730Y-24125279D01*
X41639378Y-24119346D01*
X41648197Y-24116829D01*
X41662251Y-24113515D01*
X41665852Y-24112040D01*
X41665859Y-24112038D01*
X41668696Y-24110876D01*
X41677923Y-24107619D01*
X41708091Y-24098621D01*
X41708092Y-24098620D01*
X41715560Y-24096393D01*
X41721974Y-24091967D01*
X41728999Y-24088600D01*
X41730499Y-24091729D01*
X41774698Y-24078522D01*
X41832422Y-24098809D01*
X41867197Y-24149151D01*
X41864389Y-24213937D01*
X41852509Y-24243942D01*
X41852507Y-24243950D01*
X41850167Y-24249860D01*
X41839500Y-24338005D01*
X41839500Y-24414171D01*
X41820593Y-24472362D01*
X41810504Y-24484175D01*
X40292381Y-26002298D01*
X40237864Y-26030075D01*
X40177432Y-26020504D01*
X40134167Y-25977239D01*
X40124596Y-25947780D01*
X40123830Y-25942945D01*
X40110646Y-25859696D01*
X40064755Y-25769630D01*
X40056586Y-25753597D01*
X40056585Y-25753595D01*
X40053050Y-25746658D01*
X39963342Y-25656950D01*
X39956405Y-25653415D01*
X39956403Y-25653414D01*
X39857244Y-25602890D01*
X39857243Y-25602890D01*
X39850304Y-25599354D01*
X39842610Y-25598135D01*
X39842609Y-25598135D01*
X39831357Y-25596353D01*
X39776840Y-25568575D01*
X39749063Y-25514059D01*
X39754126Y-25469287D01*
X39752830Y-25468940D01*
X39754377Y-25463167D01*
X39756601Y-25457634D01*
X39771634Y-25352005D01*
X39780034Y-25292985D01*
X39780034Y-25292979D01*
X39780490Y-25289778D01*
X39780645Y-25275000D01*
X39760276Y-25106680D01*
X39700345Y-24948077D01*
X39604312Y-24808349D01*
X39477721Y-24695560D01*
X39327881Y-24616224D01*
X39245661Y-24595571D01*
X39169231Y-24576373D01*
X39169228Y-24576373D01*
X39163441Y-24574919D01*
X39077841Y-24574471D01*
X38999861Y-24574062D01*
X38999859Y-24574062D01*
X38993895Y-24574031D01*
X38988099Y-24575423D01*
X38988095Y-24575423D01*
X38887445Y-24599588D01*
X38829032Y-24613612D01*
X38821394Y-24617554D01*
X38819778Y-24617819D01*
X38818138Y-24618429D01*
X38818018Y-24618107D01*
X38761016Y-24627446D01*
X38705980Y-24599588D01*
X38663342Y-24556950D01*
X38656405Y-24553415D01*
X38656403Y-24553414D01*
X38557244Y-24502890D01*
X38557243Y-24502890D01*
X38550304Y-24499354D01*
X38542610Y-24498135D01*
X38542609Y-24498135D01*
X38460365Y-24485109D01*
X38460363Y-24485109D01*
X38456519Y-24484500D01*
X38358825Y-24484500D01*
X37623980Y-24484501D01*
X37565789Y-24465594D01*
X37529825Y-24416094D01*
X37525968Y-24371552D01*
X37530034Y-24342985D01*
X37530034Y-24342979D01*
X37530490Y-24339778D01*
X37530645Y-24325000D01*
X37510276Y-24156680D01*
X37450345Y-23998077D01*
X37446772Y-23992877D01*
X37360769Y-23867744D01*
X37354312Y-23858349D01*
X37227721Y-23745560D01*
X37077881Y-23666224D01*
X36972565Y-23639770D01*
X36919231Y-23626373D01*
X36919228Y-23626373D01*
X36913441Y-23624919D01*
X36827841Y-23624471D01*
X36749861Y-23624062D01*
X36749859Y-23624062D01*
X36743895Y-23624031D01*
X36738099Y-23625423D01*
X36738095Y-23625423D01*
X36660649Y-23644017D01*
X36579032Y-23663612D01*
X36517640Y-23695299D01*
X36433675Y-23738636D01*
X36433673Y-23738638D01*
X36428369Y-23741375D01*
X36300604Y-23852831D01*
X36298057Y-23856455D01*
X36245587Y-23886749D01*
X36184737Y-23880354D01*
X36154496Y-23858142D01*
X36154312Y-23858349D01*
X36152125Y-23856400D01*
X36152122Y-23856398D01*
X36149859Y-23854381D01*
X36109957Y-23818830D01*
X36027721Y-23745560D01*
X35877881Y-23666224D01*
X35772565Y-23639770D01*
X35719231Y-23626373D01*
X35719228Y-23626373D01*
X35713441Y-23624919D01*
X35627841Y-23624471D01*
X35549861Y-23624062D01*
X35549859Y-23624062D01*
X35543895Y-23624031D01*
X35538099Y-23625423D01*
X35538095Y-23625423D01*
X35460649Y-23644017D01*
X35379032Y-23663612D01*
X35317640Y-23695299D01*
X35233675Y-23738636D01*
X35233673Y-23738638D01*
X35228369Y-23741375D01*
X35223871Y-23745299D01*
X35101960Y-23851648D01*
X35045680Y-23875653D01*
X34986039Y-23861993D01*
X34971022Y-23850962D01*
X34857175Y-23749528D01*
X34857173Y-23749527D01*
X34852721Y-23745560D01*
X34702881Y-23666224D01*
X34597565Y-23639770D01*
X34544231Y-23626373D01*
X34544228Y-23626373D01*
X34538441Y-23624919D01*
X34452841Y-23624471D01*
X34374861Y-23624062D01*
X34374859Y-23624062D01*
X34368895Y-23624031D01*
X34363099Y-23625423D01*
X34363095Y-23625423D01*
X34285649Y-23644017D01*
X34204032Y-23663612D01*
X34142640Y-23695299D01*
X34058675Y-23738636D01*
X34058673Y-23738638D01*
X34053369Y-23741375D01*
X33925604Y-23852831D01*
X33922176Y-23857709D01*
X33922173Y-23857712D01*
X33918991Y-23862240D01*
X33870064Y-23898979D01*
X33808886Y-23899943D01*
X33763190Y-23866377D01*
X33761639Y-23867744D01*
X33757692Y-23863266D01*
X33754312Y-23858349D01*
X33749859Y-23854382D01*
X33749856Y-23854378D01*
X33645170Y-23761107D01*
X33627721Y-23745560D01*
X33477881Y-23666224D01*
X33372565Y-23639770D01*
X33319231Y-23626373D01*
X33319228Y-23626373D01*
X33313441Y-23624919D01*
X33288710Y-23624789D01*
X33273011Y-23624707D01*
X33214920Y-23605494D01*
X33203526Y-23595712D01*
X30601395Y-20993581D01*
X30593419Y-20983598D01*
X30593401Y-20983613D01*
X30588835Y-20978248D01*
X30585070Y-20972280D01*
X30581389Y-20969029D01*
X30558450Y-20913367D01*
X30558159Y-20905777D01*
X30558159Y-20465661D01*
X30557791Y-20465661D01*
X30555959Y-20450180D01*
X30556711Y-20440633D01*
X30556711Y-20440631D01*
X30557322Y-20432869D01*
X30527712Y-20309507D01*
X30526127Y-20305680D01*
X30520803Y-20295231D01*
X30499881Y-20254169D01*
X30499879Y-20254166D01*
X30497229Y-20248965D01*
X30438549Y-20180261D01*
X30419894Y-20158419D01*
X30419893Y-20158418D01*
X30414835Y-20152496D01*
X30408193Y-20148426D01*
X30408192Y-20148425D01*
X30309979Y-20088243D01*
X30306663Y-20086211D01*
X30303831Y-20085038D01*
X30303791Y-20085021D01*
X30302796Y-20084609D01*
X30242375Y-20064977D01*
X30236562Y-20064519D01*
X30236558Y-20064518D01*
X30170285Y-20059294D01*
X30162025Y-20056247D01*
X30161779Y-20057800D01*
X30146672Y-20055408D01*
X30146672Y-20054174D01*
X29764233Y-20054174D01*
X29706042Y-20035267D01*
X29670078Y-19985767D01*
X29665351Y-19960005D01*
X29664886Y-19950476D01*
X29661724Y-19885771D01*
X29661724Y-19885770D01*
X29661738Y-19885769D01*
X29661677Y-19884866D01*
X29661679Y-19884866D01*
X29661640Y-19884064D01*
X29659239Y-19856533D01*
X29659529Y-19856508D01*
X29659481Y-19856086D01*
X29659254Y-19856114D01*
X29659154Y-19855298D01*
X29659154Y-19855297D01*
X29659132Y-19855300D01*
X29658935Y-19853045D01*
X29658968Y-19853042D01*
X29658892Y-19852709D01*
X29658839Y-19852715D01*
X29649747Y-19778283D01*
X29649754Y-19778282D01*
X29649648Y-19777534D01*
X29649655Y-19777533D01*
X29649580Y-19776916D01*
X29647893Y-19766514D01*
X29645186Y-19749831D01*
X29644404Y-19745011D01*
X29642694Y-19740437D01*
X29641444Y-19735726D01*
X29641981Y-19735584D01*
X29639884Y-19726825D01*
X29639357Y-19726927D01*
X29638621Y-19723111D01*
X29638185Y-19719240D01*
X29638017Y-19718631D01*
X29637769Y-19718699D01*
X29637618Y-19717917D01*
X29637806Y-19717865D01*
X29624096Y-19668078D01*
X29624114Y-19668073D01*
X29623753Y-19666858D01*
X29623760Y-19666856D01*
X29623612Y-19666320D01*
X29622643Y-19663282D01*
X29617322Y-19646612D01*
X29613871Y-19635797D01*
X29609932Y-19628680D01*
X29601585Y-19608714D01*
X29599398Y-19601289D01*
X29599160Y-19600788D01*
X29598923Y-19600900D01*
X29598482Y-19599745D01*
X29598629Y-19599675D01*
X29597748Y-19597824D01*
X29597746Y-19597818D01*
X29588743Y-19578897D01*
X29588751Y-19578893D01*
X29588294Y-19577979D01*
X29588304Y-19577974D01*
X29588156Y-19577663D01*
X29584393Y-19570489D01*
X29583466Y-19565056D01*
X29582960Y-19564178D01*
X29582761Y-19563505D01*
X29583180Y-19563381D01*
X29574103Y-19510178D01*
X29601230Y-19455334D01*
X29655413Y-19426910D01*
X29672062Y-19425500D01*
X31109005Y-19425500D01*
X31167196Y-19444407D01*
G37*
%TD.AperFunction*%
%TA.AperFunction,Conductor*%
G36*
X29001393Y-22480206D02*
G01*
X29044718Y-22523410D01*
X29055482Y-22564272D01*
X29059753Y-22664711D01*
X29059842Y-22668917D01*
X29059842Y-22855505D01*
X29060207Y-22855505D01*
X29062038Y-22870984D01*
X29061431Y-22878692D01*
X29060676Y-22888265D01*
X29062495Y-22895846D01*
X29089367Y-23007839D01*
X29089369Y-23007846D01*
X29090277Y-23011629D01*
X29090689Y-23012624D01*
X29090706Y-23012664D01*
X29091879Y-23015496D01*
X29120777Y-23072211D01*
X29203174Y-23168677D01*
X29311348Y-23234960D01*
X29315175Y-23236545D01*
X29375626Y-23256189D01*
X29407346Y-23258689D01*
X29447716Y-23261872D01*
X29455976Y-23264919D01*
X29456222Y-23263366D01*
X29471329Y-23265758D01*
X29471329Y-23266992D01*
X30146672Y-23266992D01*
X30146672Y-23266624D01*
X30162153Y-23264792D01*
X30171700Y-23265544D01*
X30171702Y-23265544D01*
X30179464Y-23266155D01*
X30302826Y-23236545D01*
X30306653Y-23234960D01*
X30325174Y-23225523D01*
X30358164Y-23208714D01*
X30358167Y-23208712D01*
X30363368Y-23206062D01*
X30451980Y-23130379D01*
X30453914Y-23128727D01*
X30453915Y-23128726D01*
X30459837Y-23123668D01*
X30488809Y-23076389D01*
X30524090Y-23018812D01*
X30526122Y-23015496D01*
X30527295Y-23012664D01*
X30527312Y-23012624D01*
X30527724Y-23011629D01*
X30547356Y-22951208D01*
X30549890Y-22919069D01*
X30553039Y-22879118D01*
X30556086Y-22870858D01*
X30554533Y-22870612D01*
X30556925Y-22855505D01*
X30558159Y-22855505D01*
X30558159Y-22604981D01*
X30577066Y-22546790D01*
X30626566Y-22510826D01*
X30687752Y-22510826D01*
X30727163Y-22534977D01*
X31700863Y-23508677D01*
X31728640Y-23563194D01*
X31719069Y-23623626D01*
X31676265Y-23666654D01*
X31633675Y-23688636D01*
X31633673Y-23688638D01*
X31628369Y-23691375D01*
X31500604Y-23802831D01*
X31498057Y-23806455D01*
X31445587Y-23836749D01*
X31384737Y-23830354D01*
X31354496Y-23808142D01*
X31354312Y-23808349D01*
X31352125Y-23806400D01*
X31352122Y-23806398D01*
X31227721Y-23695560D01*
X31077881Y-23616224D01*
X30995571Y-23595549D01*
X30919231Y-23576373D01*
X30919228Y-23576373D01*
X30913441Y-23574919D01*
X30827841Y-23574471D01*
X30749861Y-23574062D01*
X30749859Y-23574062D01*
X30743895Y-23574031D01*
X30738099Y-23575423D01*
X30738095Y-23575423D01*
X30654268Y-23595549D01*
X30579032Y-23613612D01*
X30516359Y-23645960D01*
X30433675Y-23688636D01*
X30433673Y-23688638D01*
X30428369Y-23691375D01*
X30300604Y-23802831D01*
X30296872Y-23808142D01*
X30294974Y-23810842D01*
X30246044Y-23847578D01*
X30184867Y-23848538D01*
X30148120Y-23827832D01*
X30121803Y-23804384D01*
X30027721Y-23720560D01*
X29877881Y-23641224D01*
X29772565Y-23614770D01*
X29719231Y-23601373D01*
X29719228Y-23601373D01*
X29713441Y-23599919D01*
X29627841Y-23599471D01*
X29549861Y-23599062D01*
X29549859Y-23599062D01*
X29543895Y-23599031D01*
X29538099Y-23600423D01*
X29538095Y-23600423D01*
X29441452Y-23623626D01*
X29379032Y-23638612D01*
X29311287Y-23673578D01*
X29233675Y-23713636D01*
X29233673Y-23713638D01*
X29228369Y-23716375D01*
X29100604Y-23827831D01*
X29097173Y-23832713D01*
X29094974Y-23835842D01*
X29046044Y-23872578D01*
X28984867Y-23873538D01*
X28948120Y-23852832D01*
X28920061Y-23827832D01*
X28827721Y-23745560D01*
X28677881Y-23666224D01*
X28572565Y-23639770D01*
X28519231Y-23626373D01*
X28519228Y-23626373D01*
X28513441Y-23624919D01*
X28427841Y-23624471D01*
X28349861Y-23624062D01*
X28349859Y-23624062D01*
X28343895Y-23624031D01*
X28338099Y-23625423D01*
X28338095Y-23625423D01*
X28260649Y-23644017D01*
X28179032Y-23663612D01*
X28117640Y-23695299D01*
X28033675Y-23738636D01*
X28033673Y-23738638D01*
X28028369Y-23741375D01*
X27900604Y-23852831D01*
X27898057Y-23856455D01*
X27845587Y-23886749D01*
X27784737Y-23880354D01*
X27754496Y-23858142D01*
X27754312Y-23858349D01*
X27752125Y-23856400D01*
X27752122Y-23856398D01*
X27749859Y-23854381D01*
X27709957Y-23818830D01*
X27627721Y-23745560D01*
X27477881Y-23666224D01*
X27372565Y-23639770D01*
X27319231Y-23626373D01*
X27319228Y-23626373D01*
X27313441Y-23624919D01*
X27143895Y-23624031D01*
X27143904Y-23622259D01*
X27091783Y-23611755D01*
X27050363Y-23566721D01*
X27042422Y-23511125D01*
X27051785Y-23447325D01*
X27051803Y-23447328D01*
X27052150Y-23444585D01*
X27055072Y-23417204D01*
X27055623Y-23409561D01*
X27058450Y-23359864D01*
X27080631Y-23302840D01*
X27132094Y-23269746D01*
X27157290Y-23266486D01*
X27540087Y-23266486D01*
X27558645Y-23264290D01*
X27568159Y-23265039D01*
X27583497Y-23263833D01*
X27616565Y-23255896D01*
X27657745Y-23255090D01*
X27661126Y-23256189D01*
X27697756Y-23259076D01*
X27733216Y-23261872D01*
X27741476Y-23264919D01*
X27741722Y-23263366D01*
X27756829Y-23265758D01*
X27756829Y-23266992D01*
X28425959Y-23266992D01*
X28425959Y-23267898D01*
X28426158Y-23267860D01*
X28426141Y-23267011D01*
X28427950Y-23266976D01*
X28427950Y-23266992D01*
X28428082Y-23266992D01*
X28429047Y-23266954D01*
X28429057Y-23266954D01*
X28430958Y-23266879D01*
X28434183Y-23266753D01*
X28437950Y-23267244D01*
X28442279Y-23266436D01*
X28444961Y-23266331D01*
X28447471Y-23266233D01*
X28459811Y-23265749D01*
X28505986Y-23254674D01*
X28510908Y-23253624D01*
X28558839Y-23244677D01*
X28558845Y-23244675D01*
X28562661Y-23243963D01*
X28563800Y-23243558D01*
X28563729Y-23243359D01*
X28564747Y-23243085D01*
X28564790Y-23243207D01*
X28566620Y-23242556D01*
X28572684Y-23239841D01*
X28580710Y-23236751D01*
X28583178Y-23236159D01*
X28583980Y-23235827D01*
X28583889Y-23235607D01*
X28586125Y-23234881D01*
X28586514Y-23234701D01*
X28586541Y-23234765D01*
X28586678Y-23234708D01*
X28588393Y-23233832D01*
X28588400Y-23233829D01*
X28602415Y-23226672D01*
X28606956Y-23224497D01*
X28625154Y-23216350D01*
X28629396Y-23213077D01*
X28633646Y-23210724D01*
X28642856Y-23206021D01*
X28647281Y-23202240D01*
X28647284Y-23202238D01*
X28681171Y-23173283D01*
X28685004Y-23170170D01*
X28719428Y-23143609D01*
X28719431Y-23143606D01*
X28725596Y-23138849D01*
X28729991Y-23132417D01*
X28730484Y-23131895D01*
X28731572Y-23130859D01*
X28731994Y-23130390D01*
X28732660Y-23129519D01*
X28733387Y-23128668D01*
X28739308Y-23123608D01*
X28743376Y-23116966D01*
X28743378Y-23116964D01*
X28766537Y-23079154D01*
X28769220Y-23075010D01*
X28794978Y-23037314D01*
X28794979Y-23037312D01*
X28797172Y-23034103D01*
X28797235Y-23033970D01*
X28796969Y-23033844D01*
X28797627Y-23032698D01*
X28797801Y-23032781D01*
X28798176Y-23031993D01*
X28804325Y-23017669D01*
X28804742Y-23016778D01*
X28805572Y-23015423D01*
X28806313Y-23013633D01*
X28806232Y-23013600D01*
X28806654Y-23012699D01*
X28806694Y-23012716D01*
X28807156Y-23011600D01*
X28807508Y-23010514D01*
X28808547Y-23007910D01*
X28808644Y-23007605D01*
X28810557Y-23003149D01*
X28811566Y-22998404D01*
X28812953Y-22994038D01*
X28813403Y-22992359D01*
X28825005Y-22956628D01*
X28825005Y-22956627D01*
X28826808Y-22951075D01*
X28827265Y-22945252D01*
X28827266Y-22945247D01*
X28829321Y-22919069D01*
X28831185Y-22906210D01*
X28836153Y-22882863D01*
X28836962Y-22879061D01*
X28836969Y-22878928D01*
X28836674Y-22878912D01*
X28837019Y-22876293D01*
X28837103Y-22876297D01*
X28848064Y-22661535D01*
X28848193Y-22659439D01*
X28853147Y-22591151D01*
X28854085Y-22582963D01*
X28858768Y-22553127D01*
X28886470Y-22498572D01*
X28940948Y-22470719D01*
X29001393Y-22480206D01*
G37*
%TD.AperFunction*%
%TA.AperFunction,Conductor*%
G36*
X28306672Y-19444407D02*
G01*
X28342636Y-19493907D01*
X28342636Y-19549526D01*
X28342803Y-19549562D01*
X28342715Y-19549971D01*
X28342636Y-19550136D01*
X28342636Y-19555093D01*
X28334078Y-19574240D01*
X28331617Y-19578476D01*
X28331613Y-19578483D01*
X28331601Y-19578476D01*
X28331034Y-19579498D01*
X28331025Y-19579493D01*
X28330805Y-19579872D01*
X28330354Y-19580725D01*
X28319735Y-19600788D01*
X28315956Y-19607927D01*
X28314564Y-19612581D01*
X28314562Y-19612587D01*
X28310097Y-19627519D01*
X28303898Y-19643224D01*
X28297427Y-19656241D01*
X28294979Y-19661166D01*
X28294849Y-19661580D01*
X28295109Y-19661662D01*
X28294681Y-19662724D01*
X28294507Y-19662669D01*
X28274695Y-19725845D01*
X28274684Y-19725841D01*
X28274396Y-19726828D01*
X28274388Y-19726826D01*
X28274209Y-19727397D01*
X28265889Y-19758111D01*
X28265557Y-19762967D01*
X28264752Y-19767760D01*
X28264574Y-19767730D01*
X28262077Y-19781027D01*
X28262243Y-19781065D01*
X28261375Y-19784866D01*
X28260217Y-19788571D01*
X28260130Y-19789163D01*
X28260386Y-19789201D01*
X28260147Y-19790243D01*
X28259975Y-19790218D01*
X28259654Y-19792403D01*
X28259653Y-19792409D01*
X28248740Y-19866774D01*
X28247714Y-19873765D01*
X28247697Y-19873763D01*
X28247565Y-19874807D01*
X28247561Y-19874806D01*
X28247449Y-19875570D01*
X28247345Y-19876542D01*
X28247345Y-19876544D01*
X28247068Y-19879136D01*
X28244072Y-19907212D01*
X28244136Y-19907914D01*
X28244017Y-19909558D01*
X28243976Y-19909747D01*
X28243932Y-19910518D01*
X28243948Y-19910519D01*
X28243868Y-19911628D01*
X28243198Y-19923411D01*
X28241261Y-19957480D01*
X28241072Y-19960795D01*
X28218891Y-20017819D01*
X28167429Y-20050914D01*
X28142232Y-20054174D01*
X27756829Y-20054174D01*
X27756829Y-20054539D01*
X27741350Y-20056370D01*
X27731839Y-20055620D01*
X27731836Y-20055620D01*
X27724069Y-20055008D01*
X27681089Y-20065321D01*
X27638671Y-20066151D01*
X27632938Y-20065010D01*
X27566780Y-20059796D01*
X27558525Y-20056750D01*
X27558279Y-20058306D01*
X27535383Y-20054680D01*
X26874041Y-20054680D01*
X26874041Y-20053776D01*
X26873838Y-20053815D01*
X26873855Y-20054661D01*
X26870957Y-20054718D01*
X26868688Y-20054807D01*
X26864699Y-20055575D01*
X26856611Y-20055798D01*
X26855060Y-20055341D01*
X26845087Y-20055732D01*
X26835503Y-20057055D01*
X26794117Y-20066982D01*
X26789195Y-20068031D01*
X26741323Y-20076968D01*
X26734380Y-20078838D01*
X26731769Y-20079885D01*
X26727496Y-20081798D01*
X26717619Y-20085600D01*
X26714063Y-20086755D01*
X26711797Y-20087802D01*
X26697713Y-20094991D01*
X26693157Y-20097172D01*
X26680428Y-20102870D01*
X26672547Y-20107584D01*
X26666738Y-20110799D01*
X26662744Y-20112837D01*
X26653135Y-20119262D01*
X26619196Y-20148235D01*
X26615394Y-20151322D01*
X26580939Y-20177907D01*
X26570080Y-20189411D01*
X26568966Y-20190471D01*
X26568352Y-20191154D01*
X26567660Y-20192058D01*
X26557152Y-20204356D01*
X26550000Y-20229704D01*
X26550000Y-22051000D01*
X26531093Y-22109191D01*
X26481593Y-22145155D01*
X26451000Y-22150000D01*
X24758028Y-22150000D01*
X24745343Y-22154122D01*
X24742348Y-22158243D01*
X24742348Y-22852442D01*
X24744541Y-22870976D01*
X24743793Y-22880460D01*
X24744999Y-22895800D01*
X24771838Y-23007655D01*
X24774064Y-23014509D01*
X24775225Y-23017026D01*
X24800557Y-23066742D01*
X24807003Y-23076389D01*
X24880444Y-23162369D01*
X24892144Y-23172361D01*
X24990228Y-23232461D01*
X24996636Y-23235726D01*
X24999208Y-23236675D01*
X25052192Y-23253893D01*
X25063563Y-23256156D01*
X25129721Y-23261370D01*
X25137976Y-23264416D01*
X25138222Y-23262860D01*
X25161118Y-23266486D01*
X25536114Y-23266486D01*
X25594305Y-23285393D01*
X25630269Y-23334893D01*
X25634935Y-23359528D01*
X25635494Y-23368799D01*
X25635673Y-23374962D01*
X25635673Y-23374970D01*
X25643520Y-23477695D01*
X25643509Y-23477696D01*
X25643751Y-23480221D01*
X25646710Y-23505849D01*
X25648139Y-23512455D01*
X25649753Y-23522297D01*
X25650366Y-23527737D01*
X25664859Y-23602948D01*
X25664848Y-23602950D01*
X25665372Y-23605404D01*
X25672391Y-23635414D01*
X25669943Y-23635986D01*
X25670549Y-23687592D01*
X25632079Y-23739460D01*
X25628369Y-23741375D01*
X25623872Y-23745298D01*
X25623869Y-23745300D01*
X25526370Y-23830354D01*
X25500604Y-23852831D01*
X25498057Y-23856455D01*
X25445587Y-23886749D01*
X25384737Y-23880354D01*
X25354496Y-23858142D01*
X25354312Y-23858349D01*
X25352125Y-23856400D01*
X25352122Y-23856398D01*
X25349859Y-23854381D01*
X25309957Y-23818830D01*
X25227721Y-23745560D01*
X25077881Y-23666224D01*
X24972565Y-23639770D01*
X24919231Y-23626373D01*
X24919228Y-23626373D01*
X24913441Y-23624919D01*
X24827841Y-23624471D01*
X24749861Y-23624062D01*
X24749859Y-23624062D01*
X24743895Y-23624031D01*
X24738099Y-23625423D01*
X24738095Y-23625423D01*
X24660649Y-23644017D01*
X24579032Y-23663612D01*
X24517640Y-23695299D01*
X24433675Y-23738636D01*
X24433673Y-23738638D01*
X24428369Y-23741375D01*
X24423874Y-23745296D01*
X24423870Y-23745299D01*
X24339580Y-23818830D01*
X24283300Y-23842835D01*
X24223659Y-23829175D01*
X24183438Y-23783068D01*
X24175500Y-23744227D01*
X24175500Y-21734320D01*
X24742348Y-21734320D01*
X24746470Y-21747005D01*
X24750591Y-21750000D01*
X26134320Y-21750000D01*
X26147005Y-21745878D01*
X26150000Y-21741757D01*
X26150000Y-20231192D01*
X26141777Y-20205885D01*
X26101565Y-20158804D01*
X26089863Y-20148810D01*
X25991785Y-20088710D01*
X25985372Y-20085442D01*
X25982740Y-20084472D01*
X25929808Y-20067273D01*
X25918440Y-20065011D01*
X25852280Y-20059796D01*
X25844025Y-20056750D01*
X25843779Y-20058306D01*
X25820883Y-20054680D01*
X25156392Y-20054680D01*
X25137858Y-20056873D01*
X25128374Y-20056125D01*
X25113034Y-20057331D01*
X25001179Y-20084170D01*
X24994325Y-20086396D01*
X24991808Y-20087557D01*
X24942092Y-20112889D01*
X24932445Y-20119335D01*
X24846465Y-20192776D01*
X24836473Y-20204476D01*
X24776373Y-20302560D01*
X24773108Y-20308968D01*
X24772159Y-20311540D01*
X24754941Y-20364524D01*
X24752678Y-20375895D01*
X24747464Y-20442053D01*
X24744418Y-20450308D01*
X24745974Y-20450554D01*
X24742348Y-20473450D01*
X24742348Y-21734320D01*
X24175500Y-21734320D01*
X24175500Y-19524500D01*
X24194407Y-19466309D01*
X24243907Y-19430345D01*
X24274500Y-19425500D01*
X28248481Y-19425500D01*
X28306672Y-19444407D01*
G37*
%TD.AperFunction*%
%TA.AperFunction,Conductor*%
G36*
X43482159Y-19444407D02*
G01*
X43518123Y-19493907D01*
X43518123Y-19555093D01*
X43482159Y-19604593D01*
X43471632Y-19611270D01*
X43445239Y-19625767D01*
X43444396Y-19626190D01*
X43443432Y-19626544D01*
X43441014Y-19627891D01*
X43441001Y-19627898D01*
X43416790Y-19641390D01*
X43416329Y-19641645D01*
X43389756Y-19656241D01*
X43388950Y-19656865D01*
X43388137Y-19657358D01*
X43319193Y-19695778D01*
X43318609Y-19696076D01*
X43317922Y-19696331D01*
X43316137Y-19697336D01*
X43291038Y-19711467D01*
X43290661Y-19711678D01*
X43265565Y-19725663D01*
X43265558Y-19725667D01*
X43263782Y-19726657D01*
X43263202Y-19727112D01*
X43262659Y-19727444D01*
X43175116Y-19776733D01*
X43174658Y-19776969D01*
X43174094Y-19777181D01*
X43147122Y-19792495D01*
X43146963Y-19792584D01*
X43121283Y-19807042D01*
X43121271Y-19807049D01*
X43119794Y-19807881D01*
X43119321Y-19808256D01*
X43118867Y-19808536D01*
X43037128Y-19854944D01*
X43016610Y-19866593D01*
X43016181Y-19866816D01*
X43015667Y-19867011D01*
X42988384Y-19882619D01*
X42961356Y-19897964D01*
X42960932Y-19898303D01*
X42960530Y-19898553D01*
X42847483Y-19963224D01*
X42847276Y-19963332D01*
X42847031Y-19963425D01*
X42846373Y-19963803D01*
X42846363Y-19963808D01*
X42837394Y-19968958D01*
X42819718Y-19979107D01*
X42819568Y-19979193D01*
X42794538Y-19993512D01*
X42792204Y-19994847D01*
X42791996Y-19995014D01*
X42791812Y-19995129D01*
X42274422Y-20292196D01*
X42214543Y-20304774D01*
X42175816Y-20292187D01*
X41658808Y-19995212D01*
X41658719Y-19995156D01*
X41658618Y-19995075D01*
X41658221Y-19994847D01*
X41630919Y-19979193D01*
X41630853Y-19979155D01*
X41627338Y-19977136D01*
X41603526Y-19963458D01*
X41603405Y-19963411D01*
X41603316Y-19963365D01*
X41551005Y-19933371D01*
X41550759Y-19933217D01*
X41550495Y-19933006D01*
X41523157Y-19917404D01*
X41495797Y-19901716D01*
X41495484Y-19901597D01*
X41495227Y-19901463D01*
X41389090Y-19840889D01*
X41388765Y-19840687D01*
X41388423Y-19840414D01*
X41387331Y-19839794D01*
X41387322Y-19839789D01*
X41361436Y-19825106D01*
X41361210Y-19824978D01*
X41334974Y-19810005D01*
X41333872Y-19809376D01*
X41333456Y-19809219D01*
X41333111Y-19809040D01*
X41326292Y-19805172D01*
X41240505Y-19756512D01*
X41240122Y-19756275D01*
X41239708Y-19755947D01*
X41212252Y-19740486D01*
X41212231Y-19740474D01*
X41186515Y-19725887D01*
X41186506Y-19725882D01*
X41185236Y-19725162D01*
X41184749Y-19724980D01*
X41184349Y-19724774D01*
X41109086Y-19682391D01*
X41108569Y-19682074D01*
X41108025Y-19681647D01*
X41080869Y-19666502D01*
X41075151Y-19663282D01*
X41055479Y-19652204D01*
X41055470Y-19652200D01*
X41053800Y-19651259D01*
X41053155Y-19651020D01*
X41052610Y-19650742D01*
X40998485Y-19620557D01*
X40997613Y-19620028D01*
X40996753Y-19619362D01*
X40982029Y-19611276D01*
X40940125Y-19566692D01*
X40932429Y-19505993D01*
X40961882Y-19452362D01*
X41017232Y-19426286D01*
X41029684Y-19425500D01*
X43423968Y-19425500D01*
X43482159Y-19444407D01*
G37*
%TD.AperFunction*%
%TD*%
M02*
