M48
; DRILL file {KiCad 6.0.11-3.fc37} date Wed 29 Mar 2023 00:48:19 BST
; FORMAT={-:-/ absolute / metric / decimal}
; #@! TF.CreationDate,2023-03-29T00:48:19+01:00
; #@! TF.GenerationSoftware,Kicad,Pcbnew,6.0.11-3.fc37
; #@! TF.FileFunction,Plated,1,2,PTH
FMAT,2
METRIC
; #@! TA.AperFunction,Plated,PTH,ComponentDrill
T1C0.200
; #@! TA.AperFunction,Plated,PTH,ViaDrill
T2C0.300
; #@! TA.AperFunction,Plated,PTH,ComponentDrill
T3C0.500
; #@! TA.AperFunction,Plated,PTH,ComponentDrill
T4C3.200
%
G90
G05
T1
X41.525Y-38.435
X41.525Y-39.615
X42.705Y-38.435
X42.705Y-39.615
T2
X24.295Y-40.065
X24.525Y-27.655
X24.825Y-24.325
X24.951Y-39.299
X25.233Y-40.146
X25.453Y-40.931
X25.553Y-35.162
X25.659Y-41.703
X25.952Y-34.461
X26.025Y-24.325
X26.352Y-33.76
X26.751Y-32.961
X26.926Y-42.871
X27.151Y-32.217
X27.225Y-24.325
X27.55Y-31.475
X27.75Y-43.271
X28.425Y-24.325
X29.625Y-24.3
X29.947Y-28.678
X30.3Y-23.125
X30.825Y-24.275
X30.834Y-27.832
X32.025Y-24.275
X32.29Y-27.765
X33.225Y-24.325
X34.45Y-24.325
X35.625Y-24.325
X35.927Y-29.463
X36.025Y-34.85
X36.563Y-28.827
X36.625Y-39.975
X36.775Y-29.605
X36.825Y-24.325
X36.875Y-28.062
X37.65Y-35.35
X37.675Y-30.985
X38.075Y-42.454
X38.25Y-26.875
X39.075Y-25.275
X39.5Y-43.7
X40.2Y-23.975
X40.375Y-28.075
X40.425Y-34.675
X40.785Y-40.369
X40.857Y-41.18
X41.174Y-28.086
X42.035Y-35.045
X42.225Y-19.95
X42.645Y-31.475
X42.745Y-34.205
X43.131Y-41.183
X43.406Y-44.706
X43.95Y-27.6
X44.025Y-37.05
X44.455Y-38.565
X44.475Y-25.025
X44.745Y-29.455
X44.799Y-36.849
X44.865Y-35.195
T3
X32.375Y-19.025
X33.078Y-17.328
X33.078Y-20.722
X34.775Y-16.625
X34.775Y-21.425
X36.472Y-17.328
X36.472Y-20.722
X37.175Y-19.025
T4
X34.775Y-19.025
T0
M30
