%TF.GenerationSoftware,KiCad,Pcbnew,6.0.11-3.fc37*%
%TF.CreationDate,2023-03-28T23:52:52+01:00*%
%TF.ProjectId,STMF411,53544d46-3431-4312-9e6b-696361645f70,1*%
%TF.SameCoordinates,Original*%
%TF.FileFunction,Copper,L2,Bot*%
%TF.FilePolarity,Positive*%
%FSLAX46Y46*%
G04 Gerber Fmt 4.6, Leading zero omitted, Abs format (unit mm)*
G04 Created by KiCad (PCBNEW 6.0.11-3.fc37) date 2023-03-28 23:52:52*
%MOMM*%
%LPD*%
G01*
G04 APERTURE LIST*
%TA.AperFunction,SMDPad,CuDef*%
%ADD10R,0.350000X2.000000*%
%TD*%
%TA.AperFunction,ComponentPad*%
%ADD11C,0.800000*%
%TD*%
%TA.AperFunction,ComponentPad*%
%ADD12C,6.400000*%
%TD*%
%TA.AperFunction,ViaPad*%
%ADD13C,0.600000*%
%TD*%
%TA.AperFunction,ViaPad*%
%ADD14C,0.800000*%
%TD*%
%TA.AperFunction,Conductor*%
%ADD15C,0.200000*%
%TD*%
G04 APERTURE END LIST*
D10*
%TO.P,M1,2,RESET1*%
%TO.N,BOOT0*%
X37350000Y-47525000D03*
%TO.P,M1,4,RESET2*%
%TO.N,+3V3*%
X36850000Y-47525000D03*
%TO.P,M1,6,VIN*%
%TO.N,+5V*%
X36350000Y-47525000D03*
%TO.P,M1,8,GND*%
%TO.N,GND*%
X35850000Y-47525000D03*
%TO.P,M1,10,VOUT*%
%TO.N,+5V*%
X35350000Y-47525000D03*
%TO.P,M1,12,NC*%
%TO.N,unconnected-(M1-Pad12)*%
X34850000Y-47525000D03*
%TO.P,M1,14,D+*%
%TO.N,USB-D+*%
X34350000Y-47525000D03*
%TO.P,M1,16,D-*%
%TO.N,USB-D-*%
X33850000Y-47525000D03*
%TO.P,M1,18,DEBUG1*%
%TO.N,unconnected-(M1-Pad18)*%
X33350000Y-47525000D03*
%TO.P,M1,20,DEBUG2*%
%TO.N,unconnected-(M1-Pad20)*%
X32850000Y-47525000D03*
%TO.P,M1,22,DEBUG3*%
%TO.N,unconnected-(M1-Pad22)*%
X32350000Y-47525000D03*
%TO.P,M1,32,P0*%
%TO.N,PB12*%
X29850000Y-47525000D03*
%TO.P,M1,34,P1*%
%TO.N,PB13*%
X29350000Y-47525000D03*
%TO.P,M1,36,P2*%
%TO.N,PB14*%
X28850000Y-47525000D03*
%TO.P,M1,38,P3*%
%TO.N,PA8*%
X28350000Y-47525000D03*
%TO.P,M1,40,P4*%
%TO.N,PB15*%
X27850000Y-47525000D03*
%TO.P,M1,42,P5*%
%TO.N,PA14*%
X27350000Y-47525000D03*
%TO.P,M1,44,P6*%
%TO.N,PA15*%
X26850000Y-47525000D03*
%TO.P,M1,46,P7*%
%TO.N,PB3*%
X26350000Y-47525000D03*
%TO.P,M1,48,P8*%
%TO.N,PB4*%
X25850000Y-47525000D03*
%TO.P,M1,50,P9*%
%TO.N,PB5*%
X25350000Y-47525000D03*
%TO.P,M1,52,P10*%
%TO.N,PB6*%
X24850000Y-47525000D03*
%TO.P,M1,54,P11*%
%TO.N,PB7*%
X24350000Y-47525000D03*
%TO.P,M1,56,P12*%
%TO.N,PB8*%
X23850000Y-47525000D03*
%TO.P,M1,58,P13*%
%TO.N,PB9*%
X23350000Y-47525000D03*
%TO.P,M1,60,NC*%
%TO.N,unconnected-(M1-Pad60)*%
X22850000Y-47525000D03*
%TO.P,M1,62,NC*%
%TO.N,unconnected-(M1-Pad62)*%
X22350000Y-47525000D03*
%TO.P,M1,64,NC*%
%TO.N,unconnected-(M1-Pad64)*%
X21850000Y-47525000D03*
%TO.P,M1,66,NC*%
%TO.N,unconnected-(M1-Pad66)*%
X21350000Y-47525000D03*
%TO.P,M1,68,NC*%
%TO.N,unconnected-(M1-Pad68)*%
X20850000Y-47525000D03*
%TO.P,M1,70,NC*%
%TO.N,unconnected-(M1-Pad70)*%
X20350000Y-47525000D03*
%TO.P,M1,72,NC*%
%TO.N,unconnected-(M1-Pad72)*%
X19850000Y-47525000D03*
%TO.P,M1,74,NC*%
%TO.N,unconnected-(M1-Pad74)*%
X19350000Y-47525000D03*
%TD*%
D11*
%TO.P,H1,1,1*%
%TO.N,GND*%
X28350000Y-21475000D03*
X28350000Y-16675000D03*
X26652944Y-20772056D03*
X26652944Y-17377944D03*
D12*
X28350000Y-19075000D03*
D11*
X30047056Y-20772056D03*
X30750000Y-19075000D03*
X30047056Y-17377944D03*
X25950000Y-19075000D03*
%TD*%
D13*
%TO.N,GND*%
X18125000Y-19875000D03*
X18100000Y-44250000D03*
X37950000Y-40325000D03*
X33000000Y-41025000D03*
X18050000Y-33650000D03*
X38625000Y-29200000D03*
X36250000Y-38525000D03*
X38550000Y-44200000D03*
X33950000Y-43275000D03*
X21650000Y-36400000D03*
X24810000Y-27129500D03*
X30625000Y-40125000D03*
X19575000Y-27100000D03*
X38450000Y-19925000D03*
D14*
X28150000Y-31350000D03*
D13*
X26625000Y-29525000D03*
X30650000Y-44425000D03*
X20900000Y-32025000D03*
X37825000Y-31225000D03*
%TO.N,/vcap*%
X35781444Y-36191444D03*
X24580000Y-27900499D03*
X32174500Y-39525000D03*
X36900500Y-36510000D03*
%TO.N,+5V*%
X33500000Y-45325000D03*
X36225000Y-45350000D03*
%TO.N,+3V3*%
X33770000Y-29785000D03*
X36849999Y-33100000D03*
X25700000Y-28449999D03*
X33950000Y-36950000D03*
X25050000Y-34750000D03*
X18375000Y-32700000D03*
X19925000Y-25225000D03*
X31700000Y-42425000D03*
%TO.N,PC13*%
X24916374Y-37366374D03*
X23850000Y-29575000D03*
%TO.N,PC14*%
X23300000Y-37350000D03*
X24464049Y-31062950D03*
%TO.N,PC15*%
X24100000Y-37350000D03*
X24464038Y-31812452D03*
%TO.N,PB12*%
X34983836Y-35962783D03*
%TO.N,PB13*%
X35530000Y-35449500D03*
%TO.N,PB14*%
X36250226Y-34692829D03*
%TO.N,PB15*%
X36300499Y-33865444D03*
%TO.N,PA8*%
X35489416Y-33850500D03*
%TO.N,PA15*%
X34250000Y-27450000D03*
%TO.N,PB3*%
X33398245Y-27350000D03*
%TO.N,PB4*%
X32648742Y-27350000D03*
%TO.N,PB5*%
X31899144Y-27350000D03*
%TO.N,PB6*%
X31125000Y-27350000D03*
%TO.N,PB7*%
X30740000Y-28020000D03*
%TO.N,PB8*%
X28500000Y-27550000D03*
%TO.N,PB9*%
X27700000Y-27550000D03*
%TO.N,PA14*%
X34147748Y-28400000D03*
%TD*%
D15*
%TO.N,GND*%
X35650000Y-46025000D02*
X33050000Y-46025000D01*
X35850000Y-46225000D02*
X35650000Y-46025000D01*
X33050000Y-46025000D02*
X32975000Y-45950000D01*
X35850000Y-47525000D02*
X35850000Y-46225000D01*
%TO.N,/vcap*%
X32174500Y-39525000D02*
X32174500Y-37805501D01*
X37480000Y-35930500D02*
X37480000Y-32277874D01*
X34645264Y-26450969D02*
X27204733Y-26450970D01*
X36900500Y-36510000D02*
X37480000Y-35930500D01*
X35372408Y-36600480D02*
X35781444Y-36191444D01*
X35200000Y-29997874D02*
X35200000Y-27005705D01*
X35200000Y-27005705D02*
X34645264Y-26450969D01*
X32174500Y-37805501D02*
X33579512Y-36400489D01*
X25755204Y-27900499D02*
X24580000Y-27900499D01*
X33579512Y-36400489D02*
X34177616Y-36400489D01*
X34177616Y-36400489D02*
X34377607Y-36600480D01*
X27204733Y-26450970D02*
X25755204Y-27900499D01*
X34377607Y-36600480D02*
X35372408Y-36600480D01*
X37480000Y-32277874D02*
X35200000Y-29997874D01*
%TO.N,+5V*%
X36200000Y-45325000D02*
X33500000Y-45325000D01*
X36225000Y-45350000D02*
X36350000Y-45475000D01*
X36350000Y-45475000D02*
X36350000Y-47525000D01*
X36225000Y-45350000D02*
X36200000Y-45325000D01*
%TO.N,+3V3*%
X22625001Y-28449999D02*
X25700000Y-28449999D01*
X33770000Y-30020001D02*
X36849999Y-33100000D01*
X36849999Y-35010001D02*
X36330955Y-35529045D01*
X34500489Y-26800489D02*
X27349510Y-26800489D01*
X36330955Y-35529045D02*
X36330955Y-36419060D01*
X18375000Y-32700000D02*
X22625001Y-28449999D01*
X36850000Y-44825000D02*
X36850000Y-47525000D01*
X19925000Y-25749998D02*
X22625001Y-28449999D01*
X34800000Y-27100000D02*
X34500489Y-26800489D01*
X36330955Y-36419060D02*
X35800016Y-36949999D01*
X36640000Y-44615000D02*
X36850000Y-44825000D01*
X27349510Y-26800489D02*
X25700000Y-28449999D01*
X33770000Y-29785000D02*
X33770000Y-30020001D01*
X19925000Y-25225000D02*
X19925000Y-25749998D01*
X36849999Y-33100000D02*
X36849999Y-35010001D01*
X33770000Y-29785000D02*
X34800000Y-28755000D01*
X25700000Y-34100000D02*
X25050000Y-34750000D01*
X36640000Y-44615000D02*
X34450000Y-42425000D01*
X25700000Y-28449999D02*
X25700000Y-34100000D01*
X34450000Y-42425000D02*
X31700000Y-42425000D01*
X34800000Y-28755000D02*
X34800000Y-27100000D01*
X35800016Y-36949999D02*
X33950000Y-36950000D01*
%TO.N,PC13*%
X24912858Y-37322175D02*
X24912858Y-37353765D01*
X25013549Y-30738549D02*
X25013549Y-33786451D01*
X24400000Y-36809317D02*
X24912858Y-37322175D01*
X25013549Y-33786451D02*
X24400000Y-34400000D01*
X24400000Y-34400000D02*
X24400000Y-36809317D01*
X23850000Y-29575000D02*
X25013549Y-30738549D01*
%TO.N,PC14*%
X23700962Y-36949038D02*
X23300000Y-37350000D01*
X24114518Y-32375000D02*
X24114518Y-33696890D01*
X23914527Y-31584836D02*
X23914527Y-32175009D01*
X23914527Y-32175009D02*
X24114518Y-32375000D01*
X24436413Y-31062950D02*
X23914527Y-31584836D01*
X24114518Y-33696890D02*
X23700962Y-34110446D01*
X24464049Y-31062950D02*
X24436413Y-31062950D01*
X23700962Y-34110446D02*
X23700962Y-36949038D01*
%TO.N,PC15*%
X24050480Y-34255224D02*
X24464038Y-33841666D01*
X24050480Y-37223368D02*
X24050480Y-34255224D01*
X24163556Y-37336444D02*
X24050480Y-37223368D01*
X24464038Y-33841666D02*
X24464038Y-31812452D01*
%TO.N,PB12*%
X33522922Y-35962783D02*
X29850000Y-39635705D01*
X29850000Y-39635705D02*
X29850000Y-47525000D01*
X34983836Y-35962783D02*
X33522922Y-35962783D01*
%TO.N,PB13*%
X29350000Y-46425969D02*
X29350000Y-47525000D01*
X35493772Y-35413272D02*
X33578137Y-35413272D01*
X29500480Y-39490929D02*
X29500480Y-46275489D01*
X33578137Y-35413272D02*
X29500480Y-39490929D01*
X29500480Y-46275489D02*
X29350000Y-46425969D01*
X35530000Y-35449500D02*
X35493772Y-35413272D01*
%TO.N,PB14*%
X29150960Y-46050018D02*
X28850000Y-46350978D01*
X36250226Y-34692829D02*
X33804284Y-34692829D01*
X29150960Y-39346154D02*
X29150960Y-46050018D01*
X28850000Y-46350978D02*
X28850000Y-47525000D01*
X33804284Y-34692829D02*
X29150960Y-39346154D01*
%TO.N,PB15*%
X34207533Y-33300989D02*
X35736044Y-33300989D01*
X27850000Y-46362387D02*
X28451920Y-45760467D01*
X27850000Y-47525000D02*
X27850000Y-46362387D01*
X28451920Y-45760467D02*
X28451921Y-39056601D01*
X35736044Y-33300989D02*
X36300499Y-33865444D01*
X28451921Y-39056601D02*
X34207533Y-33300989D01*
%TO.N,PA8*%
X28350000Y-47525000D02*
X28350000Y-46356683D01*
X28801440Y-39201378D02*
X34152318Y-33850500D01*
X28350000Y-46356683D02*
X28801440Y-45905243D01*
X28801440Y-45905243D02*
X28801440Y-39201378D01*
X34152318Y-33850500D02*
X35489416Y-33850500D01*
%TO.N,PA15*%
X27752881Y-38767051D02*
X27752881Y-45448097D01*
X32800480Y-28888697D02*
X32800481Y-33719450D01*
X26850000Y-46350978D02*
X26850000Y-47525000D01*
X34250000Y-27450000D02*
X34239177Y-27450000D01*
X27752881Y-45448097D02*
X26850000Y-46350978D01*
X34239177Y-27450000D02*
X32800480Y-28888697D01*
X32800481Y-33719450D02*
X27752881Y-38767051D01*
%TO.N,PB3*%
X27403361Y-38622276D02*
X27403361Y-45297617D01*
X27403361Y-45297617D02*
X26350000Y-46350978D01*
X32450961Y-33574674D02*
X27403361Y-38622276D01*
X33398245Y-27796636D02*
X32450961Y-28743920D01*
X32450961Y-28743920D02*
X32450961Y-33574674D01*
X26350000Y-46350978D02*
X26350000Y-47525000D01*
X33398245Y-27350000D02*
X33398245Y-27796636D01*
%TO.N,PB4*%
X27053841Y-45147137D02*
X25850000Y-46350978D01*
X32648742Y-28051843D02*
X32101441Y-28599145D01*
X32101442Y-33429897D02*
X27053841Y-38477501D01*
X32648742Y-27350000D02*
X32648742Y-28051843D01*
X32101441Y-28599145D02*
X32101442Y-33429897D01*
X27053841Y-38477501D02*
X27053841Y-45147137D01*
X25850000Y-46350978D02*
X25850000Y-47525000D01*
%TO.N,PB5*%
X26704321Y-44996657D02*
X25350000Y-46350978D01*
X26704321Y-38332726D02*
X26704321Y-44996657D01*
X31899144Y-27350000D02*
X31751921Y-27497223D01*
X31751922Y-33285121D02*
X26704321Y-38332726D01*
X25350000Y-46350978D02*
X25350000Y-47525000D01*
X31751921Y-27497223D02*
X31751922Y-33285121D01*
%TO.N,PB6*%
X26354801Y-44846177D02*
X24850000Y-46350978D01*
X31402401Y-33140346D02*
X26354801Y-38187946D01*
X31402401Y-27627401D02*
X31402401Y-33140346D01*
X26354801Y-38187946D02*
X26354801Y-44846177D01*
X31125000Y-27350000D02*
X31402401Y-27627401D01*
X24850000Y-46350978D02*
X24850000Y-47525000D01*
%TO.N,PB7*%
X31052881Y-32995570D02*
X26005281Y-38043171D01*
X31052881Y-28332881D02*
X31052881Y-32995570D01*
X26005281Y-38043171D02*
X26005281Y-44695697D01*
X24350000Y-46350978D02*
X24350000Y-47525000D01*
X30740000Y-28020000D02*
X31052881Y-28332881D01*
X26005281Y-44695697D02*
X24350000Y-46350978D01*
%TO.N,PB8*%
X23850000Y-47525000D02*
X23850000Y-46356682D01*
X30703361Y-29753361D02*
X28500000Y-27550000D01*
X25655761Y-37898394D02*
X30703361Y-32850794D01*
X25655761Y-44550921D02*
X25655761Y-37898394D01*
X23850000Y-46356682D02*
X25655761Y-44550921D01*
X30703361Y-32850794D02*
X30703361Y-29753361D01*
%TO.N,PB9*%
X25306241Y-37753619D02*
X25306241Y-44394737D01*
X25306241Y-44394737D02*
X23350000Y-46350978D01*
X27700000Y-27550000D02*
X30353841Y-30203841D01*
X30353841Y-30203841D02*
X30353841Y-32706018D01*
X30353841Y-32706018D02*
X25306241Y-37753619D01*
X23350000Y-46350978D02*
X23350000Y-47525000D01*
%TO.N,PA14*%
X34147748Y-28400000D02*
X33150000Y-29397748D01*
X27350000Y-46350978D02*
X27350000Y-47525000D01*
X33150000Y-29397748D02*
X33150000Y-33864227D01*
X33150000Y-33864227D02*
X28102401Y-38911826D01*
X28102401Y-38911826D02*
X28102401Y-45598577D01*
X28102401Y-45598577D02*
X27350000Y-46350978D01*
%TD*%
%TA.AperFunction,Conductor*%
%TO.N,GND*%
G36*
X23427711Y-28919406D02*
G01*
X23463675Y-28968906D01*
X23463675Y-29030092D01*
X23434600Y-29074101D01*
X23363034Y-29136533D01*
X23272501Y-29265348D01*
X23215309Y-29412039D01*
X23214531Y-29417950D01*
X23214530Y-29417953D01*
X23213653Y-29424616D01*
X23194758Y-29568138D01*
X23195413Y-29574071D01*
X23195413Y-29574075D01*
X23197447Y-29592494D01*
X23212035Y-29724633D01*
X23224404Y-29758434D01*
X23240030Y-29801132D01*
X23266143Y-29872490D01*
X23269472Y-29877444D01*
X23350629Y-29998219D01*
X23350632Y-29998223D01*
X23353958Y-30003172D01*
X23358369Y-30007186D01*
X23358371Y-30007188D01*
X23429410Y-30071828D01*
X23470410Y-30109135D01*
X23512220Y-30131836D01*
X23603530Y-30181414D01*
X23603532Y-30181415D01*
X23608776Y-30184262D01*
X23688534Y-30205186D01*
X23755300Y-30222702D01*
X23755304Y-30222702D01*
X23761069Y-30224215D01*
X23767031Y-30224309D01*
X23767033Y-30224309D01*
X23823630Y-30225198D01*
X23881517Y-30245017D01*
X23892079Y-30254182D01*
X24054518Y-30416621D01*
X24082295Y-30471138D01*
X24072724Y-30531570D01*
X24049595Y-30561226D01*
X23977083Y-30624483D01*
X23886550Y-30753298D01*
X23829358Y-30899989D01*
X23828580Y-30905900D01*
X23828579Y-30905903D01*
X23813594Y-31019733D01*
X23785445Y-31076815D01*
X23619043Y-31243217D01*
X23610331Y-31250958D01*
X23582417Y-31272964D01*
X23578210Y-31279051D01*
X23548819Y-31321577D01*
X23547015Y-31324100D01*
X23511893Y-31371652D01*
X23509500Y-31378468D01*
X23505396Y-31384405D01*
X23503163Y-31391464D01*
X23503163Y-31391465D01*
X23487576Y-31440751D01*
X23486609Y-31443650D01*
X23467008Y-31499467D01*
X23466771Y-31505509D01*
X23466250Y-31508183D01*
X23464547Y-31513566D01*
X23464027Y-31520173D01*
X23464027Y-31573377D01*
X23463951Y-31577264D01*
X23461689Y-31634830D01*
X23463486Y-31641608D01*
X23464027Y-31651433D01*
X23464027Y-32142382D01*
X23463341Y-32154018D01*
X23459163Y-32189319D01*
X23460492Y-32196595D01*
X23460492Y-32196598D01*
X23469775Y-32247423D01*
X23470285Y-32250485D01*
X23479078Y-32308971D01*
X23482206Y-32315484D01*
X23483502Y-32322582D01*
X23486913Y-32329148D01*
X23510725Y-32374989D01*
X23512115Y-32377771D01*
X23534514Y-32424417D01*
X23534516Y-32424420D01*
X23537718Y-32431088D01*
X23541824Y-32435530D01*
X23543347Y-32437790D01*
X23545948Y-32442797D01*
X23550252Y-32447837D01*
X23587884Y-32485469D01*
X23590578Y-32488272D01*
X23628364Y-32529149D01*
X23629673Y-32530565D01*
X23629437Y-32530783D01*
X23660510Y-32578089D01*
X23664018Y-32604210D01*
X23664018Y-33469279D01*
X23645111Y-33527470D01*
X23635022Y-33539282D01*
X23405478Y-33768827D01*
X23396765Y-33776569D01*
X23368852Y-33798574D01*
X23335254Y-33847187D01*
X23333450Y-33849710D01*
X23298328Y-33897262D01*
X23295935Y-33904078D01*
X23291831Y-33910015D01*
X23289598Y-33917074D01*
X23289598Y-33917075D01*
X23274011Y-33966361D01*
X23273044Y-33969260D01*
X23253443Y-34025077D01*
X23253206Y-34031119D01*
X23252685Y-34033793D01*
X23250982Y-34039176D01*
X23250462Y-34045783D01*
X23250462Y-34098987D01*
X23250386Y-34102874D01*
X23248124Y-34160440D01*
X23249921Y-34167218D01*
X23250462Y-34177043D01*
X23250462Y-36614831D01*
X23231555Y-36673022D01*
X23182055Y-36708986D01*
X23174584Y-36711093D01*
X23117035Y-36724909D01*
X23077389Y-36734427D01*
X23077387Y-36734428D01*
X23071588Y-36735820D01*
X23029756Y-36757411D01*
X22936985Y-36805293D01*
X22936983Y-36805295D01*
X22931679Y-36808032D01*
X22813034Y-36911533D01*
X22722501Y-37040348D01*
X22720334Y-37045906D01*
X22715434Y-37058474D01*
X22665309Y-37187039D01*
X22644758Y-37343138D01*
X22645413Y-37349071D01*
X22645413Y-37349075D01*
X22653709Y-37424220D01*
X22662035Y-37499633D01*
X22664087Y-37505240D01*
X22687007Y-37567871D01*
X22716143Y-37647490D01*
X22719472Y-37652444D01*
X22800629Y-37773219D01*
X22800632Y-37773223D01*
X22803958Y-37778172D01*
X22808369Y-37782186D01*
X22808371Y-37782188D01*
X22899042Y-37864692D01*
X22920410Y-37884135D01*
X22989593Y-37921698D01*
X23053530Y-37956414D01*
X23053532Y-37956415D01*
X23058776Y-37959262D01*
X23126962Y-37977150D01*
X23205300Y-37997702D01*
X23205304Y-37997702D01*
X23211069Y-37999215D01*
X23217030Y-37999309D01*
X23217033Y-37999309D01*
X23289782Y-38000451D01*
X23368495Y-38001688D01*
X23475634Y-37977150D01*
X23516149Y-37967871D01*
X23516151Y-37967870D01*
X23521968Y-37966538D01*
X23533425Y-37960776D01*
X23657533Y-37898356D01*
X23718015Y-37889101D01*
X23749255Y-37899797D01*
X23853530Y-37956414D01*
X23853532Y-37956415D01*
X23858776Y-37959262D01*
X23926962Y-37977150D01*
X24005300Y-37997702D01*
X24005304Y-37997702D01*
X24011069Y-37999215D01*
X24017030Y-37999309D01*
X24017033Y-37999309D01*
X24089782Y-38000451D01*
X24168495Y-38001688D01*
X24275634Y-37977150D01*
X24316149Y-37967871D01*
X24316151Y-37967870D01*
X24321968Y-37966538D01*
X24333425Y-37960776D01*
X24359569Y-37947627D01*
X24450380Y-37901954D01*
X24510859Y-37892699D01*
X24542098Y-37903394D01*
X24606625Y-37938430D01*
X24669904Y-37972788D01*
X24669906Y-37972789D01*
X24675150Y-37975636D01*
X24781864Y-38003632D01*
X24833351Y-38036686D01*
X24855741Y-38099391D01*
X24855741Y-44167125D01*
X24836834Y-44225316D01*
X24826745Y-44237129D01*
X23054514Y-46009360D01*
X23045802Y-46017101D01*
X23017890Y-46039106D01*
X23013683Y-46045193D01*
X22984292Y-46087719D01*
X22982482Y-46090251D01*
X22949932Y-46134319D01*
X22900151Y-46169892D01*
X22870300Y-46174500D01*
X22641782Y-46174500D01*
X22638199Y-46175028D01*
X22638192Y-46175028D01*
X22622125Y-46177394D01*
X22614542Y-46178510D01*
X22585835Y-46178529D01*
X22558218Y-46174500D01*
X22141782Y-46174500D01*
X22138199Y-46175028D01*
X22138192Y-46175028D01*
X22122125Y-46177394D01*
X22114542Y-46178510D01*
X22085835Y-46178529D01*
X22058218Y-46174500D01*
X21641782Y-46174500D01*
X21638199Y-46175028D01*
X21638192Y-46175028D01*
X21622125Y-46177394D01*
X21614542Y-46178510D01*
X21585835Y-46178529D01*
X21558218Y-46174500D01*
X21141782Y-46174500D01*
X21138199Y-46175028D01*
X21138192Y-46175028D01*
X21122125Y-46177394D01*
X21114542Y-46178510D01*
X21085835Y-46178529D01*
X21058218Y-46174500D01*
X20641782Y-46174500D01*
X20638199Y-46175028D01*
X20638192Y-46175028D01*
X20622125Y-46177394D01*
X20614542Y-46178510D01*
X20585835Y-46178529D01*
X20558218Y-46174500D01*
X20141782Y-46174500D01*
X20138199Y-46175028D01*
X20138192Y-46175028D01*
X20122125Y-46177394D01*
X20114542Y-46178510D01*
X20085835Y-46178529D01*
X20058218Y-46174500D01*
X19641782Y-46174500D01*
X19638199Y-46175028D01*
X19638192Y-46175028D01*
X19622125Y-46177394D01*
X19614542Y-46178510D01*
X19585835Y-46178529D01*
X19558218Y-46174500D01*
X19141782Y-46174500D01*
X19138199Y-46175028D01*
X19138192Y-46175028D01*
X19080501Y-46183521D01*
X19080499Y-46183522D01*
X19072888Y-46184642D01*
X19065982Y-46188033D01*
X19065981Y-46188033D01*
X19048086Y-46196819D01*
X18968145Y-46236068D01*
X18962364Y-46241859D01*
X18957130Y-46245606D01*
X18898808Y-46264107D01*
X18840751Y-46244793D01*
X18805134Y-46195043D01*
X18800500Y-46165109D01*
X18800500Y-45610375D01*
X18801719Y-45594888D01*
X18803650Y-45582698D01*
X18803650Y-45582696D01*
X18804869Y-45575000D01*
X18804197Y-45570759D01*
X18792863Y-45455682D01*
X18788671Y-45413115D01*
X18788671Y-45413114D01*
X18788194Y-45408273D01*
X18782852Y-45390662D01*
X18740974Y-45252610D01*
X18740973Y-45252607D01*
X18739561Y-45247953D01*
X18660586Y-45100201D01*
X18627244Y-45059573D01*
X18557393Y-44974460D01*
X18554304Y-44970696D01*
X18451751Y-44886533D01*
X18428556Y-44867497D01*
X18428554Y-44867496D01*
X18424799Y-44864414D01*
X18326657Y-44811956D01*
X18281339Y-44787733D01*
X18281338Y-44787733D01*
X18277047Y-44785439D01*
X18272393Y-44784027D01*
X18272390Y-44784026D01*
X18121383Y-44738218D01*
X18121379Y-44738217D01*
X18116727Y-44736806D01*
X18022352Y-44727511D01*
X18015231Y-44726398D01*
X18011094Y-44724945D01*
X18005956Y-44724500D01*
X17996639Y-44724500D01*
X17986937Y-44724023D01*
X17977502Y-44723094D01*
X17954241Y-44720803D01*
X17950000Y-44720131D01*
X17942304Y-44721350D01*
X17942302Y-44721350D01*
X17930112Y-44723281D01*
X17914625Y-44724500D01*
X17799500Y-44724500D01*
X17741309Y-44705593D01*
X17705345Y-44656093D01*
X17700500Y-44625500D01*
X17700500Y-33186532D01*
X17719407Y-33128341D01*
X17768907Y-33092377D01*
X17830093Y-33092377D01*
X17874443Y-33121844D01*
X17875629Y-33123219D01*
X17878958Y-33128172D01*
X17883369Y-33132186D01*
X17883371Y-33132188D01*
X17990995Y-33230118D01*
X17995410Y-33234135D01*
X18016885Y-33245795D01*
X18128530Y-33306414D01*
X18128532Y-33306415D01*
X18133776Y-33309262D01*
X18213534Y-33330186D01*
X18280300Y-33347702D01*
X18280304Y-33347702D01*
X18286069Y-33349215D01*
X18292030Y-33349309D01*
X18292033Y-33349309D01*
X18364782Y-33350451D01*
X18443495Y-33351688D01*
X18460899Y-33347702D01*
X18591149Y-33317871D01*
X18591151Y-33317870D01*
X18596968Y-33316538D01*
X18602299Y-33313857D01*
X18732299Y-33248474D01*
X18732301Y-33248473D01*
X18737625Y-33245795D01*
X18751277Y-33234135D01*
X18852810Y-33147418D01*
X18852811Y-33147417D01*
X18857348Y-33143542D01*
X18937564Y-33031910D01*
X18945740Y-33020532D01*
X18945741Y-33020530D01*
X18949224Y-33015683D01*
X18981900Y-32934401D01*
X19005726Y-32875131D01*
X19005727Y-32875129D01*
X19007950Y-32869598D01*
X19009812Y-32856520D01*
X19029679Y-32716921D01*
X19029679Y-32716919D01*
X19030134Y-32713723D01*
X19030697Y-32713803D01*
X19053015Y-32659547D01*
X19058448Y-32653655D01*
X22782608Y-28929495D01*
X22837125Y-28901718D01*
X22852612Y-28900499D01*
X23369520Y-28900499D01*
X23427711Y-28919406D01*
G37*
%TD.AperFunction*%
%TA.AperFunction,Conductor*%
G36*
X24734277Y-19444407D02*
G01*
X24770241Y-19493907D01*
X24773867Y-19509013D01*
X24823430Y-19821939D01*
X24824509Y-19827018D01*
X24920827Y-20186484D01*
X24922430Y-20191416D01*
X25055795Y-20538843D01*
X25057895Y-20543561D01*
X25226854Y-20875162D01*
X25229444Y-20879648D01*
X25432128Y-21191754D01*
X25435169Y-21195940D01*
X25622329Y-21427065D01*
X25633516Y-21434329D01*
X25636003Y-21434199D01*
X25639554Y-21431893D01*
X27616951Y-19454496D01*
X27671468Y-19426719D01*
X27686955Y-19425500D01*
X28114045Y-19425500D01*
X28172236Y-19444407D01*
X28208200Y-19493907D01*
X28208200Y-19555093D01*
X28184049Y-19594504D01*
X25996836Y-21781717D01*
X25990782Y-21793600D01*
X25991171Y-21796061D01*
X25993835Y-21799350D01*
X26229060Y-21989831D01*
X26233246Y-21992872D01*
X26545352Y-22195556D01*
X26549838Y-22198146D01*
X26881439Y-22367105D01*
X26886157Y-22369205D01*
X27233584Y-22502570D01*
X27238516Y-22504173D01*
X27597982Y-22600491D01*
X27603061Y-22601570D01*
X27970615Y-22659786D01*
X27975777Y-22660328D01*
X28347405Y-22679804D01*
X28352595Y-22679804D01*
X28724223Y-22660328D01*
X28729385Y-22659786D01*
X29096939Y-22601570D01*
X29102018Y-22600491D01*
X29461484Y-22504173D01*
X29466416Y-22502570D01*
X29813843Y-22369205D01*
X29818561Y-22367105D01*
X30150162Y-22198146D01*
X30154648Y-22195556D01*
X30466754Y-21992872D01*
X30470940Y-21989831D01*
X30702065Y-21802671D01*
X30709329Y-21791484D01*
X30709199Y-21788997D01*
X30706893Y-21785446D01*
X28515951Y-19594504D01*
X28488174Y-19539987D01*
X28497745Y-19479555D01*
X28541010Y-19436290D01*
X28585955Y-19425500D01*
X29013045Y-19425500D01*
X29071236Y-19444407D01*
X29083049Y-19454496D01*
X31056717Y-21428164D01*
X31068600Y-21434218D01*
X31071061Y-21433829D01*
X31074350Y-21431165D01*
X31264831Y-21195940D01*
X31267872Y-21191754D01*
X31470556Y-20879648D01*
X31473146Y-20875162D01*
X31642105Y-20543561D01*
X31644205Y-20538843D01*
X31777570Y-20191416D01*
X31779173Y-20186484D01*
X31875491Y-19827018D01*
X31876570Y-19821939D01*
X31926133Y-19509013D01*
X31953911Y-19454496D01*
X32008427Y-19426719D01*
X32023914Y-19425500D01*
X38900500Y-19425500D01*
X38958691Y-19444407D01*
X38994655Y-19493907D01*
X38999500Y-19524500D01*
X38999500Y-44625500D01*
X38980593Y-44683691D01*
X38931093Y-44719655D01*
X38900500Y-44724500D01*
X38785375Y-44724500D01*
X38769888Y-44723281D01*
X38757698Y-44721350D01*
X38757696Y-44721350D01*
X38750000Y-44720131D01*
X38745759Y-44720803D01*
X38630682Y-44732137D01*
X38588115Y-44736329D01*
X38588114Y-44736329D01*
X38583273Y-44736806D01*
X38578619Y-44738218D01*
X38578618Y-44738218D01*
X38427610Y-44784026D01*
X38427607Y-44784027D01*
X38422953Y-44785439D01*
X38418662Y-44787733D01*
X38418661Y-44787733D01*
X38373343Y-44811956D01*
X38275201Y-44864414D01*
X38271446Y-44867496D01*
X38271444Y-44867497D01*
X38248249Y-44886533D01*
X38145696Y-44970696D01*
X38142607Y-44974460D01*
X38072757Y-45059573D01*
X38039414Y-45100201D01*
X37960439Y-45247953D01*
X37959027Y-45252607D01*
X37959026Y-45252610D01*
X37913964Y-45401160D01*
X37911806Y-45408273D01*
X37911329Y-45413115D01*
X37911329Y-45413116D01*
X37902511Y-45502647D01*
X37901398Y-45509769D01*
X37899945Y-45513906D01*
X37899500Y-45519044D01*
X37899500Y-45528361D01*
X37899023Y-45538063D01*
X37895803Y-45570759D01*
X37895131Y-45575000D01*
X37896350Y-45582696D01*
X37896350Y-45582698D01*
X37898281Y-45594888D01*
X37899500Y-45610375D01*
X37899500Y-46165077D01*
X37880593Y-46223268D01*
X37831093Y-46259232D01*
X37769907Y-46259232D01*
X37743011Y-46245675D01*
X37737141Y-46241488D01*
X37731350Y-46235707D01*
X37723999Y-46232114D01*
X37723998Y-46232113D01*
X37677583Y-46209425D01*
X37626518Y-46184464D01*
X37618916Y-46183355D01*
X37618913Y-46183354D01*
X37561763Y-46175017D01*
X37561761Y-46175017D01*
X37558218Y-46174500D01*
X37399500Y-46174500D01*
X37341309Y-46155593D01*
X37305345Y-46106093D01*
X37300500Y-46075500D01*
X37300500Y-44857627D01*
X37301186Y-44845991D01*
X37304494Y-44818038D01*
X37305364Y-44810690D01*
X37294749Y-44752567D01*
X37294240Y-44749510D01*
X37286549Y-44698353D01*
X37286549Y-44698352D01*
X37285449Y-44691038D01*
X37282323Y-44684528D01*
X37281026Y-44677427D01*
X37253796Y-44625005D01*
X37252408Y-44622227D01*
X37230017Y-44575600D01*
X37230015Y-44575596D01*
X37226809Y-44568921D01*
X37222706Y-44564483D01*
X37221181Y-44562220D01*
X37218580Y-44557212D01*
X37214275Y-44552172D01*
X37176643Y-44514540D01*
X37173949Y-44511737D01*
X37139876Y-44474876D01*
X37139873Y-44474874D01*
X37134854Y-44469444D01*
X37128790Y-44465922D01*
X37121465Y-44459362D01*
X34791619Y-42129516D01*
X34783877Y-42120803D01*
X34766453Y-42098701D01*
X34761872Y-42092890D01*
X34713251Y-42059286D01*
X34710728Y-42057483D01*
X34669139Y-42026764D01*
X34669137Y-42026763D01*
X34663184Y-42022366D01*
X34656368Y-42019973D01*
X34650431Y-42015869D01*
X34643372Y-42013636D01*
X34643371Y-42013636D01*
X34623027Y-42007202D01*
X34594071Y-41998044D01*
X34591186Y-41997082D01*
X34535369Y-41977481D01*
X34529327Y-41977244D01*
X34526653Y-41976723D01*
X34521270Y-41975020D01*
X34514663Y-41974500D01*
X34461459Y-41974500D01*
X34457572Y-41974424D01*
X34407397Y-41972452D01*
X34407394Y-41972452D01*
X34400006Y-41972162D01*
X34393228Y-41973959D01*
X34383403Y-41974500D01*
X32209980Y-41974500D01*
X32151789Y-41955593D01*
X32144122Y-41949417D01*
X32119777Y-41927726D01*
X32073976Y-41886919D01*
X32061462Y-41880293D01*
X31940105Y-41816037D01*
X31940102Y-41816036D01*
X31934831Y-41813245D01*
X31858479Y-41794067D01*
X31787918Y-41776343D01*
X31787915Y-41776343D01*
X31782128Y-41774889D01*
X31702564Y-41774473D01*
X31630650Y-41774096D01*
X31630648Y-41774096D01*
X31624684Y-41774065D01*
X31471588Y-41810820D01*
X31399035Y-41848267D01*
X31336985Y-41880293D01*
X31336983Y-41880295D01*
X31331679Y-41883032D01*
X31213034Y-41986533D01*
X31122501Y-42115348D01*
X31065309Y-42262039D01*
X31044758Y-42418138D01*
X31062035Y-42574633D01*
X31116143Y-42722490D01*
X31119472Y-42727444D01*
X31200629Y-42848219D01*
X31200632Y-42848223D01*
X31203958Y-42853172D01*
X31208369Y-42857186D01*
X31208371Y-42857188D01*
X31254564Y-42899220D01*
X31320410Y-42959135D01*
X31341885Y-42970795D01*
X31453530Y-43031414D01*
X31453532Y-43031415D01*
X31458776Y-43034262D01*
X31538534Y-43055186D01*
X31605300Y-43072702D01*
X31605304Y-43072702D01*
X31611069Y-43074215D01*
X31617030Y-43074309D01*
X31617033Y-43074309D01*
X31689782Y-43075451D01*
X31768495Y-43076688D01*
X31785899Y-43072702D01*
X31916149Y-43042871D01*
X31916151Y-43042870D01*
X31921968Y-43041538D01*
X31927299Y-43038857D01*
X32057299Y-42973474D01*
X32057301Y-42973473D01*
X32062625Y-42970795D01*
X32146430Y-42899219D01*
X32202955Y-42875805D01*
X32210723Y-42875500D01*
X34222389Y-42875500D01*
X34280580Y-42894407D01*
X34292393Y-42904496D01*
X35984615Y-44596718D01*
X36012392Y-44651235D01*
X36002821Y-44711667D01*
X35960017Y-44754695D01*
X35861987Y-44805292D01*
X35861985Y-44805293D01*
X35856679Y-44808032D01*
X35808452Y-44850103D01*
X35752175Y-44874108D01*
X35743374Y-44874500D01*
X34009980Y-44874500D01*
X33951789Y-44855593D01*
X33944122Y-44849417D01*
X33908903Y-44818038D01*
X33873976Y-44786919D01*
X33806198Y-44751032D01*
X33740105Y-44716037D01*
X33740102Y-44716036D01*
X33734831Y-44713245D01*
X33658480Y-44694067D01*
X33587918Y-44676343D01*
X33587915Y-44676343D01*
X33582128Y-44674889D01*
X33502564Y-44674473D01*
X33430650Y-44674096D01*
X33430648Y-44674096D01*
X33424684Y-44674065D01*
X33271588Y-44710820D01*
X33242621Y-44725771D01*
X33136985Y-44780293D01*
X33136983Y-44780295D01*
X33131679Y-44783032D01*
X33013034Y-44886533D01*
X32922501Y-45015348D01*
X32865309Y-45162039D01*
X32844758Y-45318138D01*
X32845413Y-45324071D01*
X32845413Y-45324075D01*
X32856611Y-45425500D01*
X32862035Y-45474633D01*
X32864087Y-45480240D01*
X32911710Y-45610375D01*
X32916143Y-45622490D01*
X32919472Y-45627444D01*
X33000629Y-45748219D01*
X33000632Y-45748223D01*
X33003958Y-45753172D01*
X33008369Y-45757186D01*
X33008371Y-45757188D01*
X33115995Y-45855118D01*
X33120410Y-45859135D01*
X33141885Y-45870795D01*
X33253530Y-45931414D01*
X33253532Y-45931415D01*
X33258776Y-45934262D01*
X33338534Y-45955186D01*
X33405300Y-45972702D01*
X33405304Y-45972702D01*
X33411069Y-45974215D01*
X33417030Y-45974309D01*
X33417033Y-45974309D01*
X33557291Y-45976512D01*
X33558706Y-45976996D01*
X33558998Y-45976966D01*
X33560456Y-45976562D01*
X33562529Y-45976595D01*
X33562535Y-45976594D01*
X33568495Y-45976688D01*
X33585899Y-45972702D01*
X33716149Y-45942871D01*
X33716151Y-45942870D01*
X33721968Y-45941538D01*
X33727299Y-45938857D01*
X33857299Y-45873474D01*
X33857301Y-45873473D01*
X33862625Y-45870795D01*
X33946430Y-45799219D01*
X34002955Y-45775805D01*
X34010723Y-45775500D01*
X35687721Y-45775500D01*
X35745912Y-45794407D01*
X35754349Y-45801276D01*
X35833694Y-45873474D01*
X35845410Y-45884135D01*
X35850656Y-45886983D01*
X35855520Y-45890440D01*
X35854238Y-45892244D01*
X35889862Y-45929796D01*
X35899500Y-45972403D01*
X35899500Y-46165077D01*
X35880593Y-46223268D01*
X35831093Y-46259232D01*
X35769907Y-46259232D01*
X35743011Y-46245675D01*
X35737141Y-46241488D01*
X35731350Y-46235707D01*
X35723998Y-46232113D01*
X35717337Y-46227362D01*
X35719368Y-46224515D01*
X35686537Y-46192741D01*
X35675000Y-46146360D01*
X35675000Y-46140681D01*
X35670878Y-46127996D01*
X35666757Y-46125001D01*
X35647415Y-46125001D01*
X35639671Y-46125611D01*
X35557551Y-46138616D01*
X35542909Y-46143373D01*
X35502995Y-46163710D01*
X35458050Y-46174500D01*
X35141782Y-46174500D01*
X35138199Y-46175028D01*
X35138192Y-46175028D01*
X35122125Y-46177394D01*
X35114542Y-46178510D01*
X35085835Y-46178529D01*
X35058218Y-46174500D01*
X34641782Y-46174500D01*
X34638199Y-46175028D01*
X34638192Y-46175028D01*
X34622125Y-46177394D01*
X34614542Y-46178510D01*
X34585835Y-46178529D01*
X34558218Y-46174500D01*
X34141782Y-46174500D01*
X34138199Y-46175028D01*
X34138192Y-46175028D01*
X34122125Y-46177394D01*
X34114542Y-46178510D01*
X34085835Y-46178529D01*
X34058218Y-46174500D01*
X33641782Y-46174500D01*
X33638199Y-46175028D01*
X33638192Y-46175028D01*
X33622125Y-46177394D01*
X33614542Y-46178510D01*
X33585835Y-46178529D01*
X33558218Y-46174500D01*
X33141782Y-46174500D01*
X33138199Y-46175028D01*
X33138192Y-46175028D01*
X33122125Y-46177394D01*
X33114542Y-46178510D01*
X33085835Y-46178529D01*
X33058218Y-46174500D01*
X32641782Y-46174500D01*
X32638199Y-46175028D01*
X32638192Y-46175028D01*
X32622125Y-46177394D01*
X32614542Y-46178510D01*
X32585835Y-46178529D01*
X32558218Y-46174500D01*
X32141782Y-46174500D01*
X32138199Y-46175028D01*
X32138192Y-46175028D01*
X32080501Y-46183521D01*
X32080499Y-46183522D01*
X32072888Y-46184642D01*
X32065981Y-46188033D01*
X32065978Y-46188034D01*
X32065750Y-46188146D01*
X32065504Y-46188181D01*
X32058634Y-46190316D01*
X32058292Y-46189214D01*
X32005183Y-46196819D01*
X31951085Y-46168236D01*
X31923597Y-46108983D01*
X31912224Y-45993512D01*
X31911747Y-45988669D01*
X31908085Y-45976595D01*
X31858809Y-45814156D01*
X31858808Y-45814153D01*
X31857396Y-45809499D01*
X31840652Y-45778172D01*
X31771428Y-45648663D01*
X31769136Y-45644375D01*
X31751176Y-45622490D01*
X31661957Y-45513778D01*
X31650357Y-45499643D01*
X31619882Y-45474633D01*
X31509382Y-45383947D01*
X31509380Y-45383946D01*
X31505625Y-45380864D01*
X31373047Y-45310000D01*
X31344793Y-45294898D01*
X31344792Y-45294898D01*
X31340501Y-45292604D01*
X31335847Y-45291192D01*
X31335844Y-45291191D01*
X31165987Y-45239665D01*
X31165983Y-45239664D01*
X31161331Y-45238253D01*
X30975000Y-45219901D01*
X30788669Y-45238253D01*
X30784017Y-45239664D01*
X30784013Y-45239665D01*
X30614156Y-45291191D01*
X30614153Y-45291192D01*
X30609499Y-45292604D01*
X30605208Y-45294898D01*
X30605207Y-45294898D01*
X30576953Y-45310000D01*
X30446167Y-45379906D01*
X30385936Y-45390662D01*
X30330884Y-45363960D01*
X30302042Y-45310000D01*
X30300500Y-45292596D01*
X30300500Y-39863316D01*
X30319407Y-39805125D01*
X30329496Y-39793312D01*
X31554996Y-38567812D01*
X31609513Y-38540035D01*
X31669945Y-38549606D01*
X31713210Y-38592871D01*
X31724000Y-38637816D01*
X31724000Y-39009709D01*
X31705093Y-39067900D01*
X31695843Y-39078012D01*
X31696024Y-39078175D01*
X31692029Y-39082612D01*
X31687534Y-39086533D01*
X31597001Y-39215348D01*
X31539809Y-39362039D01*
X31539031Y-39367950D01*
X31539030Y-39367953D01*
X31538153Y-39374616D01*
X31519258Y-39518138D01*
X31519913Y-39524071D01*
X31519913Y-39524075D01*
X31535830Y-39668251D01*
X31536535Y-39674633D01*
X31590643Y-39822490D01*
X31593972Y-39827444D01*
X31675129Y-39948219D01*
X31675132Y-39948223D01*
X31678458Y-39953172D01*
X31682869Y-39957186D01*
X31682871Y-39957188D01*
X31695349Y-39968542D01*
X31794910Y-40059135D01*
X31816385Y-40070795D01*
X31928030Y-40131414D01*
X31928032Y-40131415D01*
X31933276Y-40134262D01*
X32013034Y-40155186D01*
X32079800Y-40172702D01*
X32079804Y-40172702D01*
X32085569Y-40174215D01*
X32091530Y-40174309D01*
X32091533Y-40174309D01*
X32164282Y-40175452D01*
X32242995Y-40176688D01*
X32260399Y-40172702D01*
X32390649Y-40142871D01*
X32390651Y-40142870D01*
X32396468Y-40141538D01*
X32401799Y-40138857D01*
X32531799Y-40073474D01*
X32531801Y-40073473D01*
X32537125Y-40070795D01*
X32550777Y-40059135D01*
X32652310Y-39972418D01*
X32652311Y-39972417D01*
X32656848Y-39968542D01*
X32748724Y-39840683D01*
X32763019Y-39805125D01*
X32805226Y-39700131D01*
X32805227Y-39700129D01*
X32807450Y-39694598D01*
X32809494Y-39680240D01*
X32829178Y-39541929D01*
X32829178Y-39541925D01*
X32829634Y-39538723D01*
X32829778Y-39525000D01*
X32810863Y-39368694D01*
X32755210Y-39221412D01*
X32666031Y-39091657D01*
X32658141Y-39084627D01*
X32627272Y-39031800D01*
X32625000Y-39010711D01*
X32625000Y-38033112D01*
X32643907Y-37974921D01*
X32653996Y-37963108D01*
X33282466Y-37334638D01*
X33336983Y-37306861D01*
X33397415Y-37316432D01*
X33434641Y-37349426D01*
X33453958Y-37378172D01*
X33458369Y-37382186D01*
X33458371Y-37382188D01*
X33504564Y-37424220D01*
X33570410Y-37484135D01*
X33639593Y-37521698D01*
X33703530Y-37556414D01*
X33703532Y-37556415D01*
X33708776Y-37559262D01*
X33788534Y-37580186D01*
X33855300Y-37597702D01*
X33855304Y-37597702D01*
X33861069Y-37599215D01*
X33867030Y-37599309D01*
X33867033Y-37599309D01*
X33939782Y-37600452D01*
X34018495Y-37601688D01*
X34035899Y-37597702D01*
X34166149Y-37567871D01*
X34166151Y-37567870D01*
X34171968Y-37566538D01*
X34177299Y-37563857D01*
X34307299Y-37498474D01*
X34307301Y-37498473D01*
X34312625Y-37495795D01*
X34396429Y-37424220D01*
X34452957Y-37400805D01*
X34460724Y-37400500D01*
X35587254Y-37400499D01*
X35767390Y-37400499D01*
X35779026Y-37401185D01*
X35814326Y-37405363D01*
X35821602Y-37404034D01*
X35821605Y-37404034D01*
X35852304Y-37398427D01*
X35872446Y-37394748D01*
X35875492Y-37394241D01*
X35933978Y-37385448D01*
X35940491Y-37382320D01*
X35947589Y-37381024D01*
X35999998Y-37353800D01*
X36002778Y-37352411D01*
X36049424Y-37330012D01*
X36049427Y-37330010D01*
X36056095Y-37326808D01*
X36060537Y-37322702D01*
X36062797Y-37321179D01*
X36067804Y-37318578D01*
X36072844Y-37314274D01*
X36110476Y-37276642D01*
X36113279Y-37273948D01*
X36150140Y-37239875D01*
X36150142Y-37239872D01*
X36155572Y-37234853D01*
X36159094Y-37228789D01*
X36165654Y-37221464D01*
X36360971Y-37026147D01*
X36415488Y-36998370D01*
X36475920Y-37007941D01*
X36497603Y-37022927D01*
X36520910Y-37044135D01*
X36542385Y-37055795D01*
X36654030Y-37116414D01*
X36654032Y-37116415D01*
X36659276Y-37119262D01*
X36739034Y-37140186D01*
X36805800Y-37157702D01*
X36805804Y-37157702D01*
X36811569Y-37159215D01*
X36817530Y-37159309D01*
X36817533Y-37159309D01*
X36890282Y-37160451D01*
X36968995Y-37161688D01*
X36986399Y-37157702D01*
X37116649Y-37127871D01*
X37116651Y-37127870D01*
X37122468Y-37126538D01*
X37127799Y-37123857D01*
X37257799Y-37058474D01*
X37257801Y-37058473D01*
X37263125Y-37055795D01*
X37286926Y-37035467D01*
X37378310Y-36957418D01*
X37378311Y-36957417D01*
X37382848Y-36953542D01*
X37435102Y-36880822D01*
X37471240Y-36830532D01*
X37471241Y-36830530D01*
X37474724Y-36825683D01*
X37480243Y-36811956D01*
X37531226Y-36685131D01*
X37531227Y-36685129D01*
X37533450Y-36679598D01*
X37555634Y-36523723D01*
X37556197Y-36523803D01*
X37578515Y-36469547D01*
X37583948Y-36463655D01*
X37775484Y-36272119D01*
X37784197Y-36264377D01*
X37806299Y-36246953D01*
X37812110Y-36242372D01*
X37845704Y-36193766D01*
X37847511Y-36191237D01*
X37878239Y-36149635D01*
X37878240Y-36149634D01*
X37882635Y-36143683D01*
X37885029Y-36136866D01*
X37889131Y-36130931D01*
X37906948Y-36074596D01*
X37907928Y-36071659D01*
X37925068Y-36022852D01*
X37925068Y-36022850D01*
X37927520Y-36015869D01*
X37927758Y-36009827D01*
X37928280Y-36007147D01*
X37929980Y-36001770D01*
X37930500Y-35995163D01*
X37930500Y-35941969D01*
X37930576Y-35938083D01*
X37932548Y-35887896D01*
X37932548Y-35887894D01*
X37932838Y-35880506D01*
X37931041Y-35873728D01*
X37930500Y-35863902D01*
X37930500Y-32310501D01*
X37931186Y-32298865D01*
X37934494Y-32270912D01*
X37935364Y-32263564D01*
X37932698Y-32248963D01*
X37924752Y-32205460D01*
X37924241Y-32202391D01*
X37916549Y-32151229D01*
X37915449Y-32143912D01*
X37912321Y-32137399D01*
X37911025Y-32130301D01*
X37883801Y-32077892D01*
X37882412Y-32075112D01*
X37860013Y-32028466D01*
X37860011Y-32028463D01*
X37856809Y-32021795D01*
X37852703Y-32017353D01*
X37851180Y-32015093D01*
X37848579Y-32010086D01*
X37844275Y-32005046D01*
X37806643Y-31967414D01*
X37803949Y-31964611D01*
X37769876Y-31927750D01*
X37769873Y-31927748D01*
X37764854Y-31922318D01*
X37758790Y-31918796D01*
X37751465Y-31912236D01*
X35679496Y-29840267D01*
X35651719Y-29785750D01*
X35650500Y-29770263D01*
X35650500Y-27038331D01*
X35651186Y-27026695D01*
X35654494Y-26998742D01*
X35655364Y-26991394D01*
X35654035Y-26984118D01*
X35654035Y-26984114D01*
X35644750Y-26933278D01*
X35644239Y-26930210D01*
X35636549Y-26879060D01*
X35635449Y-26871743D01*
X35632321Y-26865230D01*
X35631025Y-26858132D01*
X35603793Y-26805707D01*
X35602403Y-26802926D01*
X35580012Y-26756297D01*
X35576809Y-26749626D01*
X35572705Y-26745186D01*
X35571180Y-26742923D01*
X35568579Y-26737916D01*
X35564275Y-26732877D01*
X35526643Y-26695245D01*
X35523949Y-26692442D01*
X35489876Y-26655581D01*
X35489873Y-26655579D01*
X35484854Y-26650149D01*
X35478790Y-26646627D01*
X35471465Y-26640067D01*
X34986883Y-26155485D01*
X34979141Y-26146772D01*
X34961717Y-26124670D01*
X34957136Y-26118859D01*
X34908515Y-26085255D01*
X34905992Y-26083452D01*
X34864403Y-26052733D01*
X34864401Y-26052732D01*
X34858448Y-26048335D01*
X34851632Y-26045942D01*
X34845695Y-26041838D01*
X34838636Y-26039605D01*
X34838635Y-26039605D01*
X34789906Y-26024194D01*
X34789335Y-26024013D01*
X34786450Y-26023051D01*
X34730633Y-26003450D01*
X34724591Y-26003213D01*
X34721917Y-26002692D01*
X34716534Y-26000989D01*
X34709927Y-26000469D01*
X34656723Y-26000469D01*
X34652836Y-26000393D01*
X34602661Y-25998421D01*
X34602658Y-25998421D01*
X34595270Y-25998131D01*
X34588492Y-25999928D01*
X34578667Y-26000469D01*
X30384019Y-26000470D01*
X27237360Y-26000470D01*
X27225724Y-25999784D01*
X27222530Y-25999406D01*
X27190423Y-25995606D01*
X27132300Y-26006221D01*
X27129253Y-26006728D01*
X27105861Y-26010245D01*
X27078086Y-26014421D01*
X27078085Y-26014421D01*
X27070771Y-26015521D01*
X27064261Y-26018647D01*
X27057160Y-26019944D01*
X27023544Y-26037405D01*
X27004738Y-26047174D01*
X27001960Y-26048562D01*
X26955333Y-26070953D01*
X26955329Y-26070955D01*
X26948654Y-26074161D01*
X26944215Y-26078265D01*
X26941954Y-26079789D01*
X26936945Y-26082390D01*
X26931905Y-26086694D01*
X26894260Y-26124339D01*
X26891458Y-26127032D01*
X26849177Y-26166116D01*
X26845656Y-26172178D01*
X26839101Y-26179498D01*
X26212893Y-26805707D01*
X25597597Y-27421003D01*
X25543080Y-27448780D01*
X25527593Y-27449999D01*
X25089980Y-27449999D01*
X25031789Y-27431092D01*
X25024122Y-27424916D01*
X24982823Y-27388120D01*
X24953976Y-27362418D01*
X24917559Y-27343136D01*
X24820105Y-27291536D01*
X24820102Y-27291535D01*
X24814831Y-27288744D01*
X24738479Y-27269566D01*
X24667918Y-27251842D01*
X24667915Y-27251842D01*
X24662128Y-27250388D01*
X24582564Y-27249972D01*
X24510650Y-27249595D01*
X24510648Y-27249595D01*
X24504684Y-27249564D01*
X24351588Y-27286319D01*
X24287502Y-27319396D01*
X24216985Y-27355792D01*
X24216983Y-27355794D01*
X24211679Y-27358531D01*
X24093034Y-27462032D01*
X24002501Y-27590847D01*
X23945309Y-27737538D01*
X23924758Y-27893637D01*
X23925414Y-27899575D01*
X23925393Y-27901535D01*
X23905877Y-27959525D01*
X23856004Y-27994969D01*
X23826398Y-27999499D01*
X22852612Y-27999499D01*
X22794421Y-27980592D01*
X22782608Y-27970503D01*
X20497468Y-25685363D01*
X20469691Y-25630846D01*
X20479262Y-25570414D01*
X20487070Y-25557597D01*
X20499224Y-25540683D01*
X20557950Y-25394598D01*
X20559994Y-25380240D01*
X20579678Y-25241929D01*
X20579678Y-25241925D01*
X20580134Y-25238723D01*
X20580278Y-25225000D01*
X20561363Y-25068694D01*
X20505710Y-24921412D01*
X20416531Y-24791657D01*
X20412078Y-24787690D01*
X20412075Y-24787686D01*
X20344557Y-24727531D01*
X20298976Y-24686919D01*
X20286462Y-24680293D01*
X20165105Y-24616037D01*
X20165102Y-24616036D01*
X20159831Y-24613245D01*
X20083479Y-24594067D01*
X20012918Y-24576343D01*
X20012915Y-24576343D01*
X20007128Y-24574889D01*
X19927564Y-24574473D01*
X19855650Y-24574096D01*
X19855648Y-24574096D01*
X19849684Y-24574065D01*
X19696588Y-24610820D01*
X19624035Y-24648267D01*
X19561985Y-24680293D01*
X19561983Y-24680295D01*
X19556679Y-24683032D01*
X19438034Y-24786533D01*
X19347501Y-24915348D01*
X19290309Y-25062039D01*
X19289531Y-25067950D01*
X19289530Y-25067953D01*
X19288653Y-25074616D01*
X19269758Y-25218138D01*
X19270413Y-25224071D01*
X19270413Y-25224075D01*
X19286330Y-25368251D01*
X19287035Y-25374633D01*
X19341143Y-25522490D01*
X19344472Y-25527444D01*
X19425629Y-25648219D01*
X19425632Y-25648223D01*
X19428958Y-25653172D01*
X19433368Y-25657184D01*
X19433375Y-25657193D01*
X19439883Y-25663114D01*
X19470198Y-25716261D01*
X19471569Y-25747971D01*
X19470665Y-25755613D01*
X19469636Y-25764308D01*
X19470965Y-25771584D01*
X19470965Y-25771587D01*
X19480248Y-25822412D01*
X19480758Y-25825474D01*
X19489551Y-25883960D01*
X19492679Y-25890473D01*
X19493975Y-25897571D01*
X19497386Y-25904137D01*
X19521198Y-25949978D01*
X19522588Y-25952760D01*
X19544987Y-25999406D01*
X19544989Y-25999409D01*
X19548191Y-26006077D01*
X19552297Y-26010519D01*
X19553820Y-26012779D01*
X19556421Y-26017786D01*
X19560725Y-26022826D01*
X19598357Y-26060458D01*
X19601051Y-26063261D01*
X19635124Y-26100122D01*
X19635127Y-26100124D01*
X19640146Y-26105554D01*
X19646210Y-26109076D01*
X19653535Y-26115636D01*
X21917894Y-28379995D01*
X21945671Y-28434512D01*
X21936100Y-28494944D01*
X21917894Y-28520003D01*
X18417579Y-32020318D01*
X18363062Y-32048095D01*
X18347059Y-32049313D01*
X18330589Y-32049227D01*
X18305650Y-32049096D01*
X18305648Y-32049096D01*
X18299684Y-32049065D01*
X18146588Y-32085820D01*
X18074035Y-32123267D01*
X18011985Y-32155293D01*
X18011983Y-32155295D01*
X18006679Y-32158032D01*
X17888034Y-32261533D01*
X17884605Y-32266412D01*
X17880497Y-32272257D01*
X17831568Y-32308994D01*
X17770390Y-32309954D01*
X17720331Y-32274772D01*
X17700500Y-32215331D01*
X17700500Y-19524500D01*
X17719407Y-19466309D01*
X17768907Y-19430345D01*
X17799500Y-19425500D01*
X24676086Y-19425500D01*
X24734277Y-19444407D01*
G37*
%TD.AperFunction*%
%TA.AperFunction,Conductor*%
G36*
X27075687Y-27808158D02*
G01*
X27115471Y-27847942D01*
X27116143Y-27847490D01*
X27119470Y-27852441D01*
X27119471Y-27852443D01*
X27200629Y-27973219D01*
X27200632Y-27973223D01*
X27203958Y-27978172D01*
X27208369Y-27982186D01*
X27208371Y-27982188D01*
X27315995Y-28080118D01*
X27320410Y-28084135D01*
X27389593Y-28121698D01*
X27453530Y-28156414D01*
X27453532Y-28156415D01*
X27458776Y-28159262D01*
X27519681Y-28175240D01*
X27605300Y-28197702D01*
X27605304Y-28197702D01*
X27611069Y-28199215D01*
X27617031Y-28199309D01*
X27617033Y-28199309D01*
X27673630Y-28200198D01*
X27731517Y-28220017D01*
X27742079Y-28229182D01*
X29874345Y-30361448D01*
X29902122Y-30415965D01*
X29903341Y-30431452D01*
X29903341Y-32478407D01*
X29884434Y-32536598D01*
X29874345Y-32548411D01*
X27672757Y-34750000D01*
X25517258Y-36905499D01*
X25462741Y-36933276D01*
X25402309Y-36923705D01*
X25381396Y-36909412D01*
X25294804Y-36832261D01*
X25294802Y-36832260D01*
X25290350Y-36828293D01*
X25285079Y-36825502D01*
X25156479Y-36757411D01*
X25156476Y-36757410D01*
X25151205Y-36754619D01*
X24998502Y-36716263D01*
X24984469Y-36716190D01*
X24926378Y-36696980D01*
X24914981Y-36687195D01*
X24879496Y-36651710D01*
X24851719Y-36597193D01*
X24850500Y-36581706D01*
X24850500Y-35496831D01*
X24869407Y-35438640D01*
X24918907Y-35402676D01*
X24960212Y-35398990D01*
X24961069Y-35399215D01*
X24967036Y-35399309D01*
X24967038Y-35399309D01*
X25029298Y-35400287D01*
X25118495Y-35401688D01*
X25131336Y-35398747D01*
X25266149Y-35367871D01*
X25266151Y-35367870D01*
X25271968Y-35366538D01*
X25277299Y-35363857D01*
X25407299Y-35298474D01*
X25407301Y-35298473D01*
X25412625Y-35295795D01*
X25532348Y-35193542D01*
X25624224Y-35065683D01*
X25682950Y-34919598D01*
X25705134Y-34763723D01*
X25705697Y-34763803D01*
X25728015Y-34709547D01*
X25733448Y-34703655D01*
X25995484Y-34441619D01*
X26004197Y-34433877D01*
X26026299Y-34416453D01*
X26032110Y-34411872D01*
X26065704Y-34363266D01*
X26067511Y-34360737D01*
X26098239Y-34319135D01*
X26098240Y-34319134D01*
X26102635Y-34313183D01*
X26105029Y-34306366D01*
X26109131Y-34300431D01*
X26126948Y-34244096D01*
X26127928Y-34241159D01*
X26145068Y-34192352D01*
X26145068Y-34192350D01*
X26147520Y-34185369D01*
X26147758Y-34179327D01*
X26148280Y-34176647D01*
X26149980Y-34171270D01*
X26150500Y-34164663D01*
X26150500Y-34111469D01*
X26150576Y-34107583D01*
X26152548Y-34057396D01*
X26152548Y-34057394D01*
X26152838Y-34050006D01*
X26151041Y-34043228D01*
X26150500Y-34033402D01*
X26150500Y-28965715D01*
X26169407Y-28907524D01*
X26176626Y-28898705D01*
X26177812Y-28897415D01*
X26182348Y-28893541D01*
X26274224Y-28765682D01*
X26318139Y-28656442D01*
X26330726Y-28625130D01*
X26330727Y-28625128D01*
X26332950Y-28619597D01*
X26342267Y-28554135D01*
X26354679Y-28466920D01*
X26354679Y-28466918D01*
X26355134Y-28463722D01*
X26355697Y-28463802D01*
X26378015Y-28409546D01*
X26383448Y-28403654D01*
X26960738Y-27826364D01*
X27015255Y-27798587D01*
X27075687Y-27808158D01*
G37*
%TD.AperFunction*%
%TD*%
M02*
