%TF.GenerationSoftware,KiCad,Pcbnew,6.0.11-3.fc37*%
%TF.CreationDate,2023-03-28T23:52:52+01:00*%
%TF.ProjectId,STMF411,53544d46-3431-4312-9e6b-696361645f70,1*%
%TF.SameCoordinates,Original*%
%TF.FileFunction,Soldermask,Bot*%
%TF.FilePolarity,Negative*%
%FSLAX46Y46*%
G04 Gerber Fmt 4.6, Leading zero omitted, Abs format (unit mm)*
G04 Created by KiCad (PCBNEW 6.0.11-3.fc37) date 2023-03-28 23:52:52*
%MOMM*%
%LPD*%
G01*
G04 APERTURE LIST*
%ADD10C,0.100000*%
%ADD11R,0.350000X2.000000*%
%ADD12C,0.800000*%
%ADD13C,6.400000*%
G04 APERTURE END LIST*
%TO.C,M1*%
G36*
X39350000Y-49075000D02*
G01*
X17350000Y-49075000D01*
X17350000Y-46375000D01*
X39350000Y-46375000D01*
X39350000Y-49075000D01*
G37*
D10*
X39350000Y-49075000D02*
X17350000Y-49075000D01*
X17350000Y-46375000D01*
X39350000Y-46375000D01*
X39350000Y-49075000D01*
%TD*%
D11*
%TO.C,M1*%
X37350000Y-47525000D03*
X36850000Y-47525000D03*
X36350000Y-47525000D03*
X35850000Y-47525000D03*
X35350000Y-47525000D03*
X34850000Y-47525000D03*
X34350000Y-47525000D03*
X33850000Y-47525000D03*
X33350000Y-47525000D03*
X32850000Y-47525000D03*
X32350000Y-47525000D03*
X29850000Y-47525000D03*
X29350000Y-47525000D03*
X28850000Y-47525000D03*
X28350000Y-47525000D03*
X27850000Y-47525000D03*
X27350000Y-47525000D03*
X26850000Y-47525000D03*
X26350000Y-47525000D03*
X25850000Y-47525000D03*
X25350000Y-47525000D03*
X24850000Y-47525000D03*
X24350000Y-47525000D03*
X23850000Y-47525000D03*
X23350000Y-47525000D03*
X22850000Y-47525000D03*
X22350000Y-47525000D03*
X21850000Y-47525000D03*
X21350000Y-47525000D03*
X20850000Y-47525000D03*
X20350000Y-47525000D03*
X19850000Y-47525000D03*
X19350000Y-47525000D03*
%TD*%
D12*
%TO.C,H1*%
X28350000Y-21475000D03*
X28350000Y-16675000D03*
X26652944Y-20772056D03*
X26652944Y-17377944D03*
D13*
X28350000Y-19075000D03*
D12*
X30047056Y-20772056D03*
X30750000Y-19075000D03*
X30047056Y-17377944D03*
X25950000Y-19075000D03*
%TD*%
M02*
