M48
; DRILL file {KiCad 6.0.11-3.fc37} date Tue 28 Mar 2023 23:52:53 BST
; FORMAT={-:-/ absolute / metric / decimal}
; #@! TF.CreationDate,2023-03-28T23:52:53+01:00
; #@! TF.GenerationSoftware,Kicad,Pcbnew,6.0.11-3.fc37
; #@! TF.FileFunction,Plated,1,2,PTH
FMAT,2
METRIC
; #@! TA.AperFunction,Plated,PTH,ViaDrill
T1C0.300
; #@! TA.AperFunction,Plated,PTH,ViaDrill
T2C0.400
; #@! TA.AperFunction,Plated,PTH,ComponentDrill
T3C0.500
; #@! TA.AperFunction,Plated,PTH,ComponentDrill
T4C3.200
%
G90
G05
T1
X18.05Y-33.65
X18.1Y-44.25
X18.125Y-19.875
X18.375Y-32.7
X19.575Y-27.1
X19.925Y-25.225
X20.9Y-32.025
X21.65Y-36.4
X23.3Y-37.35
X23.85Y-29.575
X24.1Y-37.35
X24.464Y-31.812
X24.464Y-31.063
X24.58Y-27.9
X24.81Y-27.13
X24.916Y-37.366
X25.05Y-34.75
X25.7Y-28.45
X26.625Y-29.525
X27.7Y-27.55
X28.5Y-27.55
X30.625Y-40.125
X30.65Y-44.425
X30.74Y-28.02
X31.125Y-27.35
X31.7Y-42.425
X31.899Y-27.35
X32.175Y-39.525
X32.649Y-27.35
X33.0Y-41.025
X33.398Y-27.35
X33.5Y-45.325
X33.77Y-29.785
X33.95Y-36.95
X33.95Y-43.275
X34.148Y-28.4
X34.25Y-27.45
X34.984Y-35.963
X35.489Y-33.85
X35.53Y-35.45
X35.781Y-36.191
X36.225Y-45.35
X36.25Y-38.525
X36.25Y-34.693
X36.3Y-33.865
X36.85Y-33.1
X36.901Y-36.51
X37.825Y-31.225
X37.95Y-40.325
X38.45Y-19.925
X38.55Y-44.2
X38.625Y-29.2
T2
X28.15Y-31.35
T3
X25.95Y-19.075
X26.653Y-17.378
X26.653Y-20.772
X28.35Y-16.675
X28.35Y-21.475
X30.047Y-17.378
X30.047Y-20.772
X30.75Y-19.075
T4
X28.35Y-19.075
T0
M30
