<?xml version="1.0" encoding="UTF-8" standalone="no"?>
<svg
   version="1.1"
   width="77.0mm"
   height="36.099998474121094mm"
   viewBox="0 0 77.0 36.099998474121094"
   id="svg128"
   sodipodi:docname="Full-brd.svg"
   inkscape:version="1.1.2 (0a00cf5339, 2022-02-04)"
   xmlns:inkscape="http://www.inkscape.org/namespaces/inkscape"
   xmlns:sodipodi="http://sodipodi.sourceforge.net/DTD/sodipodi-0.dtd"
   xmlns="http://www.w3.org/2000/svg"
   xmlns:svg="http://www.w3.org/2000/svg"
   xmlns:rdf="http://www.w3.org/1999/02/22-rdf-syntax-ns#"
   xmlns:cc="http://creativecommons.org/ns#"
   xmlns:dc="http://purl.org/dc/elements/1.1/">
  <defs
     id="defs132" />
  <sodipodi:namedview
     id="namedview130"
     pagecolor="#ffffff"
     bordercolor="#666666"
     borderopacity="1.0"
     inkscape:pageshadow="2"
     inkscape:pageopacity="0.0"
     inkscape:pagecheckerboard="0"
     inkscape:document-units="mm"
     showgrid="false"
     fit-margin-top="0"
     fit-margin-left="0"
     fit-margin-right="0"
     fit-margin-bottom="0"
     units="mm"
     inkscape:zoom="5.6568542"
     inkscape:cx="-171.73856"
     inkscape:cy="123.74369"
     inkscape:window-width="1920"
     inkscape:window-height="1023"
     inkscape:window-x="0"
     inkscape:window-y="0"
     inkscape:window-maximized="1"
     inkscape:current-layer="g10643"
     showguides="false" />
  <title
     id="title2">SVG Picture created as Full-brd.svg date 2022/03/23 15:49:51 </title>
  <desc
     id="desc4">Picture generated by PCBNEW </desc>
  <metadata
     id="metadata949">
    <rdf:RDF>
      <cc:Work
         rdf:about="">
        <dc:title>SVG Picture created as Full-brd.svg date 2022/03/23 15:49:51 </dc:title>
      </cc:Work>
    </rdf:RDF>
  </metadata>
  <g
     inkscape:label="B.SilkS"
     inkscape:groupmode="layer"
     id="g1157"
     style="display:inline">
    <g
       id="g61903"
       transform="translate(-1.515603)">
      <path
         style="color:#000000;display:inline;opacity:1;fill:#000000;fill-opacity:1;stroke:none;stroke-width:0.203;stroke-linecap:square;stroke-miterlimit:4;stroke-dasharray:none;stroke-opacity:1"
         d="m 14.642416,29.286811 2.008305,0.002 v 0.972464 c 4.66e-4,0.768679 0.62961,1.396479 1.398289,1.396308 0.768233,-4.64e-4 1.397822,-0.628071 1.398288,-1.396308 v -0.972464 l 2.010287,-0.002 v 2.008306 H 20.48314 c -0.768678,4.66e-4 -1.396478,0.629611 -1.396308,1.398288 4.66e-4,0.768236 0.628073,1.397826 1.396308,1.398289 h 0.974445 V 36.1 h -6.815169 v -2.008306 h 0.972464 c 0.768678,-4.63e-4 1.396478,-0.629609 1.396306,-1.398289 -4.65e-4,-0.768234 -0.628073,-1.397822 -1.396306,-1.398288 h -0.972464 z"
         id="path44990" />
      <path
         style="color:#000000;display:inline;opacity:1;fill:#000000;fill-opacity:1;stroke:none;stroke-width:0.203;stroke-linecap:square;stroke-miterlimit:4;stroke-dasharray:none;stroke-opacity:1"
         d="m 29.286811,29.286811 h 2.008306 v 0.974445 c 4.65e-4,0.768679 0.629611,1.396479 1.398288,1.396307 0.768236,-4.62e-4 1.395842,-0.628071 1.396309,-1.396307 v -0.972465 l 2.012267,-0.002 v 2.008307 h -0.974446 c -0.768676,4.65e-4 -1.396479,0.629609 -1.396307,1.398288 4.65e-4,0.768235 0.628073,1.395844 1.396307,1.396307 h 0.974446 v 2.010287 h -6.815169 v -2.010287 h 0.972463 c 0.768679,-4.63e-4 1.39648,-0.629607 1.396308,-1.398288 -4.65e-4,-0.768233 -0.628073,-1.395842 -1.396308,-1.396307 h -0.972463 z"
         id="path44996" />
      <path
         style="color:#000000;display:inline;opacity:1;fill:#000000;fill-opacity:1;stroke:none;stroke-width:0.203;stroke-linecap:square;stroke-miterlimit:4;stroke-dasharray:none;stroke-opacity:1"
         d="m 43.929226,29.286811 h 2.010287 v 0.974445 c 4.65e-4,0.768679 0.629609,1.396479 1.398288,1.396307 0.768235,-4.62e-4 1.395843,-0.628071 1.396307,-1.396307 v -0.972465 l 2.010288,-0.002 v 2.008307 h -0.972464 c -0.768679,4.65e-4 -1.396479,0.629609 -1.396308,1.398288 4.67e-4,0.768235 0.628073,1.395844 1.396308,1.396307 h 0.972464 v 2.010287 h -6.81517 v -2.010287 h 0.974444 c 0.768679,-4.63e-4 1.39648,-0.629607 1.396308,-1.398288 -4.66e-4,-0.768233 -0.628073,-1.395842 -1.396308,-1.396307 h -0.974444 z"
         id="path45002" />
      <path
         style="color:#000000;display:inline;opacity:1;fill:#000000;fill-opacity:1;stroke:none;stroke-width:0.203;stroke-linecap:square;stroke-miterlimit:4;stroke-dasharray:none;stroke-opacity:1"
         d="m 58.573622,29.286811 h 2.010286 v 0.974445 c 4.67e-4,0.768679 0.629611,1.396479 1.398289,1.396307 0.768234,-4.62e-4 1.395843,-0.628071 1.396307,-1.396307 v -0.972465 l 2.010287,-0.002 v 2.008307 h -0.972463 c -0.768679,4.65e-4 -1.396479,0.62961 -1.396308,1.398288 4.65e-4,0.768235 0.628074,1.395844 1.396308,1.396307 h 0.972463 v 2.010287 h -6.81517 v -2.010287 h 0.974445 c 0.768678,-4.63e-4 1.396479,-0.629607 1.396308,-1.398288 -4.65e-4,-0.768233 -0.628073,-1.395842 -1.396308,-1.396307 h -0.974445 z"
         id="path45008" />
      <path
         style="color:#000000;display:inline;opacity:1;fill:#000000;fill-opacity:1;stroke:none;stroke-width:0.203;stroke-linecap:square;stroke-miterlimit:4;stroke-dasharray:none;stroke-opacity:1"
         d="m 73.218018,0 h 6.813188 V 6.8131893 H 78.020921 V 5.8407253 C 78.020455,5.0720466 77.393292,4.4422657 76.624612,4.4424371 75.856377,4.4429018 75.226788,5.0724904 75.226325,5.8407253 v 0.972464 H 73.218018 V 4.2978548 h -1.481472 c -0.494434,-2.99e-4 -0.88898,-0.3968264 -0.88928,-0.8912602 -1.11e-4,-0.494729 0.394551,-0.8889802 0.88928,-0.8892796 h 1.481472 z"
         id="path45012" />
      <path
         style="color:#000000;display:inline;opacity:1;fill:#000000;fill-opacity:1;stroke:none;stroke-width:0.203;stroke-linecap:square;stroke-miterlimit:4;stroke-dasharray:none;stroke-opacity:1"
         d="m 7.3182368,7.3202173 h 2.010287 v 0.972464 c 4.653e-4,0.7686782 0.6296096,1.3984598 1.3982882,1.3982882 0.768235,-4.632e-4 1.395842,-0.6300528 1.396309,-1.3982882 v -0.972464 h 2.010287 V 9.837532 h 1.481472 c 0.494431,3e-4 0.888978,0.394847 0.889279,0.88928 1.08e-4,0.49473 -0.394551,0.890961 -0.889279,0.89126 h -1.481472 v 2.517315 h -2.517315 v 1.481473 c -2.99e-4,0.494434 -0.394849,0.888982 -0.889281,0.88928 -0.494729,1.1e-4 -0.8909606,-0.394551 -0.8912602,-0.88928 V 14.135387 H 7.3182368 V 12.1251 H 8.2926813 C 9.0613605,12.124636 9.6891581,11.49549 9.688989,10.726812 9.6885213,9.958578 9.0609155,9.3309698 8.2926813,9.3305043 H 7.3182368 Z"
         id="path45016" />
      <path
         style="color:#000000;display:inline;opacity:1;fill:#000000;fill-opacity:1;stroke:none;stroke-width:0.203;stroke-linecap:square;stroke-miterlimit:4;stroke-dasharray:none;stroke-opacity:1"
         d="m 21.962633,7.3202173 h 2.010287 v 0.972464 c 4.65e-4,0.7686785 0.629611,1.3984598 1.398289,1.3982882 0.768235,-4.632e-4 1.395842,-0.6300533 1.396307,-1.3982882 v -0.972464 h 2.010286 V 9.837532 h 1.479492 c 0.494433,3e-4 0.890961,0.394848 0.89126,0.88928 1.09e-4,0.49473 -0.396531,0.890961 -0.89126,0.89126 h -1.479492 v 2.517315 h -2.517315 v 1.481473 c -2.98e-4,0.494434 -0.394846,0.888982 -0.889278,0.88928 -0.494728,1.1e-4 -0.890962,-0.394551 -0.891261,-0.88928 V 14.135387 H 21.962633 V 12.1251 h 0.974443 c 0.768678,-4.64e-4 1.396477,-0.62961 1.396308,-1.398288 C 24.33292,9.958578 23.70531,9.3309698 22.937076,9.3305043 h -0.974443 z"
         id="path45020" />
      <path
         style="color:#000000;display:inline;opacity:1;fill:#000000;fill-opacity:1;stroke:none;stroke-width:0.203;stroke-linecap:square;stroke-miterlimit:4;stroke-dasharray:none;stroke-opacity:1"
         d="m 36.607028,7.3202173 h 2.010287 v 0.972464 c 4.67e-4,0.7686782 0.629609,1.3984598 1.398288,1.3982882 0.768235,-4.632e-4 1.395842,-0.6300531 1.396308,-1.3982882 v -0.972464 h 2.010287 V 9.837532 h 1.479491 c 0.494435,3e-4 0.890961,0.394848 0.891261,0.88928 1.09e-4,0.49473 -0.396531,0.890961 -0.891261,0.89126 h -1.479491 v 2.517315 h -2.517315 v 1.481473 c -2.97e-4,0.49377 -0.395776,0.887924 -0.88928,0.88928 -0.494728,1.1e-4 -0.89096,-0.394551 -0.89126,-0.88928 V 14.135387 H 36.607028 V 12.1251 h 0.972464 c 0.768677,-4.64e-4 1.398457,-0.62961 1.398289,-1.398288 -4.67e-4,-0.768234 -0.630055,-1.3958422 -1.398289,-1.3963077 h -0.972464 z"
         id="path45024" />
      <path
         style="color:#000000;display:inline;opacity:1;fill:#000000;fill-opacity:1;stroke:none;stroke-width:0.203;stroke-linecap:square;stroke-miterlimit:4;stroke-dasharray:none;stroke-opacity:1"
         d="m 51.251424,7.3202173 h 2.010287 v 0.972464 c 4.65e-4,0.7686787 0.627628,1.3984598 1.396307,1.3982882 0.768235,-4.632e-4 1.397824,-0.6300533 1.398288,-1.3982882 v -0.972464 h 2.010287 V 9.837532 h 1.479493 c 0.494432,3e-4 0.890961,0.394848 0.89126,0.88928 1.09e-4,0.49473 -0.396531,0.890961 -0.89126,0.89126 h -1.479493 v 2.517315 h -2.517315 v 1.481473 c -2.97e-4,0.494434 -0.396827,0.888982 -0.89126,0.88928 -0.494728,1.1e-4 -0.88898,-0.394551 -0.889279,-0.88928 V 14.135387 H 51.251424 V 12.1251 h 0.972463 c 0.768679,-4.64e-4 1.39846,-0.62961 1.398289,-1.398288 -4.64e-4,-0.768234 -0.630054,-1.3958422 -1.398289,-1.3963077 h -0.972463 z"
         id="path45028" />
      <path
         style="color:#000000;display:inline;opacity:1;fill:#000000;fill-opacity:1;stroke:none;stroke-width:0.203;stroke-linecap:square;stroke-miterlimit:4;stroke-dasharray:none;stroke-opacity:1"
         d="m 65.89582,7.3202173 h 2.008307 v 0.972464 c 4.65e-4,0.7686785 0.62961,1.3984598 1.398287,1.3982882 0.768236,-4.632e-4 1.397823,-0.6300533 1.39829,-1.3982882 v -0.972464 h 2.010285 V 9.837532 h 1.479494 c 0.494432,3e-4 0.88898,0.394848 0.889279,0.88928 1.08e-4,0.49473 -0.394553,0.890961 -0.889279,0.89126 h -1.479494 v 2.517315 h -2.517314 v 1.481473 c -2.99e-4,0.494435 -0.396828,0.888982 -0.891261,0.88928 -0.494727,1.1e-4 -0.890961,-0.394551 -0.89126,-0.88928 V 14.135387 H 65.89582 V 12.1251 h 0.972465 c 0.768676,-4.64e-4 1.396477,-0.62961 1.396306,-1.398288 C 68.264127,9.958578 67.636517,9.3309698 66.868285,9.3305043 H 65.89582 Z"
         id="path45032" />
      <path
         style="color:#000000;display:inline;opacity:1;fill:#000000;fill-opacity:1;stroke:none;stroke-width:0.203;stroke-linecap:square;stroke-miterlimit:4;stroke-dasharray:none;stroke-opacity:1"
         d="m 14.640436,14.642415 h 2.010285 v 0.974445 c 4.66e-4,0.768678 0.62961,1.396479 1.398289,1.396308 0.768233,-4.66e-4 1.395842,-0.628074 1.396307,-1.396308 v -0.974445 h 2.010287 v 2.517315 h 1.481472 c 0.493505,0.0013 0.888981,0.39551 0.88928,0.88928 1.1e-4,0.494727 -0.396531,0.890963 -0.89126,0.89126 h -1.479492 v 2.517315 l -2.517315,0.002 v 1.479493 c -2.98e-4,0.494431 -0.394848,0.88898 -0.889278,0.889279 -0.494729,1.11e-4 -0.890962,-0.394551 -0.891261,-0.889279 v -1.479493 l -2.517314,-0.002 v -2.010287 h 0.974444 c 0.768679,-4.63e-4 1.396478,-0.62961 1.396306,-1.398288 -4.64e-4,-0.768235 -0.628073,-1.395842 -1.396306,-1.396308 h -0.974444 z"
         id="path45036" />
      <path
         style="color:#000000;display:inline;opacity:1;fill:#000000;fill-opacity:1;stroke:none;stroke-width:0.203;stroke-linecap:square;stroke-miterlimit:4;stroke-dasharray:none;stroke-opacity:1"
         d="m 29.284831,14.642415 h 2.010287 v 0.974445 c 4.65e-4,0.768678 0.629608,1.396479 1.398288,1.396308 0.768234,-4.64e-4 1.395841,-0.628074 1.396308,-1.396308 V 14.642415 H 36.1 v 2.517315 h 1.479492 c 0.494436,2.99e-4 0.89096,0.394846 0.891261,0.88928 1.09e-4,0.494728 -0.396532,0.890963 -0.891261,0.89126 H 36.1 v 2.517315 l -2.517315,0.002 v 1.479493 c -2.98e-4,0.494431 -0.394849,0.88898 -0.88928,0.889279 -0.494729,1.11e-4 -0.89096,-0.394551 -0.89126,-0.889279 v -1.479493 l -2.517315,-0.002 v -2.010287 h 0.974444 c 0.76868,-4.63e-4 1.39648,-0.62961 1.396308,-1.398288 -4.63e-4,-0.768236 -0.628072,-1.395842 -1.396308,-1.396308 H 29.28483 Z"
         id="path45040" />
      <path
         style="color:#000000;display:inline;opacity:1;fill:#000000;fill-opacity:1;stroke:none;stroke-width:0.203;stroke-linecap:square;stroke-miterlimit:4;stroke-dasharray:none;stroke-opacity:1"
         d="m 43.929226,14.642415 h 2.010287 v 0.974445 c 4.65e-4,0.768678 0.629609,1.396479 1.398288,1.396308 0.768235,-4.66e-4 1.395843,-0.628074 1.396307,-1.396308 v -0.974445 h 2.010288 v 2.517315 h 1.479492 c 0.494433,2.98e-4 0.89096,0.394845 0.891261,0.88928 1.09e-4,0.494728 -0.396532,0.890963 -0.891261,0.89126 h -1.479492 v 2.517315 l -2.517316,0.002 v 1.479493 c -2.97e-4,0.494431 -0.396827,0.88898 -0.89126,0.889279 -0.494728,1.11e-4 -0.88898,-0.394551 -0.889279,-0.889279 v -1.479493 l -2.517315,-0.002 v -2.010287 h 0.972463 c 0.768679,-4.63e-4 1.398458,-0.629611 1.398289,-1.398288 -4.66e-4,-0.768235 -0.630053,-1.395845 -1.398289,-1.396308 h -0.972463 z"
         id="path45044" />
      <path
         style="color:#000000;display:inline;opacity:1;fill:#000000;fill-opacity:1;stroke:none;stroke-width:0.203;stroke-linecap:square;stroke-miterlimit:4;stroke-dasharray:none;stroke-opacity:1"
         d="m 58.573622,14.642415 h 2.010286 v 0.974445 c 4.67e-4,0.768678 0.627631,1.396479 1.396308,1.396308 0.768235,-4.66e-4 1.397824,-0.628074 1.398288,-1.396308 v -0.974445 h 2.010287 v 2.517315 h 1.479494 c 0.494432,2.99e-4 0.88898,0.394846 0.889279,0.88928 1.08e-4,0.494728 -0.394553,0.890963 -0.889279,0.89126 h -1.479494 v 2.517315 l -2.517315,0.002 v 1.479493 c -2.97e-4,0.494431 -0.396825,0.88898 -0.89126,0.889279 -0.494726,1.11e-4 -0.88898,-0.394551 -0.889279,-0.889279 v -1.479493 l -2.517316,-0.002 v -2.010287 h 0.972465 c 0.768679,-4.63e-4 1.398457,-0.629611 1.398288,-1.398288 -4.65e-4,-0.768235 -0.630054,-1.395842 -1.398288,-1.396308 h -0.972465 z"
         id="path45048" />
      <path
         style="color:#000000;display:inline;opacity:1;fill:#000000;fill-opacity:1;stroke:none;stroke-width:0.203;stroke-linecap:square;stroke-miterlimit:4;stroke-dasharray:none;stroke-opacity:1"
         d="m 7.3182368,21.964613 h 2.010287 v 0.974445 c 4.653e-4,0.768678 0.6296093,1.396479 1.3982882,1.396308 0.768234,-4.67e-4 1.395842,-0.628073 1.396308,-1.396308 v -0.974445 h 2.010287 v 2.517315 h 1.481472 c 0.494432,2.98e-4 0.888979,0.394844 0.889279,0.88928 1.09e-4,0.494729 -0.39455,0.89096 -0.889279,0.89126 h -1.481471 v 2.517315 l -2.517315,0.002 v 1.479492 c -2.99e-4,0.494432 -0.394848,0.888981 -0.889281,0.88928 -0.494729,1.09e-4 -0.8909606,-0.394551 -0.8912602,-0.88928 v -1.479492 l -2.517315,-0.002 V 26.769496 H 8.2926813 C 9.0613605,26.769031 9.6891581,26.139885 9.688989,25.371208 9.6885213,24.602973 9.0609161,23.975362 8.2926813,23.9749 H 7.3182368 Z"
         id="path45052" />
      <path
         style="color:#000000;display:inline;opacity:1;fill:#000000;fill-opacity:1;stroke:none;stroke-width:0.203;stroke-linecap:square;stroke-miterlimit:4;stroke-dasharray:none;stroke-opacity:1"
         d="m 21.962633,21.964613 h 2.010287 v 0.974445 c 4.65e-4,0.768678 0.629611,1.396479 1.398289,1.396308 0.768233,-4.67e-4 1.395842,-0.628074 1.396307,-1.396308 v -0.974445 h 2.010286 v 2.517315 h 1.479492 c 0.494432,2.98e-4 0.890961,0.394844 0.89126,0.88928 1.09e-4,0.494729 -0.396531,0.89096 -0.89126,0.89126 h -1.479492 v 2.517315 l -2.517315,0.002 v 1.479492 c -2.98e-4,0.494432 -0.394846,0.888981 -0.889278,0.88928 -0.494729,1.09e-4 -0.890962,-0.394551 -0.891261,-0.88928 v -1.479492 l -2.517315,-0.002 v -2.010287 h 0.974443 c 0.768678,-4.65e-4 1.396477,-0.629611 1.396308,-1.398288 -4.64e-4,-0.768236 -0.628073,-1.395846 -1.396308,-1.396308 h -0.974443 z"
         id="path45056" />
      <path
         style="color:#000000;display:inline;opacity:1;fill:#000000;fill-opacity:1;stroke:none;stroke-width:0.203;stroke-linecap:square;stroke-miterlimit:4;stroke-dasharray:none;stroke-opacity:1"
         d="m 36.607028,21.964613 h 2.010287 v 0.974445 c 4.67e-4,0.768678 0.629609,1.396479 1.398288,1.396308 0.768234,-4.67e-4 1.395842,-0.628074 1.396308,-1.396308 v -0.974445 h 2.010287 v 2.517315 h 1.479491 c 0.494434,2.98e-4 0.890961,0.394844 0.891261,0.88928 1.09e-4,0.494729 -0.396531,0.89096 -0.891261,0.89126 h -1.479491 v 2.517315 l -2.517315,0.002 v 1.479492 c -2.97e-4,0.493769 -0.395776,0.887923 -0.88928,0.88928 -0.494729,1.09e-4 -0.89096,-0.39455 -0.89126,-0.88928 v -1.479492 l -2.517315,-0.002 v -2.010287 h 0.972464 c 0.768677,-4.65e-4 1.398457,-0.629611 1.398289,-1.398288 -4.67e-4,-0.768236 -0.630055,-1.395846 -1.398289,-1.396308 h -0.972464 z"
         id="path45060" />
      <path
         style="color:#000000;display:inline;opacity:1;fill:#000000;fill-opacity:1;stroke:none;stroke-width:0.203;stroke-linecap:square;stroke-miterlimit:4;stroke-dasharray:none;stroke-opacity:1"
         d="m 51.251424,21.964613 h 2.010287 v 0.974445 c 4.65e-4,0.768678 0.627628,1.396479 1.396307,1.396308 0.768234,-4.67e-4 1.397824,-0.628074 1.398288,-1.396308 v -0.974445 h 2.010287 v 2.517315 h 1.479493 c 0.494432,2.98e-4 0.890961,0.394844 0.89126,0.88928 1.09e-4,0.494729 -0.396531,0.89096 -0.89126,0.89126 h -1.479493 v 2.517315 l -2.517315,0.002 v 1.479492 c -2.97e-4,0.494432 -0.396827,0.888981 -0.89126,0.88928 -0.494728,1.09e-4 -0.88898,-0.394551 -0.889279,-0.88928 v -1.479492 l -2.517315,-0.002 v -2.010287 h 0.972463 c 0.768679,-4.65e-4 1.39846,-0.629611 1.398289,-1.398288 -4.65e-4,-0.768236 -0.630054,-1.395846 -1.398289,-1.396308 h -0.972463 z"
         id="path45064" />
      <path
         style="color:#000000;display:inline;opacity:1;fill:#000000;fill-opacity:1;stroke:none;stroke-width:0.203;stroke-linecap:square;stroke-miterlimit:4;stroke-dasharray:none;stroke-opacity:1"
         d="m 65.89582,21.964613 h 2.008307 v 0.974445 c 4.65e-4,0.768678 0.62961,1.396479 1.398287,1.396308 0.768236,-4.67e-4 1.397823,-0.628074 1.39829,-1.396308 v -0.974445 h 2.010285 v 2.517315 h 1.479494 c 0.494432,2.98e-4 0.88898,0.394844 0.889279,0.88928 1.08e-4,0.494729 -0.394553,0.89096 -0.889279,0.89126 h -1.479494 v 2.517315 l -2.517314,0.002 v 1.479492 c -2.99e-4,0.494433 -0.396827,0.888981 -0.891261,0.88928 -0.494727,1.09e-4 -0.890961,-0.394551 -0.89126,-0.88928 v -1.479492 l -2.515334,-0.002 v -2.010287 h 0.972465 c 0.768676,-4.65e-4 1.396477,-0.629611 1.396306,-1.398288 -4.65e-4,-0.768236 -0.628073,-1.395846 -1.396306,-1.396308 H 65.89582 Z"
         id="path45068" />
      <path
         style="color:#000000;display:inline;opacity:1;fill:#000000;fill-opacity:1;stroke:none;stroke-width:0.203;stroke-linecap:square;stroke-miterlimit:4;stroke-dasharray:none;stroke-opacity:1"
         d="m 0,29.286811 h 2.010287 v 0.974445 c 4.65e-4,0.768678 0.6276291,1.396479 1.3963076,1.396307 0.7682349,-4.64e-4 1.3978236,-0.628073 1.3982884,-1.396307 v -0.974445 h 2.0083063 v 2.008306 H 5.8387448 c -0.7686789,4.65e-4 -1.3964791,0.62961 -1.3963077,1.398288 4.647e-4,0.768236 0.6280728,1.397825 1.3963077,1.398289 H 6.8131893 V 36.1 H 0 Z"
         id="path45072" />
      <path
         style="color:#000000;display:inline;opacity:1;fill:#000000;fill-opacity:1;stroke:none;stroke-width:0.203;stroke-linecap:square;stroke-miterlimit:4;stroke-dasharray:none;stroke-opacity:1"
         d="m 76.624612,26.91804 c 0.49473,-1.11e-4 0.888981,0.39455 0.88928,0.889279 v 1.479492 h 2.517314 V 36.1 h -6.813188 v -2.008306 h 0.974445 c 0.768679,-4.64e-4 1.396478,-0.62961 1.396308,-1.398289 -4.64e-4,-0.768235 -0.628072,-1.397823 -1.396308,-1.398288 h -0.974445 v -2.008306 h 2.515334 v -1.479492 c 2.98e-4,-0.494434 0.396826,-0.88898 0.89126,-0.889279 z"
         id="path45076" />
      <path
         style="color:#000000;display:inline;opacity:1;fill:#000000;fill-opacity:1;stroke:none;stroke-width:0.203;stroke-linecap:square;stroke-miterlimit:4;stroke-dasharray:none;stroke-opacity:1"
         d="M 0,0 H 6.8131893 V 2.010287 H 5.8387448 C 5.0700661,2.0107517 4.442266,2.6379159 4.4424371,3.4065946 v 0.00198 c 4.644e-4,0.7682358 0.6280726,1.3958439 1.3963077,1.3963083 H 6.8131893 V 6.8131893 H 4.2978549 v 1.479492 C 4.2975558,8.7871151 3.9010284,9.1836426 3.4065946,9.1839415 2.9118656,9.1840516 2.5176143,8.7874103 2.517315,8.2926813 V 6.8131893 H 0 Z"
         id="path45080" />
      <path
         style="color:#000000;display:inline;opacity:1;fill:#000000;fill-opacity:1;stroke:none;stroke-width:0.203;stroke-linecap:square;stroke-miterlimit:4;stroke-dasharray:none;stroke-opacity:1"
         d="m 14.642416,0 h 6.813188 V 2.010287 H 20.48314 c -0.768678,4.65e-4 -1.396478,0.6276291 -1.396308,1.3963076 v 0.00198 c 4.65e-4,0.7682349 0.628073,1.395843 1.396308,1.3963076 h 0.972464 V 6.8131918 H 18.94027 v 1.479492 C 18.939972,8.7871174 18.543444,9.1836449 18.049011,9.183944 17.55428,9.1840543 17.158049,8.787413 17.15775,8.2926838 V 6.8131893 H 14.642416 V 4.2978548 h -1.479492 -0.002 c -0.493485,-0.00136 -0.888961,-0.3974896 -0.889259,-0.8912602 -1.1e-4,-0.4940655 0.39548,-0.8879218 0.889279,-0.8892796 h 1.481473 z"
         id="path45084" />
      <path
         style="color:#000000;display:inline;opacity:1;fill:#000000;fill-opacity:1;stroke:none;stroke-width:0.203;stroke-linecap:square;stroke-miterlimit:4;stroke-dasharray:none;stroke-opacity:1"
         d="m 43.929226,0 h 6.813189 v 2.010287 h -0.972462 c -0.768679,4.644e-4 -1.396479,0.6276287 -1.39631,1.3963076 v 0.00198 c 4.64e-4,0.7682354 0.628073,1.3958436 1.39631,1.3963076 h 0.972462 V 6.8131918 H 48.2251 v 1.479492 C 48.224801,8.787118 47.830255,9.1836457 47.33582,9.183944 46.841091,9.1840543 46.44486,8.787413 46.444561,8.2926838 V 6.8131893 H 43.929226 V 4.2978548 h -1.481473 c -0.494434,-2.99e-4 -0.888981,-0.3968264 -0.88928,-0.8912602 -1.09e-4,-0.494729 0.394551,-0.8889802 0.88928,-0.8892796 h 1.481473 z"
         id="path45088" />
      <path
         style="color:#000000;display:inline;opacity:1;fill:#000000;fill-opacity:1;stroke:none;stroke-width:0.203;stroke-linecap:square;stroke-miterlimit:4;stroke-dasharray:none;stroke-opacity:1"
         d="m 58.571641,0 h 6.81517 v 2.010287 h -0.972464 c -0.768679,4.65e-4 -1.396479,0.6276291 -1.396307,1.3963076 v 0.00198 c 4.64e-4,0.7682349 0.628072,1.395843 1.396307,1.3963076 h 0.972464 v 2.0083096 h -2.517315 v 1.479492 c -3e-4,0.4944336 -0.394846,0.8909611 -0.88928,0.8912602 -0.494728,1.103e-4 -0.890961,-0.396531 -0.89126,-0.8912602 V 6.8131893 H 58.571641 V 4.2978548 H 57.092149 C 56.597715,4.2975562 56.203168,3.9010287 56.202871,3.4065946 56.202759,2.9118653 56.59742,2.5176139 57.092149,2.517315 h 1.479492 z"
         id="path45092" />
      <path
         style="color:#000000;display:inline;opacity:1;fill:#000000;fill-opacity:1;stroke:none;stroke-width:0.203;stroke-linecap:square;stroke-miterlimit:4;stroke-dasharray:none;stroke-opacity:1"
         d="m 76.624612,12.273644 c 0.49473,-1.11e-4 0.888981,0.39455 0.88928,0.88928 v 1.479491 h 2.517314 v 6.81517 h -2.010285 v -0.972464 c -4.64e-4,-0.768679 -0.627629,-1.396479 -1.396309,-1.396307 -0.768235,4.64e-4 -1.397824,0.628072 -1.398287,1.396307 v 0.972464 h -2.008307 v -2.010287 h 0.974445 c 0.768679,-4.65e-4 1.396479,-0.629609 1.396308,-1.398288 -4.64e-4,-0.768236 -0.628072,-1.395843 -1.396308,-1.396308 h -0.974445 v -2.010287 h 2.515334 v -1.479491 c 2.99e-4,-0.494435 0.396826,-0.888981 0.89126,-0.88928 z"
         id="path45096" />
      <path
         style="color:#000000;display:inline;opacity:1;fill:#000000;fill-opacity:1;stroke:none;stroke-width:0.203;stroke-linecap:square;stroke-miterlimit:4;stroke-dasharray:none;stroke-opacity:1"
         d="m 0,14.642415 h 2.010287 v 0.974445 c 4.65e-4,0.768678 0.6276291,1.396478 1.3963076,1.396308 0.7682349,-4.65e-4 1.3978236,-0.628073 1.3982884,-1.396308 v -0.974445 h 2.0083063 v 2.517315 h 1.479492 c 0.494434,2.99e-4 0.888981,0.394846 0.8892796,0.88928 1.094e-4,0.494728 -0.394551,0.890961 -0.8892796,0.89126 h -1.479492 v 2.517315 H 4.2978549 v 1.481473 c -2.991e-4,0.494433 -0.3968265,0.88898 -0.8912603,0.889279 -0.494729,1.1e-4 -0.8889802,-0.394551 -0.8892796,-0.889279 V 21.457585 H 0 Z"
         id="path45100" />
      <path
         style="color:#000000;display:inline;opacity:1;fill:#000000;fill-opacity:1;stroke:none;stroke-width:0.203;stroke-linecap:square;stroke-miterlimit:4;stroke-dasharray:none;stroke-opacity:1"
         d="M 29.286811,0 H 36.1 v 2.010287 h -0.972465 c -0.768678,4.644e-4 -1.396476,0.6276287 -1.396307,1.3963076 v 0.00198 c 4.64e-4,0.7682354 0.628073,1.3958436 1.396307,1.3963076 H 36.1 v 2.0083096 h -2.517315 v 1.479492 c -2.99e-4,0.4944345 -0.394845,0.8909625 -0.88928,0.8912602 -0.494727,1.098e-4 -0.89096,-0.3965313 -0.89126,-0.8912602 V 6.8131893 H 29.286811 V 4.2978548 H 27.805339 C 27.310904,4.2975562 26.916357,3.9010287 26.916058,3.4065946 26.915949,2.9118653 27.31061,2.5176139 27.805339,2.517315 h 1.481473 z"
         id="path45104" />
    </g>
  </g>
  <g
     inkscape:groupmode="layer"
     id="layer1"
     inkscape:label="kicad"
     style="display:inline"
     sodipodi:insensitive="true">
    <g
       style="fill:#000000;fill-opacity:1;stroke:#000000;stroke-linecap:round;stroke-linejoin:round;stroke-opacity:1"
       id="g6"
       transform="matrix(1e-6,0,0,1e-6,-4.9499999,-4.9499999)" />
    <g
       style="fill:#000000;fill-opacity:0;stroke:#000000;stroke-width:0;stroke-linecap:round;stroke-linejoin:round;stroke-opacity:1"
       id="g8"
       transform="matrix(1e-6,0,0,1e-6,-4.9499999,-4.9499999)" />
    <g
       style="fill:#c8a339;fill-opacity:0;stroke:#c8a339;stroke-width:0;stroke-linecap:round;stroke-linejoin:round;stroke-opacity:1"
       id="g10"
       transform="matrix(1e-6,0,0,1e-6,-4.9499999,-4.9499999)" />
    <g
       style="fill:#c8a339;fill-opacity:0;stroke:#c8a339;stroke-width:100000;stroke-linecap:round;stroke-linejoin:round;stroke-opacity:1"
       id="g126"
       transform="matrix(1e-6,0,0,1e-6,-4.9499999,-4.9499999)">
      <path
         d="M 81900000,7750000 A 2749999,2749999 0 0 0 79150000,5000000"
         id="path12" />
      <path
         d="M 7750000,5000000 A 2749999,2749999 0 0 0 5000000,7750000"
         id="path14" />
      <path
         d="M 7750000,41000000 H 79150000"
         id="path16" />
      <path
         d="M 79150000,5000000 H 7750000"
         id="path18" />
      <path
         d="M 5000000,7750000 V 38250000"
         id="path20" />
      <path
         d="M 81900000,38250000 V 7750000"
         id="path22" />
      <path
         d="m 5000000,38250000 a 2749999,2749999 0 0 0 2750000,2750000"
         id="path24" />
      <path
         d="m 79150000,41000000 a 2749999,2749999 0 0 0 2750000,-2750000"
         id="path26" />
      <g
         id="g28" />
      <g
         id="g30" />
      <g
         id="g32" />
      <g
         id="g34" />
      <g
         id="g36" />
      <g
         id="g38" />
      <g
         id="g40" />
      <g
         id="g42" />
      <g
         id="g44" />
      <g
         id="g46" />
      <g
         id="g48" />
      <g
         id="g50" />
      <g
         id="g52" />
      <g
         id="g54" />
      <g
         id="g56" />
      <g
         id="g58" />
      <g
         id="g60" />
      <g
         id="g62" />
      <g
         id="g64" />
      <g
         id="g66" />
      <g
         id="g68" />
      <g
         id="g70" />
      <g
         id="g72" />
      <g
         id="g74" />
      <g
         id="g76" />
      <g
         id="g78" />
      <g
         id="g80" />
      <g
         id="g82" />
      <g
         id="g84" />
      <g
         id="g86" />
      <g
         id="g88" />
      <g
         id="g90" />
      <g
         id="g92" />
      <g
         id="g94" />
      <g
         id="g96" />
      <g
         id="g98" />
      <g
         id="g100" />
      <g
         id="g102" />
      <g
         id="g104" />
      <g
         id="g106" />
      <g
         id="g108" />
      <g
         id="g110" />
      <g
         id="g112" />
      <g
         id="g114" />
      <g
         id="g116" />
      <g
         id="g118" />
      <g
         id="g120" />
      <g
         id="g122" />
      <g
         id="g124" />
    </g>
  </g>
  <g
     inkscape:label="B.Cu"
     inkscape:groupmode="layer"
     id="g10643"
     style="display:inline;opacity:1">
    <path
       id="rect5875-2"
       style="display:inline;fill:#ffff00;fill-opacity:1;stroke:none;stroke-width:0.1;stroke-linecap:square;stroke-miterlimit:4;stroke-dasharray:none;stroke-opacity:1"
       d="m 27.661246,-36.568044 v 1.37511 h -0.670244 a 0.62514598,0.62514598 0 0 0 -0.624768,0.625285 0.62514598,0.62514598 0 0 0 0.624768,0.624768 h 0.670244 v 1.374593 h 1.37511 v -0.670243 a 0.62514598,0.62514598 0 0 1 0.624768,-0.624768 0.62514598,0.62514598 0 0 1 0.625285,0.624768 v 0.670243 h 1.374593 v -3.999756 z" />
    <path
       id="rect5875-6-2"
       style="display:inline;fill:#00ff00;fill-opacity:1;stroke:none;stroke-width:0.1;stroke-linecap:square;stroke-miterlimit:4;stroke-dasharray:none;stroke-opacity:1"
       d="m -4.3450782,-32.568288 v 1.37511 h 0.670244 c 0.344963,2.09e-4 0.624559,0.279805 0.624768,0.624768 7.6e-5,0.345165 -0.279603,0.625076 -0.624768,0.625284 h -0.670244 v 1.375627 l 1.375119,5.17e-4 v 0 0 0.670243 c 2.09e-4,0.345166 0.28012,0.624845 0.625285,0.624768 0.344963,-2.08e-4 0.62456,-0.279804 0.624768,-0.624768 v -0.670243 0 0 l 1.37562705,-5.17e-4 v -1.375627 h 0.670243 c 0.345165,-2.08e-4 0.624844,-0.280119 0.624768,-0.625284 -2.09e-4,-0.344963 -0.279805,-0.624559 -0.624768,-0.624768 h -0.670243 v -1.37511 H -1.7199062 v 0.670243 c -2.09e-4,0.344964 -0.279805,0.62456 -0.624768,0.624768 -0.345165,7.7e-5 -0.625076,-0.279602 -0.625285,-0.624768 v -0.670243 z"
       sodipodi:nodetypes="ccccccccccccccccccccccccccccc" />
    <path
       id="rect5875-6-2-99"
       style="display:inline;fill:#00ff00;fill-opacity:1;stroke:none;stroke-width:0.1;stroke-linecap:square;stroke-miterlimit:4;stroke-dasharray:none;stroke-opacity:1"
       d="m -8.3458772,-32.568288 v 1.37511 h 0.670243 c 0.344963,2.09e-4 0.624559,0.279805 0.624769,0.624768 7.6e-5,0.345165 -0.279603,0.625076 -0.624769,0.625284 h -0.670243 v 1.375627 l 1.375118,5.17e-4 v 0 0 0.670243 c 2.09e-4,0.345166 0.28012,0.624845 0.625285,0.624768 0.344963,-2.08e-4 0.624561,-0.279804 0.624769,-0.624768 v -0.670243 0 0 l 1.375627,-5.17e-4 v -1.375627 h 0.670243 c 0.345165,-2.08e-4 0.624844,-0.280119 0.624768,-0.625284 -2.09e-4,-0.344963 -0.279805,-0.624559 -0.624768,-0.624768 h -0.670243 v -1.37511 h -1.375627 v 0.670243 c -2.09e-4,0.344964 -0.279806,0.62456 -0.624769,0.624768 -0.345165,7.7e-5 -0.625076,-0.279602 -0.625285,-0.624768 v -0.670243 z"
       sodipodi:nodetypes="ccccccccccccccccccccccccccccc" />
    <path
       id="rect5875-6-2-5"
       style="display:inline;fill:#00ff00;fill-opacity:1;stroke:none;stroke-width:0.1;stroke-linecap:square;stroke-miterlimit:4;stroke-dasharray:none;stroke-opacity:1"
       d="m -0.34427915,-32.568288 v 1.37511 h 0.670244 c 0.344963,2.09e-4 0.624559,0.279805 0.624768,0.624768 7.6e-5,0.345165 -0.279603,0.625076 -0.624768,0.625284 h -0.670244 v 1.375627 l 1.37511895,5.17e-4 v 0 0 0.670243 c 2.09e-4,0.345166 0.28012,0.624845 0.625285,0.624768 0.344963,-2.08e-4 0.62456,-0.279804 0.624768,-0.624768 v -0.670243 0 0 l 1.375627,-5.17e-4 v -1.375627 h 0.670243 c 0.345165,-2.08e-4 0.624844,-0.280119 0.624768,-0.625284 -2.09e-4,-0.344963 -0.279805,-0.624559 -0.624768,-0.624768 h -0.670243 v -1.37511 h -1.375627 v 0.670243 c -2.09e-4,0.344964 -0.279805,0.62456 -0.624768,0.624768 -0.345165,7.7e-5 -0.625076,-0.279602 -0.625285,-0.624768 v -0.670243 z"
       sodipodi:nodetypes="ccccccccccccccccccccccccccccc" />
    <path
       id="rect5875-6-2-9"
       style="display:inline;fill:#00ff00;fill-opacity:1;stroke:none;stroke-width:0.1;stroke-linecap:square;stroke-miterlimit:4;stroke-dasharray:none;stroke-opacity:1"
       d="m 3.6565198,-32.568288 v 1.37511 h 0.670244 c 0.344964,2.09e-4 0.62456,0.279805 0.624768,0.624768 7.7e-5,0.345165 -0.279602,0.625076 -0.624768,0.625284 h -0.670244 v 1.375627 l 1.375119,5.17e-4 v 0 0 0.670243 c 2.09e-4,0.345166 0.28012,0.624845 0.625286,0.624768 0.344962,-2.08e-4 0.62456,-0.279804 0.624768,-0.624768 v -0.670243 0 0 l 1.375627,-5.17e-4 v -1.375627 h 0.670242 c 0.345166,-2.08e-4 0.624845,-0.280119 0.624769,-0.625284 -2.09e-4,-0.344963 -0.279805,-0.624559 -0.624769,-0.624768 h -0.670242 v -1.37511 h -1.375627 v 0.670243 c -2.09e-4,0.344964 -0.279806,0.62456 -0.624768,0.624768 -0.345166,7.7e-5 -0.625077,-0.279602 -0.625286,-0.624768 v -0.670243 z"
       sodipodi:nodetypes="ccccccccccccccccccccccccccccc" />
    <path
       id="rect5875-6-2-3"
       style="display:inline;fill:#00ff00;fill-opacity:1;stroke:none;stroke-width:0.1;stroke-linecap:square;stroke-miterlimit:4;stroke-dasharray:none;stroke-opacity:1"
       d="m 7.6573198,-32.568288 v 1.37511 h 0.670244 c 0.344963,2.09e-4 0.624559,0.279805 0.624768,0.624768 7.6e-5,0.345165 -0.279603,0.625076 -0.624768,0.625284 h -0.670244 v 1.375627 l 1.375119,5.17e-4 v 0 0 0.670243 c 2.09e-4,0.345166 0.28012,0.624845 0.625285,0.624768 0.3449632,-2.08e-4 0.6245602,-0.279804 0.6247682,-0.624768 v -0.670243 0 0 l 1.375627,-5.17e-4 v -1.375627 h 0.670243 c 0.345165,-2.08e-4 0.624844,-0.280119 0.624768,-0.625284 -2.09e-4,-0.344963 -0.279805,-0.624559 -0.624768,-0.624768 h -0.670243 v -1.37511 h -1.375627 v 0.670243 c -2.09e-4,0.344964 -0.279805,0.62456 -0.6247682,0.624768 -0.345165,7.7e-5 -0.625076,-0.279602 -0.625285,-0.624768 v -0.670243 z"
       sodipodi:nodetypes="ccccccccccccccccccccccccccccc" />
    <path
       id="rect5875-6-2-57"
       style="display:inline;fill:#00ff00;fill-opacity:1;stroke:none;stroke-width:0.1;stroke-linecap:square;stroke-miterlimit:4;stroke-dasharray:none;stroke-opacity:1"
       d="m 11.658119,-32.568288 v 1.37511 h 0.670244 c 0.344963,2.09e-4 0.624559,0.279805 0.624768,0.624768 7.6e-5,0.345165 -0.279603,0.625076 -0.624768,0.625284 h -0.670244 v 1.375627 l 1.375119,5.17e-4 v 0 0 0.670243 c 2.09e-4,0.345166 0.28012,0.624845 0.625285,0.624768 0.344963,-2.08e-4 0.62456,-0.279804 0.624768,-0.624768 v -0.670243 0 0 l 1.375627,-5.17e-4 v -1.375627 h 0.670243 c 0.345165,-2.08e-4 0.624844,-0.280119 0.624768,-0.625284 -2.09e-4,-0.344963 -0.279805,-0.624559 -0.624768,-0.624768 h -0.670243 v -1.37511 h -1.375627 v 0.670243 c -2.09e-4,0.344964 -0.279805,0.62456 -0.624768,0.624768 -0.345165,7.7e-5 -0.625076,-0.279602 -0.625285,-0.624768 v -0.670243 z"
       sodipodi:nodetypes="ccccccccccccccccccccccccccccc" />
    <path
       id="rect5875-6-2-0"
       style="display:inline;fill:#00ff00;fill-opacity:1;stroke:none;stroke-width:0.1;stroke-linecap:square;stroke-miterlimit:4;stroke-dasharray:none;stroke-opacity:1"
       d="m 15.658918,-32.568288 v 1.37511 h 0.670244 c 0.344963,2.09e-4 0.624559,0.279805 0.624768,0.624768 7.6e-5,0.345165 -0.279603,0.625076 -0.624768,0.625284 h -0.670244 v 1.375627 l 1.375119,5.17e-4 v 0 0 0.670243 c 2.09e-4,0.345166 0.28012,0.624845 0.625285,0.624768 0.344963,-2.08e-4 0.62456,-0.279804 0.624768,-0.624768 v -0.670243 0 0 l 1.375627,-5.17e-4 v -1.375627 h 0.670243 c 0.345165,-2.08e-4 0.624844,-0.280119 0.624768,-0.625284 -2.09e-4,-0.344963 -0.279805,-0.624559 -0.624768,-0.624768 h -0.670243 v -1.37511 H 18.28409 v 0.670243 c -2.09e-4,0.344964 -0.279805,0.62456 -0.624768,0.624768 -0.345165,7.7e-5 -0.625076,-0.279602 -0.625285,-0.624768 v -0.670243 z"
       sodipodi:nodetypes="ccccccccccccccccccccccccccccc" />
    <path
       id="rect5875-6-2-8"
       style="display:inline;fill:#00ff00;fill-opacity:1;stroke:none;stroke-width:0.1;stroke-linecap:square;stroke-miterlimit:4;stroke-dasharray:none;stroke-opacity:1"
       d="m 19.659717,-32.568288 v 1.37511 h 0.670244 c 0.344963,2.09e-4 0.624559,0.279805 0.624768,0.624768 7.6e-5,0.345165 -0.279603,0.625076 -0.624768,0.625284 h -0.670244 v 1.375627 l 1.375119,5.17e-4 v 0 0 0.670243 c 2.09e-4,0.345166 0.28012,0.624845 0.625285,0.624768 0.344963,-2.08e-4 0.62456,-0.279804 0.624768,-0.624768 v -0.670243 0 0 l 1.375627,-5.17e-4 v -1.375627 h 0.670243 c 0.345165,-2.08e-4 0.624844,-0.280119 0.624768,-0.625284 -2.09e-4,-0.344963 -0.279805,-0.624559 -0.624768,-0.624768 h -0.670243 v -1.37511 h -1.375627 v 0.670243 c -2.09e-4,0.344964 -0.279805,0.62456 -0.624768,0.624768 -0.345165,7.7e-5 -0.625076,-0.279602 -0.625285,-0.624768 v -0.670243 z"
       sodipodi:nodetypes="ccccccccccccccccccccccccccccc" />
    <path
       id="rect5875-6-2-1"
       style="display:inline;fill:#00ff00;fill-opacity:1;stroke:none;stroke-width:0.1;stroke-linecap:square;stroke-miterlimit:4;stroke-dasharray:none;stroke-opacity:1"
       d="m 23.660516,-32.568288 v 1.37511 h 0.670244 c 0.344963,2.09e-4 0.624559,0.279805 0.624768,0.624768 7.6e-5,0.345165 -0.279603,0.625076 -0.624768,0.625284 h -0.670244 v 1.375627 l 1.375119,5.17e-4 v 0 0 0.670243 c 2.09e-4,0.345166 0.28012,0.624845 0.625285,0.624768 0.344963,-2.08e-4 0.62456,-0.279804 0.624768,-0.624768 v -0.670243 0 0 l 1.375627,-5.17e-4 v -1.375627 h 0.670243 c 0.345165,-2.08e-4 0.624844,-0.280119 0.624768,-0.625284 -2.09e-4,-0.344963 -0.279805,-0.624559 -0.624768,-0.624768 h -0.670243 v -1.37511 h -1.375627 v 0.670243 c -2.09e-4,0.344964 -0.279805,0.62456 -0.624768,0.624768 -0.345165,7.7e-5 -0.625076,-0.279602 -0.625285,-0.624768 v -0.670243 z"
       sodipodi:nodetypes="ccccccccccccccccccccccccccccc" />
    <path
       id="rect5875-6-2-7"
       style="display:inline;fill:#00ff00;fill-opacity:1;stroke:none;stroke-width:0.1;stroke-linecap:square;stroke-miterlimit:4;stroke-dasharray:none;stroke-opacity:1"
       d="m -4.3450782,-28.566982 v 1.37511 h 0.670244 c 0.344963,2.09e-4 0.624559,0.279805 0.624768,0.624768 7.6e-5,0.345165 -0.279603,0.625076 -0.624768,0.625284 h -0.670244 v 1.375627 l 1.375119,5.17e-4 v 0 0 0.670243 c 2.09e-4,0.345166 0.28012,0.624845 0.625285,0.624768 0.344963,-2.08e-4 0.62456,-0.279804 0.624768,-0.624768 v -0.670243 0 0 l 1.37562705,-5.17e-4 v -1.375627 h 0.670243 c 0.345165,-2.08e-4 0.624844,-0.280119 0.624768,-0.625284 -2.09e-4,-0.344963 -0.279805,-0.624559 -0.624768,-0.624768 h -0.670243 v -1.37511 H -1.7199062 v 0.670243 c -2.09e-4,0.344964 -0.279805,0.62456 -0.624768,0.624768 -0.345165,7.7e-5 -0.625076,-0.279602 -0.625285,-0.624768 v -0.670243 z"
       sodipodi:nodetypes="ccccccccccccccccccccccccccccc" />
    <path
       id="rect5875-6-2-99-8"
       style="display:inline;fill:#00ff00;fill-opacity:1;stroke:none;stroke-width:0.1;stroke-linecap:square;stroke-miterlimit:4;stroke-dasharray:none;stroke-opacity:1"
       d="m -8.3458772,-28.566982 v 1.37511 h 0.670243 c 0.344963,2.09e-4 0.624559,0.279805 0.624769,0.624768 7.6e-5,0.345165 -0.279603,0.625076 -0.624769,0.625284 h -0.670243 v 1.375627 l 1.375118,5.17e-4 v 0 0 0.670243 c 2.09e-4,0.345166 0.28012,0.624845 0.625285,0.624768 0.344963,-2.08e-4 0.624561,-0.279804 0.624769,-0.624768 v -0.670243 0 0 l 1.375627,-5.17e-4 v -1.375627 h 0.670243 c 0.345165,-2.08e-4 0.624844,-0.280119 0.624768,-0.625284 -2.09e-4,-0.344963 -0.279805,-0.624559 -0.624768,-0.624768 h -0.670243 v -1.37511 h -1.375627 v 0.670243 c -2.09e-4,0.344964 -0.279806,0.62456 -0.624769,0.624768 -0.345165,7.7e-5 -0.625076,-0.279602 -0.625285,-0.624768 v -0.670243 z"
       sodipodi:nodetypes="ccccccccccccccccccccccccccccc" />
    <path
       id="rect5875-6-2-5-2"
       style="display:inline;fill:#00ff00;fill-opacity:1;stroke:none;stroke-width:0.1;stroke-linecap:square;stroke-miterlimit:4;stroke-dasharray:none;stroke-opacity:1"
       d="m -0.34427915,-28.566982 v 1.37511 h 0.670244 c 0.344963,2.09e-4 0.624559,0.279805 0.624768,0.624768 7.6e-5,0.345165 -0.279603,0.625076 -0.624768,0.625284 h -0.670244 v 1.375627 l 1.37511895,5.17e-4 v 0 0 0.670243 c 2.09e-4,0.345166 0.28012,0.624845 0.625285,0.624768 0.344963,-2.08e-4 0.62456,-0.279804 0.624768,-0.624768 v -0.670243 0 0 l 1.375627,-5.17e-4 v -1.375627 h 0.670243 c 0.345165,-2.08e-4 0.624844,-0.280119 0.624768,-0.625284 -2.09e-4,-0.344963 -0.279805,-0.624559 -0.624768,-0.624768 h -0.670243 v -1.37511 h -1.375627 v 0.670243 c -2.09e-4,0.344964 -0.279805,0.62456 -0.624768,0.624768 -0.345165,7.7e-5 -0.625076,-0.279602 -0.625285,-0.624768 v -0.670243 z"
       sodipodi:nodetypes="ccccccccccccccccccccccccccccc" />
    <path
       id="rect5875-6-2-9-5"
       style="display:inline;fill:#00ff00;fill-opacity:1;stroke:none;stroke-width:0.1;stroke-linecap:square;stroke-miterlimit:4;stroke-dasharray:none;stroke-opacity:1"
       d="m 3.6565198,-28.566982 v 1.37511 h 0.670244 c 0.344964,2.09e-4 0.62456,0.279805 0.624768,0.624768 7.7e-5,0.345165 -0.279602,0.625076 -0.624768,0.625284 h -0.670244 v 1.375627 l 1.375119,5.17e-4 v 0 0 0.670243 c 2.09e-4,0.345166 0.28012,0.624845 0.625286,0.624768 0.344962,-2.08e-4 0.62456,-0.279804 0.624768,-0.624768 v -0.670243 0 0 l 1.375627,-5.17e-4 v -1.375627 h 0.670242 c 0.345166,-2.08e-4 0.624845,-0.280119 0.624769,-0.625284 -2.09e-4,-0.344963 -0.279805,-0.624559 -0.624769,-0.624768 h -0.670242 v -1.37511 h -1.375627 v 0.670243 c -2.09e-4,0.344964 -0.279806,0.62456 -0.624768,0.624768 -0.345166,7.7e-5 -0.625077,-0.279602 -0.625286,-0.624768 v -0.670243 z"
       sodipodi:nodetypes="ccccccccccccccccccccccccccccc" />
    <path
       id="rect5875-6-2-3-3"
       style="display:inline;fill:#00ff00;fill-opacity:1;stroke:none;stroke-width:0.1;stroke-linecap:square;stroke-miterlimit:4;stroke-dasharray:none;stroke-opacity:1"
       d="m 7.6573198,-28.566982 v 1.37511 h 0.670244 c 0.344963,2.09e-4 0.624559,0.279805 0.624768,0.624768 7.6e-5,0.345165 -0.279603,0.625076 -0.624768,0.625284 h -0.670244 v 1.375627 l 1.375119,5.17e-4 v 0 0 0.670243 c 2.09e-4,0.345166 0.28012,0.624845 0.625285,0.624768 0.3449632,-2.08e-4 0.6245602,-0.279804 0.6247682,-0.624768 v -0.670243 0 0 l 1.375627,-5.17e-4 v -1.375627 h 0.670243 c 0.345165,-2.08e-4 0.624844,-0.280119 0.624768,-0.625284 -2.09e-4,-0.344963 -0.279805,-0.624559 -0.624768,-0.624768 h -0.670243 v -1.37511 h -1.375627 v 0.670243 c -2.09e-4,0.344964 -0.279805,0.62456 -0.6247682,0.624768 -0.345165,7.7e-5 -0.625076,-0.279602 -0.625285,-0.624768 v -0.670243 z"
       sodipodi:nodetypes="ccccccccccccccccccccccccccccc" />
    <path
       id="rect5875-6-2-57-4"
       style="display:inline;fill:#00ff00;fill-opacity:1;stroke:none;stroke-width:0.1;stroke-linecap:square;stroke-miterlimit:4;stroke-dasharray:none;stroke-opacity:1"
       d="m 11.658119,-28.566982 v 1.37511 h 0.670244 c 0.344963,2.09e-4 0.624559,0.279805 0.624768,0.624768 7.6e-5,0.345165 -0.279603,0.625076 -0.624768,0.625284 h -0.670244 v 1.375627 l 1.375119,5.17e-4 v 0 0 0.670243 c 2.09e-4,0.345166 0.28012,0.624845 0.625285,0.624768 0.344963,-2.08e-4 0.62456,-0.279804 0.624768,-0.624768 v -0.670243 0 0 l 1.375627,-5.17e-4 v -1.375627 h 0.670243 c 0.345165,-2.08e-4 0.624844,-0.280119 0.624768,-0.625284 -2.09e-4,-0.344963 -0.279805,-0.624559 -0.624768,-0.624768 h -0.670243 v -1.37511 h -1.375627 v 0.670243 c -2.09e-4,0.344964 -0.279805,0.62456 -0.624768,0.624768 -0.345165,7.7e-5 -0.625076,-0.279602 -0.625285,-0.624768 v -0.670243 z"
       sodipodi:nodetypes="ccccccccccccccccccccccccccccc" />
    <path
       id="rect5875-6-2-0-9"
       style="display:inline;fill:#00ff00;fill-opacity:1;stroke:none;stroke-width:0.1;stroke-linecap:square;stroke-miterlimit:4;stroke-dasharray:none;stroke-opacity:1"
       d="m 15.658918,-28.566982 v 1.37511 h 0.670244 c 0.344963,2.09e-4 0.624559,0.279805 0.624768,0.624768 7.6e-5,0.345165 -0.279603,0.625076 -0.624768,0.625284 h -0.670244 v 1.375627 l 1.375119,5.17e-4 v 0 0 0.670243 c 2.09e-4,0.345166 0.28012,0.624845 0.625285,0.624768 0.344963,-2.08e-4 0.62456,-0.279804 0.624768,-0.624768 v -0.670243 0 0 l 1.375627,-5.17e-4 v -1.375627 h 0.670243 c 0.345165,-2.08e-4 0.624844,-0.280119 0.624768,-0.625284 -2.09e-4,-0.344963 -0.279805,-0.624559 -0.624768,-0.624768 h -0.670243 v -1.37511 H 18.28409 v 0.670243 c -2.09e-4,0.344964 -0.279805,0.62456 -0.624768,0.624768 -0.345165,7.7e-5 -0.625076,-0.279602 -0.625285,-0.624768 v -0.670243 z"
       sodipodi:nodetypes="ccccccccccccccccccccccccccccc" />
    <path
       id="rect5875-6-2-8-0"
       style="display:inline;fill:#00ff00;fill-opacity:1;stroke:none;stroke-width:0.1;stroke-linecap:square;stroke-miterlimit:4;stroke-dasharray:none;stroke-opacity:1"
       d="m 19.659717,-28.566982 v 1.37511 h 0.670244 c 0.344963,2.09e-4 0.624559,0.279805 0.624768,0.624768 7.6e-5,0.345165 -0.279603,0.625076 -0.624768,0.625284 h -0.670244 v 1.375627 l 1.375119,5.17e-4 v 0 0 0.670243 c 2.09e-4,0.345166 0.28012,0.624845 0.625285,0.624768 0.344963,-2.08e-4 0.62456,-0.279804 0.624768,-0.624768 v -0.670243 0 0 l 1.375627,-5.17e-4 v -1.375627 h 0.670243 c 0.345165,-2.08e-4 0.624844,-0.280119 0.624768,-0.625284 -2.09e-4,-0.344963 -0.279805,-0.624559 -0.624768,-0.624768 h -0.670243 v -1.37511 h -1.375627 v 0.670243 c -2.09e-4,0.344964 -0.279805,0.62456 -0.624768,0.624768 -0.345165,7.7e-5 -0.625076,-0.279602 -0.625285,-0.624768 v -0.670243 z"
       sodipodi:nodetypes="ccccccccccccccccccccccccccccc" />
    <path
       id="rect5875-6-2-1-2"
       style="display:inline;fill:#00ff00;fill-opacity:1;stroke:none;stroke-width:0.1;stroke-linecap:square;stroke-miterlimit:4;stroke-dasharray:none;stroke-opacity:1"
       d="m 23.660516,-28.566982 v 1.37511 h 0.670244 c 0.344963,2.09e-4 0.624559,0.279805 0.624768,0.624768 7.6e-5,0.345165 -0.279603,0.625076 -0.624768,0.625284 h -0.670244 v 1.375627 l 1.375119,5.17e-4 v 0 0 0.670243 c 2.09e-4,0.345166 0.28012,0.624845 0.625285,0.624768 0.344963,-2.08e-4 0.62456,-0.279804 0.624768,-0.624768 v -0.670243 0 0 l 1.375627,-5.17e-4 v -1.375627 h 0.670243 c 0.345165,-2.08e-4 0.624844,-0.280119 0.624768,-0.625284 -2.09e-4,-0.344963 -0.279805,-0.624559 -0.624768,-0.624768 h -0.670243 v -1.37511 h -1.375627 v 0.670243 c -2.09e-4,0.344964 -0.279805,0.62456 -0.624768,0.624768 -0.345165,7.7e-5 -0.625076,-0.279602 -0.625285,-0.624768 v -0.670243 z"
       sodipodi:nodetypes="ccccccccccccccccccccccccccccc" />
    <path
       id="rect5875-6-2-01"
       style="display:inline;fill:#00ff00;fill-opacity:1;stroke:none;stroke-width:0.1;stroke-linecap:square;stroke-miterlimit:4;stroke-dasharray:none;stroke-opacity:1"
       d="m -4.3450782,-24.566193 v 1.37511 h 0.670244 c 0.344963,2.09e-4 0.624559,0.279805 0.624768,0.624768 7.6e-5,0.345165 -0.279603,0.625076 -0.624768,0.625284 h -0.670244 v 1.375627 l 1.375119,5.17e-4 v 0 0 0.670244 c 2.09e-4,0.345165 0.28012,0.624844 0.625285,0.624768 0.344963,-2.09e-4 0.62456,-0.279805 0.624768,-0.624768 v -0.670244 0 0 l 1.37562705,-5.17e-4 v -1.375627 h 0.670243 c 0.345165,-2.08e-4 0.624844,-0.280119 0.624768,-0.625284 -2.09e-4,-0.344963 -0.279805,-0.624559 -0.624768,-0.624768 h -0.670243 v -1.37511 H -1.7199062 v 0.670243 c -2.09e-4,0.344964 -0.279805,0.62456 -0.624768,0.624768 -0.345165,7.7e-5 -0.625076,-0.279603 -0.625285,-0.624768 v -0.670243 z"
       sodipodi:nodetypes="ccccccccccccccccccccccccccccc" />
    <path
       id="rect5875-6-2-99-9"
       style="display:inline;fill:#00ff00;fill-opacity:1;stroke:none;stroke-width:0.1;stroke-linecap:square;stroke-miterlimit:4;stroke-dasharray:none;stroke-opacity:1"
       d="m -8.3458772,-24.566193 v 1.37511 h 0.670243 c 0.344963,2.09e-4 0.624559,0.279805 0.624769,0.624768 7.6e-5,0.345165 -0.279603,0.625076 -0.624769,0.625284 h -0.670243 v 1.375627 l 1.375118,5.17e-4 v 0 0 0.670244 c 2.09e-4,0.345165 0.28012,0.624844 0.625285,0.624768 0.344963,-2.09e-4 0.624561,-0.279805 0.624769,-0.624768 v -0.670244 0 0 l 1.375627,-5.17e-4 v -1.375627 h 0.670243 c 0.345165,-2.08e-4 0.624844,-0.280119 0.624768,-0.625284 -2.09e-4,-0.344963 -0.279805,-0.624559 -0.624768,-0.624768 h -0.670243 v -1.37511 h -1.375627 v 0.670243 c -2.09e-4,0.344964 -0.279806,0.62456 -0.624769,0.624768 -0.345165,7.7e-5 -0.625076,-0.279603 -0.625285,-0.624768 v -0.670243 z"
       sodipodi:nodetypes="ccccccccccccccccccccccccccccc" />
    <path
       id="rect5875-6-2-5-6"
       style="display:inline;fill:#00ff00;fill-opacity:1;stroke:none;stroke-width:0.1;stroke-linecap:square;stroke-miterlimit:4;stroke-dasharray:none;stroke-opacity:1"
       d="m -0.34427915,-24.566193 v 1.37511 h 0.670244 c 0.344963,2.09e-4 0.624559,0.279805 0.624768,0.624768 7.6e-5,0.345165 -0.279603,0.625076 -0.624768,0.625284 h -0.670244 v 1.375627 l 1.37511895,5.17e-4 v 0 0 0.670244 c 2.09e-4,0.345165 0.28012,0.624844 0.625285,0.624768 0.344963,-2.09e-4 0.62456,-0.279805 0.624768,-0.624768 v -0.670244 0 0 l 1.375627,-5.17e-4 v -1.375627 h 0.670243 c 0.345165,-2.08e-4 0.624844,-0.280119 0.624768,-0.625284 -2.09e-4,-0.344963 -0.279805,-0.624559 -0.624768,-0.624768 h -0.670243 v -1.37511 h -1.375627 v 0.670243 c -2.09e-4,0.344964 -0.279805,0.62456 -0.624768,0.624768 -0.345165,7.7e-5 -0.625076,-0.279603 -0.625285,-0.624768 v -0.670243 z"
       sodipodi:nodetypes="ccccccccccccccccccccccccccccc" />
    <path
       id="rect5875-6-2-9-2"
       style="display:inline;fill:#00ff00;fill-opacity:1;stroke:none;stroke-width:0.1;stroke-linecap:square;stroke-miterlimit:4;stroke-dasharray:none;stroke-opacity:1"
       d="m 3.6565198,-24.566193 v 1.37511 h 0.670244 c 0.344964,2.09e-4 0.62456,0.279805 0.624768,0.624768 7.7e-5,0.345165 -0.279602,0.625076 -0.624768,0.625284 h -0.670244 v 1.375627 l 1.375119,5.17e-4 v 0 0 0.670244 c 2.09e-4,0.345165 0.28012,0.624844 0.625286,0.624768 0.344962,-2.09e-4 0.62456,-0.279805 0.624768,-0.624768 v -0.670244 0 0 l 1.375627,-5.17e-4 v -1.375627 h 0.670242 c 0.345166,-2.08e-4 0.624845,-0.280119 0.624769,-0.625284 -2.09e-4,-0.344963 -0.279805,-0.624559 -0.624769,-0.624768 h -0.670242 v -1.37511 h -1.375627 v 0.670243 c -2.09e-4,0.344964 -0.279806,0.62456 -0.624768,0.624768 -0.345166,7.7e-5 -0.625077,-0.279603 -0.625286,-0.624768 v -0.670243 z"
       sodipodi:nodetypes="ccccccccccccccccccccccccccccc" />
    <path
       id="rect5875-6-2-3-1"
       style="display:inline;fill:#00ff00;fill-opacity:1;stroke:none;stroke-width:0.1;stroke-linecap:square;stroke-miterlimit:4;stroke-dasharray:none;stroke-opacity:1"
       d="m 7.6573198,-24.566193 v 1.37511 h 0.670244 c 0.344963,2.09e-4 0.624559,0.279805 0.624768,0.624768 7.6e-5,0.345165 -0.279603,0.625076 -0.624768,0.625284 h -0.670244 v 1.375627 l 1.375119,5.17e-4 v 0 0 0.670244 c 2.09e-4,0.345165 0.28012,0.624844 0.625285,0.624768 0.3449632,-2.09e-4 0.6245602,-0.279805 0.6247682,-0.624768 v -0.670244 0 0 l 1.375627,-5.17e-4 v -1.375627 h 0.670243 c 0.345165,-2.08e-4 0.624844,-0.280119 0.624768,-0.625284 -2.09e-4,-0.344963 -0.279805,-0.624559 -0.624768,-0.624768 h -0.670243 v -1.37511 h -1.375627 v 0.670243 c -2.09e-4,0.344964 -0.279805,0.62456 -0.6247682,0.624768 -0.345165,7.7e-5 -0.625076,-0.279603 -0.625285,-0.624768 v -0.670243 z"
       sodipodi:nodetypes="ccccccccccccccccccccccccccccc" />
    <path
       id="rect5875-6-2-57-2"
       style="display:inline;fill:#00ff00;fill-opacity:1;stroke:none;stroke-width:0.1;stroke-linecap:square;stroke-miterlimit:4;stroke-dasharray:none;stroke-opacity:1"
       d="m 11.658119,-24.566193 v 1.37511 h 0.670244 c 0.344963,2.09e-4 0.624559,0.279805 0.624768,0.624768 7.6e-5,0.345165 -0.279603,0.625076 -0.624768,0.625284 h -0.670244 v 1.375627 l 1.375119,5.17e-4 v 0 0 0.670244 c 2.09e-4,0.345165 0.28012,0.624844 0.625285,0.624768 0.344963,-2.09e-4 0.62456,-0.279805 0.624768,-0.624768 v -0.670244 0 0 l 1.375627,-5.17e-4 v -1.375627 h 0.670243 c 0.345165,-2.08e-4 0.624844,-0.280119 0.624768,-0.625284 -2.09e-4,-0.344963 -0.279805,-0.624559 -0.624768,-0.624768 h -0.670243 v -1.37511 h -1.375627 v 0.670243 c -2.09e-4,0.344964 -0.279805,0.62456 -0.624768,0.624768 -0.345165,7.7e-5 -0.625076,-0.279603 -0.625285,-0.624768 v -0.670243 z"
       sodipodi:nodetypes="ccccccccccccccccccccccccccccc" />
    <path
       id="rect5875-6-2-0-0"
       style="display:inline;fill:#00ff00;fill-opacity:1;stroke:none;stroke-width:0.1;stroke-linecap:square;stroke-miterlimit:4;stroke-dasharray:none;stroke-opacity:1"
       d="m 15.658918,-24.566193 v 1.37511 h 0.670244 c 0.344963,2.09e-4 0.624559,0.279805 0.624768,0.624768 7.6e-5,0.345165 -0.279603,0.625076 -0.624768,0.625284 h -0.670244 v 1.375627 l 1.375119,5.17e-4 v 0 0 0.670244 c 2.09e-4,0.345165 0.28012,0.624844 0.625285,0.624768 0.344963,-2.09e-4 0.62456,-0.279805 0.624768,-0.624768 v -0.670244 0 0 l 1.375627,-5.17e-4 v -1.375627 h 0.670243 c 0.345165,-2.08e-4 0.624844,-0.280119 0.624768,-0.625284 -2.09e-4,-0.344963 -0.279805,-0.624559 -0.624768,-0.624768 h -0.670243 v -1.37511 H 18.28409 v 0.670243 c -2.09e-4,0.344964 -0.279805,0.62456 -0.624768,0.624768 -0.345165,7.7e-5 -0.625076,-0.279603 -0.625285,-0.624768 v -0.670243 z"
       sodipodi:nodetypes="ccccccccccccccccccccccccccccc" />
    <path
       id="rect5875-6-2-8-7"
       style="display:inline;fill:#00ff00;fill-opacity:1;stroke:none;stroke-width:0.1;stroke-linecap:square;stroke-miterlimit:4;stroke-dasharray:none;stroke-opacity:1"
       d="m 19.659717,-24.566193 v 1.37511 h 0.670244 c 0.344963,2.09e-4 0.624559,0.279805 0.624768,0.624768 7.6e-5,0.345165 -0.279603,0.625076 -0.624768,0.625284 h -0.670244 v 1.375627 l 1.375119,5.17e-4 v 0 0 0.670244 c 2.09e-4,0.345165 0.28012,0.624844 0.625285,0.624768 0.344963,-2.09e-4 0.62456,-0.279805 0.624768,-0.624768 v -0.670244 0 0 l 1.375627,-5.17e-4 v -1.375627 h 0.670243 c 0.345165,-2.08e-4 0.624844,-0.280119 0.624768,-0.625284 -2.09e-4,-0.344963 -0.279805,-0.624559 -0.624768,-0.624768 h -0.670243 v -1.37511 h -1.375627 v 0.670243 c -2.09e-4,0.344964 -0.279805,0.62456 -0.624768,0.624768 -0.345165,7.7e-5 -0.625076,-0.279603 -0.625285,-0.624768 v -0.670243 z"
       sodipodi:nodetypes="ccccccccccccccccccccccccccccc" />
    <path
       id="rect5875-6-2-1-3"
       style="display:inline;fill:#00ff00;fill-opacity:1;stroke:none;stroke-width:0.1;stroke-linecap:square;stroke-miterlimit:4;stroke-dasharray:none;stroke-opacity:1"
       d="m 23.660516,-24.566193 v 1.37511 h 0.670244 c 0.344963,2.09e-4 0.624559,0.279805 0.624768,0.624768 7.6e-5,0.345165 -0.279603,0.625076 -0.624768,0.625284 h -0.670244 v 1.375627 l 1.375119,5.17e-4 v 0 0 0.670244 c 2.09e-4,0.345165 0.28012,0.624844 0.625285,0.624768 0.344963,-2.09e-4 0.62456,-0.279805 0.624768,-0.624768 v -0.670244 0 0 l 1.375627,-5.17e-4 v -1.375627 h 0.670243 c 0.345165,-2.08e-4 0.624844,-0.280119 0.624768,-0.625284 -2.09e-4,-0.344963 -0.279805,-0.624559 -0.624768,-0.624768 h -0.670243 v -1.37511 h -1.375627 v 0.670243 c -2.09e-4,0.344964 -0.279805,0.62456 -0.624768,0.624768 -0.345165,7.7e-5 -0.625076,-0.279603 -0.625285,-0.624768 v -0.670243 z"
       sodipodi:nodetypes="ccccccccccccccccccccccccccccc" />
    <path
       id="rect5875-2-7"
       style="display:inline;fill:#008080;fill-opacity:1;stroke:none;stroke-width:0.1;stroke-linecap:square;stroke-miterlimit:4;stroke-dasharray:none;stroke-opacity:1"
       d="m 29.661124,-33.863299 a 0.62514598,0.62514598 0 0 0 -0.624768,0.624768 v 0.670243 h -1.374593 v 1.37511 h 0.670243 a 0.62514598,0.62514598 0 0 1 0.624768,0.624768 0.62514598,0.62514598 0 0 1 -0.624768,0.625285 h -0.670243 v 1.375625 h 1.374593 v -0.670242 a 0.62514598,0.62514598 0 0 1 0.624768,-0.624768 0.62514598,0.62514598 0 0 1 0.625285,0.624768 v 0.670242 h 1.37511 v -4.000788 h -1.37511 v -0.670243 a 0.62514598,0.62514598 0 0 0 -0.625285,-0.624768 z" />
    <path
       id="rect5875-0"
       style="display:inline;fill:#00ffff;fill-opacity:1;stroke:none;stroke-width:0.1;stroke-linecap:square;stroke-miterlimit:4;stroke-dasharray:none;stroke-opacity:1"
       d="m -12.345096,-20.565392 v 3.999755 h 3.9997548 v -1.375109 h -0.670243 a 0.62514598,0.62514598 0 0 1 -0.624768,-0.624768 0.62514598,0.62514598 0 0 1 0.624768,-0.625285 h 0.670243 v -1.374593 h -1.374593 v 0.670243 a 0.62514598,0.62514598 0 0 1 -0.6247678,0.624768 0.62514598,0.62514598 0 0 1 -0.625285,-0.624768 v -0.670243 z" />
    <path
       id="rect5875-6-9"
       style="display:inline;fill:#800080;fill-opacity:1;stroke:none;stroke-width:0.1;stroke-linecap:square;stroke-miterlimit:4;stroke-dasharray:none;stroke-opacity:1"
       d="m -8.3453412,-20.565909 v 1.374594 h -0.670243 a 0.62514598,0.62514598 0 0 0 -0.624768,0.625284 0.62514598,0.62514598 0 0 0 0.624768,0.624768 h 0.670243 v 1.37511 h 4.00079 v -1.37511 h 0.670243 a 0.62514598,0.62514598 0 0 0 0.624768,-0.625284 0.62514598,0.62514598 0 0 0 -0.624768,-0.624768 h -0.670243 v -1.374594 h -1.500684 v 5.17e-4 h 0.125057 v 0.670243 a 0.62514598,0.62514598 0 0 1 -0.624768,0.624768 0.62514598,0.62514598 0 0 1 -0.625285,-0.624768 v -0.670243 h 0.125057 v -5.17e-4 z" />
    <path
       style="display:inline;fill:#000080;fill-opacity:1;stroke:none;stroke-width:0.1;stroke-linecap:square;stroke-miterlimit:4;stroke-dasharray:none;stroke-opacity:1"
       d="m -4.3445512,-20.565909 v 1.374593 h 0.670243 a 0.62514598,0.62514598 0 0 1 0.624768,0.624768 0.62514598,0.62514598 0 0 1 -0.624768,0.625285 h -0.670243 v 1.37511 h 4.00078905 v -1.37511 H -1.0140052 a 0.62514598,0.62514598 0 0 1 -0.624768,-0.624768 0.62514598,0.62514598 0 0 1 0.624768,-0.625285 h 0.67024305 v -1.374593 H -1.8444452 v 5.17e-4 h 0.125056 v 0.670243 a 0.62514598,0.62514598 0 0 1 -0.624768,0.624768 0.62514598,0.62514598 0 0 1 -0.625284,-0.624768 v -0.670243 h 0.125057 v -5.17e-4 z"
       id="rect5875-6-9-6" />
    <path
       id="rect5875-2-3"
       style="display:inline;fill:#ff00ff;fill-opacity:1;stroke:none;stroke-width:0.1;stroke-linecap:square;stroke-miterlimit:4;stroke-dasharray:none;stroke-opacity:1"
       d="m 29.661124,-21.860404 a 0.62514598,0.62514598 0 0 0 -0.624768,0.624768 v 0.670243 h -1.374593 v 1.374593 h 0.670243 a 0.62514598,0.62514598 0 0 1 0.624768,0.624768 0.62514598,0.62514598 0 0 1 -0.624768,0.625285 h -0.670243 v 1.37511 h 3.999756 v -3.999756 h -1.37511 v -0.670243 a 0.62514598,0.62514598 0 0 0 -0.625285,-0.624768 z" />
    <path
       id="rect5875-1"
       style="display:inline;opacity:1;fill:#008000;fill-opacity:1;stroke:none;stroke-width:0.1;stroke-linecap:square;stroke-miterlimit:4;stroke-dasharray:none;stroke-opacity:1"
       d="m -12.345096,-32.568288 v 4.000789 h 1.375109 v 0.670243 a 0.62514598,0.62514598 0 0 0 0.625285,0.624768 0.62514598,0.62514598 0 0 0 0.6247678,-0.624768 v -0.670243 h 1.374593 v -1.375627 h 0.670244 a 0.62514598,0.62514598 0 0 0 0.624768,-0.625284 0.62514598,0.62514598 0 0 0 -0.624768,-0.624768 h -0.670244 v -1.37511 h -1.374593 v 0.670243 a 0.62514598,0.62514598 0 0 1 -0.6247678,0.624768 0.62514598,0.62514598 0 0 1 -0.625285,-0.624768 v -0.670243 z" />
    <path
       id="rect5875"
       style="display:inline;opacity:1;fill:#ff0000;fill-opacity:1;stroke:none;stroke-width:0.1;stroke-linecap:square;stroke-miterlimit:4;stroke-dasharray:none;stroke-opacity:1"
       d="m -12.345096,-36.568044 v 3.999756 h 1.375109 v 0.670243 a 0.62514598,0.62514598 0 0 0 0.625285,0.624768 0.62514598,0.62514598 0 0 0 0.6247678,-0.624768 v -0.670243 h 1.374593 v -1.374593 h -0.670243 a 0.62514598,0.62514598 0 0 1 -0.624768,-0.624768 0.62514598,0.62514598 0 0 1 0.624768,-0.625285 h 0.670243 v -1.37511 z" />
    <path
       id="rect5875-6"
       style="display:inline;opacity:1;fill:#800000;fill-opacity:1;stroke:none;stroke-width:0.1;stroke-linecap:square;stroke-miterlimit:4;stroke-dasharray:none;stroke-opacity:1"
       d="m -8.3453412,-36.568044 v 1.37511 h -0.670243 a 0.62514598,0.62514598 0 0 0 -0.624768,0.625285 0.62514598,0.62514598 0 0 0 0.624768,0.624768 h 0.670243 v 1.374593 h 1.37511 v 0.670243 a 0.62514598,0.62514598 0 0 0 0.625285,0.624768 0.62514598,0.62514598 0 0 0 0.624768,-0.624768 v -0.670243 h 1.37511 v -1.374593 h -0.669727 a 0.62514598,0.62514598 0 0 1 -0.624768,-0.624768 0.62514598,0.62514598 0 0 1 0.624768,-0.625285 h 0.669727 v -1.37511 z" />
    <path
       id="rect5875-6-0"
       style="display:inline;fill:#800000;fill-opacity:1;stroke:none;stroke-width:0.1;stroke-linecap:square;stroke-miterlimit:4;stroke-dasharray:none;stroke-opacity:1"
       d="m -4.3445512,-36.568044 v 1.37511 h -0.670244 a 0.62514598,0.62514598 0 0 0 -0.624768,0.625285 0.62514598,0.62514598 0 0 0 0.624768,0.624768 h 0.670244 v 1.374593 h 1.375109 v 0.670243 a 0.62514598,0.62514598 0 0 0 0.625285,0.624768 0.62514598,0.62514598 0 0 0 0.624768,-0.624768 v -0.670243 h 1.37511005 v -1.374593 H -1.0140062 a 0.62514598,0.62514598 0 0 1 -0.624768,-0.624768 0.62514598,0.62514598 0 0 1 0.624768,-0.625285 h 0.66972705 v -1.37511 z" />
    <path
       id="rect5875-6-9-9"
       style="display:inline;fill:#800080;fill-opacity:1;stroke:none;stroke-width:0.1;stroke-linecap:square;stroke-miterlimit:4;stroke-dasharray:none;stroke-opacity:1"
       d="m -0.34376215,-20.565909 v 1.374593 H -1.0140052 a 0.62514598,0.62514598 0 0 0 -0.624768,0.625285 0.62514598,0.62514598 0 0 0 0.624768,0.624768 h 0.67024305 v 1.375109 H 3.6570278 v -1.375109 h 0.670243 a 0.62514598,0.62514598 0 0 0 0.624768,-0.625285 0.62514598,0.62514598 0 0 0 -0.624768,-0.624768 h -0.670243 v -1.374593 h -1.500684 v 5.17e-4 h 0.125057 v 0.670243 a 0.62514598,0.62514598 0 0 1 -0.624768,0.624768 0.62514598,0.62514598 0 0 1 -0.625285,-0.624768 v -0.670243 h 0.125057 v -5.17e-4 z" />
    <path
       style="display:inline;fill:#000080;fill-opacity:1;stroke:none;stroke-width:0.1;stroke-linecap:square;stroke-miterlimit:4;stroke-dasharray:none;stroke-opacity:1"
       d="m 3.6570278,-20.565909 v 1.374593 h 0.670243 a 0.62514598,0.62514598 0 0 1 0.624768,0.624768 0.62514598,0.62514598 0 0 1 -0.624768,0.625285 h -0.670243 v 1.375109 h 4.000789 v -1.375109 h -0.670244 a 0.62514598,0.62514598 0 0 1 -0.624768,-0.624768 0.62514598,0.62514598 0 0 1 0.624768,-0.625285 h 0.670244 v -1.374593 h -1.500684 v 5.16e-4 h 0.125057 v 0.670244 a 0.62514598,0.62514598 0 0 1 -0.624768,0.624768 0.62514598,0.62514598 0 0 1 -0.625285,-0.624768 v -0.670244 h 0.125057 v -5.16e-4 z"
       id="rect5875-6-9-6-0" />
    <path
       id="rect5875-6-3"
       style="display:inline;fill:#800000;fill-opacity:1;stroke:none;stroke-width:0.1;stroke-linecap:square;stroke-miterlimit:4;stroke-dasharray:none;stroke-opacity:1"
       d="m -0.34376215,-36.568044 v 1.37511 H -1.0140052 a 0.62514598,0.62514598 0 0 0 -0.624768,0.625285 0.62514598,0.62514598 0 0 0 0.624768,0.624768 h 0.67024305 v 1.374593 H 1.0313478 v 0.670243 a 0.62514598,0.62514598 0 0 0 0.625285,0.624768 0.62514598,0.62514598 0 0 0 0.624768,-0.624768 v -0.670243 h 1.37511 v -1.374593 h -0.669727 a 0.62514598,0.62514598 0 0 1 -0.624768,-0.624768 0.62514598,0.62514598 0 0 1 0.624768,-0.625285 h 0.669727 v -1.37511 z" />
    <path
       id="rect5875-6-9-2"
       style="display:inline;fill:#800080;fill-opacity:1;stroke:none;stroke-width:0.1;stroke-linecap:square;stroke-miterlimit:4;stroke-dasharray:none;stroke-opacity:1"
       d="m 7.6572988,-20.565908 v 1.374593 h -0.670243 a 0.62514598,0.62514598 0 0 0 -0.624768,0.625285 0.62514598,0.62514598 0 0 0 0.624768,0.624768 h 0.670243 v 1.375109 h 4.0007892 v -1.375109 h 0.670244 a 0.62514598,0.62514598 0 0 0 0.624768,-0.625285 0.62514598,0.62514598 0 0 0 -0.624768,-0.624768 h -0.670244 v -1.374593 h -1.500683 v 5.16e-4 h 0.125057 v 0.670244 a 0.62514598,0.62514598 0 0 1 -0.6247682,0.624768 0.62514598,0.62514598 0 0 1 -0.625285,-0.624768 v -0.670244 h 0.125057 v -5.16e-4 z" />
    <path
       style="display:inline;fill:#000080;fill-opacity:1;stroke:none;stroke-width:0.1;stroke-linecap:square;stroke-miterlimit:4;stroke-dasharray:none;stroke-opacity:1"
       d="m 11.658088,-20.565908 v 1.374592 h 0.670244 a 0.62514598,0.62514598 0 0 1 0.624768,0.624769 0.62514598,0.62514598 0 0 1 -0.624768,0.625285 h -0.670244 v 1.375109 h 4.00079 v -1.375109 h -0.670243 a 0.62514598,0.62514598 0 0 1 -0.624768,-0.624769 0.62514598,0.62514598 0 0 1 0.624768,-0.625285 h 0.670243 v -1.374592 h -1.500684 v 5.16e-4 h 0.125057 v 0.670244 a 0.62514598,0.62514598 0 0 1 -0.624768,0.624768 0.62514598,0.62514598 0 0 1 -0.625285,-0.624768 v -0.670244 h 0.125057 v -5.16e-4 z"
       id="rect5875-6-9-6-6" />
    <path
       id="rect5875-6-5"
       style="display:inline;fill:#800000;fill-opacity:1;stroke:none;stroke-width:0.1;stroke-linecap:square;stroke-miterlimit:4;stroke-dasharray:none;stroke-opacity:1"
       d="m 7.6572988,-36.568043 v 1.375109 h -0.670243 a 0.62514598,0.62514598 0 0 0 -0.624768,0.625285 0.62514598,0.62514598 0 0 0 0.624768,0.624768 h 0.670243 v 1.374593 h 1.37511 v 0.670244 a 0.62514598,0.62514598 0 0 0 0.625285,0.624768 0.62514598,0.62514598 0 0 0 0.6247682,-0.624768 v -0.670244 h 1.37511 v -1.374593 h -0.669727 a 0.62514598,0.62514598 0 0 1 -0.624768,-0.624768 0.62514598,0.62514598 0 0 1 0.624768,-0.625285 h 0.669727 v -1.375109 z" />
    <path
       id="rect5875-6-0-6"
       style="display:inline;fill:#800000;fill-opacity:1;stroke:none;stroke-width:0.1;stroke-linecap:square;stroke-miterlimit:4;stroke-dasharray:none;stroke-opacity:1"
       d="m 11.657572,-36.568044 v 1.37511 h -0.670244 a 0.62514598,0.62514598 0 0 0 -0.624768,0.625285 0.62514598,0.62514598 0 0 0 0.624768,0.624768 h 0.670244 v 1.374593 h 1.375109 v 0.670243 a 0.62514598,0.62514598 0 0 0 0.625285,0.624768 0.62514598,0.62514598 0 0 0 0.624769,-0.624768 v -0.670243 h 1.37511 v -1.374593 h -0.669727 a 0.62514598,0.62514598 0 0 1 -0.624768,-0.624768 0.62514598,0.62514598 0 0 1 0.624768,-0.625285 h 0.669727 v -1.37511 z" />
    <path
       id="rect5875-6-9-9-8"
       style="display:inline;fill:#800080;fill-opacity:1;stroke:none;stroke-width:0.1;stroke-linecap:square;stroke-miterlimit:4;stroke-dasharray:none;stroke-opacity:1"
       d="m 15.658877,-20.565909 v 1.374593 h -0.670243 a 0.62514598,0.62514598 0 0 0 -0.624768,0.625285 0.62514598,0.62514598 0 0 0 0.624768,0.624768 h 0.670243 v 1.375109 h 4.00079 v -1.375109 h 0.670243 a 0.62514598,0.62514598 0 0 0 0.624768,-0.625285 0.62514598,0.62514598 0 0 0 -0.624768,-0.624768 h -0.670243 v -1.374593 h -1.500684 v 5.17e-4 h 0.125057 v 0.670243 a 0.62514598,0.62514598 0 0 1 -0.624768,0.624768 0.62514598,0.62514598 0 0 1 -0.625285,-0.624768 v -0.670243 h 0.125057 v -5.17e-4 z" />
    <path
       id="rect5875-6-3-7"
       style="display:inline;fill:#800000;fill-opacity:1;stroke:none;stroke-width:0.1;stroke-linecap:square;stroke-miterlimit:4;stroke-dasharray:none;stroke-opacity:1"
       d="m 15.658877,-36.568044 v 1.37511 h -0.670243 a 0.62514598,0.62514598 0 0 0 -0.624768,0.625285 0.62514598,0.62514598 0 0 0 0.624768,0.624768 h 0.670243 v 1.374593 h 1.37511 v 0.670243 a 0.62514598,0.62514598 0 0 0 0.625285,0.624768 0.62514598,0.62514598 0 0 0 0.624768,-0.624768 v -0.670243 h 1.37511 v -1.374593 h -0.669727 a 0.62514598,0.62514598 0 0 1 -0.624768,-0.624768 0.62514598,0.62514598 0 0 1 0.624768,-0.625285 h 0.669727 v -1.37511 z" />
    <path
       id="rect5875-6-3-7-0"
       style="display:inline;fill:#800000;fill-opacity:1;stroke:none;stroke-width:0.1;stroke-linecap:square;stroke-miterlimit:4;stroke-dasharray:none;stroke-opacity:1"
       d="m 19.65915,-36.568044 v 1.37511 h -0.670243 a 0.62514598,0.62514598 0 0 0 -0.624768,0.625285 0.62514598,0.62514598 0 0 0 0.624768,0.624768 h 0.670243 v 1.374593 h 1.37511 v 0.670243 a 0.62514598,0.62514598 0 0 0 0.625285,0.624768 0.62514598,0.62514598 0 0 0 0.624768,-0.624768 v -0.670243 h 1.37511 v -1.374593 h -0.669727 a 0.62514598,0.62514598 0 0 1 -0.624768,-0.624768 0.62514598,0.62514598 0 0 1 0.624768,-0.625285 h 0.669727 v -1.37511 z" />
    <path
       style="display:inline;fill:#000080;fill-opacity:1;stroke:none;stroke-width:0.1;stroke-linecap:square;stroke-miterlimit:4;stroke-dasharray:none;stroke-opacity:1"
       d="m 19.659667,-20.565908 v 1.374592 h 0.670244 a 0.62514598,0.62514598 0 0 1 0.624768,0.624769 0.62514598,0.62514598 0 0 1 -0.624768,0.625285 h -0.670244 v 1.375109 h 4.00079 v -1.375109 h -0.670243 a 0.62514598,0.62514598 0 0 1 -0.624768,-0.624769 0.62514598,0.62514598 0 0 1 0.624768,-0.625285 h 0.670243 v -1.374592 h -1.500684 v 5.16e-4 h 0.125057 v 0.670244 a 0.62514598,0.62514598 0 0 1 -0.624768,0.624768 0.62514598,0.62514598 0 0 1 -0.625285,-0.624768 v -0.670244 h 0.125057 v -5.16e-4 z"
       id="rect5875-6-9-6-6-9" />
    <path
       id="rect5875-6-9-9-8-4"
       style="display:inline;fill:#800080;fill-opacity:1;stroke:none;stroke-width:0.1;stroke-linecap:square;stroke-miterlimit:4;stroke-dasharray:none;stroke-opacity:1"
       d="m 23.660456,-20.565909 v 1.374593 h -0.670243 a 0.62514598,0.62514598 0 0 0 -0.624768,0.625285 0.62514598,0.62514598 0 0 0 0.624768,0.624768 h 0.670243 v 1.375109 h 4.00079 v -1.375109 h 0.670243 a 0.62514598,0.62514598 0 0 0 0.624768,-0.625285 0.62514598,0.62514598 0 0 0 -0.624768,-0.624768 h -0.670243 v -1.374593 h -1.500684 v 5.17e-4 h 0.125057 v 0.670243 a 0.62514598,0.62514598 0 0 1 -0.624768,0.624768 0.62514598,0.62514598 0 0 1 -0.625285,-0.624768 v -0.670243 h 0.125057 v -5.17e-4 z" />
    <path
       id="rect5875-6-3-7-1"
       style="display:inline;fill:#800000;fill-opacity:1;stroke:none;stroke-width:0.1;stroke-linecap:square;stroke-miterlimit:4;stroke-dasharray:none;stroke-opacity:1"
       d="m 23.660456,-36.568044 v 1.37511 h -0.670243 a 0.62514598,0.62514598 0 0 0 -0.624768,0.625285 0.62514598,0.62514598 0 0 0 0.624768,0.624768 h 0.670243 v 1.374593 h 1.37511 v 0.670243 a 0.62514598,0.62514598 0 0 0 0.625285,0.624768 0.62514598,0.62514598 0 0 0 0.624768,-0.624768 v -0.670243 h 1.37511 v -1.374593 h -0.669727 a 0.62514598,0.62514598 0 0 1 -0.624768,-0.624768 0.62514598,0.62514598 0 0 1 0.624768,-0.625285 h 0.669727 v -1.37511 z" />
    <path
       id="rect5875-2-7-8"
       style="display:inline;fill:#008080;fill-opacity:1;stroke:none;stroke-width:0.1;stroke-linecap:square;stroke-miterlimit:4;stroke-dasharray:none;stroke-opacity:1"
       d="m 29.661124,-29.861981 a 0.62514598,0.62514598 0 0 0 -0.624768,0.624768 v 0.670243 h -1.374593 v 1.37511 h 0.670243 a 0.62514598,0.62514598 0 0 1 0.624768,0.624768 0.62514598,0.62514598 0 0 1 -0.624768,0.625285 h -0.670243 v 1.375625 h 1.374593 v -0.670242 a 0.62514598,0.62514598 0 0 1 0.624768,-0.624768 0.62514598,0.62514598 0 0 1 0.625285,0.624768 v 0.670242 h 1.37511 v -4.000788 h -1.37511 v -0.670243 a 0.62514598,0.62514598 0 0 0 -0.625285,-0.624768 z" />
    <path
       id="rect5875-1-7"
       style="display:inline;fill:#008000;fill-opacity:1;stroke:none;stroke-width:0.1;stroke-linecap:square;stroke-miterlimit:4;stroke-dasharray:none;stroke-opacity:1"
       d="m -12.345096,-28.56697 v 4.000789 h 1.375109 v 0.670243 a 0.62514598,0.62514598 0 0 0 0.625285,0.624768 0.62514598,0.62514598 0 0 0 0.6247678,-0.624768 v -0.670243 h 1.374593 v -1.375627 h 0.670244 a 0.62514598,0.62514598 0 0 0 0.624768,-0.625284 0.62514598,0.62514598 0 0 0 -0.624768,-0.624768 h -0.670244 v -1.37511 h -1.374593 v 0.670243 a 0.62514598,0.62514598 0 0 1 -0.6247678,0.624768 0.62514598,0.62514598 0 0 1 -0.625285,-0.624768 v -0.670243 z" />
    <path
       id="rect5875-2-7-8-2"
       style="display:inline;fill:#008080;fill-opacity:1;stroke:none;stroke-width:0.1;stroke-linecap:square;stroke-miterlimit:4;stroke-dasharray:none;stroke-opacity:1"
       d="m 29.661124,-25.861192 a 0.62514598,0.62514598 0 0 0 -0.624768,0.624767 v 0.670244 h -1.374593 v 1.37511 h 0.670243 a 0.62514598,0.62514598 0 0 1 0.624768,0.624768 0.62514598,0.62514598 0 0 1 -0.624768,0.625285 h -0.670243 v 1.375625 h 1.374593 v -0.670242 a 0.62514598,0.62514598 0 0 1 0.624768,-0.624768 0.62514598,0.62514598 0 0 1 0.625285,0.624768 v 0.670242 h 1.37511 v -4.000788 h -1.37511 v -0.670244 a 0.62514598,0.62514598 0 0 0 -0.625285,-0.624767 z" />
    <path
       id="rect5875-1-7-8"
       style="display:inline;fill:#008000;fill-opacity:1;stroke:none;stroke-width:0.1;stroke-linecap:square;stroke-miterlimit:4;stroke-dasharray:none;stroke-opacity:1"
       d="m -12.345096,-24.566181 v 4.000789 h 1.375109 v 0.670243 a 0.62514598,0.62514598 0 0 0 0.625285,0.624768 0.62514598,0.62514598 0 0 0 0.6247678,-0.624768 v -0.670243 h 1.374593 v -1.375627 h 0.670244 a 0.62514598,0.62514598 0 0 0 0.624768,-0.625284 0.62514598,0.62514598 0 0 0 -0.624768,-0.624768 h -0.670244 v -1.37511 h -1.374593 v 0.670243 a 0.62514598,0.62514598 0 0 1 -0.6247678,0.624768 0.62514598,0.62514598 0 0 1 -0.625285,-0.624768 v -0.670243 z" />
    <path
       id="rect5875-6-0-3"
       style="display:inline;fill:#800000;fill-opacity:1;stroke:none;stroke-width:0.1;stroke-linecap:square;stroke-miterlimit:4;stroke-dasharray:none;stroke-opacity:1"
       d="m 3.6570278,-36.568044 v 1.37511 h -0.670244 a 0.62514598,0.62514598 0 0 0 -0.624768,0.625285 0.62514598,0.62514598 0 0 0 0.624768,0.624768 h 0.670244 v 1.374593 h 1.375108 v 0.670243 a 0.62514598,0.62514598 0 0 0 0.625285,0.624768 0.62514598,0.62514598 0 0 0 0.624769,-0.624768 v -0.670243 h 1.375109 v -1.374593 h -0.669726 a 0.62514598,0.62514598 0 0 1 -0.624768,-0.624768 0.62514598,0.62514598 0 0 1 0.624768,-0.625285 h 0.669726 v -1.37511 z" />
    <path
       id="rect5875-2-36"
       style="display:inline;fill:#ffff00;fill-opacity:1;stroke:none;stroke-width:0.180478;stroke-linecap:square;stroke-miterlimit:4;stroke-dasharray:none;stroke-opacity:1"
       d="m -53.694613,-7.2068966 v 2.481775 h -1.209644 a 1.1282527,1.1282527 0 0 0 -1.127571,1.128503 1.1282527,1.1282527 0 0 0 1.127571,1.127571 h 1.209644 v 2.480842 h 2.481775 v -1.209643 a 1.1282527,1.1282527 0 0 1 1.127571,-1.127571 1.1282527,1.1282527 0 0 1 1.128503,1.127571 v 1.209643 h 2.480842 v -7.218691 z" />
    <path
       id="rect5875-6-2-06"
       style="display:inline;fill:#00ff00;fill-opacity:1;stroke:none;stroke-width:0.180478;stroke-linecap:square;stroke-miterlimit:4;stroke-dasharray:none;stroke-opacity:1"
       d="m -60.915186,0.0117944 v 2.481775 h 1.209644 c 0.622584,3.77e-4 1.127194,0.504987 1.127571,1.12757 1.37e-4,0.622948 -0.504623,1.128127 -1.127571,1.128502 h -1.209644 v 2.482708 l 2.481791,9.33e-4 v 0 0 1.209643 c 3.77e-4,0.6229501 0.505555,1.1277101 1.128503,1.1275711 0.622584,-3.76e-4 1.127195,-0.504986 1.127571,-1.1275711 v -1.209643 0 0 l 2.482708,-9.33e-4 v -2.482708 h 1.209643 c 0.622948,-3.75e-4 1.127708,-0.505554 1.12757,-1.128502 -3.77e-4,-0.622583 -0.504987,-1.127193 -1.12757,-1.12757 h -1.209643 v -2.481775 h -2.482708 v 1.209643 c -3.77e-4,0.622585 -0.504987,1.127195 -1.127571,1.12757 -0.622948,1.39e-4 -1.128126,-0.50462 -1.128503,-1.12757 v -1.209643 z"
       sodipodi:nodetypes="ccccccccccccccccccccccccccccc" />
    <path
       id="rect5875-6-2-99-2"
       style="display:inline;fill:#00ff00;fill-opacity:1;stroke:none;stroke-width:0.180478;stroke-linecap:square;stroke-miterlimit:4;stroke-dasharray:none;stroke-opacity:1"
       d="m -68.13576,0.0117944 v 2.481775 h 1.209643 c 0.622584,3.77e-4 1.127194,0.504987 1.127573,1.12757 1.37e-4,0.622948 -0.504623,1.128127 -1.127573,1.128502 h -1.209643 v 2.482708 l 2.48179,9.33e-4 v 0 0 1.209643 c 3.77e-4,0.6229501 0.505555,1.1277101 1.128503,1.1275711 0.622584,-3.76e-4 1.127197,-0.504986 1.127573,-1.1275711 v -1.209643 0 0 l 2.482708,-9.33e-4 v -2.482708 h 1.209643 c 0.622947,-3.75e-4 1.127707,-0.505554 1.12757,-1.128502 -3.77e-4,-0.622583 -0.504987,-1.127193 -1.12757,-1.12757 h -1.209643 v -2.481775 h -2.482708 v 1.209643 c -3.78e-4,0.622585 -0.504989,1.127195 -1.127573,1.12757 -0.622948,1.39e-4 -1.128126,-0.50462 -1.128503,-1.12757 v -1.209643 z"
       sodipodi:nodetypes="ccccccccccccccccccccccccccccc" />
    <path
       id="rect5875-2-7-4"
       style="display:inline;fill:#008080;fill-opacity:1;stroke:none;stroke-width:0.180478;stroke-linecap:square;stroke-miterlimit:4;stroke-dasharray:none;stroke-opacity:1"
       d="m -50.085267,-2.3254196 a 1.1282527,1.1282527 0 0 0 -1.127571,1.127571 v 1.209643 h -2.480841 v 2.481775 h 1.209643 a 1.1282527,1.1282527 0 0 1 1.12757,1.12757 1.1282527,1.1282527 0 0 1 -1.12757,1.128504 h -1.209643 v 2.482704 h 2.480841 v -1.209641 a 1.1282527,1.1282527 0 0 1 1.127571,-1.127571 1.1282527,1.1282527 0 0 1 1.128503,1.127571 v 1.209641 h 2.481775 v -7.220553 h -2.481775 v -1.209643 a 1.1282527,1.1282527 0 0 0 -1.128503,-1.127571 z" />
    <path
       id="rect5875-0-5"
       style="display:inline;fill:#00ffff;fill-opacity:1;stroke:none;stroke-width:0.180478;stroke-linecap:square;stroke-miterlimit:4;stroke-dasharray:none;stroke-opacity:1"
       d="m -75.354434,7.2332824 v 7.2186896 h 7.218689 v -2.481773 h -1.209643 a 1.1282527,1.1282527 0 0 1 -1.127571,-1.127571 1.1282527,1.1282527 0 0 1 1.127571,-1.1285035 h 1.209643 V 7.2332824 h -2.480842 v 1.209643 a 1.1282527,1.1282527 0 0 1 -1.127571,1.1275711 1.1282527,1.1282527 0 0 1 -1.128503,-1.1275711 v -1.209643 z" />
    <path
       id="rect5875-6-9-0"
       style="display:inline;fill:#800080;fill-opacity:1;stroke:none;stroke-width:0.180478;stroke-linecap:square;stroke-miterlimit:4;stroke-dasharray:none;stroke-opacity:1"
       d="m -68.135745,7.2323494 v 2.4808441 h -1.209643 a 1.1282527,1.1282527 0 0 0 -1.127571,1.1285015 1.1282527,1.1282527 0 0 0 1.127571,1.127571 h 1.209643 v 2.481775 h 7.220557 v -2.481775 h 1.209643 a 1.1282527,1.1282527 0 0 0 1.12757,-1.128502 1.1282527,1.1282527 0 0 0 -1.12757,-1.1275705 h -1.209643 V 7.2323494 h -2.708409 v 9.33e-4 h 0.225701 v 1.209643 a 1.1282527,1.1282527 0 0 1 -1.127571,1.1275711 1.1282527,1.1282527 0 0 1 -1.128503,-1.1275711 v -1.209643 h 0.2257 v -9.33e-4 z" />
    <path
       style="display:inline;fill:#000080;fill-opacity:1;stroke:none;stroke-width:0.180478;stroke-linecap:square;stroke-miterlimit:4;stroke-dasharray:none;stroke-opacity:1"
       d="m -60.915188,7.2323494 v 2.4808421 h 1.209643 a 1.1282527,1.1282527 0 0 1 1.12757,1.1275705 1.1282527,1.1282527 0 0 1 -1.12757,1.128504 h -1.209643 v 2.481775 h 7.220555 v -2.481775 h -1.209643 a 1.1282527,1.1282527 0 0 1 -1.127571,-1.127571 1.1282527,1.1282527 0 0 1 1.127571,-1.1285035 h 1.209643 V 7.2323494 h -2.708407 v 9.33e-4 h 0.225699 v 1.209643 a 1.1282527,1.1282527 0 0 1 -1.127571,1.1275711 1.1282527,1.1282527 0 0 1 -1.128501,-1.1275711 v -1.209643 h 0.2257 v -9.33e-4 z"
       id="rect5875-6-9-6-3" />
    <path
       id="rect5875-2-3-6"
       style="display:inline;fill:#ff00ff;fill-opacity:1;stroke:none;stroke-width:0.180478;stroke-linecap:square;stroke-miterlimit:4;stroke-dasharray:none;stroke-opacity:1"
       d="m -50.08622,4.8960674 a 1.1282527,1.1282527 0 0 0 -1.127571,1.12757 v 1.209643 h -2.480841 v 2.4808421 h 1.209643 a 1.1282527,1.1282527 0 0 1 1.12757,1.1275715 1.1282527,1.1282527 0 0 1 -1.12757,1.128503 h -1.209643 v 2.481775 h 7.21869 V 7.2332804 h -2.481775 v -1.209643 a 1.1282527,1.1282527 0 0 0 -1.128503,-1.12757 z" />
    <path
       id="rect5875-1-1"
       style="display:inline;fill:#008000;fill-opacity:1;stroke:none;stroke-width:0.180478;stroke-linecap:square;stroke-miterlimit:4;stroke-dasharray:none;stroke-opacity:1"
       d="m -75.353481,0.0117944 v 7.220555 h 2.481773 v 1.209643 a 1.1282527,1.1282527 0 0 0 1.128503,1.1275711 1.1282527,1.1282527 0 0 0 1.127571,-1.1275711 v -1.209643 h 2.480842 v -2.482708 h 1.209645 a 1.1282527,1.1282527 0 0 0 1.12757,-1.128502 1.1282527,1.1282527 0 0 0 -1.12757,-1.12757 h -1.209645 v -2.481775 h -2.480842 v 1.209643 a 1.1282527,1.1282527 0 0 1 -1.127571,1.12757 1.1282527,1.1282527 0 0 1 -1.128503,-1.12757 v -1.209643 z" />
    <path
       style="color:#000000;fill:#000000;stroke-linecap:square;-inkscape-stroke:none"
       d="m -50.982422,33.060547 h 1.841797 v 0.888672 c 4.81e-4,0.796074 0.651,1.449395 1.447266,1.449218 0.795806,-4.81e-4 1.448737,-0.653412 1.449218,-1.449218 v -0.888672 h 1.839844 v 2.482422 H -42.875 c 0.450363,2.72e-4 0.806368,0.356277 0.806641,0.80664 9.9e-5,0.450635 -0.356124,0.808321 -0.806641,0.808594 h -1.529297 v 2.482422 h -2.480469 v 1.529297 c -2.72e-4,0.450177 -0.358417,0.808322 -0.808593,0.808594 -0.450449,9.9e-5 -0.806369,-0.35789 -0.806641,-0.808594 v -1.529297 h -2.482422 z"
       id="path5363" />
    <path
       id="rect5875-06"
       style="display:inline;fill:#ff0000;fill-opacity:1;stroke:none;stroke-width:0.180478;stroke-linecap:square;stroke-miterlimit:4;stroke-dasharray:none;stroke-opacity:1"
       d="m -75.353481,-7.2068966 v 7.218691 h 2.481773 v 1.209643 a 1.1282527,1.1282527 0 0 0 1.128503,1.12757 1.1282527,1.1282527 0 0 0 1.127571,-1.12757 v -1.209643 h 2.480842 v -2.480842 h -1.209643 a 1.1282527,1.1282527 0 0 1 -1.127571,-1.127571 1.1282527,1.1282527 0 0 1 1.127571,-1.128503 h 1.209643 v -2.481775 z" />
    <path
       id="rect5875-6-32"
       style="display:inline;fill:#800000;fill-opacity:1;stroke:none;stroke-width:0.180478;stroke-linecap:square;stroke-miterlimit:4;stroke-dasharray:none;stroke-opacity:1"
       d="m -68.134792,-7.2068966 v 2.481775 h -1.209643 a 1.1282527,1.1282527 0 0 0 -1.127571,1.128503 1.1282527,1.1282527 0 0 0 1.127571,1.127571 h 1.209643 v 2.480842 h 2.481775 v 1.209643 a 1.1282527,1.1282527 0 0 0 1.128503,1.12757 1.1282527,1.1282527 0 0 0 1.127571,-1.12757 v -1.209643 h 2.481775 v -2.480842 h -1.208712 a 1.1282527,1.1282527 0 0 1 -1.127571,-1.127571 1.1282527,1.1282527 0 0 1 1.127571,-1.128503 h 1.208712 v -2.481775 z" />
    <path
       id="rect5875-6-0-0"
       style="display:inline;fill:#800000;fill-opacity:1;stroke:none;stroke-width:0.180478;stroke-linecap:square;stroke-miterlimit:4;stroke-dasharray:none;stroke-opacity:1"
       d="m -60.914235,-7.2068966 v 2.481775 h -1.209645 a 1.1282527,1.1282527 0 0 0 -1.127571,1.128503 1.1282527,1.1282527 0 0 0 1.127571,1.127571 h 1.209645 v 2.480842 h 2.481773 v 1.209643 a 1.1282527,1.1282527 0 0 0 1.128503,1.12757 1.1282527,1.1282527 0 0 0 1.127571,-1.12757 v -1.209643 h 2.481775 v -2.480842 h -1.208712 a 1.1282527,1.1282527 0 0 1 -1.127571,-1.127571 1.1282527,1.1282527 0 0 1 1.127571,-1.128503 h 1.208712 v -2.481775 z" />
    <path
       style="color:#000000;fill:#000000;stroke-linecap:square;-inkscape-stroke:none"
       d="m -40.476562,30.722656 c 0.450447,-10e-5 0.808321,0.358075 0.808593,0.808594 v 1.529297 h 2.482422 v 6.580078 h -1.841797 V 38.75 c -4.81e-4,-0.796196 -0.653074,-1.447442 -1.449218,-1.447266 -0.795688,4.8e-4 -1.446785,0.651579 -1.447266,1.447266 v 0.890625 h -1.839844 V 37.798828 H -42.875 c 0.796196,-4.82e-4 1.447443,-0.653073 1.447266,-1.449219 -4.81e-4,-0.795686 -0.65158,-1.446783 -1.447266,-1.447265 h -0.888672 v -1.841797 h 2.480469 V 31.53125 c 2.72e-4,-0.450364 0.356463,-0.808322 0.806641,-0.808594 z"
       id="path5367" />
    <path
       id="rect5875-2-6-0"
       style="display:inline;fill:#ffff00;fill-opacity:1;stroke:none;stroke-width:0.1;stroke-linecap:square;stroke-miterlimit:4;stroke-dasharray:none;stroke-opacity:1"
       d="m -21.245005,1.0039819 v 1.3751096 h -0.670244 a 0.62514598,0.62514598 0 0 0 -0.624768,0.625285 0.62514598,0.62514598 0 0 0 0.624768,0.624768 h 0.670244 v 1.374593 h 1.37511 v -0.670243 a 0.62514598,0.62514598 0 0 1 0.624768,-0.624768 0.62514598,0.62514598 0 0 1 0.625285,0.624768 v 0.670243 h 1.374593 V 1.0039819 Z" />
    <path
       id="rect5875-6-2-09-8"
       style="display:inline;fill:#00ff00;fill-opacity:1;stroke:none;stroke-width:0.1;stroke-linecap:square;stroke-miterlimit:4;stroke-dasharray:none;stroke-opacity:1"
       d="m -25.245804,5.0037375 v 1.37511 h 0.670244 c 0.344963,2.09e-4 0.624559,0.279805 0.624768,0.624768 7.6e-5,0.345165 -0.279603,0.625076 -0.624768,0.625284 h -0.670244 v 1.375627 l 1.375119,5.17e-4 v 0 0 0.670243 c 2.09e-4,0.3451665 0.28012,0.6248455 0.625285,0.6247685 0.344963,-2.08e-4 0.62456,-0.279804 0.624768,-0.6247685 v -0.670243 0 0 l 1.375627,-5.17e-4 v -1.375627 h 0.670243 c 0.345165,-2.08e-4 0.624844,-0.280119 0.624768,-0.625284 -2.09e-4,-0.344963 -0.279805,-0.624559 -0.624768,-0.624768 h -0.670243 v -1.37511 h -1.375627 v 0.670243 c -2.09e-4,0.344964 -0.279805,0.62456 -0.624768,0.624768 -0.345165,7.7e-5 -0.625076,-0.279602 -0.625285,-0.624768 v -0.670243 z"
       sodipodi:nodetypes="ccccccccccccccccccccccccccccc" />
    <path
       id="rect5875-6-2-99-7-5"
       style="display:inline;fill:#00ff00;fill-opacity:1;stroke:none;stroke-width:0.1;stroke-linecap:square;stroke-miterlimit:4;stroke-dasharray:none;stroke-opacity:1"
       d="m -29.246603,5.0037375 v 1.37511 h 0.670243 c 0.344963,2.09e-4 0.624559,0.279805 0.624769,0.624768 7.6e-5,0.345165 -0.279603,0.625076 -0.624769,0.625284 h -0.670243 v 1.375627 l 1.375118,5.17e-4 v 0 0 0.670243 c 2.09e-4,0.3451665 0.28012,0.6248455 0.625285,0.6247685 0.344963,-2.08e-4 0.624561,-0.279804 0.624769,-0.6247685 v -0.670243 0 0 l 1.375627,-5.17e-4 v -1.375627 h 0.670243 c 0.345165,-2.08e-4 0.624844,-0.280119 0.624768,-0.625284 -2.09e-4,-0.344963 -0.279805,-0.624559 -0.624768,-0.624768 h -0.670243 v -1.37511 h -1.375627 v 0.670243 c -2.09e-4,0.344964 -0.279806,0.62456 -0.624769,0.624768 -0.345165,7.7e-5 -0.625076,-0.279602 -0.625285,-0.624768 v -0.670243 z"
       sodipodi:nodetypes="ccccccccccccccccccccccccccccc" />
    <path
       id="rect5875-2-7-3-1"
       style="display:inline;fill:#008080;fill-opacity:1;stroke:none;stroke-width:0.1;stroke-linecap:square;stroke-miterlimit:4;stroke-dasharray:none;stroke-opacity:1"
       d="m -19.245127,3.7087265 a 0.62514598,0.62514598 0 0 0 -0.624768,0.624768 v 0.670243 h -1.374593 v 1.37511 h 0.670243 a 0.62514598,0.62514598 0 0 1 0.624768,0.624768 0.62514598,0.62514598 0 0 1 -0.624768,0.625285 h -0.670243 v 1.375625 h 1.374593 v -0.670242 a 0.62514598,0.62514598 0 0 1 0.624768,-0.624768 0.62514598,0.62514598 0 0 1 0.625285,0.624768 v 0.670242 h 1.37511 v -4.000788 h -1.37511 v -0.670243 a 0.62514598,0.62514598 0 0 0 -0.625285,-0.624768 z" />
    <path
       id="rect5875-0-8-6"
       style="display:inline;fill:#00ffff;fill-opacity:1;stroke:none;stroke-width:0.1;stroke-linecap:square;stroke-miterlimit:4;stroke-dasharray:none;stroke-opacity:1"
       d="m -33.245822,9.0045265 v 3.9997555 h 3.999755 v -1.375109 h -0.670243 a 0.62514598,0.62514598 0 0 1 -0.624768,-0.624768 0.62514598,0.62514598 0 0 1 0.624768,-0.625285 h 0.670243 V 9.0045265 h -1.374593 v 0.670243 a 0.62514598,0.62514598 0 0 1 -0.624768,0.6247685 0.62514598,0.62514598 0 0 1 -0.625285,-0.6247685 v -0.670243 z" />
    <path
       id="rect5875-6-9-09-6"
       style="display:inline;fill:#800080;fill-opacity:1;stroke:none;stroke-width:0.1;stroke-linecap:square;stroke-miterlimit:4;stroke-dasharray:none;stroke-opacity:1"
       d="m -29.246067,9.0040095 v 1.3745945 h -0.670243 c -0.345165,2.09e-4 -0.624844,0.28012 -0.624768,0.625284 2.09e-4,0.344964 0.279805,0.62456 0.624768,0.624768 h 0.670243 v 1.37511 h 4.00079 v -1.37511 h 0.670243 c 0.345165,-2.08e-4 0.624844,-0.280119 0.624768,-0.625284 -2.09e-4,-0.344963 -0.279805,-0.624559 -0.624768,-0.624768 h -0.670243 V 9.0040095 l -1.376154,10e-4 5.27e-4,-5.17e-4 v 0 0.670243 c -2.09e-4,0.3449645 -0.279805,0.6245605 -0.624768,0.6247685 -0.345165,7.7e-5 -0.625076,-0.279602 -0.625285,-0.6247685 v -0.670243 l -5.28e-4,5.17e-4 v 0 z"
       sodipodi:nodetypes="cccccccccccccccccccccccc" />
    <path
       style="display:inline;fill:#000080;fill-opacity:1;stroke:none;stroke-width:0.5;stroke-linecap:square;stroke-miterlimit:4;stroke-dasharray:none;stroke-opacity:1"
       d="m -25.245277,9.00401 v 1.374593 h 0.670243 c 0.344963,2.09e-4 0.624559,0.279805 0.624768,0.624768 7.7e-5,0.345166 -0.279603,0.625077 -0.624768,0.625285 h -0.670243 v 1.37511 h 4.000789 v -1.37511 h -0.670243 c -0.344963,-2.08e-4 -0.624559,-0.279804 -0.624768,-0.624768 -7.7e-5,-0.345165 0.279603,-0.625076 0.624768,-0.625285 h 0.670243 V 9.00401 l -1.376144,0.001 v 0 0 l 5.17e-4,0.669726 c -2.09e-4,0.344964 -0.279805,0.62456 -0.624768,0.624768 -0.345165,7.7e-5 -0.625075,-0.279603 -0.625284,-0.624768 v -0.670243 0 0 z"
       id="rect5875-6-9-6-7-2"
       sodipodi:nodetypes="cccccccccccccccccccccccc" />
    <path
       id="rect5875-2-3-9-1"
       style="display:inline;fill:#ff00ff;fill-opacity:1;stroke:none;stroke-width:0.1;stroke-linecap:square;stroke-miterlimit:4;stroke-dasharray:none;stroke-opacity:1"
       d="m -19.245127,7.7095145 a 0.62514598,0.62514598 0 0 0 -0.624768,0.624768 v 0.670243 h -1.374593 v 1.3745935 h 0.670243 a 0.62514598,0.62514598 0 0 1 0.624768,0.624768 0.62514598,0.62514598 0 0 1 -0.624768,0.625285 h -0.670243 v 1.37511 h 3.999756 V 9.0045255 h -1.37511 v -0.670243 a 0.62514598,0.62514598 0 0 0 -0.625285,-0.624768 z" />
    <path
       id="rect5875-1-9-9"
       style="display:inline;fill:#008000;fill-opacity:1;stroke:none;stroke-width:0.1;stroke-linecap:square;stroke-miterlimit:4;stroke-dasharray:none;stroke-opacity:1"
       d="m -33.245822,5.0037375 v 4.000789 h 1.375109 v 0.670243 a 0.62514598,0.62514598 0 0 0 0.625285,0.6247685 0.62514598,0.62514598 0 0 0 0.624768,-0.6247685 v -0.670243 h 1.374593 v -1.375627 h 0.670244 a 0.62514598,0.62514598 0 0 0 0.624768,-0.625284 0.62514598,0.62514598 0 0 0 -0.624768,-0.624768 h -0.670244 v -1.37511 h -1.374593 v 0.670243 a 0.62514598,0.62514598 0 0 1 -0.624768,0.624768 0.62514598,0.62514598 0 0 1 -0.625285,-0.624768 v -0.670243 z" />
    <path
       id="rect5875-3-6"
       style="display:inline;fill:#ff0000;fill-opacity:1;stroke:none;stroke-width:0.1;stroke-linecap:square;stroke-miterlimit:4;stroke-dasharray:none;stroke-opacity:1"
       d="m -33.245822,1.0039819 v 3.9997556 h 1.375109 v 0.670243 a 0.62514598,0.62514598 0 0 0 0.625285,0.624768 0.62514598,0.62514598 0 0 0 0.624768,-0.624768 v -0.670243 h 1.374593 v -1.374593 h -0.670243 a 0.62514598,0.62514598 0 0 1 -0.624768,-0.624768 0.62514598,0.62514598 0 0 1 0.624768,-0.625285 h 0.670243 V 1.0039819 Z" />
    <path
       id="rect5875-6-24-4"
       style="display:inline;fill:#800000;fill-opacity:1;stroke:none;stroke-width:0.1;stroke-linecap:square;stroke-miterlimit:4;stroke-dasharray:none;stroke-opacity:1"
       d="m -29.246067,1.0039819 v 1.3751096 h -0.670243 a 0.62514598,0.62514598 0 0 0 -0.624768,0.625285 0.62514598,0.62514598 0 0 0 0.624768,0.624768 h 0.670243 v 1.374593 h 1.37511 v 0.670243 a 0.62514598,0.62514598 0 0 0 0.625285,0.624768 0.62514598,0.62514598 0 0 0 0.624768,-0.624768 v -0.670243 h 1.37511 v -1.374593 h -0.669727 a 0.62514598,0.62514598 0 0 1 -0.624768,-0.624768 0.62514598,0.62514598 0 0 1 0.624768,-0.625285 h 0.669727 V 1.0039819 Z" />
    <path
       id="rect5875-6-0-37-8"
       style="display:inline;fill:#800000;fill-opacity:1;stroke:none;stroke-width:0.1;stroke-linecap:square;stroke-miterlimit:4;stroke-dasharray:none;stroke-opacity:1"
       d="m -25.245277,1.0039819 v 1.3751096 h -0.670244 a 0.62514598,0.62514598 0 0 0 -0.624768,0.625285 0.62514598,0.62514598 0 0 0 0.624768,0.624768 h 0.670244 v 1.374593 h 1.375109 v 0.670243 a 0.62514598,0.62514598 0 0 0 0.625285,0.624768 0.62514598,0.62514598 0 0 0 0.624768,-0.624768 v -0.670243 h 1.37511 v -1.374593 h -0.669727 a 0.62514598,0.62514598 0 0 1 -0.624768,-0.624768 0.62514598,0.62514598 0 0 1 0.624768,-0.625285 h 0.669727 V 1.0039819 Z" />
  </g>
</svg>
