<?xml version="1.0" encoding="UTF-8" standalone="no"?>
<!-- Created with Inkscape (http://www.inkscape.org/) -->

<svg
   width="5mm"
   height="4.079134mm"
   viewBox="0 0 5 4.079134"
   version="1.1"
   id="svg63666"
   inkscape:version="1.1.2 (0a00cf5339, 2022-02-04)"
   sodipodi:docname="LogoSmall.svg"
   xmlns:inkscape="http://www.inkscape.org/namespaces/inkscape"
   xmlns:sodipodi="http://sodipodi.sourceforge.net/DTD/sodipodi-0.dtd"
   xmlns="http://www.w3.org/2000/svg"
   xmlns:svg="http://www.w3.org/2000/svg">
  <sodipodi:namedview
     id="namedview63668"
     pagecolor="#ffffff"
     bordercolor="#666666"
     borderopacity="1.0"
     inkscape:pageshadow="2"
     inkscape:pageopacity="0.0"
     inkscape:pagecheckerboard="0"
     inkscape:document-units="mm"
     showgrid="false"
     fit-margin-top="0"
     fit-margin-left="0"
     fit-margin-right="0"
     fit-margin-bottom="0"
     inkscape:zoom="20.724804"
     inkscape:cx="9.1195072"
     inkscape:cy="10.132786"
     inkscape:window-width="1920"
     inkscape:window-height="1023"
     inkscape:window-x="0"
     inkscape:window-y="0"
     inkscape:window-maximized="1"
     inkscape:current-layer="g4669" />
  <defs
     id="defs63663" />
  <g
     inkscape:label="F.SilkS"
     inkscape:groupmode="layer"
     id="g4669"
     transform="translate(6.918085,5.043919)"
     style="display:inline">
    <path
       style="color:#000000;display:inline;fill:#000000;stroke-width:0.362401;stroke-linecap:square;-inkscape-stroke:none"
       d="m -6.918085,-4.1966652 h 0.6674689 v 0.3220555 c 1.743e-4,0.288498 0.235923,0.5252621 0.5244905,0.525198 0.2884008,-1.744e-4 0.5250236,-0.2367971 0.5251979,-0.525198 v -0.3220555 h 0.6667612 v 0.899632 h 0.5542186 c 0.1632119,9.86e-5 0.2922285,0.1291151 0.2923274,0.2923271 3.59e-5,0.1633105 -0.1290597,0.2929362 -0.2923274,0.2930352 h -0.5542186 v 0.8996319 h -0.8989243 v 0.5542187 c -9.85e-5,0.1631445 -0.1298906,0.29293658 -0.2930348,0.29303515 -0.1632431,3.588e-5 -0.2922288,-0.12969965 -0.2923274,-0.29303515 V -1.812039 h -0.899632 z"
       id="path5363" />
    <path
       style="color:#000000;display:inline;fill:#000000;stroke-width:0.362401;stroke-linecap:square;-inkscape-stroke:none"
       d="m -3.1107518,-5.043919 c 0.1632424,-3.63e-5 0.2929362,0.1297667 0.2930348,0.2930352 v 0.5542186 h 0.899632 v 2.3846262 h -0.6674689 v -0.3227633 c -1.743e-4,-0.2885421 -0.2366746,-0.5245543 -0.5251979,-0.5244905 -0.2883581,1.74e-4 -0.5243162,0.2361328 -0.5244905,0.5244905 v 0.3227633 h -0.6667612 v -0.6674689 h 0.3220556 c 0.2885421,-1.746e-4 0.5245546,-0.2366742 0.5244905,-0.5251982 -1.743e-4,-0.2883574 -0.2361332,-0.5243155 -0.5244905,-0.5244902 h -0.3220556 v -0.6674689 h 0.8989243 v -0.5542186 c 9.85e-5,-0.1632123 0.1291825,-0.2929366 0.2923274,-0.2930352 z"
       id="path5367" />
  </g>
</svg>
